<?xml version="1.0" encoding="utf-8"?>
<!-- Generator: Adobe Illustrator 21.1.0, SVG Export Plug-In . SVG Version: 6.00 Build 0)  -->
<svg version="1.1" id="Layer_1" xmlns="http://www.w3.org/2000/svg" xmlns:xlink="http://www.w3.org/1999/xlink" x="0px" y="0px"
	 viewBox="0 0 2000 120" style="enable-background:new 0 0 2000 120;" xml:space="preserve">
<style type="text/css">
	.st0{fill:#23211E;}
	.st1{fill:#404041;}
	.st2{fill:#58595B;}
	.st3{fill:#FFFFFF;}
	.st4{fill:#363638;}
	.st5{fill:#9DA0A5;}
	.st6{fill:#E6E7E8;}
	.st7{fill:#D0D2D3;}
	.st8{fill:#C7C9CE;}
	.st9{fill:#FBF9F6;}
	.st10{fill:url(#SVGID_1_);}
	.st11{fill:#CED0D1;}
	.st12{fill:url(#SVGID_2_);}
	.st13{fill:#FFB8B8;}
	.st14{fill:#4B0000;}
	.st15{fill:#DF7223;}
	.st16{fill:#752E2F;}
	.st17{fill:#E47522;}
	.st18{fill:url(#SVGID_3_);}
	.st19{fill:#050000;}
	.st20{fill:#DFE0E2;}
	.st21{fill:#6A6C72;}
	.st22{fill:#898D94;}
	.st23{fill:#FF8B18;}
	.st24{fill:#35AADE;}
	.st25{fill:#DFE2E4;}
	.st26{fill:#6E2728;}
	.st27{fill:#D5DADC;}
	.st28{fill:#EC1C24;}
	.st29{fill:#525458;}
	.st30{fill:url(#SVGID_4_);}
	.st31{fill:#CCCCCC;}
	.st32{fill:url(#SVGID_5_);}
	.st33{fill:#EF4136;}
	.st34{fill:#BE1E2D;}
	.st35{fill:#F58F5B;}
	.st36{fill:#594A42;}
	.st37{fill:#696B6F;}
	.st38{fill:#A15641;}
	.st39{fill:#FFD72C;}
	.st40{fill:#373539;}
	.st41{fill:#2A1707;}
	.st42{fill:#B96E5D;}
</style>
<g>
	<polygon class="st0" points="41.5,50.8 18,69.3 20.7,88.2 30.8,99.4 93.5,100.6 246.3,102.3 298.4,93.1 305.3,91.3 291.5,57.4 
		246.8,45.5 	"/>
	<path class="st1" d="M146.9,6.2c-0.1,0-30.3,10.4-54.6,23c0,0-8,6.1-5.9,10.5l7.6,5.5l63.5-33.3l-5.8-4.2L146.9,6.2z"/>
	<path class="st1" d="M261.2,9.9c0,0,34.9,13.1,43.1,19l7.9,2.5l1.4,4.6l-7,5.1l-46.7-26.7L261.2,9.9z"/>
	<g>
		
			<ellipse transform="matrix(1 -4.979365e-03 4.979365e-03 1 -0.4628 0.3173)" class="st2" cx="63.5" cy="93.1" rx="20.6" ry="20.6"/>
		<polygon class="st3" points="63.4,72.7 67.9,86.7 82.7,86.7 70.7,95.4 75.3,109.4 63.4,100.7 51.4,109.4 56,95.4 44.1,86.7 
			58.8,86.7 		"/>
		<path class="st4" d="M44.3,112.2c10.6,10.5,27.7,10.4,38.2-0.2s10.4-27.7-0.2-38.2S54.6,63.4,44.1,74S33.7,101.7,44.3,112.2
			L44.3,112.2z M77.4,106.8L77.4,106.8c-7.7,7.7-20.1,7.8-27.9,0.1c-7.7-7.7-7.8-20.1-0.1-27.9c7.7-7.7,20.1-7.8,27.9-0.1
			C85,86.6,85,99.1,77.4,106.8z"/>
		<ellipse transform="matrix(1 -4.926393e-03 4.926393e-03 1 -0.4574 0.3134)" class="st5" cx="63.4" cy="93" rx="5.3" ry="5.3"/>
		<path class="st3" d="M49.4,79.1c7.7-7.7,20.1-7.8,27.9-0.1c7.7,7.7,7.8,20.1,0.1,27.9c-7.7,7.7-20.1,7.8-27.9,0.1
			C41.8,99.3,41.7,86.9,49.4,79.1L49.4,79.1z M63.4,114.5c11.9,0,21.6-9.7,21.6-21.6s-9.7-21.6-21.6-21.6S41.8,81,41.8,92.9
			C41.8,104.9,51.5,114.5,63.4,114.5z"/>
		<path class="st3" d="M61.3,72.1c0-0.6-2.5,14.6-2.5,14.6h9.5c0,0-2.6-14.3-2.5-14.7C65.9,71.6,61.3,72.1,61.3,72.1z"/>
		<path class="st3" d="M43.4,88.9c-0.5-0.1,12.9,6.5,12.9,6.5l2.7-8.8c0,0-14-1.7-14.4-1.9C44.2,84.6,43.4,88.9,43.4,88.9z"/>
		<path class="st3" d="M53.7,110.9c-0.3,0.5,10-10.4,10-10.4L56,95.4c0,0-5.7,12.9-5.9,13.2C49.8,108.9,53.7,110.9,53.7,110.9z"/>
		<path class="st3" d="M77.5,108.5c0.4,0.4-6.8-13.2-6.8-13.2l-7.6,5.7c0,0,10.6,9.9,10.8,10.3C74.2,111.6,77.5,108.5,77.5,108.5z"
			/>
		<path class="st3" d="M82.3,84.7c0.5-0.2-14.5,2.2-14.5,2.2l2.9,8.9c0,0,12.6-6.8,13-6.9C84.2,88.7,82.3,84.7,82.3,84.7z"/>
	</g>
	<g>
		
			<ellipse transform="matrix(1 -4.994242e-03 4.994242e-03 1 -0.4615 1.3746)" class="st2" cx="275" cy="93.1" rx="20.6" ry="20.6"/>
		<polygon class="st3" points="274.8,72.7 279.4,86.7 294.1,86.7 282.2,95.4 286.8,109.4 274.8,100.7 262.9,109.4 267.5,95.4 
			255.5,86.7 270.3,86.7 		"/>
		<path class="st4" d="M255.8,112.2c10.6,10.5,27.7,10.4,38.2-0.2s10.4-27.7-0.2-38.2s-27.7-10.4-38.2,0.2
			C245.1,84.6,245.2,101.7,255.8,112.2L255.8,112.2z M288.8,106.8L288.8,106.8c-7.7,7.7-20.1,7.8-27.9,0.1
			c-7.7-7.7-7.8-20.1-0.1-27.9c7.7-7.7,20.1-7.8,27.9-0.1C296.4,86.6,296.5,99.1,288.8,106.8z"/>
		<ellipse transform="matrix(1 -4.945267e-03 4.945267e-03 1 -0.4566 1.3601)" class="st5" cx="274.8" cy="93" rx="5.3" ry="5.3"/>
		<path class="st3" d="M260.8,79.1c7.7-7.7,20.1-7.8,27.9-0.1c7.7,7.7,7.8,20.1,0.1,27.9c-7.7,7.7-20.1,7.8-27.9,0.1
			C253.2,99.3,253.2,86.9,260.8,79.1L260.8,79.1z M274.8,114.5c11.9,0,21.6-9.7,21.6-21.6s-9.7-21.6-21.6-21.6s-21.6,9.7-21.6,21.6
			C253.3,104.9,262.9,114.5,274.8,114.5z"/>
		<path class="st3" d="M272.8,72.1c-0.1-0.6-2.5,14.7-2.5,14.7h9.5c0,0-2.6-14.3-2.5-14.7C277.3,71.6,272.8,72.1,272.8,72.1z"/>
		<path class="st3" d="M254.9,88.9c-0.5-0.1,12.9,6.5,12.9,6.5l2.7-8.8c0,0-14-1.7-14.4-1.9C255.7,84.6,254.9,88.9,254.9,88.9z"/>
		<path class="st3" d="M265.1,110.9c-0.3,0.5,10-10.4,10-10.4l-7.7-5.1c0,0-5.7,12.9-5.9,13.2C261.2,108.9,265.1,110.9,265.1,110.9z
			"/>
		<path class="st3" d="M288.9,108.5c0.4,0.4-6.8-13.2-6.8-13.2l-7.6,5.7c0,0,10.6,9.9,10.8,10.3
			C285.6,111.6,288.9,108.5,288.9,108.5z"/>
		<path class="st3" d="M293.8,84.7c0.5-0.2-14.5,2.2-14.5,2.2l2.9,8.8c0,0,12.6-6.8,13-6.9S293.8,84.7,293.8,84.7z"/>
	</g>
	<path class="st6" d="M1,75.9c-2.5-7.3,0.2-12.7,2.7-18.6c3.8-8.9,72.7-25.6,89.9-28.8c0,0-7,3.5-0.3,9.7c0,0,45.9-24.5,57-29
		l-3.5-3.5c0,0,43.5-13.8,114.3,4.1v2.1L305,34.7c0,0,9.4-1.4-0.6-5.9c19.3,6.2,25.8,6.6,26.9,10L331,57.4v5.5c0,0,8.3,3.1,7.3,9
		S335.5,83,335.5,83l-1.7,1l-0.7,7.3c0,0-17.4,9.7-31.2,10.7c3.7-17.5-2.7-34.8-28.7-34c-22.8,0.9-27,24.1-27,24.1l-0.3,9.7
		l-0.3,2.1l-150.9-2.8v-6.6v-2.1c0,0-0.2-23.2-31.6-25c-31.4-1.7-30.6,30.4-30.6,30.4l-0.7,4.8c0,0-24.1-0.3-28.7-9.7
		C3,93,2.7,80,1,75.9z"/>
	<path class="st7" d="M102.2,101.2l-7.6-0.1v-6.6v-2.1c0,0-0.2-23.2-31.6-25c-31.4-1.7-30.6,30.4-30.6,30.4l-0.7,4.8
		c0,0-24.1-0.3-28.7-9.7c0,0-0.1-3.6-0.4-7.6l20.6,3c0,0,3.2-9.6,13-18.7c18.7-17.3,49-12.6,62.9,10.1c3.6,5.9,5.2,16.7,5.2,16.7
		S103.6,98.4,102.2,101.2z"/>
	<path class="st7" d="M330.8,63.1c0,0,8.3,3.1,7.3,9s-2.8,11.1-2.8,11.1l-1.7,1l-0.7,7.3c0,0-17.4,9.7-31.2,10.7
		c2.6-16.5-2.7-34.8-28.7-34c-22.6,0.7-26.8,23.9-26.8,23.9l-0.2,6c-5.8-2-9.5-3.5-9.5-3.5c5.6-22.2,21.4-41.5,46.8-34.7
		c11.8,3.2,18.9,13.3,18.9,13.3s7.5-0.9,14.4-3.5C323.5,67.2,330.8,63.1,330.8,63.1z"/>
	<polygon class="st7" points="94.2,92.8 94.9,100.8 245.2,103.8 245.7,101.8 246.1,92.8 242.2,92.6 237.4,94.6 102.9,94.4 
		101.5,92.6 	"/>
	<path class="st8" d="M0.7,75l1.9,10.4c0,0,18.5,3.9,20.6,3l-1.5-9C21.7,79.4,3,78.2,0.7,75z"/>
	<path class="st9" d="M6.6,57.8c0,0,2.1-3.5,4.5-5c0,0,3.1-0.2,8.5,1.2s9,1.9,9,1.9s5.7,1.4-2.6,4s-13.8,2.4-16.9,0.9
		C5.9,59.2,6.6,57.8,6.6,57.8z"/>
	<path class="st1" d="M99.5,44c0,0,36.4-25.6,58-32c0,0,10.5-4.1,34.4-4.2c5.6,16.8,4.7,14,9.7,33c-17.3,0.5-31,0.9-31,0.9L99.5,44
		L99.5,44z M197.8,7.8l9.4,32.8c26.6-0.8,58.9-1.7,63.8-1.7c8.5,0-0.9-9.2-0.9-9.2c-3-2.8-14.5-10.1-14.5-10.1
		C248,15.9,236.5,9.7,204,8.1C201.8,8,199.8,7.9,197.8,7.8z"/>
	<ellipse class="st2" cx="174.5" cy="51.8" rx="8.7" ry="1.5"/>
	<ellipse class="st2" cx="257" cy="48.3" rx="8.7" ry="1.5"/>
	
		<linearGradient id="SVGID_1_" gradientUnits="userSpaceOnUse" x1="324.5055" y1="421.4814" x2="321.5694" y2="436.586" gradientTransform="matrix(1 0 0 1 0 -377.3)">
		<stop  offset="0" style="stop-color:#F3807C"/>
		<stop  offset="0.5" style="stop-color:#EE3D57"/>
		<stop  offset="1" style="stop-color:#DD1E47"/>
	</linearGradient>
	<path class="st10" d="M331,45.3c0,0-9.1-0.2-13.6,1.1s-3.3,9.1,0.2,11.4c2.4,1.6,10.9,0.5,13,0C330.7,57.8,332.7,49.7,331,45.3z"/>
	<path class="st11" d="M115.1,46.7c-3.1,0.9-15.6,0.1-16.3-2.6c-0.8-2.8,10.1-9.7,16.4-9.1L115.1,46.7z"/>
	
		<linearGradient id="SVGID_2_" gradientUnits="userSpaceOnUse" x1="2.7604" y1="-806.7281" x2="2.7604" y2="1692.0297" gradientTransform="matrix(1 0 0 1 0 -377.3)">
		<stop  offset="0" style="stop-color:#FFFFFF"/>
		<stop  offset="1" style="stop-color:#231F20"/>
	</linearGradient>
	<path class="st12" d="M3.8,57c0,0,1.5-1.3,1.6,2.9c0.1,4.3-0.9,13.9-2.4,14c-1.5,0-2.7-0.9-2.8-1.3C-0.5,61.9,3.8,57,3.8,57z"/>
</g>
<g>
	<path class="st13" d="M620.7,50.7c19.9,0,38.2,14.2,44.3,41.2c-0.1,0.6-0.3,0.6-0.6,0.8c-1.6,1.4-3.1,2.2-3,6c-5.7,0-9.7,0-9.7,0
		s-2.8-0.9-3.4-2.8c-0.6-1.9-2.6-13.1-6-19.1c-3.4-6-11.8-15.9-24.8-15.9c-13.1,0-21.4,10-30.2,22.9c-2.4,3.5-4.6,5.3-4.8,6.6
		c-0.3,1-0.8,0.8-1.1,0.7c-0.3-0.1-1.5-0.7-1.1-2c0.5-1.3,2.6-8,3.3-9.9s2.1-8.1,2.1-10.4s2.1-8.1,3.5-9.5c1.4-1.5,1.9-1.8,3.7-2.7
		C594.8,55.6,606.7,50.7,620.7,50.7z"/>
	<path class="st13" d="M609.6,51.7c7.1-3.5,17.3-5.8,23.6-6.8c7.3-1.2,15.8-2.2,27.9-2.4c1.4-1,2.9-2.8,3.6-4.1s0-3.2-0.9-5.5
		c0,0-6.7,0.5-11.4,0.9c-19.7,1.6-30,4.8-38.8,8.3s-15.3,9.1-17.4,11.3c-1.2,1.3-1.9,2.2-2.4,2.9C596.2,55.2,602,53,609.6,51.7z"/>
	<path class="st13" d="M856,76.3c-2.8-3.9-9-18.7-17.7-22c-1.5-0.6-2.8-1.1-3.8-1.5c0,0,0,0,0,0.1c-1.3-0.5-9-2.9-14.9-3.1
		c-10.9-0.6-21.2,1.1-27.9,6c-6.3,4.6-16.7,13.5-18.7,36.8h-0.1c0,0.4,0.1,1.3,0.3,1.8c0.3,0.7,1.3,2.3,0.1,3.5
		c-0.3,0.4-0.2,0.6,0.1,0.6c1.6,0.2,3.3,0.9,5.6,0.1s2.8-4.2,3.2-6.5s1.7-9,3.8-12.8s10-15.5,26.2-15.5c18,0,24.4,12.3,28.7,19.6
		c4.4,7.3,11,12.4,25.7,12.2c2.6-0.1,2.6-0.1,2.6-0.1C866.1,90,858.8,80.2,856,76.3z"/>
	<path class="st13" d="M834.2,52.4c-7.9-9.3-17.3-18.2-21.5-21.8s-18.4-14.8-33.8-18.8c-15.3-4-25.8-4.7-35.8-4.7l-0.4,85.5
		c0,0,25.1,0,30.4,0c2-23.3,12.4-32.2,18.7-36.8c6.6-4.9,17-6.6,27.9-6c5.9,0.1,13.5,2.6,14.9,3.1C834.4,52.7,834.3,52.5,834.2,52.4
		L834.2,52.4z M801.8,35.2L801.8,35.2c-0.7,1.8-2,5.3-9,5.3c-7,0.1-41-0.7-43.3-0.7s-4.3-1.3-4.3-3.9V14.1c0-2.4,1.8-4.3,4.7-4.3
		c3.9,0,18.5,0.6,32,5.5c13.4,4.9,16.8,9.9,18.6,12.3S802.6,33.5,801.8,35.2z"/>
	<path class="st13" d="M672.4,35l-1.9-1.3c0,0-1.2-0.5-2.7-1.3c0,0-1.3,0.2-3.4,0.4c0.7,1.6,1.2,3.8,1.2,4.7
		c-0.1,0.9-1.8,3.4-4.1,5.5c-1.2,0.1-13.5,0.4-26.4,2.2c-10.4,1.5-19.5,4.9-22.5,6.1c2.6-0.3,5.3-0.5,8.1-0.5
		c19.8,0,38.2,14.2,44.3,41.1h2.4c0,0-0.4-33.6-0.6-48.8C666.8,43,670.7,37.6,672.4,35z"/>
	<path class="st14" d="M841,42.4c0,0,5.8,5.7,6.8,6.6c0.9,0.9,0.4,2.7,0.4,2.7l-2.4,1l-5-2.2l-1.6-4.7L841,42.4z"/>
	<polygon class="st15" points="836,38 837.4,39.1 836.7,43.4 834.7,46.9 853,56.5 857.4,71.9 860.7,81.7 856.5,84.1 833.3,54.6 
		827.4,53.5 830.9,46.4 831.5,41.3 	"/>
	<path class="st16" d="M652,97.8c0,0-3.4,5.7-11,8c-7.6,2.3-34.7-0.4-34.7-0.4l-11.7-13.2c0,0-3.7-0.4-4.6,0
		c-0.9,0.4-5.6-5.8-5.6-5.8l8.8-13.5l8.3-9.6l18.9-5.4l15.4,4.1l10.7,14.3l6.5,15.6L652,97.8z"/>
	<path class="st16" d="M779.9,96.7c0,0,2.4,3.4,3.4,4.5s2.5,2.6,4.9,3.7s46-8.4,46-8.4c8.1,0,8.2-0.1,16.4-0.7
		c3-0.2,16.5-0.8,16.5-0.8l-8-2l-8.9-3.8L842.3,79l-5.8-6.6l-10.8-8.3l-8.9-2.9L802,63.6l-8.7,3.2l-8.2,8.8l-4.9,8.9l-1.1,9.5
		L779.9,96.7z"/>
	<path class="st17" d="M667,91.3l-3,0.1l-2.6,3.3l-0.4,3.6c0,0,0.9,0.7,1.7,0.8c32.1-0.2,111.4-0.9,111.4-0.9l0.5-3.1l-0.9-1.6v-1.7
		l-2.6-1.1l-33.9-1.3l-33.9-1.6l-32.6,2.7l-2,0.5l-0.2,0.3H667z"/>
	<polygon class="st15" points="666.1,88.7 666.7,92.9 774.8,92.9 782.9,70.7 837.8,49.5 800.5,16.6 789.6,11.4 779.8,9.1 761.7,6.2 
		748.2,2.8 742.6,4.9 706.9,6 689.5,10.6 682.9,15.4 669.9,36 664.8,43.4 663.8,73 	"/>
	
		<linearGradient id="SVGID_3_" gradientUnits="userSpaceOnUse" x1="866.8779" y1="37.6273" x2="866.8779" y2="23.4637" gradientTransform="matrix(1 0 0 -1 0 122)">
		<stop  offset="0" style="stop-color:#4C3F4F"/>
		<stop  offset="0" style="stop-color:#4C3F4F"/>
		<stop  offset="0.23" style="stop-color:#474E64"/>
		<stop  offset="1" style="stop-color:#475C7B"/>
	</linearGradient>
	<path class="st18" d="M869.4,87.8c0,0,1,5.2,0.5,6.2s-1.7,1-1.7,1l-4.5-6.2L869.4,87.8z"/>
	<polygon class="st15" points="663.6,33.1 664.7,37.1 660.8,41.9 645.5,42.6 625.5,45.2 608.6,51.3 609.5,52.3 613.2,52 629.4,47 
		651,44.5 662.1,43.7 666.2,39.2 666.1,35.1 664.9,33 	"/>
	<path class="st19" d="M736.1,39.8c0,0-0.2,0-0.6,0C735.9,39.8,736.1,39.8,736.1,39.8L736.1,39.8z M738.5,39.2L738.5,39.2
		L738.5,39.2c-0.1,0-0.1,0.1-0.2,0.1C738.3,39.3,738.4,39.2,738.5,39.2L738.5,39.2z M736.4,10.4L736.4,10.4c2,0,3.6,1,3.6,3.6v22.1
		c0,1.7-0.8,2.6-1.6,3.1c0-0.1,0-0.2,0-0.3V17.4c0-2.6-1.4-3.5-3.2-3.5s-16.2-0.1-22.5,0.6c-6.3,0.7-13,2.1-17.4,4.1
		s-5.9,5.1-6.6,6.4c-0.7,1.3-4.6,8.3-5.2,9.6c-0.6,1.3-1,2.4-1,3.6c0,0.4,0,0.8,0.1,1.2c-1.2,0-2,0-2.4,0c-3.6,0-4.1-2.6-4.1-4.1
		c0-1.3,0.5-2.4,1.2-3.8c0.7-1.3,5.2-8.6,6-9.9c0.8-1.3,2.5-4.5,7.6-6.6c5-2.1,12.7-3.5,19.9-4.2C718,10.3,734.4,10.4,736.4,10.4
		L736.4,10.4z M737.6,39.6L737.6,39.6c-0.4,0.1-0.8,0.2-1,0.2C736.9,39.7,737.2,39.7,737.6,39.6z"/>
	<path class="st19" d="M800.5,27.6c-1.8-2.4-5.1-7.4-18.6-12.3c-13.4-4.9-28-5.5-32-5.5c-2.9,0-4.7,1.9-4.7,4.3v21.8
		c0,2.6,2,3.9,4.3,3.9s36.3,0.8,43.3,0.7s8.2-3.6,9-5.3C802.6,33.5,802.3,30,800.5,27.6L800.5,27.6z M791.4,35L791.4,35
		c-0.6,1.4-1.7,3.5-7.7,3.6c-5.2,0.1-28.2-0.5-35.6-0.7c-1.1-0.6-1.2-2.3-1.2-2.3s0.1-6.8,0.1-10.8l0.1-10.5
		c3.6,0,15.9,0.5,27.3,4.4c11.5,4,14.5,8,16,10C791.8,30.7,792,33.6,791.4,35z"/>
	<path class="st1" d="M801.8,11.7c-0.1,0.3-0.5,2.2,1.8,4.3c2.4,2,13.6,12.2,16.2,14.4c2.6,2.2,5.1,4.3,5.8,4.5s2.2,0.7,3.2-0.1
		c0.8-0.8,1.5-1.7,2-2.8c-4.2-4.1-11.3-9.8-15.9-12.8c-4.2-2.7-11.4-7.2-12.8-8.1C802,11.2,801.8,11.5,801.8,11.7z"/>
	<circle class="st4" cx="618.9" cy="93.3" r="25.1"/>
	<circle class="st20" cx="618.9" cy="93.3" r="20.9"/>
	<circle class="st21" cx="618.9" cy="93.3" r="16.9"/>
	<circle class="st4" cx="618.9" cy="93.3" r="12.9"/>
	<circle class="st22" cx="618.9" cy="93.3" r="9.9"/>
	<circle class="st4" cx="811.1" cy="94.5" r="25.1"/>
	<circle class="st20" cx="811.1" cy="94.5" r="20.9"/>
	<circle class="st21" cx="811.1" cy="94.5" r="16.9"/>
	<circle class="st4" cx="811.1" cy="94.5" r="12.9"/>
	<circle class="st22" cx="811.1" cy="94.5" r="9.9"/>
	<path class="st13" d="M585.9,73.5c0.3-0.4,2.4-0.8,3.2-1.2c0-2.4-1.1-11.6,0.3-13.1c0.1-0.1,0.2-0.2,0.2-0.3
		c-1.1,0.4-4.3,0.5-4.9,0.7c-2,0.9-0.9,8.7-1,10.7C583.7,70.4,585.5,73.9,585.9,73.5z"/>
	<path class="st23" d="M672.4,35l-1.9-1.3c0,0,2.8-1.3,1.3-2.1c0,0-5.3,1-7.4,1.2c0.7,1.6,1.2,3.8,1.2,4.7c-0.1,0.9-1.8,3.4-4.1,5.5
		c-1.2,0.1-13.5,0.4-26.4,2.2c-10.4,1.5-19.5,4.9-22.5,6.1c2.6-0.3,5.3-0.5,8.1-0.5c19.8,0,38.2,14.2,44.3,41.1h2.4
		c0,0-0.4-33.6-0.6-48.8C666.8,43,670.7,37.6,672.4,35z"/>
	<path class="st24" d="M800.5,27.6c-1.8-2.4-5.1-7.4-18.6-12.3c-13.4-4.9-28-5.5-32-5.5c-2.9,0-4.7,1.9-4.7,4.3v21.8
		c0,2.6,2,3.9,4.3,3.9s36.3,0.8,43.3,0.7s8.2-3.6,9-5.3C802.6,33.5,802.3,30,800.5,27.6z"/>
	<path class="st23" d="M833.8,44.4c2.1-3.1,2-3.8,2.8-6.4c0,0-4.4-5.2-5.7-6.6c-0.4,1.4-1.1,2.4-2.1,3.2c-0.9,0.9-2.4,0.3-3.2,0.1
		c-0.7-0.2-3.2-2.3-5.8-4.5S806,17.8,803.6,15.8s-1.9-3.9-1.8-4.3c0.1-0.3,0.5-0.9-0.3-1.3C781.9,0,715.5-5,695.2,4.1
		c-6.8,3-12.5,8.5-17.9,18.4c-1.1,2-5.8,9.4-6.9,11.1h0.1l0.8,0.5c-2.5,4-5,7.9-5,7.9l0.3,49.6l76.2,0.3l0,0h0.9h29.5
		c2-23.3,12.3-31.7,18.7-36.3c6.6-4.9,17-6.6,27.9-6c5.9,0.1,13.5,2.6,14.9,3.1c-0.1-0.2-0.2-0.3-0.3-0.5
		c-5.3-6.3-11.3-12.3-15.9-16.7c4.7,4.4,10.7,10.5,16.1,16.9C833.7,51.4,831.7,47.5,833.8,44.4L833.8,44.4z M764.2,8.7L764.2,8.7
		c0.6,0.1,1.1,0.2,1.7,0.3C765.3,8.9,764.7,8.8,764.2,8.7L764.2,8.7z M775.5,10.9L775.5,10.9c0.5,0.1,0.9,0.2,1.4,0.3L775.5,10.9z"
		/>
	<path class="st24" d="M740.1,14c0-2.6-1.6-3.6-3.6-3.6S718,10.3,710.8,11c-7.2,0.7-14.8,2.1-19.9,4.2c-5,2.1-6.7,5.3-7.6,6.6
		c-0.8,1.3-5.3,8.6-6,9.9c-0.7,1.3-1.2,2.5-1.2,3.8c0,1.4,0.5,4.1,4.1,4.1s55.9,0.3,55.9,0.3s4,0.2,4-3.6V14z"/>
	<path class="st23" d="M613.2,52c7.3-3.5,15.1-4,21.6-5.1c7.5-1.2,14.9-3,27.3-3.2c1.4-1,3.8-4.1,4.5-5.4c0.7-1.3,0-3.2-0.9-5.5
		c0,0-6.9,0.5-11.7,0.9c-20.2,1.6-30.8,4.8-39.8,8.3s-15.7,9.1-17.8,11.3c-1.2,1.3-2,2.2-2.4,2.9C596.3,55.2,605.5,53.2,613.2,52z"
		/>
	<path class="st17" d="M593.1,56.6c-1.8,0.9-2.3,1.2-3.7,2.7c-1.4,1.5-3.5,7.2-3.5,9.5s-1.4,8.6-2.1,10.4c-0.7,1.9-2.9,8.6-3.3,9.9
		c-0.5,1.3,0.8,1.9,1.1,2s0.8,0.3,1.1-0.7c0.2-1.3,2.4-3.1,4.8-6.6c8.8-12.9,17.1-22.9,30.2-22.9c13.1,0,21.4,9.9,24.8,15.9
		c3.4,6,5.4,17.2,6,19.1c0.6,1.9,3.4,2.8,3.4,2.8s4,0,9.7,0c-0.1-3.8,1.4-4.6,3-6c0.3-0.2,0.5-0.2,0.6-0.8
		c-6.1-27-24.4-41.2-44.3-41.2C606.7,50.7,594.8,55.6,593.1,56.6z"/>
	<path class="st17" d="M856,76.3c1,1.3,2.4,3.3,4.1,5.6l3.8-0.9c-2.6-1.4-4.6-26.6-27-42.8c0,0-0.2,2.8-1,4.2c-0.9,1.4-1.7,3-2,3.6
		s-1,2.5,1.2,7.1C846.3,58.6,848.5,65.9,856,76.3z"/>
	<path class="st3" d="M872.5,94.9h-11c-2.3,0-4.1-1.7-4.1-3.8v-6.7c0-2.1,1.8-3.8,4.1-3.8h11c2.3,0,4.1,1.7,4.1,3.8v6.7
		C876.7,93.2,874.8,94.9,872.5,94.9z"/>
	<circle class="st25" cx="618.9" cy="93.3" r="5.6"/>
	<circle class="st25" cx="811.1" cy="94.5" r="5.6"/>
	<path class="st26" d="M725.9,47.9c0,0,1.8-0.6,6.1-0.8s7-0.3,8.4-0.3c0.4,0,0.5,0.1,0.5,0.6s0,1.2,0,1.5c0,0.2-0.2,0.3-0.5,0.3
		s-6.9-0.7-9.9-0.6c-3,0-4.2,0.2-4.5,0.2C725.8,48.8,725.4,48.1,725.9,47.9z"/>
	<path class="st27" d="M854.1,73.1c0.3-0.6,0.5-1.3,0.6-2.3c0.2-1.7-0.1-7.9-0.1-7.9c-0.1-1.4-1.1-3.4-1.4-4
		c-0.3-0.5-0.9-1.1-1.8-1.3c-0.9-0.1-2.8-0.3-4.9-0.3c-1.2,0-2.7-0.1-3.7-0.2C847.7,61.3,851.5,68.6,854.1,73.1z"/>
	<path class="st28" d="M854.5,62.4c-0.2-1.3-1.1-3.1-1.4-3.6c-0.3-0.5-0.9-1.1-1.8-1.3c-0.9-0.1-2.8-0.3-4.9-0.3
		c-1.2,0-2.7-0.1-3.7-0.2c1.8,1.5,3.4,3.4,4.9,5.5c1.8,2.4,3.3,5,4.6,7.3c0.9,0.1,1.8,0.1,2.5,0.1c0.1-2.3-0.1-7.1-0.1-7.1
		C854.6,62.7,854.6,62.5,854.5,62.4z"/>
	<path class="st6" d="M589.3,92.1h-11.1c-2.3,0-4.2-1.9-4.2-4.2v-7.4c0-2.3,1.9-4.2,4.2-4.2h11.1c2.3,0,4.2,1.9,4.2,4.2V88
		C593.5,90.3,591.6,92.1,589.3,92.1z"/>
	<path class="st1" d="M738.5,39.2c0.9-0.5,1.6-1.4,1.6-3.1V14c0-2.6-1.6-3.6-3.6-3.6S718,10.3,710.8,11c-7.2,0.7-14.8,2.1-19.9,4.2
		c-5,2.1-6.7,5.3-7.6,6.6c-0.8,1.3-5.3,8.6-6,9.9c-0.7,1.3-1.2,2.5-1.2,3.8c0,1.4,0.5,4.1,4.1,4.1c0.4,0,1.2,0,2.4,0
		c11,0,53.5,0.2,53.5,0.2s1.1,0,2.1-0.5L738.5,39.2z"/>
	<path class="st1" d="M745.3,14.1v21.8c0,2.6,2,3.9,4.3,3.9s36.3,0.8,43.3,0.7s8.2-3.6,9-5.3c0.7-1.8,0.5-5.2-1.3-7.6
		s-5.1-7.4-18.6-12.3c-13.4-4.9-28-5.5-32-5.5C747.1,9.8,745.3,11.7,745.3,14.1z"/>
	<path class="st29" d="M677.7,41.7c-3.1-0.1-5.6-3.2-5.6-7s2.5-6.9,5.6-7V41.7z"/>
	<path class="st17" d="M855.7,76.5c-11-15.2-14.8-24.9-36.1-26.2c-10.9-0.6-20.1,0.9-26.8,5.8C774.5,68.7,774,89,774.3,92.9h-1.1
		c0.3,0.7,1.4,3.7,0.2,4.9c-0.3,0.4-0.2,0.6,0.1,0.6c1.6,0.2,3.3,0.9,5.6,0.1s2.8-4.2,3.2-6.5s1.7-9,3.8-12.8s10-15.5,26.2-15.5
		c18,0,24.4,12.3,28.7,19.6c4.4,7.3,11,12.4,25.7,12.2c2.6-0.1,2.6-0.1,2.6-0.1C865.5,88.9,860.2,82.6,855.7,76.5z"/>
</g>
<g>
	
		<linearGradient id="SVGID_4_" gradientUnits="userSpaceOnUse" x1="1070.7087" y1="59.6494" x2="1086.2432" y2="59.6494" gradientTransform="matrix(-1 0 0 -1 2249.6003 122)">
		<stop  offset="0" style="stop-color:#6A8991"/>
		<stop  offset="0.53" style="stop-color:#335C64"/>
		<stop  offset="1" style="stop-color:#02383C"/>
	</linearGradient>
	<path class="st30" d="M1178.2,53.9c0,0-6.9,7.7-8.5,16.9C1169.7,70.9,1184.3,64.6,1178.2,53.9z"/>
	<polygon class="st31" points="1178.4,55.2 1173.2,62.4 1175.2,60.7 1174.5,62.8 1173.4,63.5 1172.7,64.7 1172.7,66.1 1173.2,66.1 
		1171.9,66.8 1171.9,67.5 1172.2,67.9 1173.8,67.9 1174.9,66.7 1176.7,65.3 1178.6,63.4 1178.6,61.4 1179.2,59.2 	"/>
	<path class="st1" d="M1165.9,104.4c-2.1-0.1-4.2-0.2-6.3-0.4l8.9-28.9l32.3-13.5l29.8,1.1l130,0.6l36.7,5.8l6.2,35.3
		C1403.5,104.4,1165.9,104.4,1165.9,104.4z"/>
	<path class="st1" d="M1258.9,11.3l6.3,1.5l3,1.9c0,0-17.5,3.5-35.4,29.2l-25.4-3C1207.4,40.9,1223.3,22.6,1258.9,11.3z"/>
	
		<linearGradient id="SVGID_5_" gradientUnits="userSpaceOnUse" x1="839.8734" y1="77.9502" x2="856.7963" y2="77.9502" gradientTransform="matrix(-1 0 0 -1 2249.6003 122)">
		<stop  offset="0" style="stop-color:#BC352E"/>
		<stop  offset="0.13" style="stop-color:#DD4D2F"/>
		<stop  offset="0.21" style="stop-color:#BE4A2B"/>
		<stop  offset="0.33" style="stop-color:#D35A39"/>
		<stop  offset="0.46" style="stop-color:#EC6B4E"/>
		<stop  offset="0.62" style="stop-color:#EE5F3C"/>
		<stop  offset="0.91" style="stop-color:#ED4E2C"/>
		<stop  offset="1" style="stop-color:#BC4C24"/>
		<stop  offset="1" style="stop-color:#BC4C24"/>
	</linearGradient>
	<path class="st32" d="M1396.4,32.3l1.5-0.8c2.7-0.1,12.2,21.8,8.2,25.1C1406,56.6,1393.1,43.7,1396.4,32.3z"/>
	<path class="st33" d="M1389.1,17.2c-1.6-3.1,7.3-3.6,5.6-5.8c0,0-84.2-13.5-135.8,0l6.3,1.5c0,0-22.4,8.5-33.2,29.5l-24.8-2.8
		c-21.7,4.9-45.3,8.7-52.5,32.7l0.3,20.4l-2.2,2.2l0.6,7.7l2.8,0.8c0,0,5.9,1.8,9,1.8c0,0-1.6-30.9,26.9-30.5
		c27.1-0.8,26.8,27.9,26.8,27.9h132c0,0-2.6-29.1,28.6-27.9c26.1,1,22.5,31.2,22.5,31.2l3.9-1.1c0,0,3.9-24,4.7-31.5
		c0,0-2.8-5-2.8-9.7C1407.6,63.5,1401.2,29.9,1389.1,17.2z"/>
	<path class="st34" d="M1151.8,86.6l1.4,15.9l2.8,0.8c0,0,5.9,1.8,9,1.8c0,0-1.6-30.9,26.9-30.5c27.1-0.8,26.8,27.9,26.8,27.9h132
		c0,0-2.6-29.1,28.6-27.9c26.1,1,22.5,31.2,22.5,31.2l6.5-1.6c0,0,1.4-8.9,2.7-17.5c-1.6-0.5-5.7-0.8-6-0.9
		c-4.4-14-16.1-21.3-28.2-22c-21.8-1.3-31.3,21-33.6,33.3c-38.6-0.2-77.3-0.4-115.9-0.6c-7.6-43.2-50.9-40.4-67.2-10.7
		C1159.9,85.9,1154.3,86.3,1151.8,86.6z"/>
	<path class="st1" d="M1369.4,16.6c-9.8-3.7-47.6-4.4-58.5-4.6l3.4,31.6h66.9C1379.8,35.6,1377.6,17.3,1369.4,16.6L1369.4,16.6z
		 M1310.4,43.6l-2.2-31.6c-5.5,0-11.2,0-17,0.2c-32.7,1.2-47.9,24.3-51.8,31.3L1310.4,43.6L1310.4,43.6z"/>
	<path class="st35" d="M1252.4,35.4c0,0,3.3,6.1-1.1,11C1251.3,46.4,1235.9,40.4,1252.4,35.4z"/>
	<path class="st3" d="M1158.4,68.6c3.6-9.5,9.3-13.3,17.3-17.3c7.7-0.8,7.9,4.9,4.8,10.1C1177.3,66.7,1163.5,77.2,1158.4,68.6z"/>
	<path class="st36" d="M1309.6,52.2v-1c0-0.9-0.5-1.6-1.2-1.6l-14.7-0.1c-0.7,0-1.2,0.7-1.2,1.6v1L1309.6,52.2z"/>
	<path class="st36" d="M1339.8,52.6v-1c0-0.9-0.5-1.6-1.2-1.6h-14.7c-0.7,0-1.2,0.7-1.2,1.6v1H1339.8z"/>
	<g>
		<path class="st4" d="M1207,113.6c8.1-8,8.2-21.1,0.1-29.2c-8-8.1-21.1-8.2-29.2-0.1c-8.1,8-8.2,21.1-0.1,29.2
			C1185.8,121.6,1198.9,121.6,1207,113.6L1207,113.6z M1181.8,88.2c5.9-5.9,15.4-5.8,21.3,0.1c5.8,5.9,5.8,15.4-0.1,21.3
			c-5.9,5.9-15.4,5.8-21.3-0.1l0,0C1175.9,103.6,1175.9,94.1,1181.8,88.2z"/>
		
			<ellipse transform="matrix(4.940045e-03 -1 1 4.940045e-03 1087.6154 1290.8594)" class="st3" cx="1192.4" cy="98.9" rx="17.1" ry="17.1"/>
		
			<ellipse transform="matrix(4.955948e-03 -1 1 4.955948e-03 1087.5963 1290.8579)" class="st29" cx="1192.4" cy="98.9" rx="15.1" ry="15.1"/>
		
			<ellipse transform="matrix(0.7106 -0.7036 0.7036 0.7106 275.446 868.2078)" class="st37" cx="1193.1" cy="99.3" rx="5.2" ry="5.2"/>
		<path class="st3" d="M1194.1,115.4h-2.2l-0.8-11.4l-8.7,7.4l-1.5-1.5l7.5-8.7l-11.4-1V98l11.4-0.8l-7.4-8.7l1.5-1.5l8.7,7.5
			l1-11.4h2.2l0.8,11.4l8.7-7.4l1.5,1.5l-7.5,8.7l11.4,1v2.2l-11.4,0.8l7.4,8.7l-1.5,1.5l-8.7-7.5L1194.1,115.4L1194.1,115.4z
			 M1195.6,100.3v-2l-1.4-1.4h-2l-1.4,1.4v2l1.4,1.4h2L1195.6,100.3z"/>
	</g>
	<g>
		<path class="st4" d="M1391.1,113.6c8.1-8,8.2-21.1,0.1-29.2c-8-8.1-21.1-8.2-29.2-0.1c-8.1,8-8.2,21.1-0.1,29.2
			C1369.9,121.6,1383,121.6,1391.1,113.6L1391.1,113.6z M1366,88.2c5.9-5.9,15.4-5.8,21.3,0.1s5.8,15.4-0.1,21.3
			c-5.9,5.9-15.4,5.8-21.3-0.1l0,0C1360,103.6,1360.1,94.1,1366,88.2z"/>
		
			<ellipse transform="matrix(4.937118e-03 -1 1 4.937118e-03 1270.912 1475.0021)" class="st3" cx="1376.6" cy="98.9" rx="17.1" ry="17.1"/>
		
			<ellipse transform="matrix(4.952626e-03 -1 1 4.952626e-03 1270.8904 1475.0005)" class="st29" cx="1376.6" cy="98.9" rx="15.1" ry="15.1"/>
		
			<ellipse transform="matrix(0.7106 -0.7036 0.7036 0.7106 328.7607 997.8065)" class="st37" cx="1377.3" cy="99.3" rx="5.2" ry="5.2"/>
		<path class="st3" d="M1378.3,115.4h-2.2l-0.8-11.4l-8.7,7.4l-1.5-1.5l7.5-8.7l-11.4-1V98l11.4-0.8l-7.4-8.7l1.5-1.5l8.7,7.5
			l1-11.4h2.2l0.8,11.4l8.7-7.4l1.5,1.5l-7.5,8.7l11.4,1v2.2l-11.4,0.8l7.4,8.7l-1.5,1.5l-8.7-7.5L1378.3,115.4L1378.3,115.4z
			 M1379.8,100.3v-2l-1.4-1.4h-2l-1.4,1.4v2l1.4,1.4h2L1379.8,100.3z"/>
	</g>
</g>
<g>
	<polygon class="st1" points="1964.9,98.1 1697.5,96.8 1691.8,53.4 1978.3,54.9 	"/>
	<path class="st38" d="M1681.3,64.4c0,0,0.8-24.8,18.6-27c17.8-2.2,69.3-6.6,69.3-6.6s1.1-0.5,4-1.9c14.4-10.9,38.7-28.5,57.5-28.4
		c5.4,0,93.4,0.5,123.9,0.6c6.5,0,10.3,0.1,10.3,0.1l21.2,0.1c0,0-0.8,3.3-2.2,5.3c-0.7,1-3.5,3.3-5.9,5.2c6.6,9.1,16.9,28,16.9,28
		s1.2,5.4,1.2,10.7c0,5.2-0.1,25.3-0.1,25.3l-32.7-0.2c0,0-11-16.4-29.5-17.5s-39.2,15.6-35.7,39.8l-133.6-0.7
		c0,0,1.2-38.3-33.3-38.9c0,0-17.8-2.6-28.7,12.4l-21.2-0.1L1681.3,64.4z"/>
	<path class="st3" d="M1682.8,55.2c1.4-5.1,4.1-11.2,9.2-14.9l20.8,0.1c0.2,1.1,0.3,2.4,0.3,3.6c0,6.2-2.9,11.3-6.5,11.2H1682.8z"/>
	<path class="st2" d="M1729.8,54.9c-9.8,0-18.7,3.6-25.5,9.5l-23.1-0.1l-0.1,15.4V85c0,0,3.2,9.4,10.3,11.7h6l-0.1-5.9
		c0.3-3.9,1.3-7.6,2.8-11l0.2-0.4l0.1-0.2l0.2-0.4l0.1-0.2l0.2-0.4l0,0c0.1-0.2,0.2-0.3,0.3-0.5l0.2-0.4l0.1-0.2l0.2-0.4l0.1-0.2
		l0.2-0.3l0.2-0.3c0.1-0.2,0.2-0.3,0.3-0.5l0.2-0.3l0.2-0.3l0.1-0.2l0.2-0.4l0.1-0.2c0.2-0.2,0.4-0.5,0.5-0.7l0.1-0.1l0.3-0.3
		l0.1-0.2l0.3-0.3l0.2-0.2l0.2-0.2l0,0c0.1-0.1,0.2-0.3,0.4-0.4l0.3-0.3l0.2-0.2l0.3-0.3l0.2-0.2l0.3-0.3l0.2-0.2
		c0.1-0.1,0.3-0.3,0.4-0.4l0.3-0.3l0.2-0.2l0.2-0.2l0.3-0.2l0.3-0.2l0.2-0.2c0.1-0.1,0.3-0.2,0.4-0.4l0,0l0.3-0.2l0.3-0.2l0.2-0.2
		l0.3-0.3l0.2-0.1c0.2-0.1,0.3-0.2,0.5-0.4l0.2-0.2l0.3-0.2l0.2-0.2l0.3-0.2l0.3-0.2c0.2-0.1,0.3-0.2,0.5-0.3l0.2-0.1l0.4-0.2
		l0.2-0.1l0.4-0.2l0.2-0.1c0.2-0.1,0.4-0.2,0.6-0.3l0,0l0,0c0.2-0.1,0.4-0.2,0.6-0.3l0.2-0.1l0.4-0.2l0.2-0.1
		c0.2-0.1,0.3-0.1,0.5-0.2l0.2-0.1c0.2-0.1,0.4-0.2,0.6-0.3l0.2-0.1l0.4-0.2l0.2-0.1l0.4-0.1l0.2-0.1c0.2-0.1,0.4-0.1,0.6-0.2h0.1
		c0.2-0.1,0.4-0.1,0.6-0.2l0.2-0.1l0.5-0.1l0.2-0.1c0.2,0,0.3-0.1,0.5-0.1l0.3-0.1c0.2,0,0.4-0.1,0.6-0.1h0.2l0.5-0.1h0.2
		c0.2,0,0.4-0.1,0.6-0.1h0.1c0.2,0,0.5-0.1,0.7-0.1h0.2c0.2,0,0.4-0.1,0.6-0.1h0.2c0.2,0,0.4,0,0.5-0.1h0.2c0.2,0,0.5,0,0.7-0.1h0.1
		c0.2,0,0.4,0,0.6,0h0.3h0.5h0.2c0.2,0,0.5,0,0.7,0s0.5,0,0.7,0h0.2c0.2,0,0.4,0,0.5,0h0.2c0.2,0,0.5,0,0.7,0h0.2l0.6,0.1h0.2
		c0.2,0,0.4,0,0.6,0.1h0.2c0.2,0,0.5,0.1,0.7,0.1h0.2c0.2,0,0.3,0.1,0.5,0.1h0.3c0.2,0,0.3,0.1,0.5,0.1h0.2c0.2,0,0.5,0.1,0.7,0.2
		l0.2,0.1l0.5,0.1l0.3,0.1c0.2,0.1,0.4,0.1,0.6,0.2h0.1l0,0c0.2,0.1,0.4,0.1,0.6,0.2l0.3,0.1l0.4,0.1l0.2,0.1
		c0.2,0.1,0.4,0.1,0.6,0.2l0,0l0,0h0.1c0.2,0.1,0.3,0.1,0.5,0.2l0.3,0.1l0.4,0.2l0.3,0.1c0.2,0.1,0.4,0.2,0.6,0.3l0.2,0.1l0.4,0.2
		l0.2,0.1l0.4,0.2l0.2,0.1c0.2,0.1,0.4,0.2,0.6,0.3l0.2,0.1l0.4,0.2l0.3,0.1l0.4,0.3l0.2,0.1c0.2,0.1,0.4,0.2,0.5,0.3l0.3,0.2
		l0.3,0.2l0.2,0.1c0.1,0.1,0.3,0.2,0.4,0.3l0.2,0.1c0.2,0.1,0.3,0.2,0.4,0.3l0.3,0.2l0.3,0.2l0.3,0.2l0.3,0.2
		c0.2,0.1,0.3,0.3,0.5,0.4l0.2,0.2l0.3,0.3l0.2,0.2l0.3,0.2l0,0c0.1,0.1,0.3,0.3,0.4,0.4l0.3,0.3l0.2,0.2l0.3,0.3l0.2,0.2l0.3,0.3
		c0.1,0.1,0.3,0.3,0.4,0.4l0,0l0.2,0.3l0.2,0.3l0.2,0.3l0.2,0.2c0.2,0.2,0.3,0.4,0.5,0.6l0.1,0.1l0.3,0.4l0.1,0.1l0.3,0.4l0.1,0.1
		c0.2,0.2,0.3,0.5,0.5,0.7l0.1,0.1l0.2,0.3l0.2,0.2l0.2,0.3l0.2,0.3c0.1,0.2,0.2,0.4,0.3,0.6l0.2,0.3l0.2,0.3l0.1,0.3l0.2,0.3l0,0
		c0.1,0.2,0.2,0.3,0.3,0.5l0,0l0.2,0.4l0.1,0.2l0.2,0.4l0.1,0.2l0.2,0.4l0,0c1.8,4.1,2.8,8.5,2.8,13.3c0,1.2-0.1,2.5-0.2,3.7h6
		c0.1-1.2,0.2-2.4,0.2-3.7c0-4.7-0.8-9.1-2.3-13.3c-0.1-0.2-0.2-0.5-0.3-0.7l-0.1-0.3l-0.2-0.4l-0.2-0.4l-0.2-0.4l-0.1-0.3
		c-0.1-0.2-0.2-0.4-0.2-0.5l-0.2-0.5l-0.2-0.5l-0.2-0.3l-0.2-0.4l-0.2-0.3l-0.2-0.4l-0.2-0.3c-0.1-0.2-0.3-0.4-0.4-0.7l-0.2-0.3
		c-0.1-0.1-0.2-0.3-0.2-0.4l-0.2-0.3l-0.2-0.4c-0.1-0.1-0.2-0.2-0.2-0.3l-0.3-0.4c-0.1-0.2-0.2-0.3-0.4-0.5l-0.3-0.4l-0.2-0.3
		l-0.3-0.3l-0.3-0.3l-0.3-0.3l-0.2-0.3c-0.2-0.2-0.3-0.4-0.5-0.6l-0.2-0.3l-0.3-0.4l-0.3-0.3l-0.3-0.3l-0.3-0.3
		c-0.1-0.1-0.3-0.3-0.4-0.4l-0.1-0.1l0,0l-0.1-0.1c-0.2-0.2-0.3-0.3-0.5-0.5l-0.3-0.3l-0.3-0.3l-0.3-0.3l-0.3-0.3l-0.3-0.3l0,0
		c-0.2-0.2-0.4-0.3-0.5-0.5l0,0l-0.2-0.2c-0.1-0.1-0.3-0.2-0.4-0.4l-0.3-0.2l-0.4-0.3l-0.3-0.2c-0.2-0.1-0.3-0.2-0.5-0.4l-0.2-0.1
		c-0.2-0.2-0.4-0.3-0.7-0.5l-0.3-0.2l-0.4-0.3l-0.3-0.2l-0.5-0.3l-0.2-0.1c-0.2-0.1-0.5-0.3-0.7-0.4l-0.2-0.1
		c-0.2-0.1-0.4-0.2-0.5-0.3l-0.3-0.2l-0.5-0.2l-0.3-0.1c-0.2-0.1-0.4-0.2-0.5-0.3l-0.2-0.1c-0.2-0.1-0.5-0.2-0.7-0.3l-0.3-0.2
		l-0.4-0.2l-0.3-0.1l-0.5-0.2l-0.3-0.1c-0.2-0.1-0.5-0.2-0.7-0.3l-0.3-0.1c-0.2-0.1-0.4-0.1-0.6-0.2l-0.3-0.1l-0.5-0.2l-0.3-0.1
		c-0.2-0.1-0.5-0.1-0.7-0.2h-0.1c-0.3-0.1-0.6-0.2-0.8-0.2h-0.2c-0.2-0.1-0.4-0.1-0.6-0.2l-0.3-0.1c-0.2,0-0.4-0.1-0.6-0.1l-0.2-0.1
		c-0.3-0.1-0.6-0.1-0.8-0.2l0,0h-0.1c-0.2,0-0.5-0.1-0.7-0.1h-0.3l-0.6-0.1h-0.3c-0.2,0-0.5-0.1-0.7-0.1h-0.2
		c-0.3,0-0.6-0.1-0.9-0.1h-0.2c-0.2,0-0.5,0-0.7,0h-0.3c-0.2,0-0.4,0-0.7,0h-0.3C1730.4,54.9,1730.1,54.9,1729.8,54.9z"/>
	<path class="st2" d="M2000,71.6l-37.4-0.2l1.9,10h1.2c0,0.1,0,0.2,0,0.2l-0.1,12.7c0,2.1,1.7,3.8,3.7,3.8l25.9,0.1
		c2.1,0,3.8-1.7,3.8-3.7l0.1-12.7c0-0.1,0-0.2,0-0.2h0.8L2000,71.6z"/>
	<path class="st2" d="M1901,97.8c-0.3-1.7-0.4-3.4-0.4-5.2c0.1-17.9,14.6-32.3,32.5-32.2s32.3,14.6,32.2,32.5c0,1.8-0.2,3.5-0.4,5.2
		h6.1c0.2-1.6,0.3-3.3,0.4-5c0.1-21.2-17-38.4-38.1-38.5c-21.2-0.1-38.4,17-38.5,38.1c0,1.7,0.1,3.4,0.3,5L1901,97.8z"/>
	<path class="st2" d="M1999.9,71.6l-35.3-0.2c-6.9-10.1-18.4-16.7-31.5-16.8c-16.6-0.1-30.8,10.4-36.2,25.1h6.4
		c5-11.4,16.5-19.4,29.8-19.3c13.3,0.1,24.7,8.1,29.6,19.6l37.2,0.2V71.6z"/>
	<path class="st28" d="M1993.2,36.9c1,1.8,1.6,2.9,1.6,2.9s1.2,5.4,1.2,10.7l-0.1,18.5h-7.4l0.2-32L1993.2,36.9z"/>
	
		<rect x="1980.8" y="53.7" transform="matrix(5.361434e-03 -1 1 5.361434e-03 1921.2501 2049.3235)" class="st39" width="20" height="10.4"/>
	<path class="st40" d="M1982.6,31.3c-4.9-7.7-13.7-22.7-23.3-24.8h-24.8l-0.1,24.7L1982.6,31.3L1982.6,31.3z M1926.9,6.5h-56.3
		l-0.1,24.6l56.3,0.1L1926.9,6.5L1926.9,6.5L1926.9,6.5z M1863,6.5c-18.5,0-27.9,0-29.8,0c-22.7-0.1-37.1,16.8-50.4,24.5l80.1,0.1
		l0,0L1863,6.5z"/>
	<g>
		<path class="st41" d="M1856.5,40.6v-0.9c0-0.8-0.6-1.5-1.2-1.5l-14.8-0.1c-0.7,0-1.3,0.7-1.3,1.5v0.9L1856.5,40.6z"/>
		<path class="st41" d="M1923.4,40.9V40c0-0.8-0.6-1.5-1.2-1.5l-14.8-0.1c-0.7,0-1.3,0.7-1.3,1.5v0.9L1923.4,40.9z"/>
	</g>
	<polygon class="st2" points="1899,99.2 1761.9,97.5 1761.9,91.5 1899,93.3 	"/>
	<path class="st42" d="M1789.8,35.9c-3.1,0.9-15.6,0.1-16.3-2.6c-0.8-2.8,10.1-9.7,16.4-9.1L1789.8,35.9z"/>
	<path class="st2" d="M1678.9,64.3l14.6,0.1c2,0,3.7,1.7,3.7,3.7l-0.1,17.6c0,2-1.7,3.7-3.7,3.7l-14.6-0.1c-2,0-3.7-1.7-3.7-3.7
		l0.1-17.6C1675.2,66,1676.9,64.3,1678.9,64.3z"/>
	<g>
		<path class="st4" d="M1952.5,112.2c10.6-10.5,10.7-27.6,0.2-38.2s-27.6-10.7-38.2-0.2s-10.7,27.6-0.2,38.2
			C1924.9,122.6,1942,122.7,1952.5,112.2L1952.5,112.2z M1919.7,79c7.7-7.6,20.2-7.6,27.8,0.1c7.6,7.7,7.6,20.2-0.1,27.8
			c-7.7,7.6-20.2,7.6-27.8-0.1l0,0C1911.9,99.1,1912,86.7,1919.7,79z"/>
		
			<ellipse transform="matrix(4.950996e-03 -1 1 4.950996e-03 1831.0309 2026.0155)" class="st3" cx="1933.6" cy="92.9" rx="22.3" ry="22.3"/>
		
			<ellipse transform="matrix(4.958068e-03 -1 1 4.958068e-03 1831.017 2026.0148)" class="st29" cx="1933.6" cy="92.9" rx="19.7" ry="19.7"/>
		
			<ellipse transform="matrix(0.7106 -0.7036 0.7036 0.7106 494.0892 1388.1578)" class="st37" cx="1934.5" cy="93.5" rx="6.8" ry="6.8"/>
		<path class="st3" d="M1935.8,114.6h-2.8l-1.1-14.9l-11.4,9.6l-2-2l9.8-11.3l-14.9-1.2V92l14.9-1.1l-9.6-11.4l2-2l11.3,9.8
			l1.2-14.9h2.8l1.1,14.9l11.4-9.6l2,2l-9.7,11.3l14.9,1.2V95l-14.9,1.1l9.6,11.4l-2,2l-11.3-9.8L1935.8,114.6L1935.8,114.6z
			 M1937.7,94.8v-2.7l-1.9-1.9h-2.7l-1.9,1.9v2.7l1.9,1.9h2.7L1937.7,94.8z"/>
	</g>
	<g>
		<path class="st4" d="M1748.9,112.2c10.6-10.5,10.7-27.6,0.2-38.2s-27.6-10.7-38.2-0.2s-10.7,27.6-0.2,38.2
			C1721.2,122.6,1738.3,122.7,1748.9,112.2L1748.9,112.2z M1716,79c7.7-7.6,20.2-7.6,27.8,0.1c7.6,7.7,7.6,20.2-0.1,27.8
			c-7.7,7.6-20.2,7.6-27.8-0.1l0,0C1708.3,99.1,1708.3,86.7,1716,79z"/>
		
			<ellipse transform="matrix(4.953236e-03 -1 1 4.953236e-03 1628.3329 1822.3572)" class="st3" cx="1729.9" cy="93" rx="22.3" ry="22.3"/>
		
			<ellipse transform="matrix(4.958068e-03 -1 1 4.958068e-03 1628.3243 1822.3566)" class="st29" cx="1729.9" cy="93" rx="19.7" ry="19.7"/>
		
			<ellipse transform="matrix(0.7106 -0.7036 0.7036 0.7106 435.127 1244.8485)" class="st37" cx="1730.8" cy="93.5" rx="6.8" ry="6.8"/>
		<path class="st3" d="M1732.1,114.6h-2.8l-1.1-14.9l-11.4,9.6l-2-2l9.8-11.3l-14.9-1.2V92l14.9-1.1l-9.6-11.4l2-2l11.3,9.8
			l1.2-14.9h2.8l1.1,14.9l11.4-9.6l2,2l-9.7,11.3l14.9,1.2V95l-14.9,1.1l9.6,11.4l-2,2l-11.3-9.8L1732.1,114.6L1732.1,114.6z
			 M1734,94.8v-2.7l-1.9-1.9h-2.7l-1.9,1.9v2.7l1.9,1.9h2.7L1734,94.8z"/>
	</g>
	<path class="st40" d="M1808,6.6c0,0,1.4,1.3,1.3,1.6s-37.9,23.4-37.9,23.4l-2.3-0.8C1781.2,22.9,1789.2,16,1808,6.6z"/>
</g>
</svg>
