<?xml version="1.0" encoding="utf-8"?>
<!-- Generator: Adobe Illustrator 21.1.0, SVG Export Plug-In . SVG Version: 6.00 Build 0)  -->
<svg version="1.1" id="Layer_1" xmlns="http://www.w3.org/2000/svg" xmlns:xlink="http://www.w3.org/1999/xlink" x="0px" y="0px"
	 viewBox="0 0 324.9 120" style="enable-background:new 0 0 324.9 120;" xml:space="preserve">
<style type="text/css">
	.st0{fill:#404041;}
	.st1{fill:#A15641;}
	.st2{fill:#FFFFFF;}
	.st3{fill:#58595B;}
	.st4{fill:#EC1C24;}
	.st5{fill:#FFD72C;}
	.st6{fill:#373539;}
	.st7{fill:#2A1707;}
	.st8{fill:#B96E5D;}
	.st9{fill:#363638;}
	.st10{fill:#525458;}
	.st11{fill:#696B6F;}
</style>
<g>
	<polygon class="st0" points="289.8,98.1 22.4,96.8 16.7,53.4 303.2,54.9 	"/>
	<path class="st1" d="M6.2,64.4c0,0,0.8-24.8,18.6-27c17.8-2.2,69.3-6.6,69.3-6.6s1.1-0.5,4-1.9C112.5,18,136.8,0.4,155.6,0.5
		C161,0.5,249,1,279.5,1.1c6.5,0,10.3,0.1,10.3,0.1L311,1.3c0,0-0.8,3.3-2.2,5.3c-0.7,1-3.5,3.3-5.9,5.2c6.6,9.1,16.9,28,16.9,28
		s1.2,5.4,1.2,10.7c0,5.2-0.1,25.3-0.1,25.3l-32.7-0.2c0,0-11-16.4-29.5-17.5S219.5,73.7,223,97.9L89.4,97.2c0,0,1.2-38.3-33.3-38.9
		c0,0-17.8-2.6-28.7,12.4L6.2,70.6L6.2,64.4z"/>
	<path class="st2" d="M7.7,55.2c1.4-5.1,4.1-11.2,9.2-14.9l20.8,0.1c0.2,1.1,0.3,2.4,0.3,3.6c0,6.2-2.9,11.3-6.5,11.2H7.7z"/>
	<path class="st3" d="M54.7,54.9c-9.8,0-18.7,3.6-25.5,9.5L6.1,64.3L6,79.7V85c0,0,3.2,9.4,10.3,11.7h6l-0.1-5.9
		c0.3-3.9,1.3-7.6,2.8-11l0.2-0.4l0.1-0.2l0.2-0.4l0.1-0.2l0.2-0.4l0,0c0.1-0.2,0.2-0.3,0.3-0.5l0.2-0.4l0.1-0.2l0.2-0.4l0.1-0.2
		l0.2-0.3l0.2-0.3c0.1-0.2,0.2-0.3,0.3-0.5l0.2-0.3l0.2-0.3l0.1-0.2l0.2-0.4l0.1-0.2c0.2-0.2,0.4-0.5,0.5-0.7l0.1-0.1l0.3-0.3
		l0.1-0.2l0.3-0.3l0.2-0.2l0.2-0.2l0,0c0.1-0.1,0.2-0.3,0.4-0.4l0.3-0.3l0.2-0.2l0.3-0.3l0.2-0.2l0.3-0.3l0.2-0.2
		c0.1-0.1,0.3-0.3,0.4-0.4l0.3-0.3l0.2-0.2l0.2-0.2l0.3-0.2l0.3-0.2l0.2-0.2c0.1-0.1,0.3-0.2,0.4-0.4l0,0l0.3-0.2l0.3-0.2l0.2-0.2
		l0.3-0.3l0.2-0.1c0.2-0.1,0.3-0.2,0.5-0.4l0.2-0.2l0.3-0.2l0.2-0.2l0.3-0.2l0.3-0.2c0.2-0.1,0.3-0.2,0.5-0.3l0.2-0.1l0.4-0.2
		l0.2-0.1l0.4-0.2l0.2-0.1c0.2-0.1,0.4-0.2,0.6-0.3l0,0l0,0c0.2-0.1,0.4-0.2,0.6-0.3l0.2-0.1l0.4-0.2l0.2-0.1
		c0.2-0.1,0.3-0.1,0.5-0.2l0.2-0.1c0.2-0.1,0.4-0.2,0.6-0.3l0.2-0.1l0.4-0.2l0.2-0.1l0.4-0.1l0.2-0.1c0.2-0.1,0.4-0.1,0.6-0.2h0.1
		c0.2-0.1,0.4-0.1,0.6-0.2l0.2-0.1l0.5-0.1l0.2-0.1c0.2,0,0.3-0.1,0.5-0.1l0.3-0.1c0.2,0,0.4-0.1,0.6-0.1h0.2l0.5-0.1h0.2
		c0.2,0,0.4-0.1,0.6-0.1H49c0.2,0,0.5-0.1,0.7-0.1h0.2c0.2,0,0.4-0.1,0.6-0.1h0.2c0.2,0,0.4,0,0.5-0.1h0.2c0.2,0,0.5,0,0.7-0.1h0.1
		c0.2,0,0.4,0,0.6,0h0.3h0.5h0.2c0.2,0,0.5,0,0.7,0s0.5,0,0.7,0h0.2c0.2,0,0.4,0,0.5,0h0.2c0.2,0,0.5,0,0.7,0H57l0.6,0.1h0.2
		c0.2,0,0.4,0,0.6,0.1h0.2c0.2,0,0.5,0.1,0.7,0.1h0.2c0.2,0,0.3,0.1,0.5,0.1h0.3c0.2,0,0.3,0.1,0.5,0.1H61c0.2,0,0.5,0.1,0.7,0.2
		l0.2,0.1l0.5,0.1l0.3,0.1c0.2,0.1,0.4,0.1,0.6,0.2h0.1l0,0c0.2,0.1,0.4,0.1,0.6,0.2l0.3,0.1l0.4,0.1l0.2,0.1
		c0.2,0.1,0.4,0.1,0.6,0.2l0,0l0,0h0.1c0.2,0.1,0.3,0.1,0.5,0.2l0.3,0.1l0.4,0.2l0.3,0.1c0.2,0.1,0.4,0.2,0.6,0.3l0.2,0.1l0.4,0.2
		l0.2,0.1l0.4,0.2l0.2,0.1c0.2,0.1,0.4,0.2,0.6,0.3l0.2,0.1l0.4,0.2l0.3,0.1l0.4,0.3l0.2,0.1c0.2,0.1,0.4,0.2,0.5,0.3l0.3,0.2
		l0.3,0.2l0.2,0.1c0.1,0.1,0.3,0.2,0.4,0.3l0.2,0.1c0.2,0.1,0.3,0.2,0.4,0.3l0.3,0.2l0.3,0.2l0.3,0.2l0.3,0.2
		c0.2,0.1,0.3,0.3,0.5,0.4l0.2,0.2l0.3,0.3l0.2,0.2l0.3,0.2l0,0c0.1,0.1,0.3,0.3,0.4,0.4l0.3,0.3l0.2,0.2l0.3,0.3l0.2,0.2l0.3,0.3
		c0.1,0.1,0.3,0.3,0.4,0.4l0,0l0.2,0.3l0.2,0.3l0.2,0.3l0.2,0.2c0.2,0.2,0.3,0.4,0.5,0.6l0.1,0.1l0.3,0.4l0.1,0.1l0.3,0.4l0.1,0.1
		c0.2,0.2,0.3,0.5,0.5,0.7l0.1,0.1l0.2,0.3l0.2,0.2l0.2,0.3l0.2,0.3c0.1,0.2,0.2,0.4,0.3,0.6l0.2,0.3l0.2,0.3l0.1,0.3l0.2,0.3l0,0
		c0.1,0.2,0.2,0.3,0.3,0.5l0,0l0.2,0.4l0.1,0.2l0.2,0.4l0.1,0.2l0.2,0.4l0,0c1.8,4.1,2.8,8.5,2.8,13.3c0,1.2-0.1,2.5-0.2,3.7h6
		c0.1-1.2,0.2-2.4,0.2-3.7c0-4.7-0.8-9.1-2.3-13.3c-0.1-0.2-0.2-0.5-0.3-0.7l-0.1-0.3l-0.2-0.4l-0.2-0.4l-0.2-0.4l-0.1-0.3
		c-0.1-0.2-0.2-0.4-0.2-0.5L89,76.2l-0.2-0.5l-0.2-0.3L88.4,75l-0.2-0.3L88,74.3L87.8,74c-0.1-0.2-0.3-0.4-0.4-0.7L87.2,73
		c-0.1-0.1-0.2-0.3-0.2-0.4l-0.2-0.3l-0.2-0.4c-0.1-0.1-0.2-0.2-0.2-0.3l-0.3-0.4c-0.1-0.2-0.2-0.3-0.4-0.5l-0.3-0.4L85.2,70
		l-0.3-0.3l-0.3-0.3l-0.3-0.3l-0.2-0.3c-0.2-0.2-0.3-0.4-0.5-0.6l-0.2-0.3l-0.3-0.4l-0.3-0.3l-0.3-0.3l-0.3-0.3
		c-0.1-0.1-0.3-0.3-0.4-0.4l-0.1-0.1l0,0L81.6,66c-0.2-0.2-0.3-0.3-0.5-0.5l-0.3-0.3l-0.3-0.3l-0.3-0.3l-0.3-0.3L79.6,64l0,0
		c-0.2-0.2-0.4-0.3-0.5-0.5l0,0l-0.2-0.2c-0.1-0.1-0.3-0.2-0.4-0.4l-0.3-0.2l-0.4-0.3l-0.3-0.2c-0.2-0.1-0.3-0.2-0.5-0.4l-0.2-0.1
		c-0.2-0.2-0.4-0.3-0.7-0.5L75.8,61l-0.4-0.3l-0.3-0.2l-0.5-0.3l-0.2-0.1c-0.2-0.1-0.5-0.3-0.7-0.4l-0.2-0.1
		c-0.2-0.1-0.4-0.2-0.5-0.3l-0.3-0.2l-0.5-0.2l-0.3-0.1c-0.2-0.1-0.4-0.2-0.5-0.3l-0.2-0.1c-0.2-0.1-0.5-0.2-0.7-0.3l-0.3-0.2
		l-0.4-0.2l-0.3-0.1L69,57.4l-0.3-0.1c-0.2-0.1-0.5-0.2-0.7-0.3l-0.3-0.1c-0.2-0.1-0.4-0.1-0.6-0.2l-0.3-0.1l-0.5-0.2L66,56.3
		c-0.2-0.1-0.5-0.1-0.7-0.2h-0.1c-0.3-0.1-0.6-0.2-0.8-0.2h-0.2c-0.2-0.1-0.4-0.1-0.6-0.2l-0.3-0.1c-0.2,0-0.4-0.1-0.6-0.1l-0.2-0.1
		c-0.3-0.1-0.6-0.1-0.8-0.2l0,0h-0.1c-0.2,0-0.5-0.1-0.7-0.1h-0.3L60,55h-0.3c-0.2,0-0.5-0.1-0.7-0.1h-0.2c-0.3,0-0.6-0.1-0.9-0.1
		h-0.2c-0.2,0-0.5,0-0.7,0h-0.3c-0.2,0-0.4,0-0.7,0h-0.3C55.3,54.9,55,54.9,54.7,54.9z"/>
	<path class="st3" d="M324.9,71.6l-37.4-0.2l1.9,10h1.2c0,0.1,0,0.2,0,0.2l-0.1,12.7c0,2.1,1.7,3.8,3.7,3.8l25.9,0.1
		c2.1,0,3.8-1.7,3.8-3.7l0.1-12.7c0-0.1,0-0.2,0-0.2h0.8L324.9,71.6z"/>
	<path class="st3" d="M225.9,97.8c-0.3-1.7-0.4-3.4-0.4-5.2c0.1-17.9,14.6-32.3,32.5-32.2s32.3,14.6,32.2,32.5
		c0,1.8-0.2,3.5-0.4,5.2h6.1c0.2-1.6,0.3-3.3,0.4-5c0.1-21.2-17-38.4-38.1-38.5c-21.2-0.1-38.4,17-38.5,38.1c0,1.7,0.1,3.4,0.3,5
		L225.9,97.8z"/>
	<path class="st3" d="M324.8,71.6l-35.3-0.2c-6.9-10.1-18.4-16.7-31.5-16.8c-16.6-0.1-30.8,10.4-36.2,25.1h6.4
		c5-11.4,16.5-19.4,29.8-19.3c13.3,0.1,24.7,8.1,29.6,19.6l37.2,0.2V71.6z"/>
	<path class="st4" d="M318.1,36.9c1,1.8,1.6,2.9,1.6,2.9s1.2,5.4,1.2,10.7L320.8,69h-7.4l0.2-32L318.1,36.9z"/>
	
		<rect x="305.7" y="53.7" transform="matrix(5.361434e-03 -1 1 5.361434e-03 255.1439 374.2346)" class="st5" width="20" height="10.4"/>
	<path class="st6" d="M307.5,31.3c-4.9-7.7-13.7-22.7-23.3-24.8h-24.8l-0.1,24.7L307.5,31.3L307.5,31.3z M251.8,6.5h-56.3l-0.1,24.6
		l56.3,0.1L251.8,6.5L251.8,6.5L251.8,6.5z M187.9,6.5c-18.5,0-27.9,0-29.8,0C135.4,6.4,121,23.3,107.7,31l80.1,0.1l0,0L187.9,6.5z"
		/>
	<g>
		<path class="st7" d="M181.4,40.6v-0.9c0-0.8-0.6-1.5-1.2-1.5l-14.8-0.1c-0.7,0-1.3,0.7-1.3,1.5v0.9L181.4,40.6z"/>
		<path class="st7" d="M248.3,40.9V40c0-0.8-0.6-1.5-1.2-1.5l-14.8-0.1c-0.7,0-1.3,0.7-1.3,1.5v0.9L248.3,40.9z"/>
	</g>
	<polygon class="st3" points="223.9,99.2 86.8,97.5 86.8,91.5 223.9,93.3 	"/>
	<path class="st8" d="M114.7,35.9c-3.1,0.9-15.6,0.1-16.3-2.6c-0.8-2.8,10.1-9.7,16.4-9.1L114.7,35.9z"/>
	<path class="st3" d="M3.8,64.3l14.6,0.1c2,0,3.7,1.7,3.7,3.7L22,85.7c0,2-1.7,3.7-3.7,3.7L3.7,89.3c-2,0-3.7-1.7-3.7-3.7L0.1,68
		C0.1,66,1.8,64.3,3.8,64.3z"/>
	<g>
		<path class="st9" d="M277.4,112.2c10.6-10.5,10.7-27.6,0.2-38.2s-27.6-10.7-38.2-0.2s-10.7,27.6-0.2,38.2
			C249.8,122.6,266.9,122.7,277.4,112.2L277.4,112.2z M244.6,79c7.7-7.6,20.2-7.6,27.8,0.1c7.6,7.7,7.6,20.2-0.1,27.8
			c-7.7,7.6-20.2,7.6-27.8-0.1l0,0C236.8,99.1,236.9,86.7,244.6,79z"/>
		
			<ellipse transform="matrix(4.950996e-03 -1 1 4.950996e-03 164.2371 350.9232)" class="st2" cx="258.5" cy="92.9" rx="22.3" ry="22.3"/>
		
			<ellipse transform="matrix(4.958068e-03 -1 1 4.958068e-03 164.2351 350.9224)" class="st10" cx="258.5" cy="92.9" rx="19.7" ry="19.7"/>
		
			<ellipse transform="matrix(0.7106 -0.7036 0.7036 0.7106 9.3212 209.5568)" class="st11" cx="259.4" cy="93.4" rx="6.8" ry="6.8"/>
		<path class="st2" d="M260.7,114.6h-2.8l-1.1-14.9l-11.4,9.6l-2-2l9.8-11.3l-14.9-1.2V92l14.9-1.1l-9.6-11.4l2-2l11.3,9.8l1.2-14.9
			h2.8l1.1,14.9l11.4-9.6l2,2L265.7,91l14.9,1.2V95l-14.9,1.1l9.6,11.4l-2,2L262,99.7L260.7,114.6L260.7,114.6z M262.6,94.8v-2.7
			l-1.9-1.9H258l-1.9,1.9v2.7l1.9,1.9h2.7L262.6,94.8z"/>
	</g>
	<g>
		<path class="st9" d="M73.8,112.2C84.4,101.7,84.5,84.6,74,74s-27.6-10.7-38.2-0.2s-10.7,27.6-0.2,38.2
			C46.1,122.6,63.2,122.7,73.8,112.2L73.8,112.2z M40.9,79c7.7-7.6,20.2-7.6,27.8,0.1c7.6,7.7,7.6,20.2-0.1,27.8
			c-7.7,7.6-20.2,7.6-27.8-0.1l0,0C33.2,99.1,33.2,86.7,40.9,79z"/>
		
			<ellipse transform="matrix(4.953236e-03 -1 1 4.953236e-03 -38.4571 147.2647)" class="st2" cx="54.8" cy="93" rx="22.3" ry="22.3"/>
		
			<ellipse transform="matrix(4.958068e-03 -1 1 4.958068e-03 -38.4576 147.2642)" class="st10" cx="54.8" cy="93" rx="19.7" ry="19.7"/>
		<ellipse transform="matrix(0.7106 -0.7036 0.7036 0.7106 -49.641 66.2475)" class="st11" cx="55.7" cy="93.5" rx="6.8" ry="6.8"/>
		<path class="st2" d="M57,114.6h-2.8l-1.1-14.9l-11.4,9.6l-2-2L49.5,96l-14.9-1.2V92l14.9-1.1l-9.6-11.4l2-2l11.3,9.8l1.2-14.9h2.8
			l1.1,14.9l11.4-9.6l2,2L62,91l14.9,1.2V95L62,96.1l9.6,11.4l-2,2l-11.3-9.8L57,114.6L57,114.6z M58.9,94.8v-2.7L57,90.2h-2.7
			l-1.9,1.9v2.7l1.9,1.9H57L58.9,94.8z"/>
	</g>
	<path class="st6" d="M132.9,6.6c0,0,1.4,1.3,1.3,1.6c-0.1,0.3-37.9,23.4-37.9,23.4L94,30.8C106.1,22.9,114.1,16,132.9,6.6z"/>
</g>
</svg>
