<?xml version="1.0" encoding="utf-8"?>
<!-- Generator: Adobe Illustrator 21.1.0, SVG Export Plug-In . SVG Version: 6.00 Build 0)  -->
<svg version="1.1" id="Layer_1" xmlns="http://www.w3.org/2000/svg" xmlns:xlink="http://www.w3.org/1999/xlink" x="0px" y="0px"
	 viewBox="0 0 302.6 120" style="enable-background:new 0 0 302.6 120;" xml:space="preserve">
<style type="text/css">
	.st0{fill:#FFB8B8;}
	.st1{fill:#4B0000;}
	.st2{fill:#DF7223;}
	.st3{fill:#752E2F;}
	.st4{fill:#E47522;}
	.st5{fill:url(#SVGID_1_);}
	.st6{fill:#050000;}
	.st7{fill:#404041;}
	.st8{fill:#363638;}
	.st9{fill:#DFE0E2;}
	.st10{fill:#6A6C72;}
	.st11{fill:#898D94;}
	.st12{fill:#FF8B18;}
	.st13{fill:#35AADE;}
	.st14{fill:#FFFFFF;}
	.st15{fill:#DFE2E4;}
	.st16{fill:#6E2728;}
	.st17{fill:#D5DADC;}
	.st18{fill:#EC1C24;}
	.st19{fill:#E6E7E8;}
	.st20{fill:#525458;}
</style>
<g>
	<path class="st0" d="M46.7,50.7c19.9,0,38.2,14.2,44.3,41.2c-0.1,0.6-0.3,0.6-0.6,0.8c-1.6,1.4-3.1,2.2-3,6c-5.7,0-9.7,0-9.7,0
		s-2.8-0.9-3.4-2.8s-2.6-13.1-6-19.1S56.5,60.9,43.5,60.9c-13.1,0-21.4,10-30.2,22.9c-2.4,3.5-4.6,5.3-4.8,6.6
		c-0.3,1-0.8,0.8-1.1,0.7c-0.3-0.1-1.5-0.7-1.1-2c0.5-1.3,2.6-8,3.3-9.9c0.7-1.9,2.1-8.1,2.1-10.4s2.1-8.1,3.5-9.5
		c1.4-1.5,1.9-1.8,3.7-2.7C20.8,55.6,32.7,50.7,46.7,50.7z"/>
	<path class="st0" d="M35.6,51.7c7.1-3.5,17.3-5.8,23.6-6.8c7.3-1.2,15.8-2.2,27.9-2.4c1.4-1,2.9-2.8,3.6-4.1s0-3.2-0.9-5.5
		c0,0-6.7,0.5-11.4,0.9c-19.7,1.6-30,4.8-38.8,8.3s-15.3,9.1-17.4,11.3c-1.2,1.3-1.9,2.2-2.4,2.9C22.2,55.2,28,53,35.6,51.7z"/>
	<path class="st0" d="M282,76.3c-2.8-3.9-9-18.7-17.7-22c-1.5-0.6-2.8-1.1-3.8-1.5c0,0,0,0,0,0.1c-1.3-0.5-9-2.9-14.9-3.1
		c-10.9-0.6-21.2,1.1-27.9,6c-6.3,4.6-16.7,13.5-18.7,36.8h-0.1c0,0.4,0.1,1.3,0.3,1.8c0.3,0.7,1.3,2.3,0.1,3.5
		c-0.3,0.4-0.2,0.6,0.1,0.6c1.6,0.2,3.3,0.9,5.6,0.1s2.8-4.2,3.2-6.5s1.7-9,3.8-12.8s10-15.5,26.2-15.5c18,0,24.4,12.3,28.7,19.6
		c4.4,7.3,11,12.4,25.7,12.2c2.6-0.1,2.6-0.1,2.6-0.1C292.1,90,284.8,80.2,282,76.3z"/>
	<path class="st0" d="M260.2,52.4c-7.9-9.3-17.3-18.2-21.5-21.8s-18.4-14.8-33.8-18.8c-15.3-4-25.8-4.7-35.8-4.7l-0.4,85.5
		c0,0,25.1,0,30.4,0c2-23.3,12.4-32.2,18.7-36.8c6.6-4.9,17-6.6,27.9-6c5.9,0.1,13.5,2.6,14.9,3.1C260.4,52.7,260.3,52.5,260.2,52.4
		L260.2,52.4z M227.8,35.2L227.8,35.2c-0.7,1.8-2,5.3-9,5.3c-7,0.1-41-0.7-43.3-0.7s-4.3-1.3-4.3-3.9V14.1c0-2.4,1.8-4.3,4.7-4.3
		c3.9,0,18.5,0.6,32,5.5c13.4,4.9,16.8,9.9,18.6,12.3S228.6,33.5,227.8,35.2z"/>
	<path class="st0" d="M98.4,35l-1.9-1.3c0,0-1.2-0.5-2.7-1.3c0,0-1.3,0.2-3.4,0.4c0.7,1.6,1.2,3.8,1.2,4.7c-0.1,0.9-1.8,3.4-4.1,5.5
		c-1.2,0.1-13.5,0.4-26.4,2.2c-10.4,1.5-19.5,4.9-22.5,6.1c2.6-0.3,5.3-0.5,8.1-0.5C66.5,50.8,84.9,65,91,91.9h2.4
		c0,0-0.4-33.6-0.6-48.8C92.8,43,96.7,37.6,98.4,35z"/>
	<path class="st1" d="M267,42.4c0,0,5.8,5.7,6.8,6.6c0.9,0.9,0.4,2.7,0.4,2.7l-2.4,1l-5-2.2l-1.6-4.7L267,42.4z"/>
	<polygon class="st2" points="262,38 263.4,39.1 262.7,43.4 260.7,46.9 279,56.5 283.4,71.9 286.7,81.7 282.5,84.1 259.3,54.6 
		253.4,53.5 256.9,46.4 257.5,41.3 	"/>
	<path class="st3" d="M78,97.8c0,0-3.4,5.7-11,8s-34.7-0.4-34.7-0.4L20.6,92.2c0,0-3.7-0.4-4.6,0s-5.6-5.8-5.6-5.8l8.8-13.5l8.3-9.6
		l18.9-5.4L61.8,62l10.7,14.3L79,91.9L78,97.8z"/>
	<path class="st3" d="M205.9,96.7c0,0,2.4,3.4,3.4,4.5s2.5,2.6,4.9,3.7s46-8.4,46-8.4c8.1,0,8.2-0.1,16.4-0.7
		c3-0.2,16.5-0.8,16.5-0.8l-8-2l-8.9-3.8L268.3,79l-5.8-6.6l-10.8-8.3l-8.9-2.9L228,63.6l-8.7,3.2l-8.2,8.8l-4.9,8.9l-1.1,9.5
		L205.9,96.7z"/>
	<path class="st4" d="M93,91.3l-3,0.1l-2.6,3.3L87,98.3c0,0,0.9,0.7,1.7,0.8c32.1-0.2,111.4-0.9,111.4-0.9l0.5-3.1l-0.9-1.6v-1.7
		l-2.6-1.1l-33.9-1.3l-33.9-1.6l-32.6,2.7l-2,0.5l-0.2,0.3H93z"/>
	<polygon class="st2" points="92.1,88.7 92.7,92.9 200.8,92.9 208.9,70.7 263.8,49.5 226.5,16.6 215.6,11.4 205.8,9.1 187.7,6.2 
		174.2,2.8 168.6,4.9 132.9,6 115.5,10.6 108.9,15.4 95.9,36 90.8,43.4 89.8,73 	"/>
	
		<linearGradient id="SVGID_1_" gradientUnits="userSpaceOnUse" x1="292.87" y1="37.6273" x2="292.87" y2="23.4637" gradientTransform="matrix(1 0 0 -1 0 122)">
		<stop  offset="0" style="stop-color:#4C3F4F"/>
		<stop  offset="0" style="stop-color:#4C3F4F"/>
		<stop  offset="0.23" style="stop-color:#474E64"/>
		<stop  offset="1" style="stop-color:#475C7B"/>
	</linearGradient>
	<path class="st5" d="M295.4,87.8c0,0,1,5.2,0.5,6.2s-1.7,1-1.7,1l-4.5-6.2L295.4,87.8z"/>
	<polygon class="st2" points="89.6,33.1 90.7,37.1 86.8,41.9 71.5,42.6 51.5,45.2 34.6,51.3 35.5,52.3 39.2,52 55.4,47 77,44.5 
		88.1,43.7 92.2,39.2 92.1,35.1 90.9,33 	"/>
	<path class="st6" d="M162.1,39.8c0,0-0.2,0-0.6,0C161.9,39.8,162.1,39.8,162.1,39.8L162.1,39.8z M164.5,39.2L164.5,39.2L164.5,39.2
		c-0.1,0-0.1,0.1-0.2,0.1C164.3,39.3,164.4,39.2,164.5,39.2L164.5,39.2z M162.4,10.4L162.4,10.4c2,0,3.6,1,3.6,3.6v22.1
		c0,1.7-0.8,2.6-1.6,3.1c0-0.1,0-0.2,0-0.3V17.4c0-2.6-1.4-3.5-3.2-3.5s-16.2-0.1-22.5,0.6c-6.3,0.7-13,2.1-17.4,4.1
		s-5.9,5.1-6.6,6.4c-0.7,1.3-4.6,8.3-5.2,9.6c-0.6,1.3-1,2.4-1,3.6c0,0.4,0,0.8,0.1,1.2c-1.2,0-2,0-2.4,0c-3.6,0-4.1-2.6-4.1-4.1
		c0-1.3,0.5-2.4,1.2-3.8c0.7-1.3,5.2-8.6,6-9.9c0.8-1.3,2.5-4.5,7.6-6.6c5-2.1,12.7-3.5,19.9-4.2C144,10.3,160.4,10.4,162.4,10.4
		L162.4,10.4z M163.6,39.6L163.6,39.6c-0.4,0.1-0.8,0.2-1,0.2C162.9,39.7,163.2,39.7,163.6,39.6z"/>
	<path class="st6" d="M226.5,27.6c-1.8-2.4-5.1-7.4-18.6-12.3c-13.4-4.9-28-5.5-32-5.5c-2.9,0-4.7,1.9-4.7,4.3v21.8
		c0,2.6,2,3.9,4.3,3.9s36.3,0.8,43.3,0.7s8.2-3.6,9-5.3C228.6,33.5,228.3,30,226.5,27.6L226.5,27.6z M217.4,35L217.4,35
		c-0.6,1.4-1.7,3.5-7.7,3.6c-5.2,0.1-28.2-0.5-35.6-0.7c-1.1-0.6-1.2-2.3-1.2-2.3s0.1-6.8,0.1-10.8l0.1-10.5
		c3.6,0,15.9,0.5,27.3,4.4c11.5,4,14.5,8,16,10C217.8,30.7,218,33.6,217.4,35z"/>
	<path class="st7" d="M227.8,11.7c-0.1,0.3-0.5,2.2,1.8,4.3c2.4,2,13.6,12.2,16.2,14.4c2.6,2.2,5.1,4.3,5.8,4.5s2.2,0.7,3.2-0.1
		c0.8-0.8,1.5-1.7,2-2.8c-4.2-4.1-11.3-9.8-15.9-12.8c-4.2-2.7-11.4-7.2-12.8-8.1C228,11.2,227.8,11.5,227.8,11.7z"/>
	<circle class="st8" cx="44.9" cy="93.3" r="25.1"/>
	<circle class="st9" cx="44.9" cy="93.3" r="20.9"/>
	<circle class="st10" cx="44.9" cy="93.3" r="16.9"/>
	<circle class="st8" cx="44.9" cy="93.3" r="12.9"/>
	<circle class="st11" cx="44.9" cy="93.3" r="9.9"/>
	<circle class="st8" cx="237.1" cy="94.5" r="25.1"/>
	<circle class="st9" cx="237.1" cy="94.5" r="20.9"/>
	<circle class="st10" cx="237.1" cy="94.5" r="16.9"/>
	<circle class="st8" cx="237.1" cy="94.5" r="12.9"/>
	<circle class="st11" cx="237.1" cy="94.5" r="9.9"/>
	<path class="st0" d="M11.9,73.5c0.3-0.4,2.4-0.8,3.2-1.2c0-2.4-1.1-11.6,0.3-13.1c0.1-0.1,0.2-0.2,0.2-0.3
		c-1.1,0.4-4.3,0.5-4.9,0.7c-2,0.9-0.9,8.7-1,10.7C9.7,70.4,11.5,73.9,11.9,73.5z"/>
	<path class="st12" d="M98.4,35l-1.9-1.3c0,0,2.8-1.3,1.3-2.1c0,0-5.3,1-7.4,1.2c0.7,1.6,1.2,3.8,1.2,4.7c-0.1,0.9-1.8,3.4-4.1,5.5
		c-1.2,0.1-13.5,0.4-26.4,2.2c-10.4,1.5-19.5,4.9-22.5,6.1c2.6-0.3,5.3-0.5,8.1-0.5C66.5,50.8,84.9,65,91,91.9h2.4
		c0,0-0.4-33.6-0.6-48.8C92.8,43,96.7,37.6,98.4,35z"/>
	<path class="st13" d="M226.5,27.6c-1.8-2.4-5.1-7.4-18.6-12.3c-13.4-4.9-28-5.5-32-5.5c-2.9,0-4.7,1.9-4.7,4.3v21.8
		c0,2.6,2,3.9,4.3,3.9s36.3,0.8,43.3,0.7s8.2-3.6,9-5.3C228.6,33.5,228.3,30,226.5,27.6z"/>
	<path class="st12" d="M259.8,44.4c2.1-3.1,2-3.8,2.8-6.4c0,0-4.4-5.2-5.7-6.6c-0.4,1.4-1.1,2.4-2.1,3.2c-0.9,0.9-2.4,0.3-3.2,0.1
		c-0.7-0.2-3.2-2.3-5.8-4.5S232,17.8,229.6,15.8s-1.9-3.9-1.8-4.3c0.1-0.3,0.5-0.9-0.3-1.3C207.9,0,141.5-5,121.2,4.1
		c-6.8,3-12.5,8.5-17.9,18.4c-1.1,2-5.8,9.4-6.9,11.1h0.1l0.8,0.5c-2.5,4-5,7.9-5,7.9l0.3,49.6l76.2,0.3l0,0h0.9h29.5
		c2-23.3,12.3-31.7,18.7-36.3c6.6-4.9,17-6.6,27.9-6c5.9,0.1,13.5,2.6,14.9,3.1c-0.1-0.2-0.2-0.3-0.3-0.5
		c-5.3-6.3-11.3-12.3-15.9-16.7c4.7,4.4,10.7,10.5,16.1,16.9C259.7,51.4,257.7,47.5,259.8,44.4L259.8,44.4z M190.2,8.7L190.2,8.7
		c0.6,0.1,1.1,0.2,1.7,0.3C191.3,8.9,190.7,8.8,190.2,8.7L190.2,8.7z M201.5,10.9L201.5,10.9c0.5,0.1,0.9,0.2,1.4,0.3L201.5,10.9z"
		/>
	<path class="st13" d="M166.1,14c0-2.6-1.6-3.6-3.6-3.6S144,10.3,136.8,11c-7.2,0.7-14.8,2.1-19.9,4.2c-5,2.1-6.7,5.3-7.6,6.6
		c-0.8,1.3-5.3,8.6-6,9.9c-0.7,1.3-1.2,2.5-1.2,3.8c0,1.4,0.5,4.1,4.1,4.1s55.9,0.3,55.9,0.3s4,0.2,4-3.6V14z"/>
	<path class="st12" d="M39.2,52c7.3-3.5,15.1-4,21.6-5.1c7.5-1.2,14.9-3,27.3-3.2c1.4-1,3.8-4.1,4.5-5.4c0.7-1.3,0-3.2-0.9-5.5
		c0,0-6.9,0.5-11.7,0.9c-20.2,1.6-30.8,4.8-39.8,8.3s-15.7,9.1-17.8,11.3c-1.2,1.3-2,2.2-2.4,2.9C22.3,55.2,31.5,53.2,39.2,52z"/>
	<path class="st4" d="M19.1,56.6c-1.8,0.9-2.3,1.2-3.7,2.7c-1.4,1.5-3.5,7.2-3.5,9.5s-1.4,8.6-2.1,10.4c-0.7,1.9-2.9,8.6-3.3,9.9
		c-0.5,1.3,0.8,1.9,1.1,2c0.3,0.1,0.8,0.3,1.1-0.7c0.2-1.3,2.4-3.1,4.8-6.6c8.8-12.9,17.1-22.9,30.2-22.9s21.4,9.9,24.8,15.9
		s5.4,17.2,6,19.1c0.6,1.9,3.4,2.8,3.4,2.8s4,0,9.7,0c-0.1-3.8,1.4-4.6,3-6c0.3-0.2,0.5-0.2,0.6-0.8c-6.1-27-24.4-41.2-44.3-41.2
		C32.7,50.7,20.8,55.6,19.1,56.6z"/>
	<path class="st4" d="M282,76.3c1,1.3,2.4,3.3,4.1,5.6l3.8-0.9c-2.6-1.4-4.6-26.6-27-42.8c0,0-0.2,2.8-1,4.2c-0.9,1.4-1.7,3-2,3.6
		s-1,2.5,1.2,7.1C272.3,58.6,274.5,65.9,282,76.3z"/>
	<path class="st14" d="M298.5,94.9h-11c-2.3,0-4.1-1.7-4.1-3.8v-6.7c0-2.1,1.8-3.8,4.1-3.8h11c2.3,0,4.1,1.7,4.1,3.8v6.7
		C302.7,93.2,300.8,94.9,298.5,94.9z"/>
	<circle class="st15" cx="44.9" cy="93.3" r="5.6"/>
	<circle class="st15" cx="237.1" cy="94.5" r="5.6"/>
	<path class="st16" d="M151.9,47.9c0,0,1.8-0.6,6.1-0.8s7-0.3,8.4-0.3c0.4,0,0.5,0.1,0.5,0.6s0,1.2,0,1.5c0,0.2-0.2,0.3-0.5,0.3
		s-6.9-0.7-9.9-0.6c-3,0-4.2,0.2-4.5,0.2C151.8,48.8,151.4,48.1,151.9,47.9z"/>
	<path class="st17" d="M280.1,73.1c0.3-0.6,0.5-1.3,0.6-2.3c0.2-1.7-0.1-7.9-0.1-7.9c-0.1-1.4-1.1-3.4-1.4-4
		c-0.3-0.5-0.9-1.1-1.8-1.3c-0.9-0.1-2.8-0.3-4.9-0.3c-1.2,0-2.7-0.1-3.7-0.2C273.7,61.3,277.5,68.6,280.1,73.1z"/>
	<path class="st18" d="M280.5,62.4c-0.2-1.3-1.1-3.1-1.4-3.6c-0.3-0.5-0.9-1.1-1.8-1.3c-0.9-0.1-2.8-0.3-4.9-0.3
		c-1.2,0-2.7-0.1-3.7-0.2c1.8,1.5,3.4,3.4,4.9,5.5c1.8,2.4,3.3,5,4.6,7.3c0.9,0.1,1.8,0.1,2.5,0.1c0.1-2.3-0.1-7.1-0.1-7.1
		C280.6,62.7,280.6,62.5,280.5,62.4z"/>
	<path class="st19" d="M15.3,92.1H4.2c-2.3,0-4.2-1.9-4.2-4.2v-7.4c0-2.3,1.9-4.2,4.2-4.2h11.1c2.3,0,4.2,1.9,4.2,4.2V88
		C19.5,90.3,17.6,92.1,15.3,92.1z"/>
	<path class="st7" d="M164.5,39.2c0.9-0.5,1.6-1.4,1.6-3.1V14c0-2.6-1.6-3.6-3.6-3.6S144,10.3,136.8,11c-7.2,0.7-14.8,2.1-19.9,4.2
		c-5,2.1-6.7,5.3-7.6,6.6c-0.8,1.3-5.3,8.6-6,9.9c-0.7,1.3-1.2,2.5-1.2,3.8c0,1.4,0.5,4.1,4.1,4.1c0.4,0,1.2,0,2.4,0
		c11,0,53.5,0.2,53.5,0.2s1.1,0,2.1-0.5L164.5,39.2z"/>
	<path class="st7" d="M171.3,14.1v21.8c0,2.6,2,3.9,4.3,3.9s36.3,0.8,43.3,0.7s8.2-3.6,9-5.3c0.7-1.8,0.5-5.2-1.3-7.6
		s-5.1-7.4-18.6-12.3c-13.4-4.9-28-5.5-32-5.5C173.1,9.8,171.3,11.7,171.3,14.1z"/>
	<path class="st20" d="M103.7,41.7c-3.1-0.1-5.6-3.2-5.6-7s2.5-6.9,5.6-7V41.7z"/>
	<path class="st4" d="M281.7,76.5c-11-15.2-14.8-24.9-36.1-26.2c-10.9-0.6-20.1,0.9-26.8,5.8C200.5,68.7,200,89,200.3,92.9h-1.1
		c0.3,0.7,1.4,3.7,0.2,4.9c-0.3,0.4-0.2,0.6,0.1,0.6c1.6,0.2,3.3,0.9,5.6,0.1s2.8-4.2,3.2-6.5s1.7-9,3.8-12.8s10-15.5,26.2-15.5
		c18,0,24.4,12.3,28.7,19.6c4.4,7.3,11,12.4,25.7,12.2c2.6-0.1,2.6-0.1,2.6-0.1C291.5,88.9,286.2,82.6,281.7,76.5z"/>
</g>
</svg>
