<?xml version="1.0" encoding="utf-8"?>
<!-- Generator: Adobe Illustrator 21.1.0, SVG Export Plug-In . SVG Version: 6.00 Build 0)  -->
<svg version="1.1" id="Layer_1" xmlns="http://www.w3.org/2000/svg" xmlns:xlink="http://www.w3.org/1999/xlink" x="0px" y="0px"
	 viewBox="0 0 259.2 120" style="enable-background:new 0 0 259.2 120;" xml:space="preserve">
<style type="text/css">
	.st0{fill:url(#SVGID_1_);}
	.st1{fill:#CCCCCC;}
	.st2{fill:#404041;}
	.st3{fill:url(#SVGID_2_);}
	.st4{fill:#EF4136;}
	.st5{fill:#BE1E2D;}
	.st6{fill:#F58F5B;}
	.st7{fill:#FFFFFF;}
	.st8{fill:#594A42;}
	.st9{fill:#363638;}
	.st10{fill:#525458;}
	.st11{fill:#696B6F;}
</style>
<g>
	
		<linearGradient id="SVGID_1_" gradientUnits="userSpaceOnUse" x1="857.0336" y1="59.237" x2="872.568" y2="59.237" gradientTransform="matrix(-1 0 0 -1 884.0952 122)">
		<stop  offset="0" style="stop-color:#6A8991"/>
		<stop  offset="0.53" style="stop-color:#335C64"/>
		<stop  offset="1" style="stop-color:#02383C"/>
	</linearGradient>
	<path class="st0" d="M26.4,54.3c0,0-6.9,7.7-8.5,16.9C17.9,71.3,32.5,65,26.4,54.3z"/>
	<polygon class="st1" points="26.6,55.6 21.4,62.8 23.4,61.1 22.7,63.2 21.6,63.9 20.9,65.1 20.9,66.5 21.4,66.5 20.1,67.2 
		20.1,67.9 20.4,68.3 22,68.3 23.1,67.1 24.9,65.7 26.8,63.8 26.8,61.8 27.4,59.6 	"/>
	<path class="st2" d="M14.1,104.8c-2.1-0.1-4.2-0.2-6.3-0.4l8.9-28.9L49,62l29.8,1.1l130,0.6l36.7,5.8l6.2,35.3
		C251.7,104.8,14.1,104.8,14.1,104.8z"/>
	<path class="st2" d="M107.1,11.7l6.3,1.5l3,1.9c0,0-17.5,3.5-35.4,29.2l-25.4-3C55.6,41.3,71.5,23,107.1,11.7z"/>
	
		<linearGradient id="SVGID_2_" gradientUnits="userSpaceOnUse" x1="626.1982" y1="77.5377" x2="643.1211" y2="77.5377" gradientTransform="matrix(-1 0 0 -1 884.0952 122)">
		<stop  offset="0" style="stop-color:#BC352E"/>
		<stop  offset="0.13" style="stop-color:#DD4D2F"/>
		<stop  offset="0.21" style="stop-color:#BE4A2B"/>
		<stop  offset="0.33" style="stop-color:#D35A39"/>
		<stop  offset="0.46" style="stop-color:#EC6B4E"/>
		<stop  offset="0.62" style="stop-color:#EE5F3C"/>
		<stop  offset="0.91" style="stop-color:#ED4E2C"/>
		<stop  offset="1" style="stop-color:#BC4C24"/>
		<stop  offset="1" style="stop-color:#BC4C24"/>
	</linearGradient>
	<path class="st3" d="M244.6,32.7l1.5-0.8c2.7-0.1,12.2,21.8,8.2,25.1C254.2,57,241.3,44.1,244.6,32.7z"/>
	<path class="st4" d="M237.3,17.6c-1.6-3.1,7.3-3.6,5.6-5.8c0,0-84.2-13.5-135.8,0l6.3,1.5c0,0-22.4,8.5-33.2,29.5L55.4,40
		c-21.7,4.9-45.3,8.7-52.5,32.7l0.3,20.4L1,95.3l0.6,7.7l2.8,0.8c0,0,5.9,1.8,9,1.8c0,0-1.6-30.9,26.9-30.5
		C67.4,74.3,67.1,103,67.1,103h132c0,0-2.6-29.1,28.6-27.9c26.1,1,22.5,31.2,22.5,31.2l3.9-1.1c0,0,3.9-24,4.7-31.5
		c0,0-2.8-5-2.8-9.7C255.8,63.9,249.4,30.3,237.3,17.6z"/>
	<path class="st5" d="M0,87l1.4,15.9l2.8,0.8c0,0,5.9,1.8,9,1.8c0,0-1.6-30.9,26.9-30.5c27.1-0.8,26.8,27.9,26.8,27.9h132
		c0,0-2.6-29.1,28.6-27.9c26.1,1,22.5,31.2,22.5,31.2l6.5-1.6c0,0,1.4-8.9,2.7-17.5c-1.6-0.5-5.7-0.8-6-0.9
		c-4.4-14-16.1-21.3-28.2-22c-21.8-1.3-31.3,21-33.6,33.3c-38.6-0.2-77.3-0.4-115.9-0.6C67.9,53.7,24.6,56.5,8.3,86.2
		C8.1,86.3,2.5,86.7,0,87z"/>
	<path class="st2" d="M217.6,17c-9.8-3.7-47.6-4.4-58.5-4.6l3.4,31.6h66.9C228,36,225.8,17.7,217.6,17L217.6,17z M158.6,44
		l-2.2-31.6c-5.5,0-11.2,0-17,0.2c-32.7,1.2-47.9,24.3-51.8,31.3L158.6,44L158.6,44z"/>
	<path class="st6" d="M100.6,35.8c0,0,3.3,6.1-1.1,11C99.5,46.8,84.1,40.8,100.6,35.8z"/>
	<path class="st7" d="M6.6,69c3.6-9.5,9.3-13.3,17.3-17.3c7.7-0.8,7.9,4.9,4.8,10.1C25.5,67.1,11.7,77.6,6.6,69z"/>
	<path class="st8" d="M157.8,52.6v-1c0-0.9-0.5-1.6-1.2-1.6l-14.7-0.1c-0.7,0-1.2,0.7-1.2,1.6v1L157.8,52.6z"/>
	<path class="st8" d="M188,53v-1c0-0.9-0.5-1.6-1.2-1.6h-14.7c-0.7,0-1.2,0.7-1.2,1.6v1H188z"/>
	<g>
		<path class="st9" d="M55.2,114c8.1-8,8.2-21.1,0.1-29.2c-8-8.1-21.1-8.2-29.2-0.1c-8.1,8-8.2,21.1-0.1,29.2
			C34,122,47.1,122,55.2,114L55.2,114z M30,88.6c5.9-5.9,15.4-5.8,21.3,0.1c5.8,5.9,5.8,15.4-0.1,21.3c-5.9,5.9-15.4,5.8-21.3-0.1
			l0,0C24.1,104,24.1,94.5,30,88.6z"/>
		
			<ellipse transform="matrix(4.940045e-03 -1 1 4.940045e-03 -58.9369 139.4539)" class="st7" cx="40.6" cy="99.3" rx="17.1" ry="17.1"/>
		
			<ellipse transform="matrix(4.955948e-03 -1 1 4.955948e-03 -58.9376 139.4526)" class="st10" cx="40.6" cy="99.3" rx="15.1" ry="15.1"/>
		<ellipse transform="matrix(0.7106 -0.7036 0.7036 0.7106 -58.186 57.9018)" class="st11" cx="41.3" cy="99.7" rx="5.2" ry="5.2"/>
		<path class="st7" d="M42.3,115.8h-2.2l-0.8-11.4l-8.7,7.4l-1.5-1.5l7.5-8.7l-11.4-1v-2.2l11.4-0.8l-7.4-8.7l1.5-1.5l8.7,7.5
			l1-11.4h2.2l0.8,11.4l8.7-7.4l1.5,1.5l-7.5,8.7l11.4,1v2.2l-11.4,0.8l7.4,8.7l-1.5,1.5l-8.7-7.5L42.3,115.8L42.3,115.8z
			 M43.8,100.7v-2l-1.4-1.4h-2L39,98.7v2l1.4,1.4h2L43.8,100.7z"/>
	</g>
	<g>
		<path class="st9" d="M239.3,114c8.1-8,8.2-21.1,0.1-29.2c-8-8.1-21.1-8.2-29.2-0.1c-8.1,8-8.2,21.1-0.1,29.2
			C218.1,122,231.2,122,239.3,114L239.3,114z M214.2,88.6c5.9-5.9,15.4-5.8,21.3,0.1s5.8,15.4-0.1,21.3c-5.9,5.9-15.4,5.8-21.3-0.1
			l0,0C208.2,104,208.3,94.5,214.2,88.6z"/>
		
			<ellipse transform="matrix(4.937118e-03 -1 1 4.937118e-03 124.3564 323.5966)" class="st7" cx="224.8" cy="99.3" rx="17.1" ry="17.1"/>
		
			<ellipse transform="matrix(4.952626e-03 -1 1 4.952626e-03 124.3527 323.5952)" class="st10" cx="224.8" cy="99.3" rx="15.1" ry="15.1"/>
		
			<ellipse transform="matrix(0.7106 -0.7036 0.7036 0.7106 -4.8713 187.5004)" class="st11" cx="225.5" cy="99.7" rx="5.2" ry="5.2"/>
		<path class="st7" d="M226.5,115.8h-2.2l-0.8-11.4l-8.7,7.4l-1.5-1.5l7.5-8.7l-11.4-1v-2.2l11.4-0.8l-7.4-8.7l1.5-1.5l8.7,7.5
			l1-11.4h2.2l0.8,11.4l8.7-7.4l1.5,1.5l-7.5,8.7l11.4,1v2.2l-11.4,0.8l7.4,8.7l-1.5,1.5l-8.7-7.5L226.5,115.8L226.5,115.8z
			 M228,100.7v-2l-1.4-1.4h-2l-1.4,1.4v2l1.4,1.4h2L228,100.7z"/>
	</g>
</g>
</svg>
