<?xml version="1.0" encoding="utf-8"?>
<!-- Generator: Adobe Illustrator 21.1.0, SVG Export Plug-In . SVG Version: 6.00 Build 0)  -->
<svg version="1.1" id="Layer_1" xmlns="http://www.w3.org/2000/svg" xmlns:xlink="http://www.w3.org/1999/xlink" x="0px" y="0px"
	 viewBox="0 0 337.9 120" style="enable-background:new 0 0 337.9 120;" xml:space="preserve">
<style type="text/css">
	.st0{fill-rule:evenodd;clip-rule:evenodd;fill:#23211E;}
	.st1{fill-rule:evenodd;clip-rule:evenodd;fill:#404041;}
	.st2{fill-rule:evenodd;clip-rule:evenodd;fill:#58595B;}
	.st3{fill-rule:evenodd;clip-rule:evenodd;fill:#FFFFFF;}
	.st4{fill-rule:evenodd;clip-rule:evenodd;fill:#363638;}
	.st5{fill-rule:evenodd;clip-rule:evenodd;fill:#9DA0A5;}
	.st6{fill-rule:evenodd;clip-rule:evenodd;fill:#E6E7E8;}
	.st7{fill-rule:evenodd;clip-rule:evenodd;fill:#D0D2D3;}
	.st8{fill-rule:evenodd;clip-rule:evenodd;fill:#C7C9CE;}
	.st9{fill-rule:evenodd;clip-rule:evenodd;fill:#FBF9F6;}
	.st10{fill-rule:evenodd;clip-rule:evenodd;fill:url(#SVGID_1_);}
	.st11{fill-rule:evenodd;clip-rule:evenodd;fill:#CED0D1;}
	.st12{fill-rule:evenodd;clip-rule:evenodd;fill:url(#SVGID_2_);}
</style>
<g>
	<polygon class="st0" points="41.3,50.4 17.8,68.9 20.5,87.9 30.6,99.1 93.3,100.2 246.1,102 298.2,92.7 305.1,90.9 291.3,57 
		246.6,45.1 	"/>
	<path class="st1" d="M146.7,5.9c-0.1,0-30.3,10.4-54.6,23c0,0-8,6.1-5.9,10.5l7.6,5.5l63.5-33.3l-5.8-4.3L146.7,5.9z"/>
	<path class="st1" d="M261,9.6c0,0,34.9,13.1,43.1,19l7.9,2.5l1.4,4.6l-7,5.1L259.6,14L261,9.6z"/>
	<g>
		
			<ellipse transform="matrix(1 -4.979489e-03 4.979489e-03 1 -0.4611 0.3164)" class="st2" cx="63.3" cy="92.8" rx="20.6" ry="20.6"/>
		<polygon class="st3" points="63.2,72.3 67.7,86.4 82.5,86.3 70.5,95 75.1,109 63.2,100.3 51.2,109 55.8,95 43.9,86.3 58.6,86.4 		
			"/>
		<path class="st4" d="M44.1,111.8c10.6,10.5,27.7,10.4,38.2-0.2c10.5-10.6,10.4-27.7-0.2-38.2C71.6,62.9,54.5,63,43.9,73.6
			C33.4,84.2,33.5,101.3,44.1,111.8L44.1,111.8z M77.2,106.5L77.2,106.5c-7.7,7.7-20.1,7.8-27.9,0.1c-7.7-7.7-7.8-20.1-0.1-27.9
			C56.8,71,69.3,71,77,78.6C84.8,86.3,84.8,98.7,77.2,106.5z"/>
		<ellipse transform="matrix(1 -4.926513e-03 4.926513e-03 1 -0.4555 0.3123)" class="st5" cx="63.2" cy="92.6" rx="5.3" ry="5.3"/>
		<path class="st3" d="M49.2,78.8C56.8,71,69.3,71,77,78.6c7.7,7.7,7.8,20.1,0.1,27.9c-7.7,7.7-20.1,7.8-27.9,0.1
			C41.6,99,41.5,86.5,49.2,78.8L49.2,78.8z M63.2,114.2c11.9,0,21.6-9.7,21.6-21.6c0-11.9-9.7-21.6-21.6-21.6
			c-11.9,0-21.6,9.7-21.6,21.6C41.6,104.5,51.3,114.2,63.2,114.2z"/>
		<path class="st3" d="M61.1,71.7c-0.1-0.6-2.5,14.7-2.5,14.7l9.5,0c0,0-2.6-14.3-2.5-14.7C65.7,71.2,61.1,71.7,61.1,71.7z"/>
		<path class="st3" d="M43.2,88.5C42.7,88.4,56.1,95,56.1,95l2.7-8.8c0,0-14-1.7-14.4-1.9C44,84.2,43.2,88.5,43.2,88.5z"/>
		<path class="st3" d="M53.5,110.5c-0.3,0.5,10-10.4,10-10.4l-7.7-5.1c0,0-5.7,12.9-5.9,13.2C49.6,108.5,53.5,110.5,53.5,110.5z"/>
		<path class="st3" d="M77.3,108.1c0.4,0.4-6.8-13.2-6.8-13.2l-7.6,5.7c0,0,10.6,9.9,10.8,10.3C74,111.2,77.3,108.1,77.3,108.1z"/>
		<path class="st3" d="M82.1,84.3c0.5-0.2-14.5,2.2-14.5,2.2l2.9,8.9c0,0,12.6-6.8,13-6.9C84,88.4,82.1,84.3,82.1,84.3z"/>
	</g>
	<g>
		
			<ellipse transform="matrix(1 -4.994367e-03 4.994367e-03 1 -0.4599 1.3734)" class="st2" cx="274.8" cy="92.8" rx="20.6" ry="20.6"/>
		<polygon class="st3" points="274.6,72.3 279.2,86.4 293.9,86.3 282,95 286.6,109 274.6,100.3 262.7,109 267.3,95 255.3,86.3 
			270.1,86.4 		"/>
		<path class="st4" d="M255.6,111.8c10.6,10.5,27.7,10.4,38.2-0.2c10.5-10.6,10.4-27.7-0.2-38.2C283,62.9,265.9,63,255.4,73.6
			C244.9,84.2,245,101.3,255.6,111.8L255.6,111.8z M288.6,106.5L288.6,106.5c-7.7,7.7-20.1,7.8-27.9,0.1c-7.7-7.7-7.8-20.1-0.1-27.9
			c7.7-7.7,20.1-7.8,27.9-0.1C296.2,86.3,296.3,98.7,288.6,106.5z"/>
		
			<ellipse transform="matrix(1 -4.945389e-03 4.945389e-03 1 -0.4547 1.3592)" class="st5" cx="274.6" cy="92.6" rx="5.3" ry="5.3"/>
		<path class="st3" d="M260.6,78.8c7.7-7.7,20.1-7.8,27.9-0.1c7.7,7.7,7.8,20.1,0.1,27.9c-7.7,7.7-20.1,7.8-27.9,0.1
			C253,99,253,86.5,260.6,78.8L260.6,78.8z M274.6,114.2c11.9,0,21.6-9.7,21.6-21.6c0-11.9-9.7-21.6-21.6-21.6
			c-11.9,0-21.6,9.7-21.6,21.6C253.1,104.5,262.7,114.2,274.6,114.2z"/>
		<path class="st3" d="M272.6,71.7c-0.1-0.6-2.5,14.7-2.5,14.7l9.5,0c0,0-2.6-14.3-2.5-14.7C277.1,71.2,272.6,71.7,272.6,71.7z"/>
		<path class="st3" d="M254.7,88.5c-0.5-0.1,12.9,6.5,12.9,6.5l2.7-8.8c0,0-14-1.7-14.4-1.9C255.5,84.2,254.7,88.5,254.7,88.5z"/>
		<path class="st3" d="M264.9,110.5c-0.3,0.5,10-10.4,10-10.4l-7.7-5.1c0,0-5.7,12.9-5.9,13.2C261,108.5,264.9,110.5,264.9,110.5z"
			/>
		<path class="st3" d="M288.7,108.1c0.4,0.4-6.8-13.2-6.8-13.2l-7.6,5.7c0,0,10.6,9.9,10.8,10.3
			C285.4,111.2,288.7,108.1,288.7,108.1z"/>
		<path class="st3" d="M293.6,84.3c0.5-0.2-14.5,2.2-14.5,2.2l2.9,8.9c0,0,12.6-6.8,13-6.9C295.4,88.4,293.6,84.3,293.6,84.3z"/>
	</g>
	<path class="st6" d="M0.8,75.5C-1.7,68.2,1,62.9,3.5,57c3.8-8.9,72.7-25.6,89.9-28.8c0,0-7,3.5-0.3,9.7c0,0,45.9-24.5,57-29
		l-3.5-3.5c0,0,43.5-13.8,114.3,4.1v2.1l43.9,22.8c0,0,9.4-1.4-0.6-5.9c19.3,6.2,25.8,6.6,26.9,10l-0.3,18.6v5.5c0,0,8.3,3.1,7.3,9
		c-1,5.9-2.8,11.1-2.8,11.1l-1.7,1l-0.7,7.3c0,0-17.4,9.7-31.2,10.7c3.7-17.5-2.7-34.8-28.7-34C250.2,68.5,246,91.7,246,91.7
		l-0.3,9.7l-0.3,2.1l-150.9-2.8v-6.6v-2.1c0,0-0.2-23.2-31.6-25c-31.4-1.7-30.6,30.4-30.6,30.4l-0.7,4.8c0,0-24.1-0.3-28.7-9.7
		C2.8,92.7,2.5,79.6,0.8,75.5z"/>
	<path class="st7" d="M102,100.9l-7.6-0.1v-6.6v-2.1c0,0-0.2-23.2-31.6-25c-31.4-1.7-30.6,30.4-30.6,30.4l-0.7,4.8
		c0,0-24.1-0.3-28.7-9.7c0,0-0.1-3.6-0.4-7.6L23,88c0,0,3.2-9.6,13-18.7c18.7-17.3,49-12.6,62.9,10.1c3.6,5.9,5.2,16.7,5.2,16.7
		S103.4,98,102,100.9z"/>
	<path class="st7" d="M330.6,62.7c0,0,8.3,3.1,7.3,9c-1,5.9-2.8,11.1-2.8,11.1l-1.7,1l-0.7,7.3c0,0-17.4,9.7-31.2,10.7
		c2.6-16.5-2.7-34.8-28.7-34C250.2,68.5,246,91.7,246,91.7l-0.2,6c-5.8-2-9.5-3.5-9.5-3.5c5.6-22.2,21.4-41.5,46.8-34.7
		c11.8,3.2,18.9,13.3,18.9,13.3s7.5-0.9,14.4-3.5C323.3,66.8,330.6,62.7,330.6,62.7z"/>
	<polygon class="st7" points="94,92.4 94.7,100.5 245,103.5 245.5,101.4 245.9,92.4 242,92.2 237.2,94.3 102.7,94 101.3,92.2 	"/>
	<path class="st8" d="M0.5,74.6L2.4,85c0,0,18.5,3.9,20.6,3l-1.5-9C21.5,79,2.8,77.8,0.5,74.6z"/>
	<path class="st9" d="M6.4,57.4c0,0,2.1-3.5,4.5-5c0,0,3.1-0.2,8.5,1.2c5.4,1.4,9,1.9,9,1.9s5.7,1.4-2.6,4
		c-8.3,2.6-13.8,2.4-16.9,0.9C5.7,58.8,6.4,57.4,6.4,57.4z"/>
	<path class="st1" d="M99.3,43.6c0,0,36.4-25.6,58-32c0,0,10.5-4.1,34.4-4.2c5.6,16.8,4.7,14,9.7,33c-17.3,0.5-31,0.9-31,0.9
		L99.3,43.6L99.3,43.6z M197.6,7.5l9.4,32.8c26.6-0.8,58.9-1.7,63.8-1.7c8.5,0-0.9-9.2-0.9-9.2c-3-2.8-14.5-10.1-14.5-10.1
		c-7.6-3.7-19.1-9.9-51.6-11.5C201.6,7.6,199.6,7.5,197.6,7.5z"/>
	<ellipse class="st2" cx="174.3" cy="51.4" rx="8.7" ry="1.5"/>
	<ellipse class="st2" cx="256.8" cy="48" rx="8.7" ry="1.5"/>
	<linearGradient id="SVGID_1_" gradientUnits="userSpaceOnUse" x1="324.3664" y1="43.8388" x2="321.4303" y2="58.9435">
		<stop  offset="0" style="stop-color:#F3807C"/>
		<stop  offset="0.5" style="stop-color:#EE3D57"/>
		<stop  offset="1" style="stop-color:#DD1E47"/>
	</linearGradient>
	<path class="st10" d="M330.8,45c0,0-9.1-0.2-13.6,1.1c-4.5,1.3-3.3,9.1,0.2,11.4c2.4,1.6,10.9,0.5,13,0
		C330.5,57.4,332.5,49.3,330.8,45z"/>
	<path class="st11" d="M114.9,46.3c-3.1,0.9-15.6,0.1-16.3-2.6C97.8,41,108.7,34,115,34.6L114.9,46.3z"/>
	<linearGradient id="SVGID_2_" gradientUnits="userSpaceOnUse" x1="2.5659" y1="-1184.3807" x2="2.5659" y2="1314.377">
		<stop  offset="0" style="stop-color:#FFFFFF"/>
		<stop  offset="1" style="stop-color:#231F20"/>
	</linearGradient>
	<path class="st12" d="M3.6,56.7c0,0,1.5-1.3,1.6,2.9c0.1,4.3-0.9,13.9-2.4,14c-1.5,0-2.7-0.9-2.8-1.3C-0.7,61.5,3.6,56.7,3.6,56.7z
		"/>
</g>
</svg>
