<?xml version="1.0" encoding="utf-8"?>
<!-- Generator: Adobe Illustrator 21.1.0, SVG Export Plug-In . SVG Version: 6.00 Build 0)  -->
<svg version="1.1" id="Layer_1" xmlns="http://www.w3.org/2000/svg" xmlns:xlink="http://www.w3.org/1999/xlink" x="0px" y="0px"
	 viewBox="0 0 1253.8 765.7" style="enable-background:new 0 0 1253.8 765.7;" xml:space="preserve">
<style type="text/css">
	.st0{fill:#ECEDEC;}
	.st1{fill:#1F1F1F;}
	.st2{fill:#6F6A61;}
	.st3{fill:#8D877B;}
	.st4{fill:#A9A296;}
	.st5{fill:#C7BFAF;}
	.st6{fill:#DDD4C3;}
	.st7{fill:#F3ECDB;}
	.st8{fill:#333331;}
	.st9{fill:#E8E9E8;}
	.st10{fill:#EFF1F0;}
	.st11{fill:#E8EAE9;}
	.st12{fill:#111111;}
	.st13{fill:#3F3F3F;}
	.st14{fill:#434343;}
	.st15{fill:#939493;}
	.st16{fill:#EBEDEC;}
	.st17{fill:#A5A6A5;}
	.st18{fill:#B7B7B7;}
	.st19{fill:#4A4A4A;}
	.st20{fill:#797B78;}
	.st21{fill:#2D2D2D;}
	.st22{fill:#2B2B2B;}
	.st23{fill:#4E4E4D;}
	.st24{fill:#C8C8C8;}
	.st25{fill:#4E4E4E;}
	.st26{fill:#6B6C6C;}
	.st27{fill:#C9C3B5;}
	.st28{fill:#0D0D0D;}
	.st29{fill:#606261;}
	.st30{fill:#0B0B0B;}
	.st31{fill:#0C0C0C;}
	.st32{fill:#706C65;}
	.st33{fill:#515151;}
	.st34{fill:#717171;}
	.st35{fill:#262525;}
	.st36{fill:#DED6C6;}
	.st37{fill:#9E9E9E;}
	.st38{fill:#343434;}
	.st39{fill:#E9E9E9;}
	.st40{fill:#2E2E2E;}
	.st41{fill:#8D8D8D;}
	.st42{fill:#868686;}
	.st43{fill:#828282;}
	.st44{fill:#B9B1A4;}
	.st45{fill:#5C5C5B;}
	.st46{fill:#414040;}
	.st47{fill:#C3C3C3;}
	.st48{fill:#2A2A2A;}
	.st49{fill:#6B6B6B;}
	.st50{fill:#474747;}
	.st51{fill:#9F9B90;}
	.st52{fill:#585858;}
	.st53{fill:#928D80;}
	.st54{fill:#131313;}
	.st55{fill:#5E5E5E;}
	.st56{fill:#7E7E7E;}
	.st57{fill:#484848;}
	.st58{fill:#2D2C2C;}
	.st59{fill:#6F6F6F;}
	.st60{fill:#858585;}
	.st61{fill:#383838;}
	.st62{fill:#656565;}
	.st63{fill:#616161;}
	.st64{fill:#1C1C1C;}
	.st65{fill:#465154;}
	.st66{fill:#858686;}
	.st67{fill:#666667;}
	.st68{fill:#2F2F30;}
	.st69{fill:#282828;}
	.st70{fill:#E6C3C1;}
	.st71{fill:#878788;}
	.st72{fill:#808080;}
	.st73{fill:#9F9F9F;}
	.st74{fill:#434344;}
	.st75{fill:#CBCBCE;}
	.st76{fill:#2C2C2B;}
	.st77{fill:#AEAEAE;}
	.st78{fill:#787878;}
	.st79{fill:#3B4346;}
	.st80{fill:#121212;}
	.st81{fill:#151515;}
	.st82{fill:#4C4C4C;}
	.st83{fill:#676767;}
	.st84{fill:#414141;}
	.st85{fill:#6E6E70;}
	.st86{fill:#888888;}
	.st87{fill:#666666;}
	.st88{fill:#848383;}
	.st89{fill:#8A8989;}
	.st90{fill:#959596;}
	.st91{fill:#333333;}
	.st92{fill:#A5A5A5;}
	.st93{fill:#EEEEEE;}
	.st94{fill:#939393;}
	.st95{fill:#939494;}
	.st96{fill:#243443;}
	.st97{fill:#747474;}
	.st98{fill:#E6E6E6;}
	.st99{fill:#040404;}
	.st100{fill:#0E0E0E;}
	.st101{fill:#263A4B;}
	.st102{fill:#787C87;}
	.st103{fill:#464648;}
	.st104{fill:#5E5E61;}
	.st105{fill:#737373;}
	.st106{fill:#ACACAC;}
	.st107{fill:#A9A9A9;}
	.st108{fill:#373737;}
	.st109{fill:#7B7A7D;}
	.st110{fill:#82858B;}
	.st111{fill:#939395;}
	.st112{fill:#363636;}
	.st113{fill:#77777A;}
	.st114{fill:#A9A9AB;}
	.st115{fill:#757575;}
	.st116{fill:#D8D8D8;}
	.st117{fill:#242424;}
	.st118{fill:#323232;}
	.st119{fill:#313131;}
	.st120{fill:#707E8F;}
	.st121{fill:#95959A;}
	.st122{fill:#0A0A0A;}
	.st123{fill:#AEA4A5;}
	.st124{fill:#606060;}
	.st125{fill:#7A8594;}
	.st126{fill:#652626;}
	.st127{fill:#6B7988;}
	.st128{fill:#2F2F2F;}
	.st129{fill:#DDDDDD;}
	.st130{fill:#212121;}
	.st131{fill:#B3B995;}
	.st132{fill:#444444;}
	.st133{fill:#161616;}
	.st134{fill:#3B3B3B;}
	.st135{fill:#868585;}
	.st136{fill:#1F1E1F;}
	.st137{fill:#7D7E7D;}
	.st138{fill:#DAD9D9;}
	.st139{fill:#9D9D9D;}
	.st140{fill:#989798;}
	.st141{fill:#707070;}
	.st142{fill:#C4C4C4;}
	.st143{fill:#959595;}
	.st144{fill:#5B5C5B;}
	.st145{fill:#999999;}
	.st146{fill:#353535;}
	.st147{fill:#696A68;}
	.st148{fill:#C5C5C5;}
	.st149{fill:#909090;}
	.st150{fill:#333332;}
	.st151{fill:#929292;}
	.st152{fill:#222222;}
	.st153{fill:#353533;}
	.st154{fill:#060606;}
	.st155{fill:#1E1E1E;}
	.st156{fill:#1B1B1B;}
	.st157{fill:#9A9A9A;}
	.st158{fill:#9B9B9B;}
	.st159{fill:#171717;}
	.st160{fill:#3E3E3E;}
	.st161{fill:#181818;}
	.st162{fill:#B9B9B9;}
	.st163{fill:#3C3C3C;}
	.st164{fill:#BFBFBF;}
	.st165{fill:#404040;}
	.st166{fill:#535353;}
	.st167{fill:#191919;}
	.st168{fill:#848484;}
	.st169{fill:#7C7C7C;}
	.st170{fill:#383837;}
	.st171{fill:#A0A0A0;}
	.st172{fill:#4F504F;}
	.st173{fill:#A6A6A6;}
	.st174{fill:#464646;}
	.st175{fill:#C1C1C1;}
	.st176{fill:#8A8A8A;}
	.st177{fill:#292929;}
	.st178{fill:#697265;}
	.st179{fill:#F3F3F3;}
	.st180{fill:#2C2C2C;}
	.st181{fill:#494949;}
	.st182{fill:#1A1A1A;}
</style>
<path class="st0" d="M-56.2,0H3.3c34.1,22.2,68.1,44.6,100.6,69c2.8,2.7,7.9,4.3,8.2,8.8c2.1,17.9,5.4,35.6,8.7,53.3
	c-15.2-0.2-30.4-2.1-45.6-3.4c-8.2-9.6-6-26.7-18.4-33.7c-13.9-6.8-30.4-4-45.3-3.4c-22.7,1-45.4,3.3-67.7,7.5V0z"/>
<path class="st1" d="M3.3,0h8C43.4,21.4,76,42.3,106.9,65.7c-0.8,5.8,8.2,8.7,12,12.8c-4.6,1.5-0.2,8.4-1,11.5
	c3.5,19.3,5.1,39.2,11.2,57.8c7.5,6.7,6.5-11.9,5.6-15.7c-5.8-17.5-6.4-37.4-15.8-53.6c16.9,11.7,8.8,41.3,24,54.7
	c8-7.4,19.4-10.3,28.6-2.2c-6.1,1.1-13.9,0.1-17.9,6.7c-7.6,13.2,5.5,27.7,18.8,28.5c-3.8,9.2-11.9,16.6-16.3,25.9
	c-13.1-0.1-29.6,8.3-41-0.5c1.1-7.3,18.2-4.9,16.8-14.5c-1.2-0.1-2.5-0.2-3.7-0.1c-4.9,0-9.7,0.8-14.5,1.5c-23.6,2.4-47.3,5.3-71,6
	c7.7-6.1,17.6-10.6,21.6-20.1c1.8-8-2.4-15.6-3.4-23.4c-1.7-7.1-3.9-14.1-6-21c-1.5-5.5-3.6-10.8-5.7-16.1
	c-2.7-7.1-11.9-7.3-18.2-6.8c-26.1-0.7-52,1.9-77.6,6.4c-3.9,0.4-7,3-9.6,5.8V98.2c22.3-4.2,45-6.5,67.7-7.5
	c13.3-0.3,28.7-1.7,38.3,9.4c8.8,17.9,12.8,37.8,19.7,56.3c3.7,0.3,8.2,0.5,12.1,1.7c7.9-3.1,10.8-12.4,15.3-18.8
	c7.8-2.8,16.5-3.6,24.8-2.2c-0.2-2-0.6-3.9-1.1-5.9c-3.3-17.7-6.6-35.4-8.7-53.3c-0.3-4.5-5.4-6.2-8.2-8.8
	C71.3,44.6,37.3,22.2,3.3,0z"/>
<path class="st2" d="M11.2,0h15.9c63.4,41.8,126.1,85.3,186,132.3c-1,0.6-2.1,1.2-3.1,1.9c-3.1-0.8-7.2-2.3-6.3,2.6
	c-2.9-1.1-5.7-2.2-8.6-3c-29.1-23.1-58-46.4-88.1-68.1C76,42.3,43.4,21.4,11.2,0z"/>
<path class="st3" d="M27.1,0h13.3c60,41.5,119.6,84.1,176.1,130.2c-1.1,0.7-2.2,1.5-3.4,2.1C153.2,85.3,90.5,41.8,27.1,0z"/>
<path class="st4" d="M40.4,0h15.8C110.4,43.3,167.8,83,221,127.8c-1.5,0.8-3,1.6-4.6,2.3C159.9,84.1,100.4,41.5,40.4,0z"/>
<path class="st5" d="M56.1,0h19c22.1,22.1,48.2,39.6,72.3,59.5c27.3,21.7,54.1,45.1,82.5,64.9c-3,1.1-6,2.2-8.9,3.5
	C167.8,83,110.4,43.3,56.1,0z"/>
<path class="st6" d="M75.2,0h14.3c49,40.4,101.5,77.4,146.8,121.9c-2.1,0.8-4.1,1.7-6.2,2.4c-28.4-19.8-55.2-43.2-82.5-64.9
	C123.4,39.6,97.3,22.1,75.2,0z"/>
<path class="st7" d="M89.4,0h40c43.5,38.6,85.4,79,130.2,116.2c-6.2,2.8-15.9,3.1-23.4,5.7C190.9,77.4,138.5,40.4,89.4,0z"/>
<path class="st8" d="M129.5,0h5.9c41.7,36.7,81.2,75.9,123.8,111.6c6,6.3,14.4,5.7,22.4,5.7c17.9,1.8,35.2,8.2,50.3,17.9
	c-4,0.4-5.4,2.8-1.7,5.5c14.8,13.7,27.2,30,38.7,46.3c-3.1-0.5-11.8-2.1-5,1c-1.8-0.1-3.6-0.2-5.4-0.3c-2.6-0.8-5.2-1.5-7.8-2.3
	c0.2-0.7,0.4-1.4,0.6-2.1c0-3.9-8.3-10.8-11-16.6c-21.4-27.1-56.5-42.4-90.9-38.8c-16.2-1-30.8,6.6-45.8,11.1
	c1.9-1.9,4.1-3.4,6.4-4.8c1-0.6,2.1-1.2,3.1-1.9c1.1-0.7,2.3-1.4,3.4-2.1c1.5-0.8,3-1.6,4.6-2.3c2.9-1.3,5.9-2.4,8.9-3.5
	c2.1-0.8,4.2-1.6,6.2-2.4c7.6-2.6,17.2-2.9,23.4-5.7C214.9,79,172.9,38.6,129.5,0z"/>
<path class="st9" d="M135.4,0h387.5c7.4,23,14.5,46,22,69c1.9,4.2,3.1,12.3,10,10c147-2.7,294.3,2.5,441.1-4.5
	c23-1.7,46.4-1.7,68.7-7.5c1.4,0.8,2.7,1.9,4.2,2.8c5.7-5.6,14.1-0.6,21-1.8c18.6-0.8,37.4-1.9,55.7-5.8c5.6,2.4,23.4-1.4,16.4-9.7
	c-4.4,9.9-11.9-3-18.8,0.3c1.8,2.6,2.1,5.3-1.8,3.9c-0.1-7.3-9.3-1.7-13.8-4.6c-3-2.1-6-4.2-9.8-3.4c5.8-10.1,17.2-10.1,26.9-13.7
	c5.8,7.7,16.6,9.2,24.3,11.7c-1.1,12.8,6.6-1.4,9.9,5.1c2.8,6,10.2,0.5,14.9,1.1c8.8,1.1,16.7,7.1,25.9,6
	c10.3-7.2,22.9-3.8,34.1-5.2v96.9c-12.5,10.1-26.4,22.8-44,19.2c-30.8-1.8-61.6-3.3-92.3-4.5c7.1,2.6,20.3-4.2,13.2-12.3
	c-5.1-4.4,3.9-10.6,8.2-7.2c5.3,4.5,16.4,0,16.5,9.4c8.3,5.6,19,3.1,27.5,8.6c14.6,1,1-21.5-7-12.6c-2.9,4.1-10.6-5.7-3.8-4.9
	c-3.5-4.3-10.3-6.4-11.5-12.4c-0.4-2.7,6.6-5.3,2.1-7c-5.5-2.6-18.5,7.4-16.5-3c-4,0.2-9.2,2.9-10-2.6
	c-14.2-5.2-27.6-11.7-43.5-14.4c-13.3-1.2-27.8,0.7-39.7-5c-3.9,6.8-7.3-4.2-13.3-1c-7.1-2-12.9,5.1-20,2.1
	c-2.9-0.8-4.8,1.6-7.1,2.8c-17.2-6.9-36.6,0.1-54.4-4.2c-111.7-2.5-225.7-6.1-337.7-1c-3.5,4.5-2.9,13.3,1.2,17.7
	c2.1-4.3-3.5-11.1,2.1-13.7c5.2,2.4,0.1,9.9,5,12.7c-2.4-8.9-0.1-13.1,8.8-12.2c2.7,3.6,2.1,8.7,4.9,12.3c2-2.2-2.9-12.6,3-10.3
	c1.7,3.5,0.8,8.6,4.2,11c1-3.3,0.1-6.8,0.2-10.2c5-0.7,6.4,9.1,4.7,11.9c-5.5-1.6-9.9,1.9-14.4,4.5c-12.9,0.4-23.5,8.2-32.5,16.7
	c6.6-1.3,13.8-0.9,19.6,2.7c-13.4,0.4-26.8,0.5-40.2,0.1c-24.8-1.7-49.7-0.6-74.5-0.6c-4.5-0.1-9-0.2-13.5,0
	c-21.7,0.2-43.4-0.8-65-1.1c-30.3-3-60.8-3.6-91.2-3.1c-4.4,1.4-7.5-1.9-10.9-3.8c-15.1-9.7-32.4-16.1-50.3-17.9
	c-8,0-16.5,0.6-22.4-5.7C216.6,75.9,177.1,36.7,135.4,0z"/>
<path class="st10" d="M522.9,0h113.9c0.1,17.3-10.5,40.3,2.9,54c41.3,4.4,83.5,1.5,124.9-1.2c14.4-1.4,7.9-19.4,5.7-28.3
	c-1.6-8.3-5.1-16.1-5.8-24.5h489.3v53.8c-11.1,1.4-23.8-2-34.1,5.2c-9.2,1.1-17.1-4.9-25.9-6c-4.8-0.7-12.2,4.8-14.9-1.1
	c-3.3-6.5-11,7.7-9.9-5.1c-7.8-2.5-18.6-4-24.3-11.7c-9.7,3.6-21.2,3.6-26.9,13.7c3.8-0.8,6.8,1.2,9.8,3.4
	c4.4,2.9,13.6-2.7,13.8,4.6c4,1.4,3.6-1.3,1.8-3.9c6.9-3.3,14.4,9.5,18.8-0.3c7,8.2-10.8,12.1-16.4,9.7c-18.3,3.9-37,4.9-55.7,5.8
	c-6.9,1.2-15.3-3.8-21,1.8c-1.4-0.9-2.7-2-4.2-2.8c-22.2,5.8-45.7,5.8-68.7,7.5c-146.8,6.9-294.1,1.8-441.1,4.5
	c-6.9,2.2-8-5.8-10-10C537.4,46,530.3,23,522.9,0z"/>
<path class="st11" d="M636.8,0h127.8c0.7,8.4,4.2,16.3,5.8,24.5c2.2,8.9,8.7,26.9-5.7,28.3c-41.4,2.8-83.6,5.6-124.9,1.2
	C626.3,40.3,636.9,17.3,636.8,0z"/>
<path class="st12" d="M106.9,65.7c30.2,21.6,59.1,45,88.1,68.1c14.2,8-6.4,13.2-11,20.4c-3.9,4.1-6.8,9.2-11.7,12.1
	c-13.3-0.9-26.4-15.4-18.8-28.5c4-6.6,11.8-5.6,17.9-6.7c-9.2-8.1-20.6-5.2-28.6,2.2c-15.1-13.4-7.1-43-24-54.7
	C115.1,74.3,106.1,71.5,106.9,65.7z"/>
<path class="st13" d="M117.9,90c0.8-3-3.6-10,1-11.5c9.4,16.2,10,36.1,15.8,53.6c0.9,3.8,1.9,22.4-5.6,15.7
	C123,129.2,121.4,109.2,117.9,90z"/>
<path class="st14" d="M11.5,90.6C26.4,90,42.9,87.3,56.8,94c12.5,6.9,10.2,24,18.4,33.7c15.2,1.2,30.3,3.2,45.6,3.4
	c0.4,1.9,0.8,3.9,1.1,5.9c-8.3-1.3-17-0.6-24.8,2.2c-4.5,6.4-7.4,15.7-15.3,18.8c-4-1.2-8.4-1.4-12.1-1.7
	C62.8,137.8,58.8,117.9,50,100C40.2,88.9,24.8,90.3,11.5,90.6z"/>
<path class="st15" d="M-46.6,103.5C-21,99,4.9,96.4,30.9,96.9c6.3-0.5,15.5-0.2,18.2,6.8c-9,4.4-11.5-7.3-20.3-4.8
	c-5.7-1.8-8.4,3-9.8,7.2c-20.9,3.6-40.9,10.3-61.2,15.8c-6.5,0.6-13,6-12.3,13c-0.6-0.9-1.2-1.7-1.8-2.6v-23.2
	C-53.6,106.5-50.5,104-46.6,103.5z"/>
<path class="st16" d="M620.5,100.7c112-5.1,226-1.5,337.7,1c17.8,4.4,37.2-2.7,54.4,4.2c2.2-1.2,4.2-3.7,7.1-2.8
	c7.2,3,12.9-4.1,20-2.1c6-3.2,9.5,7.8,13.3,1c11.8,5.7,26.3,3.8,39.7,5c15.9,2.7,29.3,9.2,43.5,14.4c0.8,5.5,6,2.8,10,2.6
	c-2,10.3,11,0.4,16.5,3c4.5,1.7-2.5,4.3-2.1,7c1.2,6.1,8,8.1,11.5,12.4c-6.8-0.9,0.9,8.9,3.8,4.9c8-8.9,21.5,13.6,7,12.6
	c-8.5-5.5-19.2-3-27.5-8.6c-0.2-9.4-11.2-4.9-16.5-9.4c-4.3-3.4-13.3,2.8-8.2,7.2c7.1,8.1-6.1,15-13.2,12.3
	c-9.2-0.6-18.3-0.3-27.5-0.6c-12.1-1.4-24.3-0.7-36.5-0.5c-113.8-6.2-227.8-15.4-341.6-17.2c-6.1-6.1-16.8-2.4-24.7-4.5
	c-9-2-18.3-1.7-26.8,2.3c-11.1,0-22.4,1.2-33.3-1.1c-5.8-3.6-13-4-19.6-2.7c9-8.5,19.6-16.3,32.5-16.7c4.5-2.5,8.9-6,14.4-4.5
	c1.7-2.8,0.3-12.6-4.7-11.9c-0.1,3.4,0.9,6.8-0.2,10.2c-3.4-2.4-2.4-7.5-4.2-11c-6-2.3-1.1,8.1-3,10.3c-2.8-3.6-2.2-8.7-4.9-12.3
	c-9-0.8-11.2,3.3-8.8,12.2c-4.9-2.8,0.3-10.3-5-12.7c-5.6,2.6,0,9.4-2.1,13.7C617.7,114,617,105.2,620.5,100.7z"/>
<path class="st17" d="M19,106.3c1.4-4.3,4.1-9.1,9.8-7.2c8.7-2.5,11.3,9.2,20.3,4.8c2.1,5.3,4.2,10.6,5.7,16.1c-8-1.3-17.8,6.9-24-1
	c-1.8,1.5-3.6,3-5.4,4.5c-24.6,5-51.7,8.9-72,24.7c-2.8-4.2-5.2-8.6-7.7-13c-0.8-7,5.8-12.4,12.3-13C-21.9,116.6-1.9,109.8,19,106.3
	z"/>
<path class="st18" d="M25.4,123.5c1.8-1.5,3.6-3,5.4-4.5c6.2,7.9,16-0.3,24,1c2.1,7,4.3,13.9,6,21c-22.2,0.1-44.9,4.1-66.5,10.5
	c-10.6,2.2-22.6,4.7-28.9,14.4c-4.2-5.8-8.2-11.7-12.1-17.8C-26.3,132.3,0.8,128.4,25.4,123.5z"/>
<path class="st19" d="M203.6,139c15-4.5,29.6-12,45.8-11.1c-28,5.9-56.3,21-72.7,45.1c-1.5,0.9-4.6,2.4-0.8,2
	c-1.4,0.3-4.1,1-5.5,1.4c-7.8,13-16.2,26.8-17.4,42.1c0.4,0.1,1.3,0.4,1.7,0.5c-3.2,3.8-8.4,12-0.2,13.2c5,0.5,25.2,6.6,12.5,10.9
	c-2.2,1.3-0.7,2.8,0.7,4c-2.7,2.7-5.1,5.5-7.9,8.1c-3.2-5.9,8.4-16-1.6-17.7c-5.1,1.1-10.1-5.7-14.2-2.4c-2.1,11-4.9,22.7-0.9,33.7
	c4.8,2.8,8.9-6.1,12.5-2.7c0.1,6.8-5,13.9-1,20.5c-6,21,6.5,47.8,16,68.5c2.2,5.4-6,2.6-9,2.2c1.4-0.1,2.8-0.2,4.1-0.4
	c-10.4-19.8-17.4-42-17.6-64.3c-4.1-11.4-10.7-2.3-8,5c2,20.3,7.7,40.2,16.8,58.5c-6.8-0.1-8.2-7.9-10.3-13.1
	c-15-46-16.9-99,5.5-142.9c1.4-2.6,2.6-5.4,3.9-8.1c4.4-9.2,12.5-16.6,16.3-25.9c5-2.9,7.8-8,11.7-12.1c4.6-7.2,25.1-12.4,11-20.4
	c2.9,0.8,5.8,1.9,8.6,3c-0.8-4.9,3.2-3.4,6.3-2.6C207.7,135.6,205.5,137.1,203.6,139z"/>
<path class="st20" d="M249.4,127.9c34.4-3.6,69.5,11.7,90.9,38.8c2.8,5.7,11,12.7,11,16.6l-0.9,0.2c-13.3-13.5-24.3-30.5-42-39
	c-39.2-23.7-91.8-9.2-120.1,24.6c-2.8,3.7-7.1,4.3-11.5,4.1C193.2,148.9,221.4,133.8,249.4,127.9z"/>
<path class="st21" d="M188.3,169c28.3-33.8,80.9-48.3,120.1-24.6c17.7,8.5,28.7,25.5,42,39c-6.5,2.7-9.5-5.6-12.9-9.2
	c-12.1-13.3-29-29.9-48.1-27.3c0.8-0.6,1.6-1.3,2.4-1.9c-15.5-3.3-31.8-1-46.4,5c-1.5,0.5-3,1.1-4.5,1.6
	c-17.6-4.4-30.6,13.8-43.3,23.2c-7.6,8.8-13.6,19.3-16.3,30.7c-2.7,9.3-18.8,4.5-19.3,15.1c5.5,3.5,6.6,14.3,12.3,15.5
	c2.5,3.3,7.8,1.9,9.8,5.7c-5.7,1.3-11.4,2.6-16.6,5.2c-1.4-1.2-2.9-2.7-0.7-4c12.7-4.3-7.5-10.4-12.5-10.9c-8.2-1.2-3-9.5,0.2-13.2
	c4.5-4.7,10.4-7.3,16-10.3c5.4-10.4,3.8-27.8,16.4-32.3c-3.5-1.6-7.4-1.2-11.1-1.4c-3.8,0.4-0.7-1.1,0.8-2
	C181.2,173.3,185.5,172.7,188.3,169z"/>
<path class="st22" d="M-56.2,132.6c0.6,0.8,1.2,1.7,1.8,2.6c2.5,4.4,4.9,8.8,7.7,13c3.9,6,7.9,12,12.1,17.8
	c11.1,18.3,35.7,15.7,54.2,19.2c2.2,0.4,4.5,1,6.7,1.5c-11.1-0.1-22.2,2-33.3,1.8c-19.5-2.5-36.7-12.8-49.2-27.8
	C-56.2,160.7-56.2,132.6-56.2,132.6z"/>
<path class="st23" d="M332,135.2c3.4,1.9,6.4,5.2,10.9,3.8c30.4-0.4,60.9,0.1,91.2,3.1c-14.3,3.5-29.3,2.7-43.7,5.4
	c-2.1,4.3,3.9,6.3,6.6,8.5c-15.3-5.1-31.3-6.9-47.2-8.9c8.9,13.6,24.2,25.3,29.2,41.8c-3.4-0.1-6.6-1.4-10-2
	c-11.5-16.3-23.9-32.6-38.7-46.3C326.5,138,328,135.6,332,135.2z"/>
<path class="st24" d="M-5.6,151.5c21.6-6.4,44.2-10.4,66.5-10.5c1,7.8,5.2,15.4,3.4,23.4c-4,9.5-13.9,14.1-21.6,20.1
	c-7.5,1.8-15.3,1.5-23,0.6c-18.4-3.5-43-0.9-54.2-19.2C-28.3,156.1-16.2,153.7-5.6,151.5z"/>
<path class="st25" d="M660.6,144.8c8.5-3.9,17.7-4.2,26.8-2.3c7.9,2.1,18.6-1.6,24.7,4.5c-12.8,0.1-25.5-1-38.2-1.1
	C685,141,664.4,144.7,660.6,144.8z"/>
<path class="st26" d="M434,142.1c21.7,0.2,43.3,1.2,65,1.1c-9.8,1.9-19.9-0.4-29.7,1.3c10.6,0.9,20.8,4.4,31.2,6.7
	c18.9,8.2,39.8,7.9,60,9.5c1.5,0.3,3,0.6,4.5,0.9c-2,2.4-9.7,6.6-3,7.3c-34.7-2.8-69.2-7.3-103.9-10.4c-4.1-1.3-3.5,1.1-1.5,3.6
	c2.4,8.1,11.6,6.1,18.3,7.5c-1.7,0.5-3.2,1.3-4.6,2.3c-16.3-6.5-0.9,12.1-10.8,15.7c-20.8-10.7-41.5-21.6-62.8-31.4
	c-2.6-2.2-8.7-4.2-6.6-8.5C404.8,144.9,419.7,145.7,434,142.1z"/>
<path class="st27" d="M245.5,150c14.6-6,30.9-8.3,46.4-5c-0.8,0.7-1.6,1.3-2.4,1.9c-3.8,1.4-6.6,4.5-9.5,7.1
	c-8.4,0.4-16.8,1.6-25,3.3C250.6,157.1,247.2,153.9,245.5,150z"/>
<path class="st28" d="M499.1,143.2c4.5-0.2,9-0.1,13.5,0c24.8,1.7,49.7,0.6,74.5,0.6c13.4,0.4,26.8,0.2,40.2-0.1
	c11,2.3,22.2,1.1,33.3,1.1c3.8-0.1,24.5-3.8,13.2,1.2c12.7,0.1,25.5,1.2,38.2,1.1c113.8,1.8,227.8,11,341.6,17.2
	c12.1,1.3,24.3,0.7,36.5,0.5c9.1,0.3,18.3,0.1,27.5,0.6c30.8,1.2,61.6,2.8,92.3,4.5c17.6,3.6,31.5-9.1,44-19.2v2.9
	c-8.7,11.7-22.5,17.6-35.1,24.1c-8.3,2.9-16.7,5.7-25,8.6c2.4,1.5,4.8,3,7.3,4.3c-75.7-7.6-152-21-228.5-21.6
	c-14.3-1.2-28.6-2.5-43-3.1c-32.3-2.5-64.6-5.5-97-6c-0.4-0.1-1.2-0.2-1.6-0.2c-56.9-3.2-113.9-7.3-170.9-7.1
	c-53.1-1.5-106.3-2.3-159.5-1.6c-10.4-2.2-20.5-5.8-31.2-6.7C479.2,142.8,489.3,145.1,499.1,143.2z"/>
<path class="st29" d="M512.6,143.2c24.8,0,49.7-1.1,74.5,0.6C562.2,143.8,537.3,144.9,512.6,143.2z"/>
<path class="st30" d="M289.5,146.9c19-2.6,36,14,48.1,27.3c3.4,3.6,6.4,11.9,12.9,9.2l0.9-0.2c-0.2,0.7-0.4,1.4-0.6,2.1
	c-1.3-0.1-2.7-0.2-4-0.3c10,21.2,13.8,44.4,23.4,65.8c-8.1-0.4,1.2,12-5.1,8c-3.7-9.1-12.3-14.6-21-18.3c0.3-11.2,3.1-22.3,2.7-33.6
	c-8.9,2.1,0.3,12.3-7.8,15.8c-6.4,4-7.3,16.5-16.3,15.4c-17.8-4-35.9-1.5-53.8-3.2c-2,0-2.1-2.5-2.4-4c0.8-1.3,1.6-2.5,2.4-3.8
	c13-10.7,28.7-17.9,42.8-26.3c6.4-7.1,18.6-2.2,25.4-7.8c-15.8,0.9-31,5.6-45.2,12.4c-13,6-26.1,12.6-35.8,23.6
	c-1.7-0.4-3.3-0.9-5-1c-18.8-1.3-37.6-2.9-56.3-4.9c-8.8-2.3-18.8,4.4-20.3,13.1c-5.7-1.3-6.8-12.1-12.3-15.5
	c0.5-10.6,16.6-5.7,19.3-15.1c2.7-11.4,8.7-21.9,16.3-30.7c12.7-9.5,25.7-27.7,43.3-23.2c-5.4,3.3-11.1,6.2-16.3,9.8
	c-3.6,3.9-13.7,7.8-3.8,9.4c-8,2.2-17.1,6.1-20.5,14.2c18-15.7,42.9-14.7,65.2-18.1c3.3-0.7,8.6,0.5,9.2-3.9c1.3-3.2,3.2-6,5-9
	C283,151.4,285.7,148.4,289.5,146.9z"/>
<path class="st31" d="M349.7,147.2c16,2,31.9,3.7,47.2,8.9c21.3,9.8,42,20.7,62.8,31.4c4.5,3,9.4,4.4,14.8,4.8
	c5,9.7,12.2,18.4,14.8,29.3c0.8,2.1,3.6,7.4-0.9,5.9c-4.6,0.1,1.9,3.5,3.4,4.5c2.1,7.3,11.4,1.6,16.2,5.8c3.4,3.2,12.9-2,10.8-5.8
	c-13.4-10.8-13.3-29.9-22.7-43.3c-8-5.2-16.8-9.2-24.5-14.9c42.6,3.2,84.9,9.3,127.4,13.1c34.2,3.5,68.2,8.5,101.9,15
	c27.3,2.3,27,35,35.9,54.2c6.3,3.7,22.8-0.2,26.3,7.3c-15.5,4.5-32.5-2.9-48.2-0.2c-6.7,1.7-9,8.9-8,15.1c-0.3,3-0.8,6-1,9
	c1.5,6.9-8,21.6,5.9,19l-0.2,1c-1.6,0-4.9,0-6.6,0c-5.9,0.9-12.3-0.8-17.8,1.2c-1.8,5.5-3.2,11.2-3.3,17
	c-7.3,41.4-16.3,82.7-31.8,121.8c-5.9,2.4-5,10.1-9.6,13.7c-6.5,1.1-11.2-9.1-16.7-2c-5.1-8.6-31.1-7.4-24.3-21.7
	c-4.3-4.9-13.3-2.2-7.2,3.5c-15.2-3.4-27.7,5-40.2,11.7c-8.7,10.4-1.5-13-9.2-16.3c-1.3-1-2.7-2-4-3c-8.6-7.6-23.6-7.8-32.1-0.1
	c-1.5,1.1-2.9,2.3-4.3,3.5c-4.1-12.5-0.3-27.6-3.3-40.9c0-1.7-1.3-1.2-2.4-0.9c-6.3-18-9.1-36.9-7.3-56c1.4-5.7-1.3-15.8,8.5-13
	c5.9,0.9,11.8,1.7,17.8,2.3c0,0.4,0,1.3,0,1.7c-11,0.3-11.6,16.6-22.4,12.5c-1.6,7-0.2,14,1.4,20.8c-3.8,5.1,1.5,10.5,3.1,15.4
	c3.1-2.6,4.8-0.3,5.9,2.8c8.7,2.5,18.2,4.1,27.3,3.9c5-6.2,16.2,0.5,16.6-9.1c-13.2-2.2-26.5-4.1-39.6-6.5c-2.3-0.8,2.2-1.6,2.9-1.9
	c38.1,6.8,76.4,11.7,114.8,16.4c-2.3,4.5-6.7,10.5-3.4,15.4c8.1,0,17.4,3.8,24.5,0.8c1.8-4.6,14.1-7.7,7.9-13
	c8.1-3.6,7.9-14.4,12.4-21c5.8-4.4,5.1-12.5,5.8-19c5.5-1.9-4-3.8-5.2-3.3c-17.6-1.6-35.1-4.7-52.8-5.8c-19.6-2.8-39.4-4.4-59-7.3
	c-19-2.4-38-4.3-57-6.9c-12,1.7-2.6-11-2.3-16.8c0.4-6.9,11.9-21.8-2.7-19c-2.6-0.4-4.7,0.5-5.1,3.2c-3.3-0.6-8.5,1.5-10.3-2.5
	c5.1-10.1,6.1-22,12-31.8c0.1,0.5,0.3,1.6,0.4,2.1c-3.2,6.5-9.4,18.4,1.6,20c1.9-8.4,5.7-16.2,7.7-24.5c3.4-4.3-2-6.3-4.7-4.8
	c-1.2-0.5-2.5-1-3.7-1.4c-4.3,8.9-6.7,19-13,26.8c-14.8,1.5-29.4,6.2-44.5,5.4c-3.8,0.2-1.9,1.4,0.4,2.5c1,1.3,2,2.7,2.6,4.2
	c-6.2,8.4-1.3,23.9,2.6,33.6c9.5,2,10.2,15.4,20.7,18.5c8,0,16.4,6.1,10.9,13.8c-9.7-4.9-21.3-14.6-33.4-9.6
	c-3.8,1.7,1.1,3.5,2.7,4.6c9.1,4.9,20.4,5.8,28.1,13.1c-3.6-0.3-7.2-1.4-10.8-1.5c0.2,5.5,14,4.1,10.5,12.5
	c-1.5,18.2-2,36.4-2.1,54.6c-5.7,6.6-18.2-4.7-22.7,4.4c-4.1,7.2-8.8,22,3.2,23.9c8.7,3,14.9-1.7,17.9-9.4
	c2.8,7.3,3.6,19.1-3.2,24.1c-5.9,0-12.4-6.6-17.6-1.4c-8,9.7-5.9,23.6-11.6,34.4c-2.3,3.8,5.1,3.9,5.1,6.2
	c-12.1,14-21.2,31.7-36.8,42.1c-17.3-3.3-36.5,2.1-51.9-5.8c-10.7,2.7-21.5-7.6-31.6,0.4c-29.9,15.9-54.5,39.9-82.6,58.7
	c5,4.8,15.6,5.6,22.9,7.4c19.6,4.2,37.5,13.6,56.1,20.8c1.2,3-0.9,3-3.2,2.1c-29.1-11.7-65.2-19.4-92.2-26c-2.7,6.6-4.7-6-7.5-0.4
	c-3.8,3-2.6-4-0.9-5.9c-22.5-4.7-45.6-9.5-67.5-16c26.2-12.9,48.6-32.4,72.6-48.9c2.2-1.4,6.5-7.5-1.4-3.6
	c-27.7,15.7-56.7,28.7-83.8,45.3c-2.4,6.1-8.8,5.3-14.5,5.6c-15.7,4.9-31.8-1.4-47.8,0.4c12.7-9.5,30.2-2.9,44.8-5.5
	c26.4-17.7,56.6-31.8,79.7-53.2c21.3-9.2,41-25.2,60.9-38.1c16.6-11,35.2-26.3,36.1-47.9c2.2-14.2-15.4-4.1-22.4-5.4
	c-3.4-0.5-15,2.7-15-2.1c32.7,0.4,64.3-14.6,85.1-39.8c2.3-3.7,9.2-2.8,7.9-8.3c18.5-15.7,27.7-38.4,41.4-57.7
	c-0.4,18.6-16.6,31.9-20,49.3c12.1-0.2,27.9-1.9,34.1-13.9c2.1-24.5,10.4-48.5,13.9-72.9c-1.3-9.8-7,2.5-9.1,5.6
	c-2.7,3.5-11.9,7.3-8.7-1.8c0.7-5.6-1.6-13.4,4.4-16.5c-0.6,4.1-4.6,12.6,4.1,8c2.7-2.1,9.7-9.3,12.2-3.3
	c3.3,10.5-2.2,21.4-3.5,31.9c-0.9,18.7,0.7,37.8-2.9,56.2c-9.6,14.8-30.5,8.8-45.2,10.4c-7.6-4.8-13,5.4-16.6,10.8
	c-14.2,10.6-24.2,28.2-41.7,32.4c3.8,7.5,12.8,6,19.8,7.5c3.9,28.4-19.9,49.1-39.7,65.2c-2.6,4.8-12.1-2.1-11.6,5
	c1.1,5.4,5.7,1.8,8.7,0.2c10.9-2.7,29.7-9.6,36,3.1c9.4,8.2,22.9,15.7,35.2,11c2.5-15.7,5.1-32.4,12.2-46.8
	c10.4-7.2,14.1-19.9,16.3-31.7c4.9-9.9,18.2-11.3,24.6-20.3c6.8-6.7,26-0.4,20.1,10.9c1.6,11.5,6.5,22.4,5.1,34.5
	c6.9,4.6,11.6-4.3,5.9-8c-3-9.8-1.5-24.2,7.7-30.7c6.5-5.5,20.9,9.8,18.7-4.8c-1-8.5,4.1-26.8-10.3-24.5c1.7-9.5-12.4-8.2-13.6-16.5
	c-0.4-7.6-10.2-18.6-0.8-24c-4.3-3.6-11.1-4.1-14.1-9.1c1.3-4.2,5.5-6,8.9-8.2c-4.7-4.7,0-12.8-5.5-17.1c-11.6-8.2-3.8-24.4-1-35.2
	c-1-6.4-3.5-13.9,1.9-18.8c-5.4-3.2-10.7,7-16.8,2.9c-5-2.9-1,5-6.5,5.5c4.2-8.6-6.7-1.8-4-12.2c-2-3.2,4.7-5.5,2.2-6.8
	c-2.4-1.2-9.2,0.6-7.7-2.8c4.2-4.9-5.5-5.5-3.5-11.6c-0.6-5.8-1.5-11.5-2.1-17.3c2-7.3,9.1-0.8,7.6-8.6c1.3-2.7,7-6,10-5.2
	c2.5,6,4.6-2,1.8-4.5c5.7,0.4,14.3-5.4,13.7,4.4c1.4-6.6,8.8-6,11.6-0.9c-1.1,9.4,2.1,3.7,4.6,1.2c4,3.5,8.3,8.1,4.7,13.3
	c1.8-0.5,3.6-1.6,5.5-1.2c-6.4,7-13.3,13.6-19.9,20.4c-10.1,0.4-31.4-12.7-34.3,2.3c2.2-3.9,7.7-4.8,10.9-1.6
	c-0.1-3.2,10.8-2.3,8.8,3.7c0.4-5.2,5.1-4.8,9.2-4.5c-11.4,4.8-5.4,21.2,5.9,20.1c11.7-0.5,12-14.4,3.7-20
	c11.4-12.1,22.9-24.1,33.9-36.5c-2.7-3-10.8,8.5-14.8,12.6c-13.4-25.1-50.1-20.5-65.6,0.1c-2.2-3.6-3.3-7.7-5.1-11.5
	c-1.2-12.3-12.8-15.9-23.1-17.7c-6.8-3.1,1.9-1.4,5-1c3.3,0.6,6.6,2,10,2C373.9,172.6,358.6,160.9,349.7,147.2z"/>
<path class="st32" d="M241,151.7c1.5-0.6,3-1.1,4.5-1.6c1.7,3.8,5.1,7.1,9.5,7.3c-10,0-20.8,5.9-30.2,4.2
	C229.9,157.8,235.6,154.9,241,151.7z"/>
<path class="st33" d="M500.6,151.2c53.2-0.7,106.4,0.1,159.5,1.6c-22.5,0.9-45.1-1.3-67.4,2.4c5.2,4.3,13.4,1.5,19.5,4.6
	c-17.2,1.7-34.5-2.2-51.6,0.8C540.4,159,519.5,159.4,500.6,151.2z"/>
<path class="st34" d="M592.6,155.2c22.3-3.7,45-1.5,67.4-2.4c57-0.2,114,4,170.9,7.1c-37-0.8-74-2.5-110.9-5
	c-11.2,11-31.1-5.9-42.4,5c78.8,5.5,157.9,9,236.7,15.6c10.1,1.6,20.5,2.6,30.7,1.3c-12.1-6.9-28.3-4.5-42-7.2
	c-24.3-1.2-45.6-10.1-70.4-9.6c32.4,0.4,64.7,3.4,97,6c55.5,13.1,113.4,14.6,168.7,29.7c-34.3-1.1-68.8-8.8-102.9-9.7
	c-127.2-14.6-255.3-20.6-383.2-26.3C606,156.7,597.8,159.4,592.6,155.2z"/>
<path class="st35" d="M255,157.3c8.2-1.7,16.6-2.9,25-3.3c-1.8,2.9-3.8,5.8-5,9c-18.1,1.8-36.1,4-53.9,7.9c-10-1.6,0.2-5.4,3.8-9.4
	C234.2,163.2,244.9,157.3,255,157.3z"/>
<path class="st36" d="M1218.7,177.8c12.6-6.5,26.4-12.4,35.1-24.1v10.7c-10.8,13.6-20.6,30.3-38.4,35.5c-3.8-2.9-7.8-5.5-11.8-8.1
	C1205.5,185,1214.6,183.2,1218.7,177.8z"/>
<path class="st37" d="M677.6,159.9c11.3-10.9,31.2,6,42.4-5c36.9,2.5,73.9,4.2,110.9,5c0.4,0.1,1.2,0.2,1.6,0.2
	c24.8-0.6,46.2,8.4,70.4,9.6c13.7,2.6,29.9,0.3,42,7.2c-10.2,1.2-20.6,0.3-30.7-1.3C835.5,168.9,756.4,165.4,677.6,159.9z"/>
<path class="st14" d="M456.7,162c-2-2.6-2.5-4.9,1.5-3.6c34.7,3.2,69.2,7.6,103.9,10.4c20.7,2,41.2,5.2,61.9,7.2
	c34.2,5.9,69.7,7.1,102.7,18c2.3,1.7,4.7,3.4,7,5c6.3,16,20.7,24.5,35,32c6,7.4,15.4,8.6,24.4,8.8c29.2,2.1,58.3,4.4,87.5,6.5
	c17.3,1.3,34.7,2.6,52,3.9c17.2,1.2,34.4,2.8,51.7,3.7c15.1,3.3,30.7,0.8,45.8,4.2c-18.7,2.9-38-2.3-56.6,0.5
	c-7.2,4.5-15.6,12.5-23.7,5.5c-9.1,6.8-21.4-1-31.3,3.6c-47.6-2-95.2-6.6-142.8-9.5c-9.2-2.4-26.7,3.6-27-10.5
	c-7.6-19.1-9.3-47.7-33.9-52.8C629.7,178.4,542.9,172,456.7,162z"/>
<path class="st38" d="M560.6,160.6c17-3,34.4,0.8,51.6-0.8c127.9,5.7,256,11.7,383.2,26.3c68.1,8.6,135.7,24.9,202.7,40.8
	c-77.8-14.4-155.9-28.2-234.7-36.1c-24.5-1.7-49.6-7.1-73.7-5c-4,0-8-0.4-12-0.6c-103.8-11.6-208.5-13.7-312.5-23.6
	C563.6,161.2,562.1,160.9,560.6,160.6z"/>
<path class="st39" d="M-56.2,160.6c12.5,15.1,29.6,25.3,49.2,27.8c-16.4,1.5-32.8,2.1-49.2,3.6V160.6z"/>
<path class="st40" d="M456.7,162c86.1,9.9,173,16.3,258.1,33c24.5,5.1,26.3,33.7,33.9,52.8c1.8,6.8-3.6,9-8.8,7.9
	c-5.6-17.1-9.5-35.9-20.4-50.5c-27.1-12.6-58.5-11.9-87.6-17.3c-52.1-7.4-104.6-12.3-156.9-18.4C468.3,168.1,459.2,170.1,456.7,162z
	"/>
<path class="st41" d="M562.1,168.8c-6.7-0.6,1-4.9,3-7.3c104,10,208.6,12.1,312.5,23.6c27.6,10.7,57.8,18.7,81.4,37.6
	c6.3,3,14.8,10.1,11.2,17.5c-29.2,6.1-60.1,2.1-89.5,6.1c-29.2-2-58.4-4.4-87.5-6.5c-14.9-3.1-23.5-15.5-32.6-26.6
	c-6.5-8.5-17.4-10.5-26.8-14.2c-2.4-1.6-4.7-3.3-7-5c8.1,0.8,16.2,1.4,24.3,1.8c-0.5-5.3-6.4-6.4-9.4-9.9
	c17.7-0.4,21.8,19.8,33.7,28.6c3.6,7.4,7,16.1,16.1,17.9c30.7,8.1,63,4.9,94.4,6.6c9.8-1.2,24.3,0.5,29.6-8.9
	c-17.2-15.6-37.1-27-59.5-35c-41-10.6-84.1-17-126.1-19c-30.3-0.2-60.8,0.1-91.1-3c-5.6-0.2-28.3-1.3-14.8,2.8
	C603.3,174.1,582.8,170.9,562.1,168.8z"/>
<path class="st42" d="M221,170.9c17.8-3.9,35.8-6.1,53.9-7.9c-0.6,4.4-5.8,3.2-9.2,3.9c-22.3,3.4-47.2,2.4-65.2,18.1
	C203.9,176.9,213.1,173,221,170.9z"/>
<path class="st43" d="M1053.6,164.3c12.2-0.2,24.3-0.9,36.5,0.5C1077.9,164.9,1065.7,165.6,1053.6,164.3z"/>
<path class="st44" d="M1215.5,199.9c17.8-5.2,27.6-21.9,38.4-35.5v17c-8.8,10.3-13.3,24.7-24,33C1225,209.6,1220,204.9,1215.5,199.9
	z"/>
<path class="st45" d="M929.6,166.1c14.4,0.5,28.7,1.8,43,3.1c79.4,9.5,158.7,23.4,237.1,39.9c8,2.3,15.4,6.3,23.3,8.9
	c11.7,9.8,14.2-7.6,20.8-13.5V240c-18.7-3.9-37.4-7.9-55.8-13.1c-67-15.9-134.6-32.1-202.7-40.8c34.1,0.8,68.6,8.5,102.9,9.7
	C1043.1,180.7,985.1,179.3,929.6,166.1z"/>
<path class="st46" d="M972.6,169.2c76.5,0.6,152.7,14,228.5,21.6c0.9,0.3,1.7,0.7,2.6,1c4,2.6,8,5.2,11.8,8.1
	c4.6,5,9.5,9.7,14.3,14.5c1.1,1.2,2.1,2.4,3.2,3.6c-7.9-2.6-15.3-6.6-23.3-8.9C1131.3,192.6,1052,178.7,972.6,169.2z"/>
<path class="st47" d="M470.5,171.8c1.4-0.9,2.9-1.8,4.6-2.3c52.3,6.1,104.7,11,156.9,18.4c29.1,5.4,60.6,4.7,87.6,17.3
	c10.8,14.6,14.8,33.4,20.4,50.5c-0.8,0.1-2.3,0.2-3.1,0.3c-8.9-19.2-8.6-52-35.9-54.2c-33.7-6.5-67.8-11.5-101.9-15
	C556.3,180.8,513.3,176.8,470.5,171.8z"/>
<path class="st48" d="M459.7,187.5c9.9-3.6-5.5-22.2,10.8-15.7c42.9,5,85.9,9,128.6,15.1c-42.5-3.8-84.8-9.9-127.4-13.1
	c7.6,5.7,16.4,9.7,24.5,14.9c9.4,13.4,9.3,32.6,22.7,43.3c2.1,3.8-7.4,9-10.8,5.8c-4.8-4.2-14.1,1.5-16.2-5.8c-1.5-1-8-4.4-3.4-4.5
	c4.4,1.5,1.6-3.7,0.9-5.9c-2.6-10.8-9.9-19.6-14.8-29.3C469.1,191.9,464.2,190.5,459.7,187.5z"/>
<path class="st37" d="M624,176c-13.6-4.2,9.2-3.1,14.8-2.8c30.4,3.1,60.8,2.8,91.1,3c42,2,85.1,8.4,126.1,19
	c22.4,8,42.3,19.4,59.5,35c-5.4,9.5-19.9,7.7-29.6,8.9c-31.4-1.7-63.7,1.5-94.4-6.6c-9.2-1.8-12.6-10.5-16.1-17.9
	c-11.9-8.8-16-28.9-33.7-28.6c3,3.5,9,4.6,9.4,9.9c-8.1-0.3-16.2-1-24.3-1.8C693.7,183.1,658.2,181.9,624,176z"/>
<path class="st49" d="M175.9,175.1c3.7,0.2,7.6-0.2,11.1,1.4c-12.6,4.5-11,21.9-16.4,32.3c-5.6,3.1-11.5,5.6-16,10.3
	c-0.4-0.1-1.3-0.4-1.7-0.5c1.3-15.4,9.6-29.2,17.4-42.1C171.8,176.1,174.6,175.4,175.9,175.1z"/>
<path class="st50" d="M113.6,178.5c4.8-0.7,9.6-1.5,14.5-1.5c-0.1,2.5-1.8,4.6-4.3,5c-18.9,4.3-38.2,6.9-57,12
	c-4.7,0.5-3.4,7.1,0.5,7.8c17.6,0.9,35.2-0.2,52.8,0.4c-2.4,3.5-7.3,3.2-10.5,5.8c-32.8,8.6-65.7,17.6-97.1,30.8
	c-23.3,7.5-43.7,23.9-68.7,25.2v-3.6c26.2-3.8,48-19.8,72.3-29c18.8-8.8,41.3-10.8,58.7-21.2c-43.5-2.3-87.5,1-131,2.9v-13
	c56.5-3.8,113.1-9.3,168.9-19.3C114.7,180.4,117.5,178.7,113.6,178.5z"/>
<path class="st38" d="M128.1,177c1.2,0,2.5,0,3.7,0.1c1.4,9.6-15.7,7.2-16.8,14.5c11.4,8.8,27.9,0.4,41,0.5
	c-1.3,2.7-2.5,5.4-3.9,8.1c-14.4,1.2-28.2,6.3-42.5,7.8c3.2-2.6,8-2.3,10.5-5.8c-17.6-0.6-35.2,0.5-52.8-0.4
	c-3.9-0.6-5.1-7.3-0.5-7.8c18.7-5,38.1-7.6,57-12C126.3,181.6,128,179.5,128.1,177z"/>
<path class="st51" d="M1193.7,186.5c8.3-3,16.7-5.7,25-8.6c-4.2,5.4-13.2,7.2-15.1,14c-0.9-0.4-1.8-0.7-2.6-1
	C1198.6,189.4,1196.1,188,1193.7,186.5z"/>
<path class="st52" d="M42.6,184.5c23.7-0.6,47.4-3.6,71-6c3.9,0.2,1.1,1.9-0.9,2.3c-55.8,10-112.3,15.4-168.9,19.3V192
	c16.4-1.5,32.8-2.2,49.2-3.6c11.1,0.3,22.2-1.9,33.3-1.8c-2.2-0.6-4.4-1.1-6.7-1.5C27.3,186,35.1,186.3,42.6,184.5z"/>
<path class="st53" d="M1229.8,214.4c10.7-8.4,15.2-22.7,24-33v23.2c-6.6,6-9.2,23.3-20.8,13.5
	C1231.9,216.9,1230.9,215.6,1229.8,214.4z"/>
<path class="st54" d="M889.5,185.8c24.1-2.1,49.2,3.3,73.7,5c78.8,7.9,156.9,21.7,234.7,36.1c18.4,5.2,37.1,9.3,55.8,13.1v25.2
	c-32.5-14.9-67.2-23.8-101.6-33.3c-15.2-3.6-30.2-8.6-45.8-10.8c-34.2-12.9-70.9-17.5-107-22c-18.9-2.9-37.9-5.6-57-7
	C925,189.3,907.2,188.2,889.5,185.8z"/>
<path class="st55" d="M346.8,185c1.3,0.1,2.7,0.2,4,0.3c2.6,0.8,5.2,1.5,7.8,2.3c16.2,34.8,27.5,76.6,11,113.3
	c-4.2-9,1.6-22.1,1.2-32.6c-0.2-5.8,0.7-11.8-0.6-17.5C360.5,229.4,356.7,206.3,346.8,185z"/>
<path class="st56" d="M877.5,185.2c4,0.2,8,0.6,12,0.6c17.6,2.4,35.5,3.5,53,6.3c30.9,13.4,66.9,22.2,89.6,49
	c-31,13-66.9,4.4-99.5,9.2c-17.3-1.3-34.7-2.7-52-3.9c29.5-4,60.3,0.1,89.5-6.1c3.6-7.4-5-14.5-11.2-17.5
	C935.4,203.9,905.1,195.9,877.5,185.2z"/>
<path class="st57" d="M358.6,187.6c1.8,0.1,3.6,0.2,5.4,0.3c10.4,1.8,21.9,5.4,23.1,17.7c1.6,16.2,5.6,33.4-1.6,48.9
	c-2.1,30.1-6.4,61.6-23.8,87.3c-11,13.9-20.8,28.8-33.3,41.5c-1.2,0-2.4,0-3.6,0c0.5-8.8,13.6-15.2,17-24.4
	c6.9-13.7,19.9-29.1,15.4-45.2c-12.5,0.9-28,5.8-40.1-1.1c1.2-2.4-2.1-10.9,2.8-10.7c-5.6,15.2,14.8,8.1,23.5,7.7
	c20.3,1,12.6-25.4,12.9-38.6c1-11.2-11.1-16.1-16.7-24c9.3-1.6,19.5,8.5,21.7,16.6c4.2-0.6,6.9,2.3,9.5,4.9
	c0.4,10.5-5.4,23.6-1.2,32.6C386.1,264.3,374.8,222.4,358.6,187.6z"/>
<path class="st58" d="M507.7,187c9.4-0.1,18.9,1.5,28.1,2.9c2.5,12,20.2,2.7,28.6,6.6c2.8,1.1,20.4-3.2,7.5-0.4
	c16.3,5.3,39.3-2.7,55.8,6.1c-3.1,10.4-5.1,21.5-8.1,31.7c-10-1.2-21-0.1-30.3-4.4c-22.8-3.9-47.8-1.6-69.6-6.5
	c8.1,2.8,5.8-2.5,11.5-2.7c17.6,7.1,39.8,4.8,59.4,6.5c6.1-15-17.1-5.2-24.8-10.8c2.3,0,4.6-0.1,4.2-3c4.7,4.2,25.7,9.3,24.9-4
	c-28.3-1-56.7-3.1-84.9-5.2c1.9-1.2,7.7,0.4,4.8-4.8c8.7,0,19.1-1.4,25.4,5.7c9.2-4.1,26.1,7.6,31.4-2.9c-0.2,9.3,14,3.2,19.7,5.6
	c5.9,3.3,4.9-4.1,5.5-7.3c-29.3-2.3-58.6-3-87.9-5.3C510.2,192.1,508.6,189.6,507.7,187z"/>
<path class="st59" d="M942.5,192.1c19.1,1.4,38.1,4.2,57,7c28.2,8,58.2,16.2,80.5,35.7c3.8,2.4,12,6.9,7.5,12
	c-33.5,8.7-68.9,5.4-103.2,7.2c-17.2-0.9-34.4-2.5-51.7-3.7c32.6-4.7,68.5,3.9,99.5-9.2C1009.4,214.3,973.4,205.5,942.5,192.1z"/>
<path class="st60" d="M215.9,193c6.7,0.6,13.4,1.3,20.2,1.1C231.8,197.7,217.7,196.3,215.9,193z"/>
<path class="st61" d="M291.9,205.5c14.2-6.8,29.4-11.6,45.2-12.4c-6.9,5.6-19,0.7-25.4,7.8c-14.1,8.5-29.8,15.6-42.8,26.3
	C271.5,215.6,286.8,212.8,291.9,205.5z"/>
<path class="st62" d="M733.8,199.1c9.4,3.7,20.3,5.7,26.8,14.2c9.1,11.1,17.6,23.5,32.6,26.6c-9-0.1-18.3-1.4-24.4-8.8
	C754.5,223.6,740.1,215.1,733.8,199.1z"/>
<path class="st63" d="M999.5,199.1c36.1,4.5,72.7,9.1,107,22c14.1,11.5,31.6,16.6,47.3,25.1c-1.8,3.4-6.8,0.3-10,0.8
	c-0.3,4.6,8.1,8.4,3.3,12.4c-28.5,1.1-58.1,1-86.7,0.9c-10.1-0.9-20.2-0.8-30.2-2c-15.1-3.4-30.8-0.9-45.8-4.2
	c34.4-1.8,69.7,1.5,103.2-7.2c4.5-5.1-3.6-9.6-7.5-12C1057.7,215.4,1027.7,207.1,999.5,199.1z"/>
<path class="st64" d="M109.6,207.9c14.3-1.5,28.2-6.5,42.5-7.8c-22.3,44-20.5,96.9-5.5,142.9c2,5.2,3.4,13,10.3,13.1
	c1.6,0.4,3.1,0.8,4.7,1.2c3,0.4,11.2,3.2,9-2.2c-9.4-20.6-22-47.4-16-68.5c2.5,2.2,5.3,4.1,8.3,5.4c3.1,1.5,6.6,2,9.9,3
	c-1.7,8.4,0.3,16.6,1,25c-2.5-1.3-9-10.3-5.7-0.4c0.5,14.2,10,26.1,11.2,39.9c7.4,1.4,8.6,10.7,13.6,15.2c3.1,4.1,12.5,2.6,10.6,9.6
	c2.4,7.9,10.7,3.1,13.4-2.2c-0.2,1.2-0.3,2.4-0.4,3.5c1.8,12.3-2.6,9.4-10.8,7.2c-15.8-3.9-22.5-20.6-31.7-32.2
	c-6.6-0.8-16.1-3.3-21.2-1.8c13.9,24.7,35.8,51.6,65.4,56.2c-1.8-6.9,7.8-3.3,7.9,1.4c4.8-4.2,5.1,3.9,9.6,4.5
	c28.2,6.7,57.8-4.5,79-23.2c5.3-3.7,8.7-10.8,15.8-11.3c2.1-3.5-4.5-1.3-6.6-2c0.2-0.3,0.6-1,0.9-1.3c1.2,0,2.4,0,3.6,0
	c5.3,0.7,10.2-1.4,14.3-4.5c13,0.5-13.7,7.9-4.8,7.4c-13.8,10.7-24.1,26.4-41.2,32.7c-44.2,22.3-99.7,4.5-130.2-32.5
	c-18.9-22.7-28.8-51.8-34.7-80.4c-12.7,9.5-17.4,28.3-32.1,36.3c11.4-13.4,26.2-27.1,29.1-45.2c-25.2,21.9-60.8,28.3-93.4,30.7
	c-18.4,6.5-38.2,5.5-57.1,9.8c-11,2.9-26.1-2.6-34.5,6.9v-20.2c48.9-5.1,96.8-16.4,145.7-21.5c3.3,0.6,13.5-5.2,12.8,0.7
	c5.2-7.8,23.3-1.9,23-11.9C64.5,295.2,4.6,300-56.2,307.2v-22.9c3.6-3.7,8.5-5.7,12.2-9.2c-4.1,0.2-8.2,0.7-12.2,1.1v-12.3
	c25-1.3,45.4-17.7,68.7-25.2C43.9,225.5,76.8,216.6,109.6,207.9z"/>
<path class="st65" d="M392.2,217.2c15.5-20.6,52.2-25.1,65.6-0.1c-1,1.3-2.3,2.5-3.6,3.6c-2-0.4-3.7,0.7-5.5,1.2
	c3.6-5.2-0.8-9.7-4.7-13.3c-2.6,2.5-5.7,8.2-4.6-1.2c-2.9-5-10.3-5.7-11.6,0.9c0.6-9.8-8-4-13.7-4.4c2.8,2.5,0.7,10.5-1.8,4.5
	c-3-0.8-8.6,2.5-10,5.2c1.5,7.8-5.6,1.3-7.6,8.6C393.1,221,391.7,219.4,392.2,217.2z"/>
<path class="st66" d="M457.8,217.1c4-4.1,12.1-15.6,14.8-12.6c-11,12.4-22.5,24.4-33.9,36.5c-1.1,2-3.2,2.6-4.3,0.1
	c6.6-6.8,13.5-13.4,19.9-20.4C455.5,219.6,456.7,218.4,457.8,217.1z"/>
<path class="st67" d="M256.1,229.1c9.6-11,22.7-17.5,35.8-23.6c-5.1,7.3-20.3,10.1-22.9,21.7c-0.8,1.2-1.6,2.5-2.4,3.8
	c-3.1,6.5-11.8,3.5-17.5,4.8c-9.1-0.9-18.3-0.9-27.4-0.9c11,0.2,5.9-2.3,0.3-4.1c5.7-4.3,16.1-1,23.1,0.2
	C242.9,236.6,254.6,232.1,256.1,229.1z"/>
<path class="st68" d="M387.1,205.7c1.8,3.8,2.9,7.9,5.1,11.5c-0.5,2.2,1,3.8,2.4,5.3c0.6,5.8,1.4,11.5,2.1,17.3
	c-1,50.9-20.3,100.8-54,139c-4.1,3.2-9,5.2-14.3,4.5c12.6-12.6,22.3-27.6,33.3-41.5c17.4-25.7,21.6-57.2,23.8-87.3
	C392.7,239.1,388.6,221.9,387.1,205.7z"/>
<path class="st69" d="M339,222.8c8.1-3.6-1.2-13.7,7.8-15.8c0.4,11.3-2.3,22.4-2.7,33.6c8.7,3.7,17.3,9.2,21,18.3c6.3,4-3-8.4,5.1-8
	c1.3,5.7,0.4,11.7,0.6,17.5c-2.7-2.5-5.3-5.5-9.5-4.9c-2.1-8.1-12.4-18.1-21.7-16.6c-5.6-2.1-5-4,0.5-5.6
	C321,241.1,344.3,230.1,339,222.8z"/>
<path class="st55" d="M-56.2,213.1c43.5-2,87.5-5.2,131-2.9c-17.4,10.3-40,12.3-58.7,21.2c-24.3,9.2-46.1,25.2-72.3,29V213.1z"/>
<path class="st70" d="M608.6,210.9C616.6,220.1,595.2,217.9,608.6,210.9z"/>
<path class="st71" d="M429.1,213.2c8.7-2.7,4.5,16.1-2.6,11.1C424.8,221,426.1,215.6,429.1,213.2z"/>
<path class="st72" d="M535.8,213c8.2,2.3,21.9-2.3,27.8,2.9C556.2,216.2,540.6,217.1,535.8,213z"/>
<path class="st54" d="M429.1,215.1c4.9-1.6,2.3,5.6,0.5,7.7C425.3,224.5,427.9,217.2,429.1,215.1z"/>
<path class="st19" d="M1106.5,221.2c15.5,2.2,30.5,7.1,45.8,10.8c0,3.1-6.8-0.3-3.7,3.2c19.7,13.8,44.5,15.3,66.1,25.1
	c4,0.3,11.2,5.4,3.8,6.5c-21.9-0.9-42.9-8.5-64.4-12.5c-11-4.1,1.6,10.7,8,8.5c-0.4,0.3-1.2,1-1.6,1.3c-0.4-0.1-1.2-0.2-1.6-0.3
	c-5.3-3.1-4.6,0.4-4.4,3.8c-31.4-1.8-62.9-4-94.1-7.3c28.6,0.1,58.2,0.2,86.7-0.9c4.8-3.9-3.7-7.7-3.3-12.4c3.2-0.5,8.2,2.6,10-0.8
	C1138.1,237.8,1120.6,232.7,1106.5,221.2z"/>
<path class="st73" d="M666.8,222c6.3,0.6,14.8-1.6,20.2,2.1C680.6,223.6,671.8,225.1,666.8,222z"/>
<path class="st74" d="M174.5,236.2c1.6-8.7,11.5-15.4,20.3-13.1c18.7,2,37.5,3.6,56.3,4.9c-2,1-4,2.1-6.1,2.9
	c-7.1-1.2-17.5-4.6-23.1-0.2c5.6,1.8,10.7,4.3-0.3,4.1c-4.6,0.5-9.1,1.3-13.6,2.3c5-3.1-7.5-5.2-3.1-1.3c6,3.9-5-0.3-6.9,3.3
	c-4.6,0.9-9.2,1.9-13.7,2.8C182.3,238.2,177,239.5,174.5,236.2z"/>
<path class="st43" d="M339,222.8c5.3,7.4-18,18.3,1.1,18.5c-5.5,1.6-6.1,3.5-0.5,5.6c5.6,7.9,17.7,12.8,16.7,24
	c-8.4-8.5-17.3-18.6-29.7-22.5c-3.1-4.8,7.9-2.9,7.3-7.2c-3.7-1.1-7.4-1.9-11.1-3.1C331.7,239.3,332.7,226.8,339,222.8z"/>
<path class="st75" d="M251.1,228c1.7,0.1,3.3,0.6,5,1c-1.5,3-13.2,7.6-11.1,1.9C247.1,230.1,249.1,229,251.1,228z"/>
<path class="st76" d="M249,235.7c5.6-1.3,14.4,1.7,17.5-4.8c0.3,1.5,0.4,4,2.4,4c17.9,1.8,36.1-0.7,53.8,3.2c3.7,1.2,7.4,2,11.1,3.1
	c0.6,4.4-10.4,2.5-7.3,7.2c0.3,0.3,0.8,0.8,1,1.1c-3.9,3.3-4.9,8.5-7.8,12.5c-4.5-5-11.8-3.4-17.7-4.4c-12.9-13.3-34-11.5-51-15.1
	c-12.2-3.1-24.4-1.2-35.4,4.4c-1.8-7,8.4-1.5,6.1-8.1C231,238.4,240,237.1,249,235.7z"/>
<path class="st21" d="M1152.3,231.9c34.3,9.5,69.1,18.4,101.6,33.3v20c-30.5-7.9-61.1-15.4-91.7-22.5c-6.5,2.2-19.1-12.6-8-8.5
	c21.5,3.9,42.5,11.5,64.4,12.5c7.5-1.1,0.2-6.2-3.8-6.5c-21.6-9.7-46.4-11.3-66.1-25.1C1145.5,231.6,1152.3,235,1152.3,231.9z"/>
<path class="st77" d="M205,235.8c-4.4-3.9,8.1-1.7,3.1,1.3c4.5-1,9-1.8,13.6-2.3c9.1,0,18.3,0,27.4,0.9c-9,1.4-18.1,2.6-27.2,3.2
	c-13.5,2.3-26.9,5.6-40.2,8.9c-16.6,1.1-23.4,21.9-20.6,35.7c-7.6-4.8-0.9-17.4,1.9-24.5c4.8-15.7,24.6-11.3,35.1-19.8
	C199.9,235.5,211,239.7,205,235.8z"/>
<path class="st78" d="M144,235.2c4.1-3.3,9.1,3.5,14.2,2.4c10,1.6-1.6,11.8,1.6,17.7c2.8-2.6,5.2-5.4,7.9-8.1
	c5.2-2.7,10.9-4,16.6-5.2c4.6-0.9,9.2-1.9,13.7-2.8c-10.5,8.5-30.3,4.2-35.1,19.8c-2.8,7.1-9.5,19.7-1.9,24.5
	c3.2,1.2,6.5,2.5,9.9,3.3c-0.6,0.1-1.7,0.3-2.2,0.4c12,6.4,26.2,7.7,39.4,10c0.4,2.6-2.3,1.6-3.9,1.5c-16-4.1-32.6-6.5-47.8-13.5
	c1.3,3.1,4.9,4,6.6,6.9c-3.1-1.3-5.8-3.2-8.3-5.4c-4-6.6,1.1-13.7,1-20.5c-3.6-3.4-7.8,5.4-12.5,2.7
	C139.1,258,141.9,246.2,144,235.2z"/>
<path class="st79" d="M400,243.4c2.9-15,24.1-1.8,34.3-2.3c1.1,2.4,3.2,1.9,4.3-0.1c8.3,5.6,8,19.6-3.7,20
	c-11.3,1.1-17.2-15.4-5.9-20.1c-4.2-0.3-8.8-0.7-9.2,4.5c1.9-6-8.9-7-8.8-3.7C407.7,238.6,402.2,239.5,400,243.4z"/>
<path class="st80" d="M181.7,247.8c13.3-3.3,26.6-6.6,40.2-8.9c2.3,6.6-7.9,1.2-6.1,8.1c-4.9,11-5.9,23.2-6.8,35
	c-0.5,2.2-1.1,4.5-1.7,6.7c-10.8,8.8-24.4-0.9-36.4-2c-3.4-0.8-6.6-2.1-9.9-3.3C158.3,269.7,165.1,248.9,181.7,247.8z"/>
<path class="st81" d="M342.7,378.7c33.8-38.2,53-88.1,54-139c-2,6.2,7.8,6.7,3.5,11.6c-1.5,3.4,5.3,1.6,7.7,2.8
	c-2.9,1.9-10.7,4.1-6.9,8.4c3.1-0.8,3.1,2,3.4,4.4c-3.4,2.3-1.5,6.3-2.1,9.7c-6,3.1-3.7,10.8-4.4,16.5c-3.2,9.1,5.9,5.3,8.7,1.8
	c2.1-3.2,7.8-15.4,9.1-5.6c-3.5,24.4-11.8,48.4-13.9,72.9c-6.1,12-21.9,13.7-34.1,13.9c3.4-17.3,19.6-30.7,20-49.3
	c-13.7,19.3-22.9,42-41.4,57.7c1.3,5.6-5.5,4.7-7.9,8.3c-20.8,25.2-52.4,40.1-85.1,39.8c-0.1,4.8,11.6,1.6,15,2.1
	c7,1.3,24.6-8.8,22.4,5.4c-0.9,21.6-19.5,36.9-36.1,47.9c-20,12.9-39.7,28.9-60.9,38.1c-23.1,21.5-53.2,35.5-79.7,53.2
	c-14.5,2.6-32-3.9-44.8,5.5c16-1.7,32.1,4.5,47.8-0.4c5.7-0.3,12.1,0.5,14.5-5.6c27.1-16.6,56.1-29.6,83.8-45.3
	c7.9-3.8,3.7,2.2,1.4,3.6c-23.9,16.5-46.4,36-72.6,48.9c21.9,6.6,45,11.4,67.5,16c-1.7,1.9-2.9,8.9,0.9,5.9c2.8-5.6,4.8,7,7.5,0.4
	c27,6.6,63.1,14.3,92.2,26c2.3,0.9,4.4,0.9,3.2-2.1c-18.6-7.2-36.5-16.6-56.1-20.8c-7.3-1.8-17.9-2.6-22.9-7.4
	c28.2-18.7,52.7-42.8,82.6-58.7c10.1-8,20.9,2.4,31.6-0.4c15.4,7.9,34.5,2.4,51.9,5.8c15.5-10.4,24.7-28.1,36.8-42.1
	c0-2.2-7.4-2.3-5.1-6.2c5.7-10.9,3.6-24.8,11.6-34.4c5.2-5.2,11.7,1.4,17.6,1.4c6.9-5,6-16.8,3.2-24.1c-3.1,7.7-9.3,12.4-17.9,9.4
	c-12-1.9-7.3-16.7-3.2-23.9c4.6-9.1,17,2.2,22.7-4.4c0.1-18.2,0.6-36.4,2.1-54.6c3.5-8.4-10.3-7-10.5-12.5c3.6,0.1,7.2,1.2,10.8,1.5
	c-7.7-7.2-19-8.2-28.1-13.1c-1.7-1-6.5-2.9-2.7-4.6c12.1-5,23.7,4.7,33.4,9.6c5.5-7.6-2.9-13.8-10.9-13.8
	c-10.5-3.1-11.2-16.5-20.7-18.5c-3.9-9.7-8.8-25.1-2.6-33.6c-0.7-1.5-1.7-2.9-2.6-4.2c4.4,0.5,10.8-0.8,12.9,4.4
	c9,1.5,18.2,2.8,27.3,1.9c1-0.4,2.1-0.8,3.1-1.3l0.5,0.6c1.7,4,6.9,1.9,10.3,2.5c-7,8.7-25.5-3.8-34.8,2c2.8,7.3,18.1-3.3,20.2,7
	c-17.6-9.1-32.2,21-14.4,28.8c3.2,1,6.9,1.3,10-0.2c-2.2,7.5,7,9.6,5.8,16.1c-10.6,40.3-3.7,83.1-8.6,124.2
	c3.6,18.7-12.8,32-24.5,43.7c-19,19.3-39.2,38.5-52.9,62.1c-6.4,6.4-4.8,14.2,3.3,17.9c2,16.7,25.1,13.6,36.8,21.2
	c8,4.3-1.4,2.6-4.6,1.6c-10.5-2.6-20.1-8.7-31-9.7c1.6,7-4.2,11.3-6.6,17c20.1-2.9,52.8,5,56.5-22.7c19.6,4.3,38.9,10,58.1,15.8
	c-0.8,3.4-1.6,6.8-2.4,10.2c-1,2.3-0.9,4.6,0.6,6.6c-7.3,6,13.2,12.5,13.9,19c-19.1,18.6-40.2,34.8-59.6,53.1
	c-7.2,8.2-19,13.2-20.8,25.2c-8.6,26.6-28.4,47.1-43.7,69.9h-4c14.6-23,34.9-43.5,42-70.5c2.7-2.1-0.5-10.7-3.6-7.8
	c-2.1,4.1-2.1,9.5-5.9,12.5c0.5-5.3,6.9-12.5,2.5-16.5c-1.1-0.4-2.1-0.8-3.2-1.1c-8.2-2.9-19.4-1.7-26.2-5.8
	c13.7-28.1,50.2-39.3,79.1-29.7c-11-10.7-30.4-5.5-43.8-2.8c-19.3,7.9-37.4,19.1-56.2,27.5c-22.4-4.2-41.9-17.1-63.3-23.2
	c21.7-23.7,44.9-46.5,69-67.9c4.8-2.9,15.9-10.7,4.5-12.2c-21.5-5-37.6,12.8-53.2,24.5c-7.4,5.1-14.1,16.6-24.4,12.3
	c-21.6-8.2-44.1-13.6-66.7-18.2c-7.4,0.3-13.8-9-20-1.9c-2.9-6.4-4.7-4.8-5.9,1.4c-2.3-5.2-4.1-8.2-6.7-1.4
	c-2.2-3.9-4.8-8.8-5.1-1.9c-0.8,8.6-4.4-9.8-5.8-1.9c-0.2,3.2-2.7,6.5-3.6,1.7c-2-5.3,7.1-5.5,7.3-10.8
	c-26.4-2.1-51.8-10.3-77.9-14.7c-18.4-4.3-30.4,12.9-40.7,25c-7.5,16.6-24.8,26.6-33.3,42.8c-9.1,9.9-19.2,18.6-28.8,28
	C1.4,705-13,723-29.9,741.1c-6.1,3.2-9.6,10.6-13.6,15c-8.3-1.7-5.5,12-13.2,12.9v-28c32.8-34.9,62.9-72.8,100-103.5
	c14.2-12.3,27.6-25.7,40.5-39.3c0.9-1.5,3.5-3.2,1.9-5.1c-25.7-2.7-52.1,2-74.5,15.4c-1.2,0.4-7.9,4.7-5.5,1.6
	c13.5-9.5,29.5-15.6,43.6-23.6c-9.6-1-22.5,6.4-32.6,10.6c-27,11.4-50.2,29.5-73.5,46.9v-59.8c13.9-8.3,28.3-10.7,41.8-20.6
	c4.3-0.8,9.7-0.7,11.8-5.3c11.9-4.5,23.5-8,36.2-9.7c42.7-13.5,84.4-31.8,124-53c5.8-2.2,2.8-5.8-2.1-3
	c-17.7,5.1-34.6,12.5-51.8,19.2c9.1-10.6,7.2-27.8,19-36.9c12.8-10.2,28.6-21.1,29-39.1c12.7-8.6,2.5-26.8,14.1-34.8
	c8.1-5-15,1.3-9.7-3.8c11.2-6,14.3,5.8,23.2,7.2c-1.6-5.1-8.7-8.4-11.5-13.5c-7.2-0.1-20.9-6.1-23.2,5.1c-0.7-3.4-8.8-10.7-5.5-1.3
	c2.5,6.2-2.1,10.9-3.5,16.5c3.8-2.5,4.2-7.9,8-10.3c3.6,12.7-8.2,23.7-18.1,29.9c-54.2,31.2-114.1,50.9-171,76
	c26-7.3,46.7,13.9,69,23.4c6.8,1.6,16.3,5.7,21.4-1.1c-9.1-6-21.2-4.4-30.5-9.8c-5.3-9.2,6.6-12.1,4.7-20.9
	c4.3-7.5,8.9,2.4,14.7,1.6c21.7-8.3,43.5-17.7,65.5-25.4c2.7-1.3,9.2-4.2,5.5,3.4c-2.1,11.3-6.4,22.2-9.8,33.2
	c-1.1,2.4,2.1,2.9,3.8,3.1c-20.7,6.5-40.4,17-62.1,19.7c-16.6,3.5-29.9-9.1-44.9-13c-15.8,6.3-31.3,14-48.1,17.3V500
	c53.3-19.9,106.6-40.1,158.6-63.5c8-4.3,16.4-8,23.8-13.4c-31.7,9.2-61.7,25.4-93.2,36.2c-8.2-1.3,3.1-5.3,6-6.1
	c26.5-12,53.8-22.4,79.8-35.4c8.2-3.4,11.8-12.7,12.1-20.9c-7.8,6-7-5.6-14.6-5.5c-10.4-1.7,2.8,5.2-1.6,8.3
	c-5.2,7-9.1-9.6-16.7-4.7c-6.1-0.5-1.7,5.6-5.1,8.2c-3.8-6.1-12.7-5.2-17.4-0.6c16.4,2.3,2.1,7.8-3.1,0.7c-3.3-3.7-6,1-6.6,4
	c-1.6-6-8.6-1.3-12.9-3.4c4.3-13.7,13.1-25.2,20.9-37C61.9,377,54,391,50.7,405.7c-27.8,7-55.3,15.4-83.3,21.6
	c-9.2,1.1-21.5,9.8-24.3-3v-80c8.5-9.5,23.5-4,34.5-6.9c18.8-4.3,38.7-3.4,57.1-9.8c32.7-2.4,68.3-8.8,93.4-30.7
	c-2.9,18.1-17.6,31.8-29.1,45.2c14.7-8,19.4-26.8,32.1-36.3c5.9,28.6,15.7,57.7,34.7,80.4c30.5,37,85.9,54.8,130.2,32.5
	c17.1-6.3,27.3-22,41.2-32.7C328.9,386.7,355.7,379.3,342.7,378.7z"/>
<path class="st82" d="M215.8,247.1c11-5.6,23.2-7.5,35.4-4.4c17,3.5,38.1,1.8,51,15.1c5.9,1,13.2-0.6,17.7,4.4
	c-5.1,15.5-8.5,31.4-14,46.7c-5.8,7.6-17.3,13.2-26.1,10.3c2.1-15.3-5.6-2.3-10.2,2.6c-13.3,3.9-26.5-2.9-39.3-5.9
	c-14.9-3.1-11.1-23.6-15.5-34.6c-1.9,0.2-3.9,0.6-5.8,0.9C209.9,270.2,210.8,258,215.8,247.1z"/>
<path class="st83" d="M237.3,246.6c18.9-0.6,39.5,1.7,56.2,10.7c3.3,10.8-6.5,21.5-9.8,31.5c-5,10.5-13.4,25.9-27.6,19.9
	c-10.3-6.6-26-3.8-33.2-15.8c-4.8-12.4-8.7-26.2-2.2-38.9C222.9,246.8,231.4,247.3,237.3,246.6z"/>
<path class="st84" d="M563.9,247.3c14.5,1.8,29.3,1.2,43.7,3.8c-0.5,2.6-1.2,5.2-2.1,7.8c-15.6,0-31.1-2.6-46.7-2.9
	C562.8,255,562,250.4,563.9,247.3z"/>
<path class="st47" d="M326.6,248.4c12.4,3.8,21.3,14,29.7,22.5c-0.3,13.2,7.4,39.6-12.9,38.6c-8.7,0.4-29.2,7.6-23.5-7.7
	c4.9,10.1,18.9,6.1,27.7,3.9c7.5-9.1,3.4-23.4,3.9-34.3c-4.5-10.2-16.2-14.4-23.9-21.9C327.4,249.3,326.8,248.7,326.6,248.4z"/>
<path class="st13" d="M493.9,248.3c1.2,0.4,2.5,1,3.7,1.4c-1.5,3.1-3,6.2-4.5,9.2c-0.1-0.5-0.3-1.6-0.4-2.1
	c-5.9,9.8-6.9,21.6-12,31.8l-0.5-0.6c-0.1-3.8,0.3-7.6,1.7-11.1c-4.5,6-11.3,7.2-18.3,7.5c6.1-1.1,7.1,7.1,13.5,4.9
	c-9.1,0.9-18.3-0.4-27.3-1.9c-2-5.2-8.5-3.9-12.9-4.4c-2.3-1.1-4.1-2.3-0.4-2.5c15,0.7,29.6-3.9,44.5-5.4
	C487.2,267.3,489.6,257.2,493.9,248.3z"/>
<path class="st81" d="M739.9,255.7c5.2,1.1,10.6-1.1,8.8-7.9c0.3,14.1,17.8,8.1,27,10.5c47.6,2.9,95.1,7.5,142.8,9.5
	c79.1,7.9,158.8,10.8,238,18c1.9-5.2,8.6-8.6,12.2-3c-6.4,8.7,6.9,17.2,4.3,27.1c0.9,6.5,7.4-4.3,7.4,1.5c3.4,3.8-0.3,10.5-4.7,6.6
	c-5.9-5.2-7.3-13-11-19.6c-1.7,4.2-2.5,8.7-4.6,12.7c-0.7-1.8-1.3-3.6-2-5.4c-0.4-1-0.7-1.9-1.1-2.9c-0.2-0.5-0.6-1.6-0.8-2.1
	c-0.2-0.4-0.5-1.2-0.6-1.6c-0.5-1.2-1.1-2.4-2.5-2.5c-143.5-10-286.9-20.7-430.4-30.4c-8.2-2-13.6,5.2-15.8,12
	c-1-6.2,1.3-13.3,8-15.1c15.7-2.7,32.7,4.7,48.2,0.2c-3.5-7.5-20-3.6-26.3-7.3C737.6,256,739.1,255.8,739.9,255.7z"/>
<path class="st85" d="M497.6,249.8c2.7-1.5,8.2,0.5,4.7,4.8c-2,8.3-5.7,16.1-7.7,24.5c-10.9-1.7-4.8-13.5-1.6-20
	C494.6,255.9,496.1,252.8,497.6,249.8z"/>
<path class="st86" d="M230.4,252.6c16.8-5.5,35.8-1.7,51.7,5.1c10.4,3.2,4.8,16.5-0.3,22.3c-7.4,15-27.6,15.9-40.8,12.3
	c-0.3-4.3,2.7-12.7,7.9-9.4c4.5,1.6-1.4,12.4,5.6,9.9c3.7-10,5.2-20.6,9.2-30.5c7.1,2.4-1.6-4.3-4.4-2.7c-7.5,0.5-17.5-5.1-23.3,1.7
	c-4.4,6.4-4.7,14.5-5.4,21.9C224.2,274.9,218.5,258.9,230.4,252.6z"/>
<path class="st31" d="M319.8,262c2.8-4,3.9-9.2,7.8-12.5c7.7,7.5,19.3,11.7,23.9,21.9c-0.6,10.9,3.5,25.1-3.9,34.3
	c-8.9,2.2-22.8,6.2-27.7-3.9c-4.9-0.2-1.6,8.3-2.8,10.7c12.1,6.9,27.6,2,40.1,1.1c4.5,16.1-8.4,31.5-15.4,45.2
	c-3.4,9.2-16.5,15.6-17,24.4c-0.2,0.3-0.6,1-0.9,1.3c-13.4,3.5-23.4,19.9-38.6,20.1c-7.2-2.6-7.6-11.8-9.5-18
	c18.3-18.9,35.8-38.7,53.2-58.6c2-2.1,1.1-8.2-4.1-4.3c-4.6,3.3-7.7,8.7-11.9,12.6c-8.9,8.6-16.7,18.4-26,26.6
	c-19.1-2.8-42.7,2.2-58.8-10.1c14.4-4.8,33.2,6.3,47.9,0.2c9.5-10.5,19.5-21.5,25.8-34.2c1.5-3.3,2.8-6.8,3.8-10.2
	C311.3,293.5,314.8,277.5,319.8,262z"/>
<path class="st87" d="M407.9,254.1c2.5,1.3-4.2,3.6-2.2,6.8c-2.8,10.5,8.1,3.6,4,12.2c-3.2-0.3-4.2-3.8-5.3-6.3
	c-0.2-2.3-0.3-5.2-3.4-4.4C397.2,258.3,405.1,256,407.9,254.1z"/>
<path class="st88" d="M647,254.9c8.8,0.4,0.3,4.2,0.8,7.1C641.6,261.8,649.2,258.2,647,254.9z"/>
<path class="st89" d="M531.9,256.3c7.7-1.7,5.6,10.8-2,6.8C530.3,260.7,530.6,258.2,531.9,256.3z"/>
<path class="st90" d="M656.8,255.9c4.2-1.6,6.2,3.4,2.8,5.9C650.8,263.3,664.8,257.7,656.8,255.9z"/>
<path class="st91" d="M973.5,258.7c18.6-2.8,37.9,2.4,56.6-0.5c10,1.2,20.2,1.1,30.2,2c31.2,3.3,62.7,5.5,94.1,7.3
	c-0.2-3.3-0.9-6.9,4.4-3.8c-9,2.5,4.9,4.8,8.7,6.5c15.4,20.7,13.7,49.3,27.2,71c-12.3-4.6-23.2-14.3-37-14
	c-73.6-2.5-147.1-5.2-220.7-8.1c-75.2-3.7-150.5-6.5-225.5-11.9l0.2-1c99.8,4.5,199.6,11.1,299.4,13.6c48.4,2.6,96.9,3.6,145.3,5.6
	c3.1,0.2,9.1,2.4,6.8-2.4c-1-4-2.1-7.8-3.2-11.8c2.1-4,3-8.5,4.6-12.7c3.7,6.5,5.1,14.4,11,19.6c4.4,3.9,8.1-2.8,4.7-6.6
	c0-5.8-6.5,5-7.4-1.5c2.5-9.9-10.8-18.4-4.3-27.1c-3.6-5.6-10.3-2.2-12.2,3c-79.2-7.3-158.9-10.1-238-18c9.9-4.5,22.2,3.3,31.3-3.6
	C958,271.2,966.3,263.2,973.5,258.7z"/>
<path class="st92" d="M69,273.1c10.3-3.3,18-13,29-14.1c-14.3,11.6-31.3,20.9-50.1,22c-3.4-2-20,4.2-16.2-3.2
	c5.2-7,12.1-0.5,18.3,0.1C56.5,278,63,275.7,69,273.1z"/>
<path class="st93" d="M239.9,260.8c3.2-2.4,11.4,0.1,16.2-0.5c-14.3-4.5-13.3,10.8-10,19.7c8.1,0.9,14.2-13,11.9-19.2
	c1.9,0.4,3.8,0.9,5.6,1.5c-4,9.9-5.5,20.6-9.2,30.5c-7,2.5-1.1-8.4-5.6-9.9c-5.2-3.3-8.2,5.1-7.9,9.4c-0.8-0.1-2.4-0.2-3.2-0.3
	c0.5-10.4,3-20.5,5-30.7C242.1,261.1,240.6,260.9,239.9,260.8z"/>
<path class="st94" d="M256.1,260.2c0.5,0.1,1.5,0.4,2,0.5c2.3,6.2-3.9,20-11.9,19.2C242.8,271,241.8,255.7,256.1,260.2z"/>
<path class="st95" d="M234.4,267.6c0.9-2.8,2-6.6,5.5-6.9c0.7,0.1,2.2,0.4,2.9,0.5c-2,10.2-4.5,20.3-5,30.7
	C227.4,289.6,232.9,274.9,234.4,267.6z"/>
<path class="st96" d="M558.6,260.9c15.6,1,32.1,1,47.1,4.3c-4,16.8-7.5,33.8-12.1,50.6c-15.8,1.7-33.5-2.1-49.7-4.1
	c-3-7.5,6.5-12.9,2.1-19.3c7,0.3,1.6-8.2-1.3-3.4c-7.2-0.1,0.7-11.2,3-7.1c-5.6,5.9,8,2.9,4.8-2.3
	C545.1,270.8,563.8,265.7,558.6,260.9z"/>
<path class="st97" d="M1160.5,264c0.4-0.3,1.2-1,1.6-1.3c30.7,7.1,61.3,14.6,91.7,22.5v2c-27.5-7.7-55.3-14.2-83.2-20.2
	C1167.1,266.2,1163.7,265.5,1160.5,264z"/>
<path class="st98" d="M265.9,263.8c4.5,7.2,0,19.6-5.1,26.4C262.7,281.5,267.7,272.8,265.9,263.8z"/>
<path class="st99" d="M416.2,267.7c6.1,4.2,11.4-6.1,16.8-2.9c-5.4,5-2.9,12.5-1.9,18.8c-2.8,10.8-10.5,27,1,35.2
	c5.5,4.2,0.8,12.3,5.5,17.1c-3.3,2.2-7.6,4-8.9,8.2c3.1,5,9.8,5.5,14.1,9.1c-9.4,5.4,0.3,16.4,0.8,24c1.2,8.2,15.3,7,13.6,16.5
	c14.4-2.3,9.3,16,10.3,24.5c2.2,14.6-12.2-0.7-18.7,4.8c-9.2,6.5-10.6,20.9-7.7,30.7c5.8,3.6,1,12.6-5.9,8c1.4-12.1-3.5-23-5.1-34.5
	c5.9-11.3-13.4-17.6-20.1-10.9c-6.5,9-19.7,10.4-24.6,20.3c-2.2,11.8-5.9,24.5-16.3,31.7c-7.1,14.4-9.8,31.1-12.2,46.8
	c-12.3,4.7-25.8-2.8-35.2-11c-6.3-12.7-25.1-5.8-36-3.1c-3,1.6-7.6,5.2-8.7-0.2c-0.5-7.1,9-0.1,11.6-5
	c19.9-16.1,43.7-36.9,39.7-65.2c-6.9-1.6-16,0-19.8-7.5c17.6-4.2,27.5-21.8,41.7-32.4c3.6-5.4,9.1-15.7,16.6-10.8
	c14.7-1.6,35.6,4.4,45.2-10.4c3.5-18.5,2-37.6,2.9-56.2c1.3-10.5,6.8-21.3,3.5-31.9c-2.5-6-9.4,1.3-12.2,3.3c-8.7,4.6-4.6-4-4.1-8
	c0.6-3.4-1.3-7.4,2.1-9.7c1.1,2.5,2.1,5.9,5.3,6.3C415.2,272.7,411.2,264.8,416.2,267.7z"/>
<path class="st100" d="M1167.6,270.2c-3.8-1.7-17.8-4-8.7-6.5c0.4,0.1,1.2,0.2,1.6,0.3c3.2,1.5,6.7,2.2,10.1,3
	c1.3,2.9,2.6,5.9,5.6,7.5c25.9,6.2,52.1,11.9,77.6,19.5v14c-12.8-1.2-26.6,1.5-38.8-2.9c-0.4,1.1-2.1,3.5,0.2,3.6
	c12.9,0,25.8,0.8,38.6,1.3v38c-16.6-0.8-33.3-1.2-49.9-3.1c-3.3-0.6-6.4-1.9-9.2-3.8C1181.3,319.5,1183,290.9,1167.6,270.2z"/>
<path class="st101" d="M612,265.1c15.9,1.4,31.8,2.4,47.7,4.1c-9.4,2.6-22.5-1.2-33.6-1.2c2.8,9.1-2.6,8.7-8.4,8
	c2.3-2.8,8.5-11.6-0.9-9c-5.6-1.4-4.2,5.6-5.8,9c7.6,1.7,18.4,3.3,24.7,2.2c-11.9-4.2,8.3-15.6,7.1-2.2c5.7-3.1,15.6-7.7,17.6,1.5
	c4.5,5.9-3.2,11.5-5.4,15.3c1,2.4,8.3,4.5,2.3,5.8c-12.8-0.4,3.6,4.5-1.9,7c-5.8,0.9,1.1,7.5-1.9,11.1c-1.3,3.3-2.2,9-7.7,6.4
	c-15.3-1.4-30.7-3-45.9-5.3c-0.3-8.8,3.7-17.2,6-25.6C607.1,283.2,608.2,273.5,612,265.1z"/>
<path class="st102" d="M560.8,266.1c6.6,1,14.8,0,20,3C577.9,268.7,561.1,273.1,560.8,266.1z"/>
<path class="st69" d="M706.9,278.2c2.2-6.8,7.6-14,15.8-12c143.5,9.7,287,20.4,430.4,30.4c1.4,0.1,2,1.3,2.5,2.5
	c-144-7.9-287.9-20.2-431.8-29.2c-5.4-1.5-11.5,1-12.3,6.8c-0.3,1.1-0.6,2.1-0.9,3.2l-0.2,0.9c-0.1,0.5-0.4,1.5-0.5,2.1
	c-1.3,1.4-2.7,2.8-3.9,4.3C706.1,284.2,706.6,281.2,706.9,278.2z"/>
<path class="st22" d="M1170.6,267c27.9,6,55.7,12.6,83.2,20.2v6.7c-25.6-7.6-51.7-13.3-77.6-19.5
	C1173.2,272.9,1171.9,269.9,1170.6,267z"/>
<path class="st63" d="M9.5,272.2c8.8-0.3,17.6-1.4,26.2-3.1c10,6.3,22,6.5,33.2,3.9c-6,2.6-12.4,4.9-19.1,4.9
	c-6.2-0.7-13.1-7.2-18.3-0.1c-3.8,7.4,12.8,1.2,16.2,3.2c-5.9,3.6-14.7,0.6-21.7,0.4C18,286.4,16.4,273.4,9.5,272.2z"/>
<path class="st103" d="M711.5,276.7c0.9-5.8,6.9-8.3,12.3-6.8c144,9.1,287.8,21.4,431.8,29.2c0.2,0.4,0.5,1.2,0.6,1.6
	c-127.7-5.4-255.6-16.4-383.4-23.9C752.5,277,731.4,271.2,711.5,276.7z"/>
<path class="st104" d="M711.5,276.7c19.9-5.5,41,0.3,61.4,0.2c127.8,7.4,255.7,18.4,383.4,23.9c0.2,0.5,0.6,1.6,0.8,2.1
	C1011.2,296.8,865,285,718.9,278c-2.8,0.2-5.5,1.1-8.2,1.9C710.8,278.8,711.1,277.7,711.5,276.7z"/>
<path class="st105" d="M-56.2,276.2c4.1-0.3,8.2-0.9,12.2-1.1c-3.8,3.5-8.7,5.5-12.2,9.2V276.2z"/>
<path class="st106" d="M202.1,275.3c3.5-0.1,3.1,8.9-0.4,3.9C199.8,277.9,199.2,275.6,202.1,275.3z"/>
<path class="st59" d="M528.1,275.1c5.7-1.8-0.3,18.4-3.2,10.9C528.7,282.3,524.7,280,528.1,275.1z"/>
<path class="st107" d="M463.5,284.4c7-0.2,13.8-1.4,18.3-7.5c-1.4,3.6-1.8,7.3-1.7,11.1c-1,0.5-2.1,0.9-3.1,1.3
	C470.6,291.6,469.6,283.4,463.5,284.4z"/>
<path class="st108" d="M1177.8,277c13.6,2,26.2,8.4,39.9,9.2c-9.8,2.6-24.2-0.9-35.8-0.2C1179.2,284.2,1178,280.2,1177.8,277z"/>
<path class="st109" d="M710.6,279.9c2.7-0.9,5.4-1.7,8.2-1.9c146.1,7,292.3,18.8,438.2,24.9c0.3,0.9,0.7,1.9,1.1,2.9
	c-39.7-0.5-79.3-4.6-119-6.6c-92.9-7.2-186.3-10.6-279.3-16.9c-16.5-0.6-33.5-1.8-49.4-1.5L710.6,279.9z"/>
<path class="st110" d="M587.1,279.1c6.5-3,3.8,9.6-1.2,7.9C584.9,284.2,585.9,281.6,587.1,279.1z"/>
<path class="st111" d="M710.4,280.8c15.9-0.3,33,0.9,49.4,1.5c93.1,6.3,186.4,9.7,279.3,16.9c-100.9-3.3-201.9-10.7-302.8-14.8
	c-4-1.7-17.9,10.3-6.5,7.7c134,10.1,268.1,17.1,402,27c10.2,1.2,22.2,7.1,31.5,3.8c2.2,4.8-3.7,2.7-6.8,2.4
	c-48.4-1.9-96.9-2.9-145.3-5.6c-51.7-7.8-105.1-8.1-157.4-12.7c-47.3-3.1-94.7-6.4-142-10c-7.5-0.5-2.2-9.4-2-14.1
	C710,282.4,710.2,281.3,710.4,280.8z"/>
<path class="st112" d="M208.9,282.1c1.9-0.3,3.8-0.7,5.8-0.9c4.4,11,0.6,31.5,15.5,34.6c12.8,3,26,9.8,39.3,5.9
	c4.7-4.9,12.3-17.9,10.2-2.6c8.8,2.9,20.3-2.7,26.1-10.3c-1.1,3.5-2.4,6.9-3.8,10.2c-11.2,13.7-28.8,8-43.7,10.5
	c-18.1-2-40.7-1.3-49.4-20.5c-5.7-11.2-24.3-8.7-35.9-13.9c-3.3-0.9-6.8-1.4-9.9-3c-1.7-2.8-5.2-3.8-6.6-6.9
	c15.1,7,31.7,9.4,47.8,13.5c1.6,0.2,4.2,1.1,3.9-1.5c-0.1-2.9-0.4-5.6-0.8-8.4C207.8,286.6,208.4,284.3,208.9,282.1z"/>
<path class="st113" d="M705.9,287.2c1.3-1.5,2.6-2.9,3.9-4.3c-0.2,4.8-5.5,13.6,2,14.1c47.3,3.6,94.6,7,142,10
	c52.3,4.6,105.7,4.9,157.4,12.7c-99.9-2.6-199.6-9.2-299.4-13.6C697.9,308.8,707.4,294,705.9,287.2z"/>
<path class="st114" d="M736.3,284.4c100.9,4.1,201.9,11.5,302.8,14.8c39.7,1.9,79.3,6.1,119,6.6c0.7,1.8,1.4,3.6,2,5.4
	c1,3.9,2.1,7.8,3.2,11.8c-9.4,3.3-21.3-2.6-31.5-3.8c-133.9-9.9-268-16.9-402-27C718.4,294.7,732.3,282.7,736.3,284.4z"/>
<path class="st115" d="M140.1,297.7c-2.8-7.3,3.8-16.4,8-5c0.2,22.3,7.2,44.5,17.6,64.3c-1.4,0.1-2.8,0.3-4.1,0.4
	c-1.6-0.4-3.1-0.8-4.7-1.2C147.8,337.9,142.1,318,140.1,297.7z"/>
<path class="st116" d="M168.7,287.2c0.6-0.1,1.7-0.3,2.2-0.4c12,1.1,25.6,10.8,36.4,2c0.4,2.8,0.7,5.6,0.8,8.4
	C194.9,294.9,180.7,293.6,168.7,287.2z"/>
<path class="st117" d="M490.9,291.1c0.5-2.7,2.5-3.6,5.1-3.2c-8.2,31.4-17.2,63-19.6,95.5c0.3,29.9-0.5,59.8-3.6,89.5
	c0.5,8.4,5.9-0.9,6.2-4.7c-0.9-7.9,6.8-13.4,4.2-21.3c-3.1-15,11.4-25.2,8.8-41c5-22.9-15.1-46.1-0.3-67.3c-1.8,19.1,1,38,7.3,56
	c-5,21.5-0.5,45.1-2.1,67.3c-4.3,13.4,15.7,5.4,16.9,16.7c-2.6,2.8-1.3,13.1,5,12.8c0.6,6.6-2.6,10.5-3.9,1.5
	c-2.8,5.9-0.8,15.3,0.1,22.6c-16.2-0.2-14,18.2-17.7,28.5c-1.6,6.9,12.9-1.9,10,4.1c-2.9,9.4-8.8,1.4-16.2,3.6
	c-4.2-0.9-11.2-7.4-14.1-2c16.3,11,39.4,8.9,56.3,14.1c-1.2,1.8-2.6,3.6-4,5.3c-17.5-7.2-37.4-8.6-56.1-10.8
	c-4.1,0.9-7.5,3.7-11.2,5.6c5.5-9,15.4-16.1,16.2-27.3c7.6-16.6,22.9-27.2,32.8-41.9c-13.4,8.9-23.3,23.8-34.6,35.7
	c-9.7,12.8-19.2,33.6-38.1,22.9c-7.9-8.1-1.5,9.1-9.6,6.9c-2.3-0.5-4.5-1.1-6.7-1.7c-0.1-0.5-0.2-1.5-0.3-2
	c7.3-11.1,17.6-19.4,27.5-27.8c-4.6,0.3-9.1,3-11.9,6.7c-3.2-0.5-6.9-2.2-9.3,1.5c-13,11.7-21.2,28.2-36.2,37.9
	c13.8-23.6,33.9-42.8,52.9-62.1c11.7-11.8,28.1-25,24.5-43.7c4.9-41.2-2-83.9,8.6-124.2c1.3-6.5-8-8.5-5.8-16.1l0.5-0.7
	c5.4-6.1,9.4-15.2,6.7-23.2c-0.9-1.6-1.9-3.1-2.8-4.6c-2.1-10.3-17.4,0.3-20.2-7C465.4,287.4,483.9,299.9,490.9,291.1z"/>
<path class="st118" d="M496,287.9c14.6-2.8,3.1,12.1,2.7,19c-0.2,5.8-9.7,18.6,2.3,16.8c-5-0.2-6.5,0.8-1,2c-9.8-2.8-7,7.3-8.5,13
	c-14.8,21.2,5.3,44.4,0.3,67.3c2.6,15.8-11.8,25.9-8.8,41c2.7,7.8-5.1,13.4-4.2,21.3c-0.3,3.8-5.7,13.1-6.2,4.7
	c3.2-29.7,3.9-59.6,3.6-89.5C478.8,350.9,487.9,319.3,496,287.9z"/>
<path class="st119" d="M-56.2,307.2c60.7-7.2,120.7-11.9,181.5-15.8c0.3,10-17.8,4.1-23,11.9c0.6-5.8-9.5,0-12.8-0.7
	c-48.9,5.1-96.8,16.5-145.7,21.5C-56.2,324.1-56.2,307.2-56.2,307.2z"/>
<path class="st120" d="M556.8,292c4.7,0.8,13.5-1.4,15.1,3.9C568.2,294.5,556,298.8,556.8,292z"/>
<path class="st121" d="M584.1,293.2c6.2-2.7,4.4,7.7-1,5.7C580.6,297.4,582.1,294.3,584.1,293.2z"/>
<path class="st122" d="M172.9,295.1c11.7,5.2,30.3,2.7,35.9,13.9c2.1,13.1,7.8,25.3,14.1,36.9c-0.8,5-1.7,9.9-2.3,14.9
	c-1.6,7-0.3,14.9-3.6,21.5c-2.8,5.3-11,10.1-13.4,2.2c1.9-7-7.5-5.5-10.6-9.6c-5-4.5-6.2-13.8-13.6-15.2
	c-1.2-13.8-10.7-25.7-11.2-39.9c-3.4-9.9,3.1-0.9,5.7,0.4C173.2,311.7,171.2,303.5,172.9,295.1z"/>
<path class="st123" d="M461.9,329c-17.8-7.8-3.3-37.9,14.4-28.8c0.9,1.6,1.9,3.1,2.8,4.6c-17.4-16.6-31.2,28.7-6.7,23.2l-0.5,0.7
	C468.8,330.3,465.1,330,461.9,329z"/>
<path class="st124" d="M519.8,299c13.4-4.3,3,16.4-1.9,5.1C529.6,305.2,517.8,303.2,519.8,299z"/>
<path class="st125" d="M626.8,299.4c5.9,1,13.1-0.3,18,3.6c-2.4-5.9,11.4,1.4,3.4,0.8C642.3,302,629.4,304.9,626.8,299.4z"/>
<path class="st126" d="M472.4,328c-24.5,5.5-10.7-39.8,6.7-23.2C481.8,312.8,477.8,321.9,472.4,328z"/>
<path class="st127" d="M550.9,302c7.1,2.1,14.6,1.4,21.8,3.1c-0.7,7.8-14.4-2.6-20,0.9c2.8,5.1,19.9-0.6,17.8,5.7
	C563.3,308.8,544.9,315.5,550.9,302z"/>
<path class="st43" d="M1215,305.1c12.3,4.4,26,1.6,38.8,2.9v2c-12.9-0.6-25.8-1.3-38.6-1.3C1212.9,308.6,1214.6,306.3,1215,305.1z"
	/>
<path class="st128" d="M687.2,308.3c5.5-2,12-0.3,17.8-1.2c-5.5,1.8-0.9,6.8,3.8,4.9c71.5,4.4,143.1,8,214.8,11.2
	c78,3.8,156,6.3,234.1,8.9c15.7,2,28.2,13.2,43.1,18.2c17.6,2.2,35.4,2.2,53.1,2.7v7.9c-5.1-3-10.2-1.5-14.9,1.1
	c-23.2,4.3-47.4,3.4-70.1,9.1c-113,1.4-226,1.9-339,1.8c-32-0.8-64.5-2.9-96.4,0.9c-4.3-12.7-25.3,2.9-34.7-6.8v-1
	c11.6-0.9,23.4,1.7,34.9-0.5c4.5,2.9,8.4,6.3,14.3,3.8c72.7,0.7,145.3,2.1,217.9,0.8c4.5-1,11,2.2,14.4-1.9c-6-1.2-13.3,1.8-18.8-1
	c30.3-0.5,60.9,0.2,90.9-1.3c31-5.7,63.3-0.7,94.6-5.4c4.1-0.2,9.8,1.1,11.8-3.5c-0.5-8-9.6-14.8-17.1-10.5
	c-3.5-6.4-14.1-5.5-21.1-5.8c-137.9-9.5-275.8-15.6-413.8-24.7c3.1-4.4-2.7-3-5.9-2.8c-1.4,24.4-2.9,49.2-11.7,72.3
	c-12.6,39.2-22.9,79.3-38.5,117.5c-2.8,12.4-14.1,17.8-22.7,25.3c-23.4,32-43.3,66.7-59,103.1c2.5-21.3,17-38.4,25.4-57.7
	c3.1-3.8,4.3-9.7,2.4-14c-12.6,12.4-19.6,29.2-31.1,42.3c6.2-14.3,15-27.3,22.2-41.1c-1.2-2.9-3,1.2-4.2,2.2
	c-2.5-5.9-9.9-6.2-15.4-7.8c-1.3,6.2-18.6,15.8-12.2,5c2.6-3.7-1.9-3.5-4.6-3.7c7.5-6.2,15.7-11.5,23.1-17.7
	c-1.6,10.3,7.9-0.4,11.3-2.7c7.3-6.3,11.4-16.3,19.7-21.2c6.1,15.5-15.2,31-16,45.4c13.5-18.2,26.3-37,38-56.4
	c-1,10.5,10.9,11.1,14.2,2.1c28.2-52,42.9-110.6,51.2-168.8c1.4-8.1,1.4-16.7-2.5-24.2c-5.3,2.3-1.9,9.5-6.7,12.3
	C684,319.5,685.5,313.8,687.2,308.3z"/>
<path class="st129" d="M705.1,307.1c1.7,0,4.9,0,6.6,0c75,5.5,150.3,8.3,225.5,11.9c-0.9,6.5-8.8,3.3-13.5,4.2
	C852,320,780.4,316.5,708.9,312C704.2,313.9,699.6,308.9,705.1,307.1z"/>
<path class="st130" d="M208.8,309c8.7,19.2,31.4,18.5,49.4,20.5c14.9-2.5,32.5,3.3,43.7-10.5c-6.3,12.8-16.3,23.7-25.8,34.2
	c-14.7,6.1-33.5-5-47.9-0.2c-1.5-1.7-2.9-3.4-4.2-5.2c-0.3-0.5-0.9-1.5-1.1-2C216.7,334.3,210.9,322.1,208.8,309z"/>
<path class="st131" d="M613.1,310.1c5.1-2.3,5.8,10-1.3,4.9C611.8,313.3,611.3,311.1,613.1,310.1z"/>
<path class="st132" d="M683.9,325.3c4.8-2.8,1.4-10,6.7-12.3c3.8,7.5,3.9,16.1,2.5,24.2c-8.3,58.3-23,116.8-51.2,168.8
	c-3.3,9.1-15.2,8.4-14.2-2.1c9.7-18.2,17.3-37.5,24.5-56.9C667.6,408,676.6,366.6,683.9,325.3z"/>
<path class="st133" d="M701,313.1c3.2-0.2,8.9-1.6,5.9,2.8c-4.8-0.6-3.1,5.3-4,8.4c-2,13.9-3.9,27.8-4.2,41.8v1
	c2.3,12.4,16.1,11,25.9,11.2c4.1,4.5,9.2,1.3,14.2,0.8c171.5,3.7,343.1-7,515-4v8.1c-175.6-2.6-351.6,12.3-527,3.7
	c-10.2-1.2-24.7,0.4-28-12.2c-16.4,44.6-29.5,91.8-47.1,136.3c2.3-0.5,4.9-3.5,7-0.8c-3.8,8.6-9.1,16.4-12.9,25
	c-0.7,1.2-1.3,2.5-2,3.7c-4.4,2-6.1,12.8-11,9.5c0,9.1-8.2,20.2,2.2,26.4c6.1,9.3-6.1,13.4-7,22.4c-6.4,27-23.3,49.7-33.5,75.6
	c-12,8.6-12.8,25-22.1,35.9c-12.3,13.6-20,30.8-30.6,45.5c-11.6,4.8-9.5,17.5-19.5,23.4c-8.6,6.4-14,16.2-22.8,22.5h-55.3
	c4-2.1,10.8-7,6.6-8.1c1.7-4.2,8.7-3,8.3-8.7c-1-6.4,4.1-2.4,5.6-6.3c29.4-38.4,56.1-79.1,86.3-116.8c3.2-3.7-2.2-9.9-0.5-14.8
	c-14.2-7.5-34.9-3.5-48.1-12.5c16.5,1.5,32.5,6.9,49.1,8c0.6-2.2,1-4.6,1.3-6.9l0.2-0.9c6,2.1,18.8,10.1,16.1-1.7
	c15.6-36.4,35.6-71.1,59-103.1c8.6-7.5,19.9-12.9,22.7-25.3c15.6-38.2,25.9-78.3,38.5-117.5C698.1,362.2,699.6,337.5,701,313.1z"/>
<path class="st134" d="M702.9,324.2c0.8-3.1-0.8-9,4-8.4c137.9,9.1,275.9,15.2,413.8,24.7c7.1,0.3,17.7-0.6,21.1,5.8
	c7.5-4.3,16.6,2.5,17.1,10.5c-2,4.6-7.7,3.3-11.8,3.5c-31.3,4.8-63.6-0.3-94.6,5.4c-30.1,1.5-60.7,0.8-90.9,1.3
	c5.4,2.7,12.8-0.2,18.8,1c-3.4,4.1-9.9,0.9-14.4,1.9c-72.6,1.3-145.3-0.1-217.9-0.8c-5.9,2.5-9.8-0.8-14.3-3.8
	c31.2-4.2,64.4,1.1,96.2,0.5c1.1-5-7.4,0.2-9.3-2.9c49.3-0.1,98.9-1.6,147.9-2.4c8.9,2.5,2.7-7.4-1.6-3.7c-6.1-0.9,8-7.1-1.7-6.9
	c-3.7,7.2-5.9-3.2-9.5-1.4c-5.4,7.9-2.6-5.8-9.7-4.2c-12,2.7-21.9-7.5-33.9-3.6c-58.9-11.1-118.7-17.7-178.7-21.3
	C723.5,319.4,709.1,313.7,702.9,324.2z"/>
<path class="st50" d="M702.9,324.2c6.2-10.6,20.6-4.8,30.4-4.7c60,3.6,119.8,10.3,178.7,21.3c12-3.9,21.9,6.2,33.9,3.6
	c7.2-1.6,4.4,12.2,9.7,4.2c3.7-1.8,5.9,8.6,9.5,1.4c9.7-0.2-4.5,6.1,1.7,6.9c4.3-3.7,10.6,6.2,1.6,3.7c-49,0.7-98.6,2.3-147.9,2.4
	c1.9,3.1,10.4-2.1,9.3,2.9c-31.8,0.6-65-4.6-96.2-0.5c-11.5,2.2-23.3-0.3-34.9,0.5C699,352,700.9,338.1,702.9,324.2z"/>
<path class="st37" d="M937.1,319c73.6,2.8,147.1,5.6,220.7,8.1c13.8-0.2,24.7,9.4,37,14c2.7,1.9,5.9,3.1,9.2,3.8
	c1.9,2.9,0.2,5.5-3.2,5.4c-14.8-4.9-27.3-16.2-43.1-18.2c-78-2.6-156.1-5.1-234.1-8.9C928.3,322.4,936.2,325.6,937.1,319z"/>
<path class="st105" d="M313,336.5c4.2-4,7.3-9.3,11.9-12.6c5.2-3.9,6.1,2.2,4.1,4.3c-17.4,19.8-34.9,39.6-53.2,58.6
	c-1.1,0.7-2.2,1.4-3.3,2.1C283.4,369.8,303.4,355.8,313,336.5z"/>
<path class="st135" d="M500.1,325.8c-5.5-1.1-4-2.2,1-2c19,2.7,38,4.5,57,6.9c-4.1-0.3-3,0.9-0.2,2.4c-13.4-1.4-26.7-3.3-40-5.1
	C511.9,327.4,506,326.7,500.1,325.8z"/>
<path class="st136" d="M517.8,328c13.3,1.8,26.6,3.7,40,5.1c17,4.2,35.2,6.5,52.8,6.1c21.4,2.9,43.3,3.5,64.5,7.9
	c-0.7,6.5,0,14.5-5.8,19c-1.3-3.8-5.9-2.6-9-3.5c-1.4-5.4-2.4-12.9-8.5-15c9.9,8.5,7.3,26.3-5.8,29.7c4-4.4-2.3-1.3-5-1.6
	c-3.8-0.6-6.9-3.1-10.2-4.9c1.2,16,27.4,7.7,28.3-5.9c8.9-4.1,0.5,13.6-2.7,18.8c-52-5-104.7-10.7-155.5-21.7
	c-1-5.3-1.3-10.7-1-16.1c5.2-6.5,0.6,11,6.5,12.3c16.3,17.9,39.8-16.7,19.5-26.6c-2.4-1.6-5.4-1.7-8.2-2
	C517.8,329.3,517.8,328.5,517.8,328z"/>
<path class="st137" d="M495.4,342.2c10.9,4.1,11.4-12.2,22.4-12.5c2.8,0.3,5.8,0.4,8.2,2c-2.4,0-12.8-1.9-7.3,0.3
	c17.5,6,1.8,31.1-12.2,22c9.1,11.8,28.8,0,23.2-13.9c5.6,4.3-1.9-6.7-3.8-8.3c20.3,9.9-3.2,44.4-19.5,26.6
	c-5.9-1.3-1.4-18.8-6.5-12.3C499.5,343.8,497.1,343.2,495.4,342.2z"/>
<path class="st48" d="M518.7,332.1c-5.6-2.2,4.8-0.3,7.3-0.3c1.9,1.7,9.4,12.6,3.8,8.3c5.6,13.9-14.1,25.7-23.2,13.9
	C520.6,363.2,536.2,338.1,518.7,332.1z"/>
<path class="st138" d="M557.8,333.1c-2.8-1.5-3.9-2.7,0.2-2.4c19.6,2.9,39.4,4.5,59,7.3c-1.6,0.3-4.9,0.9-6.5,1.2
	C593,339.7,574.8,337.4,557.8,333.1z"/>
<path class="st98" d="M287,363.2c9.3-8.3,17-18,26-26.6c-9.6,19.2-29.6,33.2-40.5,52.3c-6.9,7.9-14.1,16.1-23.7,20.7
	c0.8-10.2,7.9-20.8,12.8-29.9C272.3,378.1,280.3,371.3,287,363.2z"/>
<path class="st92" d="M617.1,338c17.7,1.1,35.2,4.2,52.8,5.8c1.2-0.5,10.8,1.5,5.2,3.3c-21.2-4.4-43.1-5-64.5-7.9
	C612.2,339,615.5,338.4,617.1,338z"/>
<path class="st139" d="M572,340.1c6.2,3,8.9,0.2,15.8,1.9C593.2,347.6,567,344.8,572,340.1z"/>
<path class="st93" d="M496.8,363.1c-1.6-6.8-3-13.8-1.4-20.8c1.7,1,4.1,1.6,4.5,3.8c-0.2,5.4,0,10.8,1,16.1c-0.2,1.6-1.7,1.8-3,2.1
	C497.7,363.9,497.1,363.4,496.8,363.1z"/>
<path class="st140" d="M638.2,345.4c2.4,0.1,7.2,0.4,9.6,0.6c-1.8-0.5-16.3,0.3-4.4,1.6c10.4,1.6,12.6,15.7,4.1,21.3
	c-7,6.9-17.8,2.1-20.8-6c-1.1,3.8,1.2,7,2.2,10.4C619.8,364.9,627,347.8,638.2,345.4z"/>
<path class="st141" d="M1204,345c16.6,2,33.2,2.3,49.9,3.1v4.9c-17.7-0.4-35.5-0.5-53.1-2.7C1204.2,350.5,1205.9,347.9,1204,345z"/>
<path class="st142" d="M222.9,345.9c0.3,0.5,0.9,1.5,1.1,2c0.8,8.9-5.5,19,1.4,26.5c0.3,8.4-2.5,16.9-2.4,25.3
	c-0.4,1.7,0.7,6.8-2.4,4.4c1-14.9,4.6-29.1,0-43.4C221.2,355.8,222.1,350.8,222.9,345.9z"/>
<path class="st57" d="M224,347.9c1.3,1.8,2.7,3.6,4.2,5.2c16.1,12.3,39.7,7.3,58.8,10.1c-6.7,8.1-14.7,14.9-25.5,16.5
	c-4.9,9.1-12,19.7-12.8,29.9c-10.8,2.5-19-3.9-25.8-9.9c0-8.5,2.7-17,2.4-25.3C218.6,366.8,224.8,356.8,224,347.9z"/>
<path class="st143" d="M651.8,347.7c6.1,2.1,7.1,9.6,8.5,15c3.2,0.9,7.7-0.3,9,3.5c-4.5,6.7-4.3,17.4-12.4,21
	c-9.6-1.5-19.3-2.4-29-3.2c-38.4-4.7-76.8-9.7-114.8-16.4c-5-1.2-10.3-1.1-15-3.4c1.3-0.3,2.8-0.5,3-2.1
	c50.8,11.1,103.5,16.8,155.5,21.7c3.1-5.1,11.6-22.8,2.7-18.8c-1,13.6-27.1,21.9-28.3,5.9c3.3,1.8,6.4,4.2,10.2,4.9
	c2.7,0.2,9-2.8,5,1.6C659.1,374,661.7,356.1,651.8,347.7z"/>
<path class="st144" d="M637.1,349c7.3-2.4,16.1,5.8,12.9,13.1c-1.9,8.7-15.3,11.1-20,3.5c-1-2.1,0-13.4,1.1-5.5
	c0.7-12.2,20.4-9.6,15.8,1.9c5.3-1.2,0.4-10.1-3.7-11.4C641.2,348.5,633.4,353.4,637.1,349z"/>
<path class="st112" d="M537.1,350c21.1,1.5,41.8,6.6,62.9,8c-2.2-4.4-10.8,0.7-11.2-4c3.6,0.5,21.4,0.6,14.2,3.8
	c5.8,1,11.8,1.1,17.6,2.4c-0.9,5.3,1.2,10.1,3.2,14.9c-30.8-3.9-62.6-6.9-93.3-10.8C529.7,359.7,535.7,355,537.1,350z"/>
<path class="st145" d="M546.2,357.3c4-2.1,7.1,4.9,2.4,5.4C543.9,364,538.8,357.7,546.2,357.3z"/>
<path class="st146" d="M152.9,359c5.1-1.5,14.6,1,21.2,1.8c9.2,11.6,15.9,28.3,31.7,32.2c8.2,2.2,12.6,5,10.8-7.2
	c2.3,5-4.6,18.4,4,18.4c3.1,2.4,2-2.7,2.4-4.4c6.7,5.9,15,12.4,25.8,9.9c9.6-4.6,16.8-12.8,23.7-20.7c1.1-0.7,2.2-1.4,3.3-2.1
	c1.9,6.2,2.3,15.4,9.5,18c15.3-0.2,25.2-16.6,38.6-20.1c2.2,0.7,8.7-1.5,6.6,2c-7.1,0.5-10.5,7.6-15.8,11.3
	c-21.2,18.6-50.8,29.9-79,23.2c-4.5-0.6-4.8-8.8-9.6-4.5c-0.1-4.6-9.7-8.2-7.9-1.4C188.7,410.6,166.7,383.7,152.9,359z"/>
<path class="st130" d="M1238.9,362c4.7-2.6,9.8-4.1,14.9-1.1V375c-171.8-3-343.4,7.7-515,4c-5,0.5-10.1,3.6-14.2-0.8
	c-9.8-0.2-23.6,1.2-25.9-11.2c9.4,9.7,30.4-5.9,34.7,6.8c31.9-3.8,64.4-1.7,96.4-0.9c113,0.1,226-0.4,339-1.8
	C1191.5,365.5,1215.7,366.4,1238.9,362z"/>
<path class="st147" d="M159.6,360c11.7-0.1,13.2,16.5,22.2,22c3.3,8.4,14.9,10.7,17.2,18.9c-12.1-3.2-20.2-17.4-28.4-23.4
	C167.5,372.4,162.9,366.1,159.6,360z"/>
<path class="st148" d="M565.2,360.3c2.7-1.2,5.1,1.1,6.9,2.8C570,367.5,556.1,363.7,565.2,360.3z"/>
<path class="st115" d="M217,382.2c3.2-6.6,2-14.4,3.6-21.5c4.6,14.3,1,28.5,0,43.4c-8.6,0-1.7-13.4-4-18.4
	C216.7,384.6,216.8,383.4,217,382.2z"/>
<path class="st149" d="M584.2,361.9c9.6-4.9,6.5,7.9,0.9,7C584.3,366.7,584,364.3,584.2,361.9z"/>
<path class="st150" d="M496.8,363.1c0.3,0.3,0.9,0.9,1.2,1.1c4.6,2.2,10,2.1,15,3.4c-0.8,0.4-5.3,1.1-2.9,1.9
	c13.1,2.5,26.4,4.3,39.6,6.5c-0.5,9.5-11.6,2.9-16.6,9.1c-9.1,0.2-18.5-1.4-27.3-3.9c-1.1-3.1-2.8-5.4-5.9-2.8
	C498.3,373.6,493,368.1,496.8,363.1z"/>
<path class="st151" d="M601.8,364c5.4-0.3,7.5,3.1,11.1,6C609.7,372.6,597.8,371.8,601.8,364z"/>
<path class="st152" d="M51.5,405.8c3.4-14.7,11.2-28.7,22.4-38.8c-7.8,11.8-16.6,23.3-20.9,37c4.3,2.1,11.3-2.6,12.9,3.4
	c0.5-3,3.3-7.7,6.6-4c5.2,7.1,19.5,1.6,3.1-0.7c4.7-4.6,13.6-5.5,17.4,0.6c3.3-2.6-1-8.7,5.1-8.2c7.6-5,11.4,11.7,16.7,4.7
	c4.4-3.1-8.8-10,1.6-8.3c7.6-0.1,6.8,11.4,14.6,5.5c-0.2,8.3-3.9,17.5-12.1,20.9c-26.1,13-53.3,23.4-79.8,35.4
	c-2.9,0.8-14.2,4.8-6,6.1C5.9,475.8-26.1,484-56,495.3v-17c22.1-8.8,45.3-15.4,66.7-25.6c4.2-4.5,8.5,2.6,12.1,4.6
	c25.6-17.1,57.4-28,84.5-44.2c-25.8,4.1-51.1,11.4-76.2,19c-6.2,4.2-11.4,0.1-16.8-2.6c2.2,2.3,0.6,5.7-2.1,6.7
	c-22.6,2.3-45.6,2.1-68.2,4.8v-16.8c2.8,12.9,15.1,4.1,24.3,3C-3.8,421.2,23.7,412.8,51.5,405.8z"/>
<path class="st31" d="M651.7,510.9c17.6-44.5,30.7-91.7,47.1-136.3c3.3,12.6,17.8,11,28,12.2c175.4,8.6,351.4-6.3,527-3.7v31
	c-30.2-3.4-61.1-0.7-90.7-8.3c-104.6-10.8-210.3-7.5-315.5-8.6c-16.3-0.3-32.7-0.3-49,0c-29.1-1.3-58.3-2.4-87.4-3
	c-0.1,0.4-0.4,1.2-0.5,1.6c-3.7-4.8,6.1-0.5,5.1-4.7c-5.7-1-11.1-2.8-15.8-6.1c-0.3,7.5-5.5,14.3-4.8,21.7
	c5.1,0.5,1.7-18.4,9.5-13.6c-5.6,22.9-12,45.8-21.4,67.4c-4.6,13.3,15.9,3.5,20,13.1c7.1-11.4,9.7,3.7,7.6,11.4
	c-1.1,10.5,0.1,23.2-5.8,32.3c-3.9,3-6-4.2-6.2-6.7c-7.3,10.1-18.6,19.6-31,21.3c-7.5-0.4-17.7-5.8-22,3.1c3.7-8.6,9.1-16.4,12.9-25
	C656.6,507.4,654.1,510.4,651.7,510.9z"/>
<path class="st73" d="M516.4,376.5c1.7-0.4-0.4,8.5-3.9,4.8C509.8,377.9,514.7,378.3,516.4,376.5z"/>
<path class="st153" d="M568,378.4c17.2,1.9,34.4,4.4,51.6,6.9c2.4,3.2,5.6,12.6,0.4,13.7c-12.7-15.5-35.5-8.8-52.8-14.2
	C557,384.9,566.7,382.2,568,378.4z"/>
<path class="st117" d="M627.8,384c9.7,0.8,19.4,1.6,29,3.2c6.2,5.3-6.1,8.4-7.9,13c-7.1,3.1-16.4-0.8-24.5-0.8
	C621.2,394.5,625.5,388.5,627.8,384z"/>
<path class="st154" d="M700,385c4.7,3.3,10.1,5.1,15.8,6.1c1,4.1-8.9-0.1-5.1,4.7c0.3,0.5,0.8,1.6,1.1,2.1
	c7.5,12.2-1.5,24.1-1.9,37.1c3.7,18.1,23.8,23.6,36.1,34.9c21.9,6.4,45.2,7.4,67.8,6.7c12.8-3.6,26.4-1.7,38.4,3.8
	c14.2-0.4,27.6,5.6,41.7,6.8c56,11.8,113.9,2.6,170.5,6.4c8.4,8.9,22.7,1,32.6,8.5c20.2,13.9,45.3,14.4,67.9,19
	c-11.6,7.5-43.8-7.5-45.1,15.8c-15.7,34.6-14.2,74.9-5.3,110.8c6.8,13.8-8.2-0.8-10.5-5.7c-7.7-10.9-14.4-22.6-19-35.1
	c-5.9-3.4-5-8.8-5.9-16c-0.3-4.2,4.1-7.2,2.7-11.5c-3.3-13.3,5.9-29.8-2.9-41.2c-17.8-3.3-36.6-1-54.7-1.2c-14.8-1.9,1,9.4,3.1,15.2
	c-10.2-2.7-15.2-13.6-24.8-17.4c-33.8-5.4-67.9-9.9-101.9-14.2c-38.8-0.4-76.3-12.9-115.2-11.4c-5.3,8.9-7.8,19.9-14,28
	c-7.1-9.6-12.9,8.1-3.1,8.8c-12.6,20.8-19.3,44-22.3,67.9c-8.4,38.4-18,76.7-37.9,111.1c-2.3,11-14.3,5.1-21.9,4.9
	c-0.2-4.7,3.5-7.7,7.3-9.5c9-17.3,14.5-37,22.6-55.4c3.1-21.4-4.8-42.6-2.9-64c-2.7-11.4-0.8-22.4,5.9-32c2.8-3-0.4-8.6-3.7-4.6
	c-37.7,40.7-65,89.6-96.2,135c-2-10.9,8-19.2,12-28.3c7-10.8,9.7-24,15.8-36.1c-3.6-3.2-2.4-7.4,0.2-11c7.3-8.2,7.4-20.7,15.9-28.1
	c9.7-16.3,21.9-31.8,23.7-51.4c-16.5,4.6-24,28.2-40.6,34.5c-6.7,0.3-4.2-7.4-4.5-11.6c-0.4-4.6-8.5-4.3-7.5-9.2
	c2.8-6.7,7.8-12.4,10-19.4c0.7-1.2,1.3-2.5,2-3.7c4.3-9,14.5-3.5,22-3.1c12.3-1.7,23.7-11.2,31-21.3c0.2,2.5,2.3,9.7,6.2,6.7
	c5.9-9.2,4.8-21.8,5.8-32.3c2.1-7.7-0.5-22.8-7.6-11.4c-4.2-9.5-24.7,0.2-20-13.1c9.3-21.7,15.8-44.5,21.4-67.4
	c-7.8-4.7-4.3,14.1-9.5,13.6C694.5,399.4,699.7,392.6,700,385z"/>
<path class="st155" d="M555,388.5c15,0.8,29.6,4.2,44.5,5.9c9.1,0.1,15.5,8.6,17.4,16.6c-23.7-3-47.2-7.1-70.8-10.2
	C542.4,396.2,550.3,389.6,555,388.5z"/>
<path class="st31" d="M144.7,396c2.3-11.2,16-5.2,23.2-5.1c2.8,5.1,9.9,8.4,11.5,13.5c-8.9-1.5-11.9-13.2-23.2-7.2
	c-5.3,5.2,17.8-1.2,9.7,3.8c-11.6,8-1.4,26.2-14.1,34.8c-0.3,18-16.2,28.9-29,39.1c-11.9,9.2-9.9,26.4-19,36.9
	c-1.7,0.8-3.3,1.5-5,2.2c-1.7-0.2-5-0.6-3.8-3.1c3.4-11,7.7-21.8,9.8-33.2c3.7-7.6-2.8-4.8-5.5-3.4c-21.9,7.7-43.8,17.1-65.5,25.4
	c-5.8,0.8-10.4-9.1-14.7-1.6c1.9,8.9-10,11.7-4.7,20.9c9.2,5.4,21.3,3.8,30.5,9.8c-5.1,6.8-14.6,2.7-21.4,1.1
	c-22.3-9.5-43-30.8-69-23.4c56.9-25.1,116.8-44.8,171-76c9.9-6.2,21.7-17.2,18.1-29.9c-3.8,2.5-4.2,7.9-8,10.3
	c1.3-5.6,5.9-10.2,3.5-16.5C135.9,385.4,144,392.6,144.7,396z"/>
<path class="st156" d="M498.9,394.7c1.1-0.3,2.4-0.8,2.4,0.9c3,13.3-0.8,28.4,3.3,40.9c0.2,7.1,2.3,24.6,10.3,22.4
	c1.8,11.4,19.7,6.4,23.3-1.5c0.7-7.6,6-13.9,6.8-21.4c7.7,3.3,0.5,26.7,9.2,16.3c12.5-6.7,25-15.1,40.2-11.7c-6.1-5.7,3-8.3,7.2-3.5
	c-6.8,14.3,19.2,13.1,24.3,21.7c5.5-7.1,10.2,3.1,16.7,2c4.5-3.6,3.7-11.4,9.6-13.7c-7.2,19.4-14.8,38.6-24.5,56.9
	c-11.6,19.5-24.5,38.2-38,56.4c0.9-14.4,22.2-29.9,16-45.4c-8.4,4.9-12.5,14.8-19.7,21.2c-3.4,2.4-12.9,13.1-11.3,2.7
	c3.7-3.9,7.1-8,10.5-12.1c4.9-7,24.5-25,7.8-28.8c-4.4-1-8.7-1.9-13-3.1c-12.9-3-25.9-6.4-39.1-6.9c3.1,7.9,19.3,4.1,27.2,6.9
	c-2.1,4.3-5.6,25.7,5.6,26.9c2.3-6.7,19.7-14.4,9.4-20.9c-1.1-0.7-1.1-1.4-0.1-2.3c3,1.2,6.1,2.4,9.1,3.6c0.7,0.6,1.3,1.2,1.9,1.9
	c-5.6,8.9-13.5,16.2-19.2,25.1c-8.8,10.6-22.1,15.5-32.6,24.1c-4.7,4.4-11.2,5-17.4,4.9c2.1-3.6,8.2-3,9.3-6.8
	c-4.5,2.2-21.5-6.5-18.4,4c-3.3-0.6-6.3-2-8.9-4.1c2.6-2.7,4.4-8,8.9-7.2c-1.3,3.9,0.6,2.8,3.2,1.5c6.9,2.3,15.1-0.7,20.9,4.3
	c7.9-4.9-4.4-9-5-14.7c-3-8.8-8.1-17.3-10.9-25.9c0.1-9.8,17.6,2.9,13.4-7.7c-3-8.1,4.1-15.1,2.6-23.4c-2,0-3.4,1.7-5,2.7
	c-6,3.6-13.9,2.9-20.1,0.1c-0.3-0.5-0.8-1.6-1-2.1c-1.2-11.3-21.2-3.3-16.9-16.7C498.4,439.8,493.9,416.2,498.9,394.7z"/>
<path class="st157" d="M640.3,394.5c2.2,0.2-2,8.6-4.6,4.6C633.4,396,638.3,395.5,640.3,394.5z"/>
<path class="st91" d="M711.2,394.2c29.1,0.6,58.3,1.7,87.4,3c70.2,14.2,143.1,7.4,213.7,15.6c-75.3,1.5-150.5-2.3-225.8-4
	c-18.8-0.7-37.6-2.8-56.4-3.1c-7.6,1-15.3-0.1-18.4-7.8c-0.3-0.5-0.8-1.6-1.1-2.1C710.8,395.4,711,394.6,711.2,394.2z"/>
<path class="st158" d="M559.8,395c4.8,0.7,14.2-1,16.1,4C571.1,398,561.8,400,559.8,395z"/>
<path class="st94" d="M576.8,397.3c3.7,1,10.4-0.9,11.2,3.7C585.3,399.5,575.5,403.1,576.8,397.3z"/>
<path class="st130" d="M798.6,397.2c16.3-0.3,32.7-0.3,49,0c76.7,3.6,153.1,11.9,230,12.2c45.8,1.8,91.5,4.6,137.3,7.4
	c12.3,0.9,25.1,0.7,36.6,5.7c4.8,6.1-5.3,7.5-9.2,5.1c-32.2,11.1-67.6,2.1-101,1.1c-117.9-6.1-236.6-13.1-354.7-19.9
	c75.3,1.7,150.5,5.5,225.8,4C941.7,404.6,868.8,411.4,798.6,397.2z"/>
<path class="st159" d="M847.6,397.2c105.2,1.1,210.9-2.2,315.5,8.6c29.7,7.5,60.5,4.9,90.7,8.3v67.7c-10.6,6.8-23,4.1-33.9,0
	c-4.5-2.3-16,3.4-8.7,7.7c2.5,1.3,11.7,3.7,0.6,2.4c-13.9,1.6-22.8-9.6-35.6-12.4c-8.2-4.8-25.5,4.9-25.4-8.6
	c-5.2-6.9-24.4,5.2-22.9-9.1c-5.9-7-18.1-5.7-26.4-7.6c1.1-8.7-9.8-13.9-14.7-6.4c-7.6-5.3-18.8-6-26.4-0.3
	c-12.7,9-34.3-6.1-44.2,7.2c-7.2-1.8-30.2,6-25.4-5c-12.7-7.6-16.8,9.7-29.1,5.3c-12.4,2.4-28.2-5-38.6,3.6
	c-24.1,0.1-49.6-7.8-73.2-0.4c-28.7,1.5-58.4,8.8-87.2,0.8c-4.6-3.8-18.9-6.3-11.1-14.1c1.6-1.4,3.8-2,5.6-3
	c-7.1-4.7-15.5-3.2-23.2-5.2c-3.6-1.6,0.8-3.6,2.2-5.1c3.3-2.3-0.2-7.7,2.7-10.3c15-6,31.5,2.2,45.8-4.1c14.1-0.4,28.4,0.7,42.4-1.5
	c-32.5-4.7-65.7-3.9-98.4-7.8c0.3-0.5,0.9-1.6,1.2-2.1c18.8,0.3,37.6,2.4,56.4,3.1c118.1,6.8,236.8,13.8,354.7,19.9
	c33.5,1,68.9,10,101-1.1c3.9,2.4,14,1,9.2-5.1c-11.4-5-24.3-4.8-36.6-5.7c-45.8-2.8-91.5-5.6-137.3-7.4
	C1000.7,409.1,924.3,400.8,847.6,397.2z"/>
<path class="st12" d="M711.7,397.9c3,7.6,10.8,8.7,18.4,7.8c-0.3,0.5-0.9,1.6-1.2,2.1c32.7,3.9,65.9,3.1,98.4,7.8
	c-14,2.2-28.3,1-42.4,1.5c-14.3,6.3-30.8-1.9-45.8,4.1c-3,2.6,0.6,8-2.7,10.3c-1.4,1.5-5.8,3.5-2.2,5.1c7.7,2,16.1,0.5,23.2,5.2
	c-1.8,1.1-4,1.6-5.6,3c-7.9,7.8,6.5,10.3,11.1,14.1c28.9,8,58.6,0.7,87.2-0.8c23.6-7.4,49.1,0.5,73.2,0.4
	c10.4-8.6,26.2-1.2,38.6-3.6c12.2,4.4,16.4-12.9,29.1-5.3c-4.7,11,18.2,3.2,25.4,5c9.8-13.3,31.4,1.9,44.2-7.2
	c7.6-5.7,18.8-5,26.4,0.3c4.9-7.5,15.8-2.3,14.7,6.4c8.3,1.8,20.5,0.5,26.4,7.6c-1.5,14.2,17.7,2.2,22.9,9.1
	c-0.1,13.5,17.3,3.8,25.4,8.6c12.9,2.8,21.7,14,35.6,12.4c11.1,1.3,1.9-1.1-0.6-2.4c-7.4-4.3,4.1-10,8.7-7.7
	c10.9,4.1,23.3,6.8,33.9,0v97.7c-14.8,1.3-13.3,18.3-16.5,28.9c-6.4,33.8-12.4,67.9-15.1,102.2c-0.8,5.7,7.9,10.4,9.9,3.7
	c3.4-32,8.1-64.1,14.3-95.8c2.5-8,2-17.4,7.4-24.2V800h-77.8c-9.1-29.3-19.7-58.2-29.7-87.3c-7.4-30.9-33.5-51.8-52.4-75.7
	c-4.7,10,4.5,22.7,8.3,32.6c6.6,14.6,15.2,28.2,22.7,42.2c7.9,29.3,14.7,58.8,22.2,88.2h-149c-3.2-7.1-11.9-7.9-16.1-13.3
	c-7.4,0.5-16.3-5.6-9.4-12.5c-6.5,0.6-7.5-10.8-15.4-6.7c-9.6,0.4,3.6,17.1-7.6,13.6c-8-0.2,7-7.8-0.2-12.7
	c-6.3-1.3-0.6-8.1-6.2-10.1c-10,3-17.8-4.3-24.7-9.9c-2.2-9.9-13.4-0.9-18.5-5.3c-1.7-9.8-18.3,1.7-20.3-6.9c3.5,0.3,8.5,2.2,8.9-3
	c-1.8-2.8-3.2-10.7-7.4-6.6c-4.4,8.6-17.9,3.3-20.4-4.6c-1.6-4.3-4.6,2.1-7.3,1.6c-0.8-2.9-1.8-7.2-5.7-6.9c-6,1.3-6.5-9.7-11.6-9.2
	c-2.1,4-6.9,4.8-10.8,3.1c8.2-5.7,0.2-19.8-8-10c-3.6-4.5-11.4-0.4-13.5-7.6c-3.6-1-8.2,0.7-10.1-4c-4.2-3.8-10.7,7.6-12.8,2.5
	c14.3-4-5.7-17.3-11.5-8.4c-3-5.8-0.4-11.5,4.1-15c-0.2-7.6-11.5-3.5-11.7,2.5c-2.3,7.7-11.9,9-9.4,18.4c-8.2-3.5-5.6,7.8-10.9,10.3
	c-8.5,5-11,14.8-17.8,21.1c-7,0.9-6,9.5-11.2,12.9c-9.4,2.8-19.3,0.1-28.8,2.8c-11.3-8.2-26.3-1.4-38-7.5c-4.4,0.2-31.3,3-17-2.2
	c14.2-30.4,34.2-58.1,46.4-89.7c0.7-2.9,2-9.5-3.1-7.3c-22.6,27.5-39.6,59.1-60.4,88c21.4-37.1,45-73.2,70.1-108
	c5.6-4.1,7.2-15.2,15.6-14c4.7,4.5-2.2,9.7-3.6,13.9c0.2,10.4,2.5,21.1-2.6,30.6c7.9,8.2,0.4,20,2,29.8c-8.3,7-3.2,21.8-12.8,26.2
	c-0.9,8.7-8.7,14.6-9.7,23.3c-3.8,2.9-12.2,10.1-1,9.1c11.3,4.1,24.1,9.3,35.8,3.6c12.2-25.6,28-50.1,32.3-78.6
	c0.6-9.4,14-15.1,7.3-24.7c3.6-21.3,4.6-44.2,15.4-63.5c5.7-12,13.8-22.8,17.7-35.5c2.5-4.8,4.4-11,9.2-13.7
	c36.7-4.7,72.5,7.2,108.9,8.6c36.3,4.9,72.4,9.6,108.6,15.4c17.3,10.8,32.5,27.5,52.9,32.3c-12-7.9-24.3-15.9-33.6-27.1
	c16.4-5.4,34.2-2.3,51.1-2.6c10.1,4.7,3.1,19.2,4.4,27.7c-0.2,5.1,2.3,19-5.2,11c1.3,3.4,2.8,6.7,4.1,10c0.9,7.2,0,12.6,5.9,16
	c4.7,12.5,11.4,24.2,19,35.1c2.3,4.9,17.2,19.4,10.5,5.7c-8.8-35.9-10.3-76.2,5.3-110.8c1.3-23.3,33.5-8.3,45.1-15.8
	c-22.6-4.7-47.7-5.1-67.9-19c-9.8-7.5-24.2,0.4-32.6-8.5c-56.5-3.8-114.5,5.4-170.5-6.4c-14.1-1.1-27.5-7.1-41.7-6.8
	c-12-5.5-25.6-7.4-38.4-3.8c-22.5,0.7-45.9-0.3-67.8-6.7c-12.3-11.4-32.4-16.9-36.1-34.9C710.2,422,719.2,410.2,711.7,397.9z"/>
<path class="st118" d="M30.9,432.1c25-7.6,50.4-15,76.2-19c-27,16.2-58.8,27.1-84.5,44.2c-3.6-2-7.9-9.1-12.1-4.6
	c-21.4,10.2-44.6,16.8-66.7,25.6v-37.2c22.7-2.6,45.7-2.5,68.2-4.8c2.7-1.1,4.3-4.4,2.1-6.7C19.5,432.2,24.7,436.3,30.9,432.1z"/>
<path class="st160" d="M196.9,417c2.2,1,5.9,2.6,4.7,5.7c-5.3,18.6-8,38.2-16.3,55.8c-0.9,3.5-6.4,3.6-6.3-0.4
	C187.1,458.4,191,437.3,196.9,417z"/>
<path class="st161" d="M414.2,418.2c6.7-2.3,16.1,1.9,12.2,10.3c-7.3,16.6,7.1,30.5,1.9,47c-3.9,13.1-5.8,26.8-10.6,39.5
	c-2.3,8.4-12.8,7.8-19.3,5.4c-10.6-3.8-32.4-1.2-26.5-19.3c5.1-18.7,10.2-37.3,15-56.1C387.8,429.8,407.2,429.6,414.2,418.2z"/>
<path class="st112" d="M33,459.4c31.5-10.9,61.5-27.1,93.2-36.2c-7.4,5.4-15.7,9.1-23.8,13.4C50.5,460-2.8,480.1-56.2,500v-4.8
	C-26.2,483.9,5.8,475.7,33,459.4z"/>
<path class="st162" d="M508.9,433c8.5-7.8,23.6-7.5,32.1,0.1c0.3,8-10.1,9.6-16.2,9.9C518.5,443.5,504.3,442.3,508.9,433z"/>
<path class="st132" d="M504.5,436.5c1.4-1.2,2.9-2.4,4.3-3.5c-4.6,9.3,9.7,10.5,15.9,10c6.1-0.4,16.5-1.9,16.2-9.9
	c1.3,1,2.7,1.9,4,3c-0.8,7.5-6,13.7-6.8,21.4c-3.6,8-21.5,13-23.3,1.5C506.9,461.1,504.8,443.7,504.5,436.5z"/>
<path class="st163" d="M806.3,434.4c7-3.5,14.9,0.7,13.5,8.4c-9.8,2.4-21.3-0.4-30.6-2C793.4,439.8,800.6,436.4,806.3,434.4z"/>
<path class="st134" d="M534.8,480.7c1.6-1,3-2.7,5-2.7c1.5,8.3-5.6,15.3-2.6,23.4c4.1,10.6-13.3-2.1-13.4,7.7
	c2.8,8.6,7.9,17.1,10.9,25.9c0.5,5.7,12.9,9.8,5,14.7c-5.8-5-14-2-20.9-4.3c-2.6,1.3-4.5,2.4-3.2-1.5c-4.6-0.8-6.3,4.5-8.9,7.2
	c2.6,2,5.6,3.5,8.9,4.1c-3.1-10.5,13.9-1.7,18.4-4c-1.1,3.8-7.2,3.2-9.3,6.8c6.1,0.1,12.7-0.5,17.4-4.9l-0.2,0.8
	c-2.9,3.3-6.2,6.3-8.7,9.9c-16.9-5.2-40-3.1-56.3-14.1c2.9-5.3,9.9,1.2,14.1,2c7.4-2.2,13.3,5.9,16.2-3.6c2.9-6-11.6,2.8-10-4.1
	c3.7-10.3,1.5-28.7,17.7-28.5c-0.8-7.4-2.8-16.7-0.1-22.6c1.3,9,4.6,5.1,3.9-1.5c-6.2,0.2-7.6-10-5-12.8c0.3,0.5,0.8,1.6,1,2.1
	C508.1,488.1,541.3,488.3,534.8,480.7z"/>
<path class="st164" d="M534.8,480.7c6.5,7.6-26.7,7.4-20.1,0.1C521,483.6,528.8,484.3,534.8,480.7z"/>
<path class="st165" d="M540.8,488c13.2,0.5,26.3,3.9,39.1,6.9c-8-0.5-0.5,2.3,2.9,3.7c-1,0.9-1,1.7,0.1,2.3
	c10.3,6.5-7.1,14.2-9.4,20.9c-11.2-1.1-7.6-22.5-5.6-26.9C560.1,492.1,543.9,495.9,540.8,488z"/>
<path class="st132" d="M671.1,491.1c7.3-3.2,15.3,7.7,5.8,8.1c-1.1,3.2,1.9,2.8,4.1,3c-1.9,3.8-14.5,1.3-10.3-1.9
	C678,499.4,665.4,497.1,671.1,491.1z"/>
<path class="st155" d="M155.6,492.8c4.9-2.8,7.9,0.8,2.1,3c-39.6,21.2-81.3,39.5-124,53C21,550.6,9.3,554-2.5,558.5
	c-2.1,4.6-7.5,4.5-11.8,5.3c-13.6,9.9-27.9,12.3-41.8,20.6v-46.3c16.7-3.3,32.3-11,48.1-17.3c15,4,28.3,16.5,44.9,13
	c21.7-2.7,41.4-13.3,62.1-19.7c1.7-0.7,3.3-1.5,5-2.2C121,505.4,137.9,498,155.6,492.8z"/>
<path class="st166" d="M476.3,530.6c11.3-11.9,21.2-26.7,34.6-35.7c-9.9,14.7-25.2,25.3-32.8,41.9c-11.9,8.9-23.3,25.3-32.4,39.2
	c-3.1,4.7-5.5,9.8-8,14.7c-9.6-2.2-18.9-5.7-28.3-8.3c-5.9-2.2-0.8-9.3,1.8-12.5c3.5-4.4,6.3-9.3,10.2-13.2c0.1,0.5,0.2,1.5,0.3,2
	c-1,1.7-3.7,4.2-0.1,4.4c9.1,0.5,19.9,7.4,28.1,2.7c-5-5.2-14.7-2.8-21.2-5.4c8.1,2.2,1.8-15,9.6-6.9
	C457.1,564.2,466.6,543.4,476.3,530.6z"/>
<path class="st77" d="M582.8,498.6c-3.3-1.4-10.8-4.2-2.9-3.7c4.3,1.2,8.6,2,13,3.1c0.5,1.5,1.8,4.4-1,4.2
	C588.9,500.9,585.9,499.8,582.8,498.6z"/>
<path class="st52" d="M592.9,497.9c16.7,3.8-2.9,21.8-7.8,28.8c-3.7-2-6.9,1.8-10.5,2.3c5.6-8.9,13.5-16.2,19.2-25.1
	c-0.6-0.7-1.2-1.3-1.9-1.9C594.7,502.3,593.5,499.5,592.9,497.9z"/>
<path class="st167" d="M291.2,509.4c7.7-3.6,6.4,2.4,6.8,7.3c8.3,6.4,18.2,10.7,24.8,19.1c-32.4,21.2-63.1,45.2-94.6,67.6
	c-22.6-6.7-47.9-10.6-69.4-17.5c11.1-11.2,28.4-17.3,41.2-27.6C230.5,542.1,256.6,516,291.2,509.4z"/>
<path class="st31" d="M785,509.1c38.9-1.5,76.4,11,115.2,11.4c34,4.4,68.1,8.9,101.9,14.2c9.6,3.8,14.6,14.7,24.8,17.4
	c-2.2-5.8-18-17.1-3.1-15.2c18.2,0.3,36.9-2.1,54.7,1.2c8.8,11.4-0.3,27.9,2.9,41.2c1.4,4.3-3,7.3-2.7,11.5c-1.3-3.4-2.8-6.7-4.1-10
	c7.6,8,5.1-5.9,5.2-11c-1.3-8.4,5.8-23-4.4-27.7c-16.9,0.3-34.7-2.7-51.1,2.6c9.3,11.2,21.5,19.2,33.6,27.1
	c-20.4-4.8-35.5-21.5-52.9-32.3c-36.3-5.8-72.3-10.5-108.6-15.4c-36.5-1.4-72.3-13.3-108.9-8.6c-4.9,2.7-6.8,8.9-9.2,13.7
	c-3.9,12.8-12,23.6-17.7,35.5c-10.8,19.3-11.9,42.3-15.4,63.5c6.7,9.5-6.7,15.3-7.3,24.7c-4.4,28.5-20.2,53-32.3,78.6
	c-11.8,5.7-24.5,0.5-35.8-3.6c-11.2,1-2.9-6.2,1-9.1c1-8.7,8.8-14.6,9.7-23.3c9.7-4.5,4.6-19.3,12.8-26.2c-1.5-9.8,5.9-21.6-2-29.8
	c5.1-9.5,2.9-20.3,2.6-30.6c1.4-4.1,8.3-9.4,3.6-13.9c-8.4-1.2-10,9.9-15.6,14c-25.1,34.8-48.7,70.9-70.1,108
	c-3.6,3.4-4.4,8.8-7.5,12.4c-32.3,9.1-44.8,43.9-60.1,70.5h-44.8c8.8-6.3,14.2-16.1,22.8-22.5c10-5.8,7.9-18.6,19.5-23.4
	c10.6-14.7,18.3-31.9,30.6-45.5c9.3-10.9,10.1-27.3,22.1-35.9c10.2-25.9,27.1-48.6,33.5-75.6c0.9-9,13.1-13.1,7-22.4
	c-10.4-6.2-2.2-17.3-2.2-26.4c4.9,3.3,6.6-7.5,11-9.5c-2.2,7-7.1,12.7-10,19.4c-1,4.9,7.1,4.6,7.5,9.2c0.3,4.2-2.2,11.9,4.5,11.6
	c16.6-6.3,24.1-30,40.6-34.5c-1.8,19.6-14,35-23.7,51.4c-8.5,7.4-8.5,19.9-15.9,28.1c-2.6,3.6-3.9,7.8-0.2,11
	c-6.1,12.1-8.8,25.3-15.8,36.1c-3.9,9.1-14,17.4-12,28.3c31.2-45.4,58.5-94.4,96.2-135c3.2-4,6.5,1.6,3.7,4.6
	c-6.7,9.6-8.5,20.6-5.9,32c-1.9,21.4,6,42.5,2.9,64c-8.1,18.4-13.6,38.1-22.6,55.4c-3.8,1.8-7.5,4.8-7.3,9.5
	c7.6,0.2,19.6,6.2,21.9-4.9c19.9-34.4,29.5-72.6,37.9-111.1c3-23.9,9.7-47.2,22.3-67.9c-9.9-0.7-4.1-18.4,3.1-8.8
	C777.2,529,779.7,518,785,509.1z"/>
<path class="st161" d="M808.2,522.4c46.3,0.5,91.5,10.6,137.3,16.8c16.7,3.6,33.7,3.5,50,8.2c5.9,5.4,14.5-3.2,19.8,4.2
	c13.5,6.5,25.1,16.7,39,23c9.3-0.5,17.8,6.2,22.3,13.8c1.7,14.6-4.2,29.3-9,43.3c-1.6,18.8-3.6,37.6-6.7,56.4c-3.9-4-13-4-11-11.9
	c-3-6.7-5.7,7.5-10.2,4.2c-3.6-3.3-5.1-10.2-11.7-8.3c-6.1,8.4-24.3,8.4-31.2-0.9c-4.6-6.3-1.7,4.3-6,4.6c-6-9.5-23.3,0.1-33-3.4
	c-3.5-3.7-9.3-3.5-10.1-9.1c-6.9-0.7,7.1,10.2-4.4,5.7c-4.1-8.3-15-3.2-22-7.4c-11.4,3-20.8-5-34.1-3.8c-8-8.1-26.6,1.4-29.6-12.5
	c-3.4,3.7-10.5,4.8-16.4,4.6c-4.6-9.8-17.5-1.1-23.8-9.4c-9.3,2.7-17-2.1-26.5,0.6c-5.2-4.7-11-8.1-17.2-11.9
	c-1.7-4.9-9.4-0.8-9.2-7c-7-8-0.5-19.5-3.6-29.1c2,0.5,4.2,1.2,1.8-1c-5.7-6.8,7.1-4.8,3.2-10.9c5-10,4.9-24.5,16.3-29.6
	C787.9,539,791.6,522.6,808.2,522.4z"/>
<path class="st168" d="M574.7,529.1c3.6-0.5,6.7-4.3,10.5-2.3c-3.4,4.1-6.8,8.2-10.5,12.1c-7.5,6.2-15.7,11.4-23.1,17.7
	c-1.2,0.8-2.5,1.7-3.7,2.6c0.1-4.8-1.5-7.3-6-5.2l0.2-0.8C552.6,544.7,565.9,539.7,574.7,529.1z"/>
<path class="st169" d="M437.1,535.5c2.8-3.6,7.2-6.4,11.9-6.7c-9.9,8.4-20.2,16.7-27.5,27.8c-3.9,4-6.7,8.9-10.2,13.2
	c-1.9-1.8-3.2,1.1-4.6,2.1C414.4,558.3,424.5,545,437.1,535.5z"/>
<path class="st170" d="M427.9,537c2.4-3.7,6-2,9.3-1.5c-12.7,9.4-22.8,22.8-30.4,36.5c-2.4,4-5,7.8-7.1,11.9
	c-1.1,3.6-4.4,10.3,1.1,11.3c11.6,4,25,11.2,35.9,13.1c2.5-11.7,6.9-23,13.5-33c9.1-13,18.1-26.1,28-38.4
	c-0.9,11.2-10.7,18.3-16.2,27.3c-4.7,7.9-11.3,15.1-14,24c-0.8,4.8,5.3,1.8,8.1,1.3c12.3,3,25.2,5.9,36.2,12.2
	c3.3,6.4,10.3,2.6,15.7,4.2c-1.4,3.3-2.7,6.7-3.7,10.2c-19.2-5.8-38.5-11.5-58.1-15.8c-3.7,27.7-36.4,19.8-56.5,22.7
	c2.4-5.7,8.2-10,6.6-17c10.9,1,20.4,7,31,9.7c3.1,1,12.6,2.7,4.6-1.6c-11.7-7.7-34.8-4.6-36.8-21.2c-8.1-3.7-9.7-11.5-3.3-17.9
	C406.6,565.2,414.9,548.7,427.9,537z"/>
<path class="st171" d="M448.1,535.1c3.6,0.2,7.2,0.5,10.8,1C459,542.3,442.8,540.6,448.1,535.1z"/>
<path class="st42" d="M445.8,576c9-14,20.4-30.4,32.4-39.2c-10,12.4-18.9,25.5-28,38.4C448.7,575.5,447.2,575.7,445.8,576z"/>
<path class="st18" d="M541.8,554c4.5-2.1,6.1,0.4,6,5.2c-13.5,13.9-23.2,31.2-31.2,48.7c-1,0.6-2,1.2-3.1,1.8
	c-4.6,2.7-4.8,8.9-6.5,13.5c-1.5-2.4-1.7,4.4-5.2,3c0.8-3.4,1.6-6.8,2.4-10.2c1-3.5,2.3-6.9,3.7-10.2c6-12.8,13.7-24.7,21.3-36.5
	c1.4-1.7,2.7-3.5,4-5.3C535.7,560.3,538.9,557.3,541.8,554z"/>
<path class="st172" d="M568.3,555.3c5.5,1.6,12.9,1.9,15.4,7.8c-9.5,14.7-18,30.1-25.7,45.8c-0.6,1.2-1.2,2.3-1.8,3.5
	c-8.3,0.8,14.9-19.2-0.1-16.3c-2.1,0.5-6.6,6.4-5.9,1.8c-0.6-5.2-10.5-1.3-5.8,2.6c-2.8-0.3-19.1,2.3-13.8,9.1
	c-6.6-0.4-1.2-5.6-1.8-9.4c-5.5-1.1-7.7,5.9-12.2,7.9c8-17.5,17.7-34.8,31.2-48.7c1.2-0.9,2.4-1.8,3.7-2.6c2.6,0.1,7.2,0,4.6,3.7
	C549.7,571.1,567,561.5,568.3,555.3z"/>
<path class="st81" d="M473.1,558.5c18.8,2.3,38.7,3.7,56.1,10.8c-7.6,11.9-15.3,23.7-21.3,36.5c-5.4-1.6-12.4,2.2-15.7-4.2
	c-10.9-6.2-23.9-9.2-36.2-12.2c-2.8,0.5-8.9,3.5-8.1-1.3c2.7-8.9,9.2-16.2,14-24C465.6,562.1,469,559.4,473.1,558.5z"/>
<path class="st18" d="M421.9,558.7c2.2,0.6,4.4,1.2,6.7,1.7c6.5,2.6,16.3,0.3,21.2,5.4c-8.2,4.7-19-2.2-28.1-2.7
	C418.2,562.9,420.9,560.4,421.9,558.7z"/>
<path class="st173" d="M583.7,563c1.2-1,3-5,4.2-2.2c-7.2,13.8-16,26.8-22.2,41.1c-1.6,2.6-3,5.3-4.5,7.9c-1.1-0.4-2.1-0.7-3.2-1
	C565.7,593.1,574.2,577.8,583.7,563z"/>
<path class="st174" d="M565.7,602c11.6-13.1,18.5-30,31.1-42.3c1.9,4.3,0.7,10.2-2.4,14c-8.3,19.2-22.8,36.4-25.4,57.7
	c2.7,11.8-10.1,3.8-16.1,1.7c1.3-8.1,4.6-15.8,8.2-23.1C562.7,607.3,564.1,604.6,565.7,602z"/>
<path class="st175" d="M406.7,572c1.4-1,2.7-3.9,4.6-2.1c-2.6,3.1-7.8,10.2-1.8,12.5c9.4,2.7,18.7,6.1,28.3,8.3c2.6-5,4.9-10,8-14.7
	c1.4-0.3,2.9-0.5,4.4-0.8c-6.7,10-11,21.3-13.5,33c-1.4-4.5-0.2-9,0.1-13.6c-2.1,2.9-1.7,6.8-2.9,10c-10.5-7.1-22.2-11.8-33.7-17
	c-0.3-1.3-0.4-2.5-0.5-3.8C401.7,579.8,404.3,576,406.7,572z"/>
<path class="st73" d="M424.2,572.1c9.5-4,7,10.2-0.7,5.3C420.3,576.9,422.2,573.1,424.2,572.1z"/>
<path class="st112" d="M1237.3,608.5c3.2-10.6,1.7-27.6,16.5-28.9v14.8c-5.4,6.8-4.9,16.2-7.4,24.2c-6.2,31.7-10.9,63.8-14.3,95.8
	c-2,6.7-10.7,2-9.9-3.7C1224.9,676.3,1230.9,642.3,1237.3,608.5z"/>
<path class="st176" d="M400.7,595.2c-5.5-1-2.2-7.7-1.1-11.3c0.1,1.3,0.3,2.5,0.5,3.8c11.5,5.2,23.2,9.8,33.7,17
	c1.2-3.3,0.8-7.1,2.9-10c-0.3,4.5-1.5,9-0.1,13.6C425.7,606.4,412.3,599.2,400.7,595.2z"/>
<path class="st177" d="M17.3,597.5c10.1-4.2,23-11.5,32.6-10.6c-14,8.1-30.1,14.1-43.5,23.6c-2.4,3.1,4.3-1.2,5.5-1.6
	c22.3-13.4,48.7-18.1,74.5-15.4c1.6,1.9-1,3.6-1.9,5.1c-12.9,13.7-26.3,27-40.5,39.3C6.9,668.6-23.2,706.5-56,741.4v-97.2
	C-32.9,627-9.7,608.8,17.3,597.5z"/>
<path class="st69" d="M1119.2,589.1c13.8,3.5,28.9,3.3,41.6,10.1c-0.6,18.2,1.9,36.4,2,54.5c-9,0.7-21,4.1-18.1,16.2
	c-12.7-11-17.9-30.1-23.7-46.1C1119.3,613.1,1112.6,598.7,1119.2,589.1z"/>
<path class="st130" d="M80.5,616.7c10.3-12.1,22.2-29.4,40.7-25c26.1,4.4,51.4,12.5,77.9,14.7c-0.2,5.3-9.3,5.4-7.3,10.8
	c0.9,4.9,3.4,1.5,3.6-1.7c1.4-7.9,5,10.5,5.8,1.9c0.3-6.9,2.8-2,5.1,1.9c2.6-6.8,4.4-3.8,6.7,1.4c1.2-6.1,3.1-7.7,5.9-1.4
	c6.3-7,12.6,2.2,20,1.9c22.6,4.6,45.1,10,66.7,18.2c10.3,4.3,17-7.2,24.4-12.3c15.6-11.7,31.6-29.4,53.2-24.5
	c-22.4,0.2-38.3,17.9-54.5,31.1c-52,43.9-106.3,84.8-157.7,129.4c-13.4,12.8-30.3,22.4-41.6,36.9h-7.2
	c58-50.6,119.2-97.8,176.6-149.1c1.3-1.6,2-4.5-0.2-5.6c-21.9-5.5-44.6-6-65.5-12.8c-8.4-3.2-17.8,0.8-24.8,7.2
	c-2.7,0.8-6,7.1-8.7,4.5c4.9-8.1,13.9-12.7,19.4-20.2c-6,0.6-9.4,9.7-15.1,5.5c-0.7,3.7-1.8,9.9-4.5,4.2c-3.4-9,0.2,12.5-4.8,5.7
	c-1.9-1.7-0.8-5.9-3.6-6.3c0.5,4.4,0.3,8.9-0.3,13.3c-4.1-1.7-1.9-8.2-5.7-9.4c-1.3,4.4,2.2,11.1-1.9,14.3c-1.2-3.6-1.1-7.8-4-10.6
	c-1.4,4.4,2.2,11.3-2,14.5c-1.9-4.6-2.5-9.5-3.7-14.3c-3.1,6.6,1.1,15.3-1.5,21.7c-3.1-4.5-1.9-10.8-4.5-15.7
	c-3.5,6.5,0.3,14.3-0.5,21.2c-5.6-3-1.5-16.2-7.1-19.1c0.4,8.2,1.2,16.3-0.3,24.5c-1.8-5.3-2.3-11-4-16.4c-6.1,5.6,2.3,18-2.5,24.3
	c-2.2-6.7-0.4-15-5.1-20.8c-2,8.3,2.1,18.6-0.4,26.1c-4.6-3.5,0.2-19.8-5.7-22.8c-0.4,9.8,0.5,19.6-0.3,29.4
	c-3.6-7.4-2.2-16.2-5.4-23.8c-1.3,9.5-0.9,19.1-0.3,28.6c-5.8-5.2-0.8-15.4-5.8-21.5c-2.2,9.6-0.8,19.5-1.2,29.2
	c-3.8-4.4-0.7-16.7-4.9-20.7c-2.8,7.9-0.2,18.3-1.3,27.1c-3-8.3-3.6-17.5-4.7-26.2c21.2-23.3,42.6-48.1,67-69
	c-0.3-1.4,6.7-3.8,3.1-5c-12.8,3.1-24.9,9.3-35.8,16.1c-9.1,10.5-26.2,13.8-32.2,26.8c-14.5,7.1-19.9,22.3-33.4,31.5
	c-2.8,6.9-9.2,10.9-15.1,15c-17.5,23-37.1,41-52,64.8c-9.8,4.5-8.8,18.1-18.1,23.1c-1.2,3.7-2.3,7.5-4.9,10.6h-52.6v-30.5
	c7.7-0.9,4.9-14.5,13.2-12.9c4-4.4,7.5-11.8,13.6-15c16.9-18,31.2-36.1,47.8-54.2c9.6-9.4,19.8-18.1,28.8-28
	C55.6,643.2,72.9,633.3,80.5,616.7z"/>
<path class="st178" d="M544.4,600.4c-4.7-3.9,5.2-7.8,5.8-2.6c-0.7,4.6,3.8-1.3,5.9-1.8c15-2.9-8.2,17.1,0.1,16.3
	c-11.1,9.4-29.3-2.2-42.6-2.7c1-0.6,2.1-1.2,3.1-1.8c4.5-2,6.7-9,12.2-7.9c0.6,3.8-4.8,9,1.8,9.4C525.3,602.7,541.5,600,544.4,600.4
	z"/>
<path class="st21" d="M328.6,633.7c16.2-13.2,32.1-30.8,54.5-31.1c11.4,1.5,0.3,9.2-4.5,12.2c-24.1,21.4-47.3,44.2-69,67.9
	C254,712.4,210.7,760.2,162.3,800h-7c32.4-28.9,65.2-57.2,98.7-84.8c16.5-14.9,36.6-24.5,54.7-37c22-21,43.5-42.7,66.2-63
	c2.7-2.2,12.6-10.2,4-10.1c-21.7,9.6-36,30.3-54.6,44.5c-20.7,24.9-51.9,36.3-76.2,56.9c-37.7,30.3-75.5,60.8-111,93.5h-7.9
	c11.3-14.6,28.2-24.2,41.6-36.9C222.3,718.5,276.6,677.5,328.6,633.7z"/>
<path class="st160" d="M324.4,649.6c18.6-14.2,32.9-34.9,54.6-44.5c8.6-0.1-1.3,7.9-4,10.1c-22.7,20.4-44.2,42-66.2,63
	c6.3-13,22.5-21.5,28.7-32.9c-11,6.2-20.8,18.5-31.1,27.2c-61,34-112.4,82.2-165.1,127.4h-4.1c35.5-32.7,73.3-63.3,111-93.5
	C272.6,685.9,303.7,674.5,324.4,649.6z"/>
<path class="st179" d="M558,608.9c1.1,0.3,2.1,0.7,3.2,1c-3.6,7.3-6.9,15-8.2,23.1l-0.2,0.9c-13.4-0.3-26.3-4.5-39.4-6.5
	c-2.3-0.8-7.5-0.4-6.3-4.2c1.7-4.7,1.9-10.8,6.5-13.5c13.3,0.5,31.5,12,42.6,2.7C556.8,611.2,557.4,610,558,608.9z"/>
<path class="st180" d="M152.1,628.2c10.9-6.8,23-13,35.8-16.1c3.6,1.2-3.4,3.6-3.1,5c-24.4,20.9-45.8,45.7-67,69
	c1.2,8.8,1.7,18,4.7,26.2c1.1-8.7-1.4-19.2,1.3-27.1c4.1,4,1,16.2,4.9,20.7c0.4-9.7-1-19.6,1.2-29.2c4.9,6,0,16.3,5.8,21.5
	c-0.5-9.6-1-19.1,0.3-28.6c3.2,7.5,1.8,16.3,5.4,23.8c0.8-9.8-0.1-19.6,0.3-29.4c5.9,2.9,1.1,19.3,5.7,22.8
	c2.5-7.5-1.6-17.8,0.4-26.1c4.7,5.7,2.9,14,5.1,20.8c4.8-6.3-3.6-18.7,2.5-24.3c1.7,5.4,2.1,11,4,16.4c1.5-8.1,0.6-16.3,0.3-24.5
	c5.6,2.9,1.4,16.1,7.1,19.1c0.8-6.9-2.9-14.7,0.5-21.2c2.6,4.9,1.3,11.2,4.5,15.7c2.6-6.4-1.6-15,1.5-21.7c1.2,4.8,1.7,9.8,3.7,14.3
	c4.2-3.2,0.5-10.1,2-14.5c2.9,2.7,2.8,7,4,10.6c4.1-3.3,0.6-10,1.9-14.3c3.9,1.1,1.6,7.6,5.7,9.4c0.6-4.4,0.9-8.9,0.3-13.3
	c2.8,0.5,1.7,4.6,3.6,6.3c5,6.8,1.4-14.8,4.8-5.7c2.8,5.7,3.8-0.5,4.5-4.2c5.7,4.2,9-4.9,15.1-5.5c-5.5,7.6-14.4,12.2-19.4,20.2
	c2.7,2.6,6-3.7,8.7-4.5c7-6.3,16.4-10.4,24.8-7.2c20.9,6.8,43.7,7.4,65.5,12.8c2.2,1.1,1.4,4.1,0.2,5.6
	c-57.4,51.3-118.6,98.6-176.6,149.1H-3.6c2.5-3.1,3.7-6.9,4.9-10.6c9.3-5,8.3-18.6,18.1-23.1c14.9-23.8,34.5-41.8,52-64.8
	c5.8-4.1,12.2-8.1,15.1-15c13.5-9.2,19-24.4,33.4-31.5C125.9,642,143,638.7,152.1,628.2z"/>
<path class="st181" d="M501.8,626.2c3.5,1.4,3.8-5.4,5.2-3c-1.2,3.9,4.1,3.4,6.3,4.2c13.2,2,26,6.2,39.4,6.5
	c-0.3,2.3-0.7,4.6-1.3,6.9c-16.6-1.1-32.5-6.6-49.1-8C500.9,630.8,500.8,628.5,501.8,626.2z"/>
<path class="st133" d="M672.3,629.2c5.1-2.3,3.7,4.3,3.1,7.3c-12.2,31.6-32.2,59.3-46.4,89.7c-14.3,5.2,12.7,2.4,17,2.2
	c11.8,6.1,26.7-0.7,38,7.5c9.5-2.7,19.4,0,28.8-2.8c5.2-3.4,4.2-12,11.2-12.9c6.8-6.3,9.3-16,17.8-21.1c5.3-2.5,2.7-13.8,10.9-10.3
	c-2.5-9.3,7.1-10.6,9.4-18.4c0.2-5.9,11.6-10.1,11.7-2.5c-4.5,3.5-7.1,9.2-4.1,15c5.8-8.9,25.8,4.4,11.5,8.4c2.1,5,8.6-6.4,12.8-2.5
	c1.9,4.7,6.5,3,10.1,4c2,7.2,9.9,3.1,13.5,7.6c8.2-9.8,16.1,4.3,8,10c4,1.7,8.7,0.9,10.8-3.1c5-0.5,5.5,10.5,11.6,9.2
	c3.9-0.3,4.9,4,5.7,6.9c2.7,0.5,5.8-6,7.3-1.6c2.5,7.9,16,13.2,20.4,4.6c4.3-4.1,5.7,3.9,7.4,6.6c-0.4,5.2-5.4,3.3-8.9,3
	c2,8.6,18.6-2.9,20.3,6.9c5.2,4.5,16.3-4.5,18.5,5.3c6.9,5.6,14.7,13,24.7,9.9c5.6,2.1-0.1,8.9,6.2,10.1c7.2,4.9-7.7,12.5,0.2,12.7
	c11.2,3.5-2-13.2,7.6-13.6c7.8-4.1,8.8,7.3,15.4,6.7c-6.9,6.8,2,13,9.4,12.5c4.2,5.4,12.8,6.3,16.1,13.3h-56.9
	c-13.7-9.2-32.7-5-45.7-15.2c-2.2,2.8-2.7,6.5-4.7,9.4c-3.4-1.9-6.8-8.6-11.3-5.7c-4.4,0.2-7.9-8.1-12-3.8c-7-8.1-15.2-3.8-23.1-9
	c-1.8,8.2-3.7-5.3-6.4-6.1c-36.3-14.5-75.6-20.2-113.8-28.1c-13.7-1.4-31.6-9.6-42.7,2.1c-3.6,4.3-0.1-6.4-4.5-7
	c-11.9-4-25.9-2.3-37,3.5c0.4-2,3.9-7.1-0.1-6.1c-18.4,3.6-38.6,2.9-55.1,13c-16.9,14-26.1,34.6-37.3,52.9h-3.2
	c15.3-26.5,27.8-61.3,60.1-70.5c3.1-3.5,3.9-8.9,7.5-12.4C632.6,688.3,649.7,656.8,672.3,629.2z"/>
<path class="st146" d="M516.3,651.8c-0.7-6.6-21.2-13-13.9-19c13.2,9,33.9,5,48.1,12.5c-1.7,4.9,3.7,11.1,0.5,14.8
	c-30.2,37.7-56.8,78.4-86.3,116.8c-1.5,4-6.7-0.1-5.6,6.3c0.4,5.7-6.6,4.5-8.3,8.7c4.2,1.1-2.6,6-6.6,8.1h-2.7
	c33.4-47.5,73.3-90.6,102.6-140.8c1.6-10-13.8-12.1-20.2-7c-27.9,19.9-53,43.6-78.6,66.2c-8.9,30.9-30.6,55.3-47.9,81.6h-5
	c15.3-22.8,35.1-43.2,43.7-69.9c1.8-11.9,13.6-17,20.8-25.2C476.1,686.7,497.3,670.4,516.3,651.8z"/>
<path class="st182" d="M1094,637c18.8,23.9,45,44.8,52.4,75.7c10,29.1,20.6,57.9,29.7,87.3h-29c-7.5-29.3-14.2-58.9-22.2-88.2
	c-7.5-14-16.1-27.6-22.7-42.2C1098.5,659.7,1089.3,647.1,1094,637z"/>
<path class="st33" d="M306.5,672.6c10.3-8.8,20.1-21.1,31.1-27.2c-6.2,11.4-22.4,19.8-28.7,32.9c-18.1,12.5-38.2,22.1-54.7,37
	c-33.5,27.6-66.3,56-98.7,84.8h-14C194.1,754.8,245.5,706.6,306.5,672.6z"/>
<path class="st33" d="M523.9,652.1c6.4-5.1,21.8-3,20.2,7c-29.3,50.3-69.2,93.3-102.6,140.8h-44.1c17.3-26.3,39-50.7,47.9-81.6
	C470.9,695.7,496,672,523.9,652.1z"/>
<path class="st134" d="M429.2,678.4c13.5-2.8,32.8-8,43.8,2.8c-28.9-9.5-65.5,1.6-79.1,29.7c6.8,4.1,18,2.9,26.2,5.8
	c-27.9,3.1-55.4-5.8-82.6-11.4c-13.2-5.7-23.4,7.5-35.1,10.5c-16.7,17.9-38.4,28.8-53.2,48.6c-13.9,10.5-28.9,21.1-39.9,35.7h-47
	c48.4-39.8,91.6-87.6,147.3-117.3c21.5,6.1,41,19,63.3,23.2C391.8,697.4,409.9,686.2,429.2,678.4z"/>
<path class="st174" d="M302.5,715.7c11.7-3,21.9-16.2,35.1-10.5c27.1,5.6,54.6,14.5,82.6,11.4c1.1,0.3,2.1,0.6,3.2,1.1
	c-16.7,6.8-36.3,3.5-53.9,3.9c-6.2,6.5-17-1.5-21.5,7.4c-8.4,0.6-12.4,7-17.1,13c-12.8,5-21.5,16.5-29.9,27c-2.9,5.4-11,1.5-14.1,6
	c0.6,11.8-14,15.7-18.4,25.1h-59c11.1-14.7,26.1-25.3,39.9-35.7C264,744.5,285.7,733.7,302.5,715.7z"/>
<path class="st33" d="M369.3,721.6c17.6-0.4,37.3,2.9,53.9-3.9c4.4,4.1-2,11.3-2.5,16.5c3.8-3,3.8-8.4,5.9-12.5
	c3.1-3,6.3,5.7,3.6,7.8c-7.1,27-27.4,47.5-42,70.5h-120c4.4-9.4,19-13.3,18.4-25.1c3.1-4.5,11.3-0.6,14.1-6
	c8.4-10.5,17.2-22,29.9-27c4.7-5.9,8.7-12.3,17.1-13C352.3,720.1,363.2,728.1,369.3,721.6z"/>
<path class="st69" d="M584.8,747.1c16.5-10.1,36.7-9.3,55.1-13c4-1,0.5,4.1,0.1,6.1c11.1-5.8,25.2-7.4,37-3.5
	c4.4,0.6,0.9,11.3,4.5,7c11.1-11.7,29-3.5,42.7-2.1c38.2,7.8,77.5,13.5,113.8,28.1c2.8,0.8,4.6,14.3,6.4,6.1c8,5.2,16.2,0.9,23.1,9
	c4.1-4.3,7.6,3.9,12,3.8c4.5-2.9,7.9,3.8,11.3,5.7c2-2.9,2.5-6.6,4.7-9.4c13,10.1,32,5.9,45.7,15.2H837.7c-0.7-7,4.5-17.1-3.8-21.2
	c-17.8-11.6-40.2-13.3-60.2-19.8c-26.5-5.2-52.9-12.5-79.9-14.1c-21.9,7.5-16.7,36.8-22.2,55h-33.3c5.2-12.2,11.7-23.9,18-35.6
	c3.2-5.1,12.6-12.7,6.2-19.1c-12.9-3.5-30.5,0.8-35.7,14.7c-8.2,12.7-14.5,26.6-21.4,40h-2c7.9-17.5,19.4-34.3,26.2-51.7
	c-13.7-2.4-28,10.7-38.4,19.2c-8.9,10.5-20.4,19.9-26,32.6h-17.8C558.8,781.7,568,761,584.8,747.1z"/>
<path class="st84" d="M626.9,760c5.1-13.9,22.8-18.3,35.7-14.7c6.4,6.4-3,14-6.2,19.1c-6.3,11.7-12.8,23.4-18,35.6h-32.8
	C612.4,786.6,618.7,772.7,626.9,760z"/>
<path class="st134" d="M671.6,800c5.4-18.2,0.3-47.5,22.2-55c27,1.7,53.4,9,79.9,14.1c20,6.5,42.5,8.1,60.2,19.8
	c8.2,4.1,3.1,14.1,3.8,21.2h-5.8c-0.5-4.1,1.4-12.4-4.7-13.4c-39.9-15.4-82.8-18.5-124-29.1c-8.3-4.1-17.1,0.3-20.4,8.5
	c-4.1,10.8-3.7,22.8-5.8,34L671.6,800L671.6,800z"/>
<path class="st165" d="M591.3,767.4c10.4-8.5,24.7-21.6,38.4-19.2c-6.8,17.4-18.3,34.2-26.2,51.7h-38.2
	C571,787.3,582.5,777.9,591.3,767.4z"/>
<path class="st181" d="M682.9,766c3.2-8.3,12.1-12.7,20.4-8.5c41.1,10.7,84.1,13.8,124,29.1c6.1,1,4.2,9.3,4.7,13.4H677
	C679.1,788.7,678.7,776.8,682.9,766z"/>
</svg>
