<?xml version="1.0" encoding="utf-8"?>
<!-- Generator: Adobe Illustrator 21.1.0, SVG Export Plug-In . SVG Version: 6.00 Build 0)  -->
<svg version="1.1" id="Слой_1" xmlns="http://www.w3.org/2000/svg" xmlns:xlink="http://www.w3.org/1999/xlink" x="0px" y="0px"
	 viewBox="0 0 32 32" style="enable-background:new 0 0 32 32;" xml:space="preserve">
<style type="text/css">
	.st0{fill:#FFFFFF;}
</style>
<g id="Double_Chevron_Down">
	<path class="st0" d="M22.3,15.3L16,21.5l-6.3-6.2c-0.4-0.4-1-0.4-1.4,0c-0.4,0.4-0.4,1,0,1.4l7,6.9c0.4,0.4,1,0.4,1.4,0l7-6.9
		c0.4-0.4,0.4-1,0-1.4C23.3,15,22.7,15,22.3,15.3z"/>
	<path class="st0" d="M15.3,16.7c0.4,0.4,1,0.4,1.4,0l7-6.9c0.4-0.4,0.4-1,0-1.4c-0.4-0.4-1-0.4-1.4,0L16,14.5L9.7,8.3
		C9.3,8,8.7,8,8.3,8.3c-0.4,0.4-0.4,1,0,1.4L15.3,16.7z"/>
</g>
</svg>
