<?xml version="1.0" encoding="utf-8"?>
<!-- Generator: Adobe Illustrator 21.1.0, SVG Export Plug-In . SVG Version: 6.00 Build 0)  -->
<svg version="1.1" id="Layer_1" xmlns="http://www.w3.org/2000/svg" xmlns:xlink="http://www.w3.org/1999/xlink" x="0px" y="0px"
	 viewBox="0 0 77.8 69.4" style="enable-background:new 0 0 77.8 69.4;" xml:space="preserve">
<style type="text/css">
	.st0{fill:#FFD5C5;}
</style>
<g>
	<path class="st0" d="M9.8,26.9h30.4c3.2,0,5.3-3.6,3.8-6.4c-1.6-3-3-6.3-4.3-9.7c-1.5-3.9,1.3-7.1,4.4-7.1c1.6,0,3.3,0.8,4.6,2.8
		c3.8,5.9,5.9,13.3,10.1,16.2c2.6,1.8,10.6,5.6,13.5,7c0.7,0.4,1.6,1.1,1.6,2v23.1c0,1.1-1.2,2-2.3,2.2l-9.3,1.2
		c-0.3,0-0.7,0.2-1,0.3c-8,5.2-13.7,7.4-19,7.4c-1.1,0-2.3-0.1-3.4-0.3c-6.7-1.1-7.8-5.9-7.9-8.1c0-0.7-0.4-1.3-1-1.7
		c-3.6-2.3-3.4-5.8-2.8-7.8c0.2-0.9-0.1-1.8-0.8-2.3c-2.7-2-3-4.5-2.7-6.4c0.2-1.3-0.8-2.3-2.2-2.3H9.8C2.8,36.9,2.8,26.9,9.8,26.9z
		"/>
	<path d="M0,32.4c0,4.9,3.7,8.5,8.5,8.5h11.3c-0.1,3,1.2,5.4,3.5,7.5c-0.8,4.2,0.7,7.5,3.9,10c0.2,1.6,0.7,3.6,2.1,5.6
		c1.3,1.9,3.9,4.3,8.8,5.1c1.4,0.2,2.7,0.3,4.1,0.3c6.1,0,12.4-2.3,20.8-7.8l9.1-1.2c2.9-0.4,5.6-2.8,5.6-5.7V31.6
		c0-2.2-1.8-4.2-3.8-5.2c-6.3-3.1-11.6-5.6-13.3-6.8c-2-1.3-3.6-4.7-5.3-8.2c-1.1-2.3-2.3-4.7-3.8-7C49.8,1.6,47,0,44,0
		c-2.8,0-5.4,1.4-7,3.7c-1.6,2.4-1.9,5.5-0.8,8.4c1.6,4,3,7.3,4.5,10.1c0.1,0.2,0.1,0.7,0,0.9c-0.1,0.2-0.3,0.8-0.6,0.8H8.5
		C3.7,23.9,0,27.5,0,32.4z M21.4,36.9H9.8c-7,0-7-10,0-10h30.4c3.2,0,5.3-3.6,3.8-6.4c-1.6-3-3-6.4-4.3-9.8
		c-1.5-3.9,1.3-7.1,4.4-7.1c1.6,0,3.3,0.8,4.6,2.8c3.8,5.9,5.9,13.3,10.2,16.2c2.6,1.8,10.4,5.6,13.3,7c0.7,0.4,1.6,1.1,1.6,2v23.1
		c0,1.1-1.2,2-2.3,2.2L62,58.1c-0.3,0-0.6,0.2-0.9,0.3c-8,5.2-13.7,7.4-19,7.4c-1.1,0-2.3-0.1-3.4-0.3c-6.7-1.1-7.8-5.9-7.9-8.1
		c0-0.7-0.4-1.3-1-1.7C26.3,53.4,26.5,50,27,48c0.2-0.9-0.1-1.7-0.8-2.3c-2.7-2-3-4.6-2.7-6.6C23.7,37.8,22.7,36.9,21.4,36.9z"/>
</g>
</svg>
