<?xml version="1.0" encoding="utf-8"?>
<!-- Generator: Adobe Illustrator 21.1.0, SVG Export Plug-In . SVG Version: 6.00 Build 0)  -->
<svg version="1.1" id="Layer_1" xmlns="http://www.w3.org/2000/svg" xmlns:xlink="http://www.w3.org/1999/xlink" x="0px" y="0px"
	 viewBox="0 0 536.6 566.7" style="enable-background:new 0 0 536.6 566.7;" xml:space="preserve">
<style type="text/css">
	.st0{fill:#0C0F13;}
	.st1{fill:#131519;}
	.st2{fill:#191B20;}
	.st3{fill:#212126;}
	.st4{fill:#353036;}
	.st5{fill:#31282C;}
	.st6{fill:#3D3D43;}
	.st7{fill:#4B4E52;}
	.st8{fill:#5B5E61;}
	.st9{fill:#2B1F24;}
	.st10{fill:#68696B;}
	.st11{fill:#362225;}
	.st12{fill:#46474C;}
	.st13{fill:#422225;}
	.st14{fill:#3D2A2D;}
	.st15{fill:#632124;}
	.st16{fill:#882120;}
	.st17{fill:#AD1E1E;}
	.st18{fill:#BF2223;}
	.st19{fill:#C03427;}
	.st20{fill:#525659;}
	.st21{fill:#C72F25;}
	.st22{fill:#C13F35;}
	.st23{fill:#B62E20;}
	.st24{fill:#423439;}
	.st25{fill:#A6281B;}
	.st26{fill:#942127;}
	.st27{fill:#A3281C;}
	.st28{fill:#AE2F20;}
	.st29{fill:#DB3B2E;}
	.st30{fill:#700B0E;}
	.st31{fill:#050202;}
	.st32{fill:#4D2C31;}
	.st33{fill:#670B0E;}
	.st34{fill:#6A0C0E;}
	.st35{fill:#0C0D13;}
	.st36{fill:#14161D;}
	.st37{fill:#7C0C11;}
	.st38{fill:#7C0C13;}
	.st39{fill:#483C42;}
	.st40{fill:#323334;}
	.st41{fill:#26282A;}
	.st42{fill:#5D3236;}
	.st43{fill:#962F2C;}
	.st44{fill:#C42627;}
	.st45{fill:#6D3035;}
	.st46{fill:#6D070E;}
	.st47{fill:#3B181E;}
	.st48{fill:#BB3932;}
	.st49{fill:#161116;}
	.st50{fill:#803034;}
	.st51{fill:#881F26;}
	.st52{fill:#BC3A32;}
	.st53{fill:#A92D24;}
	.st54{fill:#631B22;}
	.st55{fill:#52383C;}
	.st56{fill:#BA3C31;}
	.st57{fill:#651D23;}
	.st58{fill:#731C24;}
	.st59{fill:#B73C30;}
	.st60{fill:#631C22;}
	.st61{fill:#B33A2B;}
	.st62{fill:#372A2C;}
	.st63{fill:#3C191F;}
	.st64{fill:#691B21;}
	.st65{fill:#AB3728;}
	.st66{fill:#6E1A25;}
	.st67{fill:#2C2F33;}
	.st68{fill:#6C1E25;}
	.st69{fill:#68191D;}
	.st70{fill:#671A1E;}
	.st71{fill:#373A3F;}
	.st72{fill:#792826;}
	.st73{fill:#AA2E32;}
	.st74{fill:#483133;}
	.st75{fill:#3B3334;}
	.st76{fill:#3C1218;}
	.st77{fill:#340303;}
	.st78{fill:#B63327;}
	.st79{fill:#541714;}
	.st80{fill:#160203;}
	.st81{fill:#BA3728;}
	.st82{fill:#620708;}
	.st83{fill:#713438;}
	.st84{fill:#BA3A28;}
	.st85{fill:#6A090E;}
	.st86{fill:#330403;}
	.st87{fill:#4C0202;}
	.st88{fill:#B63B29;}
	.st89{fill:#5C050A;}
	.st90{fill:#B53C2A;}
	.st91{fill:#670604;}
	.st92{fill:#560504;}
	.st93{fill:#5D0505;}
	.st94{fill:#6A080E;}
	.st95{fill:#413B3C;}
	.st96{fill:#5D0D0E;}
	.st97{fill:#4B4142;}
	.st98{fill:#B63827;}
	.st99{fill:#8D4246;}
	.st100{fill:#3E4146;}
	.st101{fill:#544144;}
	.st102{fill:#C73328;}
	.st103{fill:#A62A1C;}
	.st104{fill:#C23323;}
	.st105{fill:#514A4B;}
	.st106{fill:#AC2E22;}
	.st107{fill:#5A5152;}
	.st108{fill:#B53727;}
	.st109{fill:#5F0404;}
	.st110{fill:#460203;}
	.st111{fill:#420403;}
	.st112{fill:#0C0909;}
	.st113{fill:#61080C;}
	.st114{fill:#130101;}
	.st115{fill:#B63E2A;}
	.st116{fill:#625A5A;}
	.st117{fill:#613D40;}
	.st118{fill:#6A6364;}
	.st119{fill:#544C4E;}
	.st120{fill:#8D3F42;}
	.st121{fill:#9E5D5E;}
	.st122{fill:#A73028;}
	.st123{fill:#AB4443;}
	.st124{fill:#746D6D;}
	.st125{fill:#7F7878;}
	.st126{fill:#897E7E;}
	.st127{fill:#8E8888;}
	.st128{fill:#9C8D8D;}
	.st129{fill:#634A4D;}
	.st130{fill:#6E0C10;}
	.st131{fill:#744446;}
	.st132{fill:#AE3327;}
	.st133{fill:#630A0E;}
	.st134{fill:#5F5758;}
	.st135{fill:#A17172;}
	.st136{fill:#680E0F;}
	.st137{fill:#5D0E0C;}
	.st138{fill:#5E0B0A;}
	.st139{fill:#620707;}
	.st140{fill:#6E5456;}
	.st141{fill:#8F5354;}
	.st142{fill:#6E6061;}
	.st143{fill:#31353A;}
	.st144{fill:#6E696A;}
	.st145{fill:#806A6B;}
	.st146{fill:#515153;}
</style>
<path class="st0" d="M202.7,1.6C266.4-5.9,330.8,13.5,384,47.8c7.4,7.9,19,10.9,24.5,20.6c8.7,5.2,17.5,11,22.7,20.2
	c8.8,4.1,13.5,13.1,20.3,19.7c6.1,6.1,8.9,15,16.5,19.5c23.2,33.4,47.1,68.2,56.8,108.3c-5.9-17.5-13.4-34.4-22.9-50.2
	c-7.3-10.2-16.3-19.1-23.6-29.3c-7.9-8.4-17.9-14.7-25-24c-30-36.5-67.5-67.1-109.7-88.3c-4.7-2.6-10.8-3.5-12.8-9.3
	c-3-5.6-10.9-0.3-14.8-5.1c-8-9.6-20.5-13-31.8-17.3C259.4-0.3,230,0.8,202.7,1.6z"/>
<path class="st1" d="M202.7,1.6c27.3-0.8,56.7-2,81.6,11c11.3,4.3,23.7,7.7,31.8,17.3c3.9,4.8,11.9-0.5,14.8,5.1
	c2,5.8,8.1,6.6,12.8,9.3c42.2,21.2,79.7,51.9,109.7,88.3c7.1,9.2,17.1,15.6,25,24c7.3,10.2,16.3,19.1,23.6,29.3
	c9.5,15.8,17,32.7,22.9,50.2c21.7,71.8,13.6,153.1-24.8,217.8c-5.9,7.1-8.3,16.7-16.1,22c16.8-24.5,31-51.1,39.1-79.8
	c10.8-30.3,12.5-63.3,11.7-95.2c-2.1-29.9-8.1-60.2-21.8-87.1c-12.3-22-31.8-38.5-45.8-59.2c-34.7-46.8-78.6-88.6-133.2-110.8
	c-17.2-6.9-34.7-12.9-51.7-20.4C258,7.6,228.2-0.1,199.1,4.1c-10.6,1.3-20.8,4.1-31.4,5.7C178.9,5.4,191,4.2,202.7,1.6z"/>
<path class="st2" d="M199.1,4.1c29.1-4.1,58.9,3.5,83.2,19.5c16.9,7.5,34.5,13.5,51.7,20.4c54.7,22.3,98.5,64,133.2,110.8
	c14.1,20.7,33.5,37.2,45.8,59.2c13.7,26.9,19.7,57.1,21.8,87.1c0.7,31.9-0.9,64.9-11.7,95.2c12.2-51.5,17.4-107.8-3.5-157.8
	c-8.1-15.1-20.9-26.8-29-42c-15.8-28.5-36.4-53.8-57.6-78.4c-37.5-44.1-90.2-73.6-146.3-86.7c-25.4-6.3-50.1-15.4-76.2-18.7
	c-4.3-7.7-13.7-1.9-20.5-3.3c-16.8-0.7-31.9,8.1-48.2,10.5c8.3-4.2,17.2-6.9,26-10C178.2,8.2,188.5,5.4,199.1,4.1z"/>
<path class="st3" d="M189.9,9.2c6.8,1.4,16.2-4.3,20.5,3.3c26.1,3.3,50.8,12.4,76.2,18.7c56.1,13.1,108.8,42.6,146.3,86.7
	c21.3,24.5,41.9,49.8,57.6,78.4c8,15.2,20.9,26.9,29,42c20.9,50,15.7,106.3,3.5,157.8c-8.2,28.7-22.4,55.3-39.1,79.8
	c-14.7,19.3-32.3,37-52.9,50.1c32.4-25.4,58.8-58.3,76.5-95.6c17.4-41.6,26.2-87.3,22.3-132.5c0.1-7-4-13-4-20
	c-2-6.9-8.3-11.6-10.3-18.5c-0.8-4.9-7.5-6.3-6-12.2c-11.3-26.1-20.1-55-40.5-75.5c-2.1-4.8-5.5-8.9-9.8-11.9
	c-7.5-12.5-16-25.3-27.7-34.4c-12.5-12.8-23.8-27.4-40.1-35.8c-6,4.1-1.6-7.3-7.4-7.8c-6.8-3.1-13.2-7-18.4-12.4
	c-10.8-3.8-19.4-13.4-31.4-13.8c-3.6-3.3-7.4-5.7-12.5-4.5c-6.7-3-12.6-8.2-20.5-7.5c-15.5-5.9-32.2-7.6-47.6-13.5c0-0.5,0-1.5,0-2
	c-13.1-6.2-27.3-9.4-41.8-9.9c-28.9-3-58.6-0.6-86,9.6c4.9-3.5,10.5-5.7,16-8C158,17.3,173.1,8.5,189.9,9.2z"/>
<path class="st4" d="M125.7,27.8c27.4-10.2,57.1-12.6,86-9.6c9.6,3.1,21,2,29.5,7.7c-10.1,4.9-23.1,4.5-34.2,8
	c-23,5.4-46.9,12.9-64.3,29.7c-1.5,3.1-2.9,6.3-5.8,8.4c-0.9,6.1,10.7-1.4,8.6,3.5c-0.4,3.4-4.4,3.1-6.7,4.5
	c0.5,2.2,1.5,4.3,1.5,6.7c-3.9,2.8-9.2,5.3-9.3,10.7c-5,2.3-8.1,6.8-9.4,12.2c-0.5,4.4-6.1-0.3-7.7,3.2c-1.1,2.8-2.6,5.3-4.8,7.4
	c-5.6,1.3-6.6-3.6-5.5-8c-4.2-0.5-10.6,0.5-12-4.4c1-5.3,3.5-10.1,7.2-14.1c18.2-22,41.4-40.3,68.2-50.8c19.6-8.3,40.8-11.3,61-17.6
	c-12.8-5.4-28.3-4.9-42.1-6.6c-18.8,2-38.7,1.5-55.9,10.2c-4.4,2.2-9.4,3.1-14.2,3.8C118.8,30.7,122.3,29.3,125.7,27.8z"/>
<path class="st5" d="M211.7,18.2c14.5,0.5,28.7,3.7,41.8,9.9c0,0.5,0,1.5,0,2c-7,0.6-13.9,2.3-20.9,3.1c-4.2,0.2-9.4,2.7-8.1,7.7
	c1,5.5-8.4,0.5-7.3,4.8c2.6,2.8,4.9-1.6,7.3,0.8c-0.8,7-10.2,5.7-14.1,10.3c-2.1-4.3-3.6-1.5-2.6,1.9c-7.4-1.4-13.4,4.4-20.6,2.4
	c-0.3,4.1,0.5,8.4-2.8,12.3c-4.2-0.7-7.4,1.3-9.7,4.4c-6-1.4-12.3,3.1-17.4,6.4c-3.7,5.8-11.4,4.5-16.9,2.5c0-2.3-1-4.4-1.5-6.7
	c2.3-1.4,6.3-1.1,6.7-4.5c2-4.9-9.6,2.6-8.6-3.5c2.8-2.2,4.3-5.3,5.8-8.4C160.1,46.9,184,39.3,207,34c11.1-3.5,24.1-3.1,34.2-8
	C232.7,20.2,221.3,21.3,211.7,18.2z"/>
<path class="st6" d="M130,29.1c17.2-8.7,37.2-8.2,55.9-10.2c13.9,1.7,29.3,1.2,42.1,6.6c-20.2,6.3-41.4,9.2-61,17.6
	c-26.8,10.4-50,28.8-68.2,50.8c-3.7,4-6.1,8.8-7.2,14.1c-5.4,3.1-5,9.4-9.5,13.2c3,8.4-9.8,11.4-7.7,19.6c-1,3.9-7,7.4-3.4,11.7
	c1.3,1.6-2.4,0.2-2,1.6c0.9,4.5-1.8,8.3-4.2,11.8c-1.8-1.2-3.8-0.6-5.6,0.1c-8.3-0.8-2.9,10.7-9.4,12.1C60,138,81.3,100,113.7,73.7
	c1.2-1.2,2.2-2.6,3.2-4c7.1-6.2,14.7-11.9,23.4-15.5c6.7-6.1,15.5-8.6,23.5-12.2c11.6-4.8,23.7-8.3,35.9-11.3
	c3.3-1.1,7.4-1.5,9.4-4.7c-18.8-7.5-40-3-59.7-1.6C142.6,24.5,136.8,28.9,130,29.1z"/>
<path class="st7" d="M149.5,24.4c19.7-1.3,40.9-5.9,59.7,1.6c-2,3.3-6.1,3.6-9.4,4.7c-12.2,3-24.3,6.6-35.9,11.3
	C168.8,35,179,35,186,31c7.7,0.6,2.3-6-1-5.8c-16.7,1.2-34-0.3-50.1,5.6c-8.5,1.5-16.4,5.6-25.1,6c2-1.3,4-2.6,6-3.9
	c4.9-0.7,9.8-1.6,14.2-3.8C136.8,28.9,142.6,24.5,149.5,24.4z"/>
<path class="st8" d="M134.9,30.8c16-5.8,33.3-4.4,50.1-5.6c3.3-0.2,8.8,6.4,1,5.8c-7.1,3.9-17.2,3.9-22.1,11
	c-8.1,3.6-16.8,6.1-23.5,12.2c-8.7,3.6-16.4,9.3-23.4,15.5c-14.1,7.3-23,21-34,32c-1.4,0.7-2.7,1.4-3.9,2.3
	c-14.6,20.3-27.5,42.7-36.2,65.8c-3.3,0.9-11.5,8.8-3.7,7.3c0.3,5.5-5.7,8-10.4,6.1c0.8,3,3.7,4.4,5.4,6.7
	c-3,7.1-18.8,10.5-19.3,0.9c-3.4-2.5-2.9,2.4-1.2,4.1c-1.5,0.4-3.7,1.9-4.6-0.3c0.5-5.6,1.6-11.2,1.8-16.9c0.7-4,1.5-7.9,2-11.9
	c4.7-12.9,9-26,15.7-38.1c-0.1,2.1-0.4,4.2,0.4,6.2c3,0.7,3.2-5.6,6.3-3.4c1.8,0.9,6,5.5,6.1,1.4c-0.5-3.6,5.2-4,6.4-0.9
	c3.2,1.3,7.9,1.2,11.1-0.3c-0.9-2.1-3.4-10,0.5-6c20.8-28.1,45.4-53.3,74.7-72.5c5.8-5.1,14.8-6.2,18.9-13.1c3.1-2.8,8.6-2.5,11-5.8
	c-2.9,0.9-5.2-0.5-7.3-2.2c-3.2,0-6.3,3.2-9.3,0.5c-15.3,1.6-30,7.7-45.1,10.6c2.1-2.3,4.7-3.9,7.5-5.2
	C118.5,36.4,126.4,32.3,134.9,30.8z"/>
<path class="st9" d="M232.6,33.2c7-0.8,13.9-2.5,20.9-3.1c15.4,5.9,32.2,7.6,47.6,13.5c7.9-0.7,13.8,4.5,20.5,7.5
	c5.1-1.2,9,1.2,12.5,4.5c12,0.4,20.6,10,31.4,13.8c5.2,5.5,11.6,9.3,18.4,12.4c5.7,0.5,1.4,11.9,7.4,7.8
	c16.3,8.3,27.6,22.9,40.1,35.8c11.7,9.1,20.2,21.9,27.7,34.4c4.3,3,7.8,7,9.8,11.9c-0.2,2.3-0.1,4.7,2,6.1c0.2,9.5,10.1,16.9,9,27.2
	c-2.5-3.1-6.2-2.6-9.7-2.5c-4.3-3.7-9.1-6.7-13.8-9.9c-0.9-5.8-7-8.9-7.3-14.9c-0.9-5.4-5.6,0.6-9-1.1c-2.3-9-7-17.6-13.6-24
	c-9.3,2.4-4.4-9.3-11.4-10.8c-8.5-7.3-14.2-17.9-24.1-23.8c-4.2-1.8-5.8-6.1-8.8-9.2c-11.6,0.4-17.9-14.1-29.7-15.5
	c-8.9-6.4-19.1-10.5-27.7-17.3c-3.5,2.8-7.2,1.2-9.3-2.3c-13.5,0.4-26.2-6.8-37.7-13.2c-5.1,4.1-8.4-4.3-13.9-2.4
	c-5.4,0.9-7.9-8.6-13.1-5.3c-6.1,3.6-8.2-7.4-14.4-2.6c-12.9-2.3,6.2,6.6-7,3c1.7-4.3-0.8-6.3-4.9-6.5c-2.4-2.4-4.7,2-7.3-0.8
	c-1.1-4.3,8.3,0.7,7.3-4.8C223.2,36,228.4,33.5,232.6,33.2z"/>
<path class="st10" d="M102.3,42.1c15.1-2.9,29.9-9,45.1-10.6c3,2.7,6.1-0.5,9.3-0.5c2.1,1.8,4.4,3.2,7.3,2.2c-2.4,3.3-7.9,3-11,5.8
	c-4.1,6.9-13.1,8-18.9,13.1c-29.3,19.2-54,44.5-74.7,72.5c-3.9-3.9-1.4,3.9-0.5,6c-3.2,1.4-7.9,1.6-11.1,0.3
	c-1.2-3.1-6.9-2.7-6.4,0.9c-0.1,4.1-4.3-0.6-6.1-1.4c-3.1-2.3-3.2,4.1-6.3,3.4c-0.8-2-0.5-4.1-0.4-6.2
	C45.6,93.7,70.7,63.3,102.3,42.1z"/>
<path class="st11" d="M224.5,46.6c4.2,0.2,6.7,2.3,4.9,6.5c13.2,3.6-5.9-5.3,7-3c6.2-4.8,8.3,6.2,14.4,2.6c5.2-3.3,7.7,6.2,13.1,5.3
	c5.5-1.9,8.9,6.5,13.9,2.4c11.5,6.4,24.1,13.6,37.7,13.2c2.1,3.5,5.9,5.2,9.3,2.3c8.5,6.9,18.8,10.9,27.7,17.3
	c11.8,1.4,18.1,15.9,29.7,15.5c3,3,4.6,7.4,8.8,9.2c9.9,5.9,15.5,16.5,24.1,23.8c7,1.4,2.1,13.2,11.4,10.8c6.6,6.5,11.3,15,13.6,24
	c3.4,1.8,8.1-4.2,9,1.1c0.3,6,6.4,9.1,7.3,14.9c4.7,3.2,9.5,6.2,13.8,9.9c3.6-0.1,7.2-0.6,9.7,2.5c-0.3,1-0.7,1.9-1.2,2.9
	c-4.6-0.7-5,7.2-9.5,5.8c-1.8-2.4-2.4-5.8-4.6-7.8c-7.3-0.3-0.7,9.6-5.6,13.2c-5.1,6-6.6-3.4-8.4-7c-0.1-4.2-5-2.5-7.6-2.2
	c-1.1-2-1.5-4.4-3.2-6.1c-2.4-3.5-1.9-8.5-5.7-11c-2-2.3-6.4-1.5-6.8-5.2c-0.9-4.7-5.6-6.8-7-11.3c-3.4-4.8-4.2-11.2-10-13.8
	c-5.4-9.1-12.2-17-20.6-23.3c-4.1-8.6-14.5-10.5-19.1-17.8c-7.7-1.9-9.4-12.7-18.7-11.4c-3.3,0.2-3.8-3.7-5.1-5.9
	c-15.5-3.9-30-13.4-44.9-19.7c-10.1,1.3-19.2-5.8-29.3-4.7c-5.5,1.1-8.4,6-14.1,4.3c-0.7-2.7,0.7-7.3-2.6-7.9
	c-3.8-1.2-6.5,4.9-3.1,7c-12.6,4.3-23.2-5.4-35.5-4.7c-3.2,2.9-6.7,3.9-10.9,3c-0.9,5.4-4.1,6.6-9.1,3.8c0.7,6.2-4.4,3.2-6.8,0.3
	c-4.7-2.1-7,4-9.4,6.8c-5.9,1.8-10.6,6.5-17.1,3.8c2.2-5.2,10.1-5.4,9.7-12.1c4.6-1,7.7-6.6,0.9-5.9c2.3-3.2,5.5-5.1,9.7-4.4
	c3.3-3.9,2.4-8.2,2.8-12.3c7.2,2,13.2-3.8,20.6-2.4c-1-3.4,0.5-6.2,2.6-1.9C214.3,52.2,223.6,53.5,224.5,46.6z"/>
<path class="st12" d="M82.9,101.7c11-11,19.9-24.6,34-32c-1,1.4-2,2.8-3.2,4C81.3,100,60,138,49.9,178.1
	c-9.2,38.9-14.8,79.7-5.3,119.1c0.2,17.9,7.9,34.7,13.5,51.4c-1.8,5.2,2.2,10.6,3.3,15.8c7,18.6,16.5,36.5,28.6,52.5
	c9.6,13.4,19.2,27.6,32.3,37.9c10.2,11.2,22.6,20,33.8,30.1c-55.3-36.6-92.7-95.8-113.7-157.4c1.1,6-3.9,10.2-3.8,16
	c-0.9,3.6-6.2-3.1-6.5,1.4c1.9,3.8,2.8,8.9-2,11c-9.2-5.2-11.3-17.5-14.3-26.9c-6.8-10-3.9-23.6-9.6-34.4
	c-3.3-17.5-5.3-35.5-4.2-53.2c3.3,18.2-1.2,39.2,8.9,55.6c2.3,6.2,8,1.4,8.3-2.7c5.6,3.8,7.5-3.3,11.8-5.4c2-5.3,1.8-12-0.5-17.4
	c-2-3.4,5.4-4.1,2-8.2c0.3-7.1-2.2-16,3.1-21.9c1.6-2.3-2.8-3.8-2.1-6.2c2.2-9,0.9-18.4,3.6-27.3c4.5-17.4,6.5-35.5,15.5-51.4
	c2.8-8.2,8.1-15.4,10.4-23.8C68.5,121.7,76,111.9,82.9,101.7z"/>
<path class="st13" d="M252.7,82.9c-3.4-2.2-0.7-8.2,3.1-7c3.3,0.6,1.9,5.3,2.6,7.9c5.7,1.7,8.6-3.1,14.1-4.3
	c10.1-1.1,19.3,6,29.3,4.7c14.9,6.3,29.4,15.8,44.9,19.7c1.3,2.2,1.8,6,5.1,5.9c9.2-1.3,11,9.6,18.7,11.4c4.7,7.3,15,9.2,19.1,17.8
	c8.4,6.3,15.2,14.3,20.6,23.3c5.8,2.6,6.6,9,10,13.8c1.4,4.4,6.2,6.6,7,11.3c0.4,3.7,4.8,2.9,6.8,5.2c3.8,2.5,3.3,7.6,5.7,11
	c-0.2,3,1.3,5.5,2.6,8c-6.8,7.5,4.9,15.1,4.7,23.1c-1.4,0-2.9,0.1-4.3,0.1c-18.2-50.4-53.1-95.4-100.1-121.9
	c-18.2-10.1-37.6-19.3-58.4-21.6c-54.3-13.1-113.4,3.9-154.3,41.4c-2.1-0.5-4.3-0.5-6.4-0.2c3.1-5.7,9.2-8.7,13.1-13.8
	c4.3-5.8,9.8-10.4,16-14c2.4-5,9.4-3.6,11.2-8.9c6.5,2.7,11.2-2,17.1-3.8c2.4-2.7,4.7-8.9,9.4-6.8c2.4,2.8,7.4,5.9,6.8-0.3
	c5,2.8,8.2,1.6,9.1-3.8c4.2,1,7.6,0,10.9-3C229.5,77.5,240.1,87.3,252.7,82.9z"/>
<path class="st14" d="M157.3,84.2c5.1-3.2,11.3-7.7,17.4-6.4c6.8-0.7,3.6,4.9-0.9,5.9c0.3,6.7-7.5,6.8-9.7,12.1
	c-1.8,5.3-8.8,3.9-11.2,8.9c-6.2,3.6-11.6,8.2-16,14c-3.9,5.1-10,8.1-13.1,13.8c-3.9,3.6-8.3,6.3-13.2,8c0.6,3.9-4.1,4.3-5,7.9
	c-2.3,0-4.6-0.3-6.9-0.5c4-3.2,7.5-6.7,6.7-12.9c0.4-2.7,7.1-10.5,1.6-9.5c0.8-1.8,1.6-3.5,2.4-5.3c2.2-2.1,3.7-4.6,4.8-7.4
	c1.6-3.4,7.2,1.3,7.7-3.2c1.2-5.4,4.3-9.9,9.4-12.2c0.1-5.4,5.3-8,9.3-10.7C145.9,88.8,153.6,90,157.3,84.2z"/>
<path class="st15" d="M130.2,132.9c40.9-37.6,100-54.6,154.3-41.4c20.9,2.3,40.3,11.4,58.4,21.6c47,26.5,81.9,71.5,100.1,121.9
	c2,7.7,5.3,15.2,5.9,23.2c-1-1.8-2-3.5-2.9-5.3c-15.1-59.2-55.3-113.1-110.1-140.9c-10.2-6.1-21.5-10.3-32.6-14.3
	c-8.6-2.4-17.3-4.6-26.1-6c-53-10.9-110.5,7.7-147.5,47c-12.3,11.9-21.1,26.7-29.6,41.4c-1.4,1-2.8,1.9-4.2,2.9
	c0.8-2.3,1.6-4.6,2.2-7C106.9,160.4,118.1,146.1,130.2,132.9z"/>
<path class="st16" d="M129.7,138.7c37-39.3,94.5-57.9,147.5-47c-25.2-1.7-51.2-3.3-75.6,4.9c-20.7,6.8-40.9,16.4-56.9,31.3
	c-17,13.1-30,30.6-40.6,49.2c-2.8,3.7-4.5,8.1-7.1,12l-0.2-1.1c1-2.6,2.1-5.2,3.3-7.8C108.6,165.3,117.4,150.6,129.7,138.7z"/>
<path class="st17" d="M201.6,96.5c24.4-8.1,50.3-6.5,75.6-4.9c8.8,1.4,17.5,3.6,26.1,6c-6.9,1.1-16-4.3-21.3,0
	c5.4,2.2,11.2,3.2,16.4,6.1c-14.1-1-28.1-5.3-42.3-3.8c-19-0.7-39,0.6-57.2,7c-11.3,3-21.1,9.6-31.6,14.2c-3.2,0.4-5.7,3.2-9,2.4
	c-4.9-0.5-8.9,3.3-13.5,4.3C160.7,112.9,180.9,103.3,201.6,96.5z"/>
<path class="st18" d="M281.9,97.7c5.3-4.4,14.4,1,21.3,0c11.2,4,22.4,8.2,32.6,14.3c45.9,27.4,83.8,69.8,101.2,120.7
	c9.1,28.4,13.5,58.4,11.8,88.2c-4.9,48-27.1,96.1-66.7,125c-6.8,5-14.3,9.1-22.1,12.3c-9.2-1.5,3.5-6.5,3.1-10.2
	c45.4-24.2,73.5-73.5,79.2-123.8c-0.5-10,1.6-20.8-3.6-29.9c3.1-7.8-2.1-14.7-2.5-22.3c1.5-4.2-1.1-7.8-2.8-11.5
	c-0.5-9.6-3.9-18.8-7.4-27.7c-2.2-5.8-1.5-12.2-4.3-17.9c-14.1-27.4-33.1-52.5-56.8-72.3c-25.9-21.5-57.3-38.1-91.3-40.3
	c-5.7-2.2-12.7,0.7-17.7-2.6c14.2-1.5,28.2,2.8,42.3,3.8C293.2,100.9,287.3,99.9,281.9,97.7z"/>
<path class="st19" d="M198.8,106.9c18.2-6.3,38.1-7.7,57.2-7c5,3.2,12,0.4,17.7,2.6c2.4,1.6,2.4,5.6,6.3,6.5
	c-33.1-7.5-68.3,0.7-97.5,17.4c-37.4,22.4-64,61.1-72.4,103.8c-2.4,6.7-1.4,14.4-4.3,20.9c-7-6.1-2.2-17.3-5.9-25
	c3.4-2.4,2.9-4.6-0.1-7.2c2.1-2.2,5.6-4.1,2.2-7c-4.2-4.3,10.1-2.3,3.9-5.9c-6.2-3.4,4.4-4.1,3.4-6.6c-3.7-4.9,1.9-5.4,5.8-4.5
	c-0.6-3-4.5-3.7-5.1-6.8c2.3-1.3,4.8-1,7.2-0.5c-1-2-5.5-5.6-1.9-7.1c10.5,1.9-0.9-3.9,2.8-6.3c1.8-2.5,8.4,1.6,4.5-2.9
	c-4.4-3.8,3.8-3.3,3.9-5.8c-4.8-7.4,6.7-1.9,4-7.2c-2.3-4.8,7.6-1.8,5-7.9c1.2-2.6,7.1-0.4,5-6c2.7-1,5.3-2.1,4.5-5.6
	c3.5-3,7-6,10.8-8.7c0.2,3.6,3.3,7.2,7.1,6.9c17-12.3,36-22.2,56.2-28.2c1.1-3.5-3.2-4-5.6-3.5C208.4,105.2,203.6,106.3,198.8,106.9
	z"/>
<path class="st20" d="M79,104c1.2-0.9,2.6-1.6,3.9-2.3c-6.9,10.2-14.4,20.1-20,31.1c-16.8,27.1-25.8,58.9-31.5,90.1
	c1.5,6.3-3.5,11-5,16.7c-2.2,1.6-7.2,3.7-3.8-4c-2.4,3.1-5.1,5-9.1,4c-2.1,5.6,7.4,6.5,10.5,3.3c-2.3,3.8-1.9,7,2.2,9.1
	c-4.8,0.1-8.7-3.2-12.5-5.7c-5.1,0.7-12.3-3.8-9.3-9.9c2.9-6.3-1.7-12.8,0.4-19.4c-0.3-11.6,3.5-22.7,4-34.2
	c0.1-0.4,0.2-1.2,0.3-1.6c0.6-1.1,1.3-2.2,1.9-3.3c-0.2,5.7-1.3,11.3-1.8,16.9c0.8,2.1,3,0.7,4.6,0.3c-1.6-1.7-2.2-6.6,1.2-4.1
	c0.5,9.6,16.2,6.2,19.3-0.9c-1.7-2.3-4.6-3.8-5.4-6.7c4.8,1.9,10.7-0.6,10.4-6.1c-7.8,1.4,0.5-6.5,3.7-7.3
	C51.5,146.6,64.3,124.3,79,104z"/>
<path class="st21" d="M273.7,102.5c34,2.2,65.4,18.8,91.3,40.3c23.7,19.8,42.7,44.9,56.8,72.3c2.8,5.6,2.1,12.1,4.3,17.9
	c-7.6-7.1-11.3-19-17.2-28c-27.9-47.3-73.9-86-128.9-95.9C276.1,108.1,276.2,104.1,273.7,102.5z"/>
<path class="st22" d="M198.8,106.9c4.8-0.5,9.6-1.7,14.5-1.6c2.5-0.5,6.8,0,5.6,3.5c-20.2,6-39.2,15.9-56.2,28.2
	c-3.8,0.3-6.9-3.3-7.1-6.9c4.2-2.5,7.7-5.9,11.5-8.9C177.7,116.5,187.5,109.9,198.8,106.9z"/>
<path class="st23" d="M182.5,126.4c29.1-16.7,64.4-24.9,97.5-17.4c55,9.9,101,48.7,128.9,95.9c5.9,9,9.6,20.8,17.2,28
	c3.5,8.9,6.9,18,7.4,27.7c1.6,3.7,4.3,7.3,2.8,11.5c0.4,7.6,5.6,14.5,2.5,22.3c-5.6,25.9-5.9,54.6-20.7,77.9c0.2-2,0.5-3.9,0.8-5.8
	c19.8-44.2,19.5-97-1.9-140.6c-20.2-43.4-54.2-81.5-97.8-102.2c-25-11.2-52.8-17-80.2-14.5c-49.5,6.1-93.9,39.5-114.6,84.7
	c-10.4,20.7-14.4,43.6-16,66.5c2,14.2-0.5,29.4,5.4,42.7c-2.3,6,4.1,11.1,3.6,16.9c13.8,44.2,43.1,84.5,83.3,108.2
	c22.1,14.2,47.4,21.6,72.5,27.6c1.8,1.6,3.8,0.5,5.6-0.4c2.3,1.6,4.7,1.6,7,0c2.3,1.6,4.8,1.4,7.2,0.1
	c43.2-0.1,83.9-24.8,109.1-59.4c0.9-0.7,1.9-1.4,2.9-2.1c-12,22.8-34.8,36.6-55,51.4c0,2.2,0.6,4.4,1.1,6.6
	c4.1-1.1,8.1-2.3,12.1-3.8c0.3,3.7-12.3,8.8-3.1,10.2c-17.8,7.1-35.3,16.4-55,16.6c-4.4-6,12-2,6.6-7.8c-7.7,1.9-15.3,0.9-23.1-0.2
	c-2.7,1.6-5.2,1-6.7-1.8c-1.6,3-4.6,3.6-6.8,0.9c-13,1.8-27.3-1.4-40.4-3.6c-31.3-10-59.9-27.8-83.4-50.6
	c-5.8-6.6-11.2-13.5-17.2-19.9c-12.2-14.3-20.2-31.5-27.3-48.8c-3-6.8-2.9-14.6-6.6-21.1c1.8-5-4.7-8.2-0.3-12.8
	c-3.9-2.4-4.8-5.2-0.9-8.2c-3.2-1.4-5.9-4.4-2.3-7.3c3.8-3-6.2-3.6-2.6-6.5c1.6-1.5,4.4-4,0.9-5.2c-5.9-2.3,5.8-6.5-0.4-8.6
	c-4.5-2.1,1.3-4.7,1-7c-4-2-2.4-5.6,0.1-8.2c-2-1.9-4.9-3.9-1.5-6c3.9-2.2-2.2-4.1-0.7-6.8c2.6-5.5-0.8-11.7,1.6-17.4
	c6.6-33.8,24.4-65.8,49.8-89.2c0.9,3.5-1.7,4.5-4.5,5.6c2.2,5.6-3.8,3.4-5,6c2.6,6.1-7.3,3.1-5,7.9c2.7,5.3-8.8-0.2-4,7.2
	c0,2.5-8.2,2-3.9,5.8c3.9,4.5-2.7,0.3-4.5,2.9c-3.7,2.4,7.7,8.2-2.8,6.3c-3.6,1.5,0.8,5.1,1.9,7.1c-2.4-0.5-5-0.7-7.2,0.5
	c0.6,3.1,4.5,3.8,5.1,6.8c-3.9-0.9-9.5-0.4-5.8,4.5c1,2.5-9.6,3.2-3.4,6.6c6.2,3.6-8.2,1.7-3.9,5.9c3.4,2.9-0.1,4.7-2.2,7
	c3,2.7,3.4,4.8,0.1,7.2c3.8,7.7-1.1,18.9,5.9,25c2.9-6.5,2-14.1,4.3-20.9C118.5,187.6,145.2,148.8,182.5,126.4z"/>
<path class="st24" d="M82.2,121.2c4.5-3.8,4-10.1,9.5-13.2c1.5,4.9,7.9,3.9,12,4.4c-1.1,4.4-0.1,9.2,5.5,8c-0.8,1.8-1.6,3.5-2.4,5.3
	c5.5-1-1.2,6.8-1.6,9.5c0.9,6.2-2.6,9.7-6.7,12.9c-1.8,6-7,10.1-8.3,16.3c-1.1,3.6-2.9,7.2-5.9,9.6c-5.9,7.2-4.5,18.7-11.2,25.2
	c-1.4-1.5-2.7-3-4.1-4.4c0.9-2.8,3-6.9-1.3-7.7c-0.9-5.2-2.4-11.8-0.4-17.4c1.1-1.8-1.4-2.5-2.4-3.6c2.4-3.6,5.1-7.3,4.2-11.8
	c-0.5-1.5,3.2,0,2-1.6c-3.6-4.2,2.4-7.8,3.4-11.7C72.4,132.6,85.2,129.6,82.2,121.2z"/>
<path class="st25" d="M239.1,109.1c27.4-2.5,55.2,3.3,80.2,14.5c43.6,20.8,77.6,58.8,97.8,102.2c21.4,43.6,21.7,96.4,1.9,140.6
	c-2.3-4.2-1.6-10.8-8-12.7c23.3-58,6.7-126.7-33.7-172.9c-34.4-43-92.7-67.9-147.3-54.9c-40.1,8.8-75,36.9-91.7,74.5
	c-5.1-0.2-10.7-2.4-13.8-6.6C145.2,148.6,189.6,115.2,239.1,109.1z"/>
<path class="st26" d="M335.9,111.9c54.8,27.7,95,81.6,110.1,140.9c0,0.6-0.2,1.7-0.2,2.3c-3.4-7.2-4.1-15.7-8.7-22.4
	C419.7,181.8,381.7,139.3,335.9,111.9z"/>
<path class="st27" d="M158.2,123.5c3.3,0.8,5.8-2.1,9-2.4c-3.8,3-7.3,6.4-11.5,8.9c-3.8,2.7-7.3,5.7-10.8,8.7
	c-25.5,23.4-43.2,55.4-49.8,89.2c-2.4,5.7,1,11.9-1.6,17.4c-1.5,2.7,4.6,4.5,0.7,6.8c-3.4,2.2-0.5,4.1,1.5,6c-2.5,2.6-4,6.1-0.1,8.2
	c0.3,2.2-5.5,4.9-1,7c6.1,2.2-5.5,6.3,0.4,8.6c3.5,1.1,0.8,3.7-0.9,5.2c-3.7,2.9,6.4,3.5,2.6,6.5c-3.6,2.8-0.8,5.8,2.3,7.3
	c-3.8,3-2.9,5.8,0.9,8.2c-4.4,4.6,2.1,7.8,0.3,12.8c3.8,6.5,3.7,14.3,6.6,21.1c7.1,17.2,15.1,34.5,27.3,48.8
	c5.9,6.4,11.4,13.3,17.2,19.9c23.5,22.9,52.1,40.6,83.4,50.6c13.1,2.2,27.4,5.4,40.4,3.6c2.2,2.8,5.2,2.2,6.8-0.9
	c1.5,2.8,4,3.4,6.7,1.8c7.8,1.1,15.4,2.1,23.1,0.2c5.4,5.8-11,1.8-6.6,7.8c19.6-0.2,37.2-9.5,55-16.6c7.8-3.2,15.2-7.4,22.1-12.3
	c0,1.1,0.1,2.1,0.1,3.2c-30.7,22.4-69.4,32.3-107.2,29.6c-9.5-0.7-18.9-2.5-28.1-4.6c-0.8-3-2-6.6-6-6.2
	c-33-9.3-64.1-26.2-88.6-50.3c-2.5-2.6-4.9-5.5-8.5-6.6c-14.4-15.4-26.1-33.2-35.9-51.9c-20.2-44.7-29.2-96.1-17.5-144.3
	c0.2,0.9,0.5,2.6,0.6,3.5c5-6.5,5.9-15.3,9.5-22.6C113,167,133.8,142.7,158.2,123.5z"/>
<path class="st28" d="M144.7,127.8c4.6-0.9,8.6-4.7,13.5-4.3c-24.4,19.2-45.2,43.5-57.6,72.1c-3.6,7.2-4.5,16.1-9.5,22.6
	c-0.1-0.9-0.5-2.6-0.6-3.5c2.8-13.2,8.9-25.2,13.6-37.7C114.7,158.4,127.6,140.9,144.7,127.8z"/>
<path class="st29" d="M230,125.9c54.6-13,112.9,11.9,147.3,54.9c-0.5,4.4-4.7-2.7-7.5-2.9c-9.2-8.8-18.4-18.1-29.8-24.1
	c-2.7-3-6.4-4.5-10-5.9c-10.7-8.7-25.1-12.1-38-16.1c-20-4.4-41.2-6.3-61,0c-2.6,0.1-5.1,0.8-7.4,1.9l-0.7,0.2
	c-2.2-0.4-4.2,0.4-6,1.6c-11,4.8-22.2,9.6-31.5,17.4c-7,4.8-13.3,10.7-19,17c-13.8,16.3-23.6,35.9-28.6,56.6c-1.3,3-2,6.2-1.7,9.5
	c-0.5,3.2-1.1,6.3-1.4,9.5c-1.1,10.8-1.4,21.8-0.2,32.5c0.4,2.5,0.9,5,1.5,7.5c0.2,3.5,0.5,7.1,1.6,10.5
	c13.8,63,64,118.6,128.1,131.9c4,1.2,8.2,1.4,12.3,1.8l0.8,0.1c9.2,0.7,19.1,2.4,28.1,0c4.1-0.1,8.3-0.6,12.2-1.9
	c2.6-0.6,5.1-1.3,7.6-2.2c2.6,0,5.1-0.7,7.3-2c2.5-1.1,5.1-2,7.7-3c2.2-0.7,4.4-1.7,6.3-3c8.1-4.2,15.8-9.2,22.9-14.9
	c3.5-2.1,6.7-4.8,8.9-8.4c1.9-2,3.8-4.1,5.7-6.1c1.7-0.3,4.9-3,4.7,0.4c-26.4,33-69.2,50.9-111.2,48.7
	c-73.1-6.3-133.4-67.6-148.2-138c-8.3-32.9-5.8-68,7.4-99.4C155,162.8,189.9,134.8,230,125.9z"/>
<path class="st30" d="M231,131.9c19.8-6.2,41-4.4,61,0c12.9,4,27.4,7.4,38,16.1C299.7,132.3,264.9,125.3,231,131.9z"/>
<path class="st31" d="M231,131.9c33.9-6.5,68.8,0.5,99,16.1c3.1,2.4,6.1,5.1,10,5.9c9.8,8.8,20.7,16.4,29.7,26.2
	c0.6,0.7,1.3,1.3,2,2c1.5,2.1,3.3,4.1,5.1,6c16.8,19.5,28.2,43,35.2,67.6c-0.1,3.2,0.7,6.2,1.9,9.2c-0.2,4.1,0.4,8.2,2.1,11.9
	c0.7,17.8,1,35.5-2,53.1c-1.4,2.5-2.2,5.4-1.8,8.3c-5.4,18.4-14.3,35.7-26.6,50.4c-1.9,2-3.8,4-5.7,6.1c-3.5,2.2-6.7,4.9-8.9,8.4
	c-7.1,5.7-14.8,10.7-22.9,14.9c-2.5,0.1-4.9,0.9-6.3,3c-2.6,1-5.2,1.9-7.7,3c-2.6-0.1-5.1,0.6-7.3,2c-2.5,0.9-5,1.6-7.6,2.2
	c-4,0.4-8.5-0.1-12.2,1.9c-9.4-0.1-18.7-0.1-28.1,0l-0.8-0.1c-4-1.1-8.2-1.7-12.3-1.8c-64.1-13.3-114.2-69-128.1-131.9
	c0.5-3.6-0.4-7.1-1.6-10.5c-0.6-2.5-1.1-5-1.5-7.5c0.1-4.4,0.3-8.8,0.4-13.3c16.3,1.1,33.7,1.2,49.4-4.4c8-2.7,16.3,1.1,24.4,1.1
	c-1.2,4.8-7.1,6.6-7.5,11.7c-2.9,8.5,1.6,15.9,7.5,21.4c-5.9,7.7-0.9,17.8,7.3,21.6c-5.1,4.3-14.5,2.4-17.2,9.5
	c-2.5,5.5,2.8,12.9,9,11c9.8-0.4,19.3-3.8,29.1-3.9c-5,7.2-7.6,17.2-2.1,25c0.9,3.4,8.8,4.7,4.7,8.8c-5,4.4-1.5,11.3,2.3,15.2
	c13.3,8.8,36.8-1.7,31.5-19.5c-0.5-1.9-1-5.5-3.6-3.5c-1.1-3.9-6.7-4.8-7-8.8c2.6-3.5,4.1-10.2,9.9-8.2c6.9,0.8,5.6,9.5,7.4,14.5
	c2.3,5,1.3,14.4,6.7,16.6c2.5,0.3,4.8,0,7-1c4.6-7.7-1.1-18.6-1.7-27.5c-4.1-3.8,5-10,5-4.2c1.2,13.9,9.8,30.9,26.3,28.9
	c7.6,2.5,12.5-6.2,19-7.1c6,2.9,14.8-0.2,17.4,7.5c0.6,6.1,3.1,11.7,4.1,17.8c-1.4,2.5,2.7,7,5,4.9c9.7-6.1,16-16.2,20.5-26.4
	c1.2-3.5,2.7-8.5-1.2-10.7c-9.6-2.9-19.5-4.5-29.4-3.5c-4.1-3.3,4.2-5.4,6.1-7.3c3.8-3.3,10.3-10.5,6-15.7c0.8-8-5.6-13.1-10.3-17.7
	c5-7.5,18.8-2.8,24.8-10.1c1-3.4,3.1-8.8-1.9-9.9c-5.2-5.8-21.3,5.2-19.4-5.9c0.9-11.5-11.6-24.9-0.7-34.2c2.5-3.7-0.9-8.7-3.9-11.2
	c-0.1-3.1,1-6,2.1-8.8c3.1-1.2,7.4-2,8.3-5.8c0.9-7.5,6.8-16.4,0.6-23.1c-3.6-5.1-6.9-10.4-10.8-15.2c-0.7-0.9-1.5-1.8-2.3-2.6
	c-18.6-16.8-39.8-31.3-63.6-39.4c-21-7.1-43.4-4.3-65.1-3.6c-12.4,1.4-24.8,4.2-35.8,10.1c-2.5,1-5.1,3-7.9,1.8
	c9.3-7.8,20.5-12.6,31.5-17.4c2.2,0.9,4.5,0.3,6-1.6l0.7-0.2C226.3,134,228.8,133.4,231,131.9z"/>
<path class="st32" d="M123.7,132.7c2.1-0.3,4.3-0.3,6.4,0.2c-12.1,13.2-23.2,27.5-32.1,43.1c-9.2,12-13.2,26.7-19.8,40.1
	c-1.4-8.1-1.5,5.4-4.4,7.4c-3.1-5.1,3.6-7.5,2-12.5c0.4-2.9-4.1-2.2-4.2-5.4c3.4,0.6,4-5,1.5-6.5c6.7-6.4,5.3-17.9,11.2-25.2
	c3-2.4,4.8-6,5.9-9.6c1.3-6.1,6.5-10.3,8.3-16.3c2.3,0.2,4.6,0.5,6.9,0.5c0.9-3.5,5.5-3.9,5-7.9
	C115.4,138.9,119.9,136.2,123.7,132.7z"/>
<path class="st33" d="M223.6,133.8c2.3-1.1,4.8-1.8,7.4-1.9C228.8,133.4,226.3,134,223.6,133.8z"/>
<path class="st7" d="M31.4,222.8c5.8-31.2,14.7-63,31.5-90.1c-2.3,8.4-7.6,15.5-10.4,23.8c-8.9,15.9-11,34-15.5,51.4
	c-2.7,8.9-1.4,18.3-3.6,27.3c-0.8,2.4,3.7,3.8,2.1,6.2c-5.3,5.9-2.8,14.8-3.1,21.9c3.4,4.1-4,4.9-2,8.2c2.3,5.4,2.5,12.1,0.5,17.4
	c-4.3,2.2-6.1,9.2-11.8,5.4c-0.3,4.1-6.1,8.9-8.3,2.7c-10.1-16.4-5.6-37.4-8.9-55.6c0.1-6.9,0.1-13.8-0.1-20.8
	c1.9-12.7,2.8-25.8,6.9-38c-0.5,11.5-4.3,22.6-4,34.2c-2,6.6,2.6,13.2-0.4,19.4c-2.9,6.1,4.2,10.6,9.3,9.9c3.8,2.5,7.7,5.8,12.5,5.7
	c-4.1-2.1-4.5-5.3-2.2-9.1c-3.1,3.2-12.6,2.3-10.5-3.3c4,1,6.8-0.9,9.1-4c-3.4,7.6,1.6,5.5,3.8,4C27.9,233.9,32.9,229.1,31.4,222.8z
	"/>
<path class="st34" d="M216.9,135.7c1.8-1.2,3.8-2.1,6-1.6C221.5,136,219.1,136.6,216.9,135.7z"/>
<path class="st35" d="M229.1,141.1c21.7-0.7,44.1-3.6,65.1,3.6c23.8,8.1,45,22.6,63.6,39.4c-1.6-0.4-3.1-0.9-4.6-1.4
	c-17.9-13.5-36.2-27.5-57.9-34.1c-10.7-3.4-19.5,4.6-29.6,6.2c-7,2-14.5,0-21.3,2.5c-14.9,1.7-29.5-7.7-44.5-5.4
	c-12.7,2.9-22.1,13.9-33.5,18.3c5.7-6.3,11.9-12.2,19-17c2.8,1.2,5.4-0.8,7.9-1.8C204.3,145.3,216.7,142.5,229.1,141.1z"/>
<path class="st36" d="M265.7,154.8c10.1-1.6,18.9-9.6,29.6-6.2c21.7,6.6,40,20.6,57.9,34.1c-10.9-0.4-21.3,2.9-31.9,4.6
	c-3.7,0.7-4.1,6.8-7,7.2c-8.4-8.1-19.9-2.5-29.9-2.1c-2.4,0.7-3.7,3-5.7,4.3c-7.7-0.1-16-3-23.4,0.6c-4.3,2.1-8.4,9.6-13.5,4.8
	c-7.2-5.9-13.6,4.1-12.1,10.9c-4.9-1.6-8-6.1-12.2-8.8c-5.4-1.3-12,0.2-14.8,5.3c-8.9-5.2-19.5,0.2-28.9,1.1
	c-4.2,0.4-7.7,4.8-5.6,9.1c3.4,11.8,5.3,24.3,10.5,35.4c11.2,1.5,24.7,1.1,34.4-6.2c3.4,1.1,6.9,2.2,10.6,1.6
	c4.3-2.8,2.8-8.4,3.5-12.8c7.1,1.8,11,11.9,19.8,10.1c4.5,0,6-5.1,9.1-7c9.3,2.6,20.1,5,28.8-1.1c5.3-3.8,12.1,1.8,17.7-1.4
	c5.3-3.1,13.4,1.8,16.4-5.6c2.1-6,6.3,0.5,9.5,1.6c11.2,1.2,22.6-0.8,33.5-3.6c-1.1,2.8-2.1,5.7-2.1,8.8c-1.3,0.5-2.7,0.9-4,1.3
	c-9-1.3-18.6,0.6-26.2,5.7c-8.7-0.9-17.4-0.4-25.7,2.4c-0.5,0.1-1.6,0.4-2.2,0.6c-32-6.9-61.2,12.7-92.9,12
	c-8.2,0-16.4-3.8-24.4-1.1c-15.7,5.7-33.1,5.5-49.4,4.4c0-6.4-0.1-12.8-0.3-19.3c0.4-3.2,0.9-6.3,1.4-9.5c1.2-3,1.9-6.2,1.7-9.5
	c5.1-20.7,14.8-40.3,28.6-56.6c11.4-4.4,20.8-15.4,33.5-18.3c15-2.2,29.6,7.1,44.5,5.4C251.3,154.8,258.8,156.8,265.7,154.8z"/>
<path class="st37" d="M330,148c3.6,1.4,7.4,2.9,10,5.9C336.1,153.1,333.1,150.4,330,148z"/>
<path class="st38" d="M340,153.9c11.4,6,20.5,15.3,29.8,24.1c0,0.5,0,1.6,0,2.1C360.8,170.3,349.9,162.7,340,153.9z"/>
<path class="st39" d="M59.3,166c1.8-0.7,3.9-1.3,5.6-0.1c0.9,1.1,3.4,1.8,2.4,3.6c-2,5.6-0.5,12.2,0.4,17.4c4.3,0.8,2.2,4.9,1.3,7.7
	c0.1,5.4-6.5,6.3-6.8,11.5c-1.1,13.5-3.3,26.8-9.1,39c0.1,16.5-1.6,33,0.8,49.5c-1.1,2.3-2.5,4.5-2.2,7.3c-1.9-2.5-5.2-2.5-7.2-4.8
	c-9.5-39.4-3.9-80.2,5.3-119.1C56.4,176.8,51.1,165.3,59.3,166z"/>
<path class="st40" d="M9,181.1c0.8-5.2,1.7-10.4,3.9-15.2c-0.4,4-1.2,7.9-2,11.9C10.3,178.8,9.6,179.9,9,181.1z"/>
<path class="st41" d="M469,171.7c20.4,20.5,29.2,49.4,40.5,75.5c-1.5,6,5.2,7.4,6,12.2c2,6.9,8.3,11.7,10.3,18.5c0,7,4.1,13,4,20
	c4,45.1-4.8,90.8-22.3,132.5c-17.7,37.3-44,70.2-76.5,95.6c-11.2,9.1-24.5,15.7-38,21c10.7-7.5,22.8-13.6,31.7-23.3
	c3.5-3.6,3.3-9.8,8.9-11.2c3.8-3.3-3.7-4.9-0.9-7.8c3.7-2.5-0.2-7.3,3.7-9.3c2.3-3-6.4-0.3-2.4-3.4c22.8-22.2,42.6-47.5,56.8-76.2
	C519,355,521.4,282,494.5,220.3c-1.1-4.1-5.9-5.7-6-10.1c-2.3-1.2-2.3,1-2.4,2.7c-2.8-1.2-6-1.8-7.2-5c0.5-0.9,0.9-1.9,1.2-2.9
	c1.1-10.3-8.7-17.7-9-27.2C468.9,176.4,468.8,174.1,469,171.7z"/>
<path class="st42" d="M78.3,216c6.6-13.3,10.6-28.1,19.8-40.1c-0.6,2.4-1.4,4.7-2.2,7c-11.9,25.9-20.1,54-20.4,82.7
	c-2.5,30.3,7,59.6,16.5,88c-2,2.1-8.8,2.6-5.9-1.4c3.6-3.6-3.3-7.4-6-9.6c-0.7-4.8-1.7-9.6-4.1-13.8c-8.6-22.2-6.2-46.5-8.9-69.6
	c2.1-12,3.3-24.1,6.7-35.8C76.8,221.4,76.9,208,78.3,216z"/>
<path class="st43" d="M97.1,189c2.6-3.9,4.3-8.3,7.1-12c-4.7,12.5-10.8,24.5-13.6,37.7C78.8,262.9,87.8,314.3,108,359
	c-1.3-1.4-2.6-2.8-4.2-4c-1-0.8-2-1.4-2.9-2.2C78.8,301.5,75,241.1,97.1,189z"/>
<path class="st44" d="M369.8,178c2.8,0.2,7,7.2,7.5,2.9c40.4,46.2,57,114.9,33.7,172.9c-4.6,10.8-10.1,21.3-16.9,30.8
	c-1.2,1.5-2.5,3-3.8,4.5c0.3-3.3-3-0.7-4.7-0.4c12.2-14.8,21.2-32.1,26.6-50.4c1.2-2.6,1.8-5.4,1.8-8.3c4.2-17.1,5.6-35.7,2-53.1
	c-0.1-4.1-0.6-8.1-2.1-11.9c-0.2-3.2-0.5-6.3-1.9-9.2c-7-24.6-18.5-48.1-35.2-67.6c-0.9-2.6-3.1-4.3-5.1-6c-0.7-0.7-1.3-1.3-2-2
	C369.8,179.5,369.8,178.5,369.8,178z"/>
<path class="st45" d="M95.9,183c1.4-1,2.8-2,4.2-2.9c-1.1,2.6-2.2,5.2-3.3,7.8c-32.6,67.9-18,152.5,27.4,211
	c-0.3,0.6-0.8,1.6-1.1,2.2c-13.7-13.4-22-30.8-31-47.5c-9.6-28.4-19-57.7-16.5-88C75.8,237,84,208.8,95.9,183z"/>
<path class="st46" d="M371.8,182.1c2,1.7,4.2,3.3,5.1,6C375.1,186.1,373.3,184.2,371.8,182.1z"/>
<path class="st47" d="M321.3,187.3c10.6-1.7,21.1-5,31.9-4.6c1.5,0.5,3.1,1,4.6,1.4c0.8,0.8,1.5,1.7,2.3,2.6
	c0.2,6.2,0.7,12.5,4.1,17.9c2.1,3.5-1.7,6.6-2.2,10c4.2,2.3,8.3,5.1,8.3,10.4c-0.9,3.8-5.2,4.6-8.3,5.8c-10.9,2.8-22.2,4.8-33.5,3.6
	c-3.3-1.1-7.5-7.6-9.5-1.6c-2.9,7.4-11,2.5-16.4,5.6c-5.5,3.2-12.4-2.4-17.7,1.4c-8.7,6.1-19.4,3.7-28.8,1.1c-3.1,1.9-4.6,7.1-9.1,7
	c-8.8,1.7-12.7-8.3-19.8-10.1c-0.7,4.4,0.8,10-3.5,12.8c-3.7,0.5-7.2-0.5-10.6-1.6c-9.7,7.3-23.2,7.7-34.4,6.2
	c-5.2-11.2-7.1-23.6-10.5-35.4c-2.1-4.3,1.4-8.8,5.6-9.1c9.4-0.8,19.9-6.2,28.9-1.1c2.8-5.1,9.4-6.6,14.8-5.3
	c4.3,2.6,7.4,7.2,12.2,8.8c-1.5-6.9,4.9-16.8,12.1-10.9c5.1,4.9,9.2-2.7,13.5-4.8c7.4-3.6,15.7-0.7,23.4-0.6c2-1.3,3.3-3.7,5.7-4.3
	c10-0.4,21.4-6,29.9,2.1C317.2,194.1,317.5,188,321.3,187.3z"/>
<path class="st48" d="M334,187.9c7.5,1.1,21.6-7.7,24.9,2.1c1.2,3.7-3.3,4.5-6,4.8c-4.7-0.2-13.6-0.1-9.1,7.2
	c4.4,1.8,10.6-0.2,15.8-0.2c4.7,3.1,1.9,10-3.7,9.1c-3,0.2-6,0.4-8.9,1.1c0.8,3.3,1.1,10.4,6,8.4c6.3-1.6,16.6-4.5,15.8,5.3
	c-7.5,3.6-16.7,4-24.9,4c-5.1-11.7-7.7-24.2-11.6-36.2C331.2,191.4,332.7,189.5,334,187.9z"/>
<path class="st49" d="M360.1,186.7c3.9,4.9,7.1,10.2,10.8,15.2c6.2,6.7,0.3,15.7-0.6,23.1c0-5.3-4.1-8.1-8.3-10.4
	c0.5-3.4,4.4-6.5,2.2-10C360.8,199.2,360.4,192.9,360.1,186.7z"/>
<path class="st50" d="M124.2,398.9c-45.4-58.6-59.9-143.2-27.4-211l0.2,1.1c-22.1,52.1-18.3,112.5,3.8,163.9
	c5.9,19.3,19.6,34.9,29.1,52.2C128,403,126.1,400.9,124.2,398.9z"/>
<path class="st51" d="M327.9,190.3c2.1-0.7,4-1.8,6.1-2.4c-1.3,1.6-2.8,3.5-1.7,5.6c3.9,12.1,6.5,24.6,11.6,36.2
	c-1.6,0.2-3.2,0.6-4.9,0.8C336.5,216.9,332.5,203.5,327.9,190.3z"/>
<path class="st52" d="M321.2,195.7c-3.7-4.2,3.7-9.6,6.7-5.4c4.6,13.2,8.6,26.6,11.1,40.3c-8.6,5.6-13.5-2.9-18-8.8
	c-3.6-4.4-7.3-8.8-11.1-13.1c0.2,5.4,2,10.4,3.4,15.5c3.1,5,3.1,14.8-5.5,9.9c-3.7-13.2-8.7-26.3-11.1-39.8
	c7.6-5.6,13.6,1.8,18.2,7.7c4,3.2,5.8,9.6,11,11.1C325,207.1,323,201.4,321.2,195.7z"/>
<path class="st53" d="M108.4,260.4c1.5-22.9,5.6-45.9,16-66.5c3.1,4.2,8.7,6.4,13.8,6.6c-13.2,31.3-15.7,66.4-7.4,99.4
	c-5.8,0.7-11.3,2.5-17,3.2C108,289.7,110.5,274.6,108.4,260.4z"/>
<path class="st54" d="M290.9,195.9c2.6,3.8,5.3-0.4,5.9-1.7c2.5,13.5,7.4,26.6,11.1,39.8c-2.5-3.1-4.8-5.9-6.3-0.7
	C298.2,220.8,294.8,208.3,290.9,195.9z"/>
<path class="st55" d="M69.1,194.6c1.4,1.4,2.7,2.9,4.1,4.4c2.5,1.5,1.9,7.1-1.5,6.5c0.1,3.1,4.7,2.5,4.2,5.4c1.6,5-5.2,7.4-2,12.5
	c-3.3,11.7-4.6,23.9-6.7,35.8c2.7,23.1,0.3,47.4,8.9,69.6c2.5,4.2,3.5,9,4.1,13.8c0.7,3,0.3,5.9-1.1,8.6c-2.7-5-10.1-7.4-7.3-14.1
	c-5.7-3.3-2.3-10.5-5.8-15.3c-2.5-4.1-2.2-9.6-6.9-11.9c3.2-3.4-0.9-6.9-1.7-10.5c-3.1,0.7-3.3-2.1-3.5-4.8
	c-2.4-16.5-0.7-33-0.8-49.5c5.7-12.2,8-25.6,9.1-39C62.6,200.9,69.2,199.9,69.1,194.6z"/>
<path class="st56" d="M283.3,198.8c-2.4-4.7,6-5.5,7.6-2.9c3.9,12.4,7.3,24.9,10.7,37.4c1.9,5.8-9,5-8.5-0.5
	C290.2,221.4,286.3,210.2,283.3,198.8z"/>
<path class="st57" d="M343.8,202c-4.5-7.3,4.4-7.4,9.1-7.2c0.1,3-5.8-0.4-5.7,3.4c-0.7,5.5,12.4,0.1,12.4,3.7
	C354.4,201.8,348.2,203.9,343.8,202z"/>
<path class="st58" d="M321.2,195.7c1.9,5.7,3.8,11.4,4.8,17.3c-5.1-1.6-7-7.9-11-11.1C320,205,321.5,200,321.2,195.7z"/>
<path class="st59" d="M249.1,208.3c4-12.1,22-14.3,29.9-5c4.3,3.3,0.4,8.2-5.1,5.9c-3.9-4.6-11.4-5.4-15.7-0.9
	c-6.7,11.9,6.7,32.8,20.1,23c6.4-11.2-13.8-0.9-9.3-12.2c0.7-3.3,6-2.2,8.8-3.3c9.1-1.7,10.2,11.6,8.2,18.3
	c-6.7,9.5-22.3,9-29.9,0.8C249.4,227.7,248.1,217.6,249.1,208.3z"/>
<path class="st60" d="M283.3,198.8c3,11.4,6.8,22.6,9.8,34.1c-2.5-2.8-5-1.2-7.1,1.1c1.9-6.7,0.9-20-8.2-18.3
	c2.9-0.1,8.2-1.5,7.1-5.5c-2.8-3.1-7.9,1.7-11-1.1c5.5,2.4,9.4-2.5,5.1-5.9C281.1,202.5,282.7,201,283.3,198.8z"/>
<path class="st61" d="M232.9,202.9c6.4-2.9,8.2,2.3,9,6.9c2.1,9.2,5.2,18.1,7.7,27.2c3.7,5.9-1,9.3-7.5,7.8
	c-5.9-4.3-9.8-10.9-15.1-16c-3.4-4.3-7-8.5-11.1-12.1c1.4,5.5,3.1,10.9,4.8,16.3c1.4,4.8,5.5,11.4,2.1,15.7c-7.3,3-6.1-6.1-7.9-9.8
	c-2.5-10.7-6.9-20.9-7.8-31.9c11.2-5.4,15.4,8.5,22.8,14c3.1,3.9,6.2,7.9,10.3,10.9c-1-5.1-2.3-10.2-3.9-15.2
	C234.8,212.2,233,207.7,232.9,202.9z"/>
<path class="st62" d="M439.9,203.8c1.7,1.6,2.1,4,3.2,6.1c2.6-0.3,7.5-2,7.6,2.2c1.8,3.6,3.3,13,8.4,7c4.9-3.6-1.7-13.4,5.6-13.2
	c2.2,1.9,2.8,5.4,4.6,7.8c4.5,1.4,4.9-6.5,9.5-5.8c1.3,3.2,4.4,3.8,7.2,5c2.2,6.2,7.1,11.8,6.6,18.7c-0.1,2.1,0.5,4.3,1.3,6.2
	c1.1,11-13.2,15.6-20.2,9.2c1.4,2.6,3.3,5,4.2,7.8c-3.5,1-8.2,5.3-11.1,1.2c-2.2-2-5.4,0-7.7,1c-3.5-7.6-6.8-15.3-11.8-22.1
	c0.2-8-11.5-15.6-4.7-23.1C441.2,209.2,439.7,206.7,439.9,203.8z"/>
<path class="st63" d="M258.2,208.2c4.3-4.5,11.8-3.8,15.7,0.9c3.1,2.8,8.2-2,11,1.1c1.1,4-4.2,5.4-7.1,5.5c-2.8,1.1-8.1,0-8.8,3.3
	c-4.5,11.2,15.7,1,9.3,12.2C264.9,241,251.5,220.1,258.2,208.2z"/>
<path class="st64" d="M248.3,207.8l0.8,0.4c-1,9.3,0.3,19.5,7,26.5c-2.8-1.2-5.1-0.4-6.5,2.3c-2.5-9.1-5.6-18.1-7.7-27.2
	C243.8,214.2,250.1,216,248.3,207.8z"/>
<path class="st65" d="M195.3,209.3c3.4-1.7,3.9,3.1,3.6,5.4c-6.4,2.3-13.9,1.2-19.8,4.4c-0.3,3,0.9,6,1.8,8.9
	c5.8,4.4,23.1-9.4,21.1,4.7c-6.4,0.5-12.6,1.9-19,2.4c0.6,4.4,2.1,8.6,3.2,12.9c7-1.1,13.9-2.5,20.8-3.7c1.5,1.8,2.5,4.1,2,6.5
	c-9.6,1.2-19,3.8-28.7,4.1c-3-13.1-6.9-25.9-10.2-38.9c-0.3-1.3,0.2-2.2,1.3-2.7C179.3,212.4,187.3,210.5,195.3,209.3z"/>
<path class="st66" d="M310,208.7c3.8,4.3,7.5,8.7,11.1,13.1c-3.1-1.3-6-0.8-7.6,2.3C312,219,310.1,214,310,208.7z"/>
<path class="st67" d="M486,212.9c0.1-1.7,0.1-3.9,2.4-2.7c0.1,4.5,5,6.1,6,10.1C521.4,282,519,355,490.9,415.9
	c-14.2,28.6-34,53.9-56.8,76.2c-4,3.1,4.6,0.4,2.4,3.4c-3.9,2-0.1,6.8-3.7,9.3c-2.8,2.9,4.8,4.5,0.9,7.8c-5.6,1.4-5.5,7.6-8.9,11.2
	c-9,9.7-21.1,15.8-31.7,23.3c-4.3,3.4-9.9,4.2-14.8,6.2c-61.2,22-130.3,15.9-189.1-10.6C133.8,516.2,84.4,474.9,52.7,422
	c14.4,17.1,26.9,36,42.8,51.8c61.8,64.6,155,102.7,244.4,87.1c5.3-6,19.1-0.1,17.3-11.7c2.8-3.2,4.1-7.4,4.4-11.5
	c1.4,2.3,3.3,6.4,5.7,2.6c2.6-4-5.4-3.6-4.7-8.1c-1.8,2-3.2,5.2-6.3,4.9c0.5-2.4-0.3-4.7-1.2-6.9c28.9-7.2,55.2-22.8,78-41.9
	c-0.5-0.1-1.6-0.4-2.1-0.6c0.3-0.4,0.8-1.3,1.1-1.8c30-22.2,50.4-55.4,64-89.8c8.9-18.4,10.2-39.2,14.2-58.9
	c2.4-28.2,1.2-57.3-8.2-84.2c-2.1-5.3-2.6-11.9-8-15.1c-0.8-2-1.4-4.1-1.3-6.2C493.1,224.6,488.2,219.1,486,212.9z"/>
<path class="st68" d="M347,212.1c2.9-0.7,5.9-0.9,8.9-1.1c-6.1-1.2-7.9,6.4-2.9,9.5C348.1,222.4,347.8,215.3,347,212.1z"/>
<path class="st69" d="M215.9,216.8c4.1,3.6,7.7,7.9,11.1,12.1c-3.4-2.1-6.4,0.5-6.3,4.2C219,227.7,217.2,222.3,215.9,216.8z"/>
<path class="st70" d="M235.2,216.9l0.9-0.2c1.6,5,2.9,10.1,3.9,15.2c-4.1-3-7.1-7-10.3-10.9C230,218.4,239.3,227.7,235.2,216.9z"/>
<path class="st71" d="M0.8,227.3c0.2-1.6,0.7-4.9,1-6.6c0.3,6.9,0.2,13.8,0.1,20.8c-1.1,17.8,0.9,35.8,4.2,53.2
	c3.4,33.1,16.4,64.4,31.1,94.1c5.9,12,15,22.2,20.6,34.4c3.1,3.5,9.1-1.1,11.7,3.4c4.4,2.6,3.4-3.4,4.9-5.2c5.8,0.4,2.8-4.6,0.9-7.4
	c2.9-4.6,7,0.7,9.5,3.1c15.7,24,37.4,43.8,59.2,61.9c33.6,23.6,71.2,45.1,112.4,49.8c37.2,6.6,75.3,4.4,111.5-6.2
	c-5.3,5.1-13.8,3.9-20.2,7c-56.7,13.5-118.2,3.1-168.7-25.8c-4.3-2.1-9.3-2.7-13.1-6c-2.8,2.1-4.8,5.2-7.5,7.5
	c-1.7,3.6,3.1,6.2,4.3,9.2c-5.7,4.6-8.7-3.5-15.2,0c-2.8-5.6-8.1-9.6-14.1-10.9c0-2.4,2-6.5-4-4.3c-12.5-5-20.9-16.3-30.5-25.3
	c-0.9-1-2.2-1.1-3.2-0.3C79.6,457.9,67.1,439,52.7,422C35,396,23,366.6,13.3,336.8C2.1,301.6-1.9,264.1,0.8,227.3z"/>
<path class="st72" d="M136.1,236.2c-0.4-3.3,0.4-6.5,1.7-9.5C138,230,137.3,233.2,136.1,236.2z"/>
<path class="st73" d="M437.1,232.7c4.6,6.7,5.2,15.2,8.7,22.4c3.9,11.8,4.7,24.3,6.5,36.6c0.5,21.1-1.7,41.9-6.5,62.4
	c-7,23.8-18.2,46.1-33,66c-0.6,1-1.2,1.9-1.8,2.9c-9.5,8.8-17.6,19.2-28.7,26.2c0-1.1-0.1-2.1-0.1-3.2c39.6-28.9,61.8-77.1,66.7-125
	C450.6,291.1,446.2,261.1,437.1,232.7z"/>
<path class="st74" d="M443,234.9c1.4,0,2.8-0.1,4.3-0.1c5,6.8,8.3,14.5,11.8,22.1c2.5,8.3,10.3,14.3,8.8,23.8
	c0.5,5.5,0.5,10.9-6.1,10.4c-1.3-3.2-4.5-4.5-7.7-4.4c-1.1-9.6-2.5-19.3-5.2-28.6C448.3,250.1,445,242.6,443,234.9z"/>
<path class="st75" d="M493.9,237.8c5.4,3.2,5.9,9.8,8,15.1c9.4,27,10.6,56,8.2,84.2c-2.2-19.9,2.6-41.5-6.3-60.2
	c-2.5,5.6-7.9,3.4-12.6,2.3c-2.7,3.3-5.8,6.5-9.5,8.8c-3.1-0.5-7.6-1.2-8.2-4.9c-0.4-2.7-3.7-3.5-5.8-2.3c1.5-9.5-6.2-15.5-8.8-23.8
	c2.3-1,5.5-2.9,7.7-1c2.9,4.1,7.5-0.2,11.1-1.2c-0.8-2.9-2.7-5.2-4.2-7.8C480.8,253.4,495,248.8,493.9,237.8z"/>
<path class="st76" d="M329.7,246.6c7.6-5.1,17.2-7,26.2-5.7c1.4,0.6,2.8,1.1,4.2,1.8c-8.3,0.4-16.6,1.8-24.8,3.5
	c-1.5,0.6-1.2,2.3-1.3,3.6c-1.9,1-4,1.2-6.1,1.2c-7.1-4.1-15.2-0.6-22.7,0c-0.3-0.5-1-1.5-1.3-1.9
	C312.2,246.2,321,245.8,329.7,246.6z"/>
<path class="st77" d="M355.9,241c1.3-0.4,2.7-0.9,4-1.3c3,2.5,6.4,7.5,3.9,11.2c-10.9,9.3,1.6,22.7,0.7,34.2
	c-1.8,11.1,14.2,0.1,19.4,5.9c5,1.1,2.9,6.5,1.9,9.9c-6,7.2-19.8,2.6-24.8,10.1c4.7,4.6,11.1,9.7,10.3,17.7
	c0.5,7.6-4.9,14.6-12.1,16.7c-6.9,2.5,0.1,12.7-5.5,16.5c-5,4.4-11.2-6.5-15.3-0.4c-3.5,4.7-9.4,6.1-14.7,7.9
	c-16.5,2-25.1-15-26.3-28.9c-0.1-5.9-9.1,0.3-5,4.2c0.6,8.9,6.3,19.8,1.7,27.5c-1.4-12.5-5.8-24.4-7.1-36.8c5.3,0,13-1.5,8.7-8.1
	c-9.7-0.2-19,3.6-28.6,5.1c0.4,2.3,0.6,4.7,2,6.7c3.2-0.5,6.4-1.7,9.7-1.9c3.7,11.7,5.5,24.1,8.3,36c-5.4-2.2-4.4-11.6-6.7-16.6
	c-1.8-5-0.6-13.7-7.4-14.5c-5.9-2.1-7.3,4.6-9.9,8.2c0.3,4,5.9,4.9,7,8.8c3.9,9.6-1.4,23.4-13.3,22c8.6-1.8,17.2-11.3,11.2-19.9
	c-4.4-10.1-17.5-4.3-23.9-11.3c-3.8-8.6,11-11,13.3-3.9c10.5,3,5.3-8.8-0.5-9.8c-10.3-4.7-25.1,5.4-19.3,17.3
	c4,10,16.6,5.2,23.5,10.6c5.4,8.2-8.5,14.3-12.7,7.6c-1.7-3-8.8-1.7-7.4,2.3c1.5,2.9,4.6,4.9,7.1,7.1c-4.8-0.3-12.2-7.5-6.8-11.8
	c4.5-3.1,9.7,0.9,14.5,0.6c4.2-3.3-2.8-7.6-6-6.6c-8.2-0.6-15.8-8.1-14.3-16.6c-0.8-13.3,15.9-17.4,25.6-11.7c5,2.7,4.6-6.2,9-7
	c10.1-1.8,21.2-7.2,30.9-1.1c3.1-2.5,6.8-5.1,8.3-8.9c-8.4-1.6-15.8,2.6-23.9,3.5c-23.8,3.7-47.4,7.8-71,11.9
	c-2.9-0.7-9.7,2.8-11.3-0.3c59.8-10.1,119.3-22.2,179.3-31.6c6.2-0.1,1.6-13.5-4.2-9.2c-58.3,9.6-116.1,22.4-174.2,32.8
	c17.5-8.5,37.4-8,55.8-13.3c10.2-1.4,19.9-5.1,30.1-5.9c5.5-1.2,11.7-1.8,16.3-5.5c-8.5,2-12.7-13.9-20.6-6.7
	c-1.4,5.6-5.6,13-12.4,8c-3.2-13.4,1-27.7,1-41.4c0-6.7,9.3-9,13-3.6c6.4,5,7.6,15.7,15.6,18.6c1-8.6-3.5-16.9-1.1-25.5
	c0.5-0.1,1.6-0.4,2.2-0.6c0.3,0.5,0.9,1.5,1.3,1.9c-5.8,5.3,1.3,14.9,1.9,21.7c-0.1,4.8,0.9,9.6,0.8,14.4c-2.5-1.5-4.2-4.3-7.1-5.3
	c-6.1-8.7-10.9-18.3-17.1-26.8c-2.9,0-7,0.8-7.4,4.3c-0.5,13.9-1.9,27.8-2.4,41.6c8.3,2.7,8.8-4.9,8.2-10.7
	c5.5-1.1,13.6-5.3,15.9,2.6c1,5.1,6.9,3.5,10.1,1.9c3.3-1.1,6.7,0.4,10-0.4c3.2-1.9,1.1-5.6,0.4-8.2c-0.7-6.1,4.1-7.5,8.5-4.3
	c2.5,2.9,4.6,6,7.1,9c1.7-1,9.7,0.9,7.4-3.5c-3.4-5.1-8.1-9.4-11.7-14.4c4.3-3.5,4.5-8.8,3.9-13.9c1.1-5.4,10.1-6,12.4-1.1
	c3.2,9.5,5.3,19.3,8,29c1.8-0.1,8.9,1.3,7.8-3c-2.4-10.6-6.1-21-7.9-31.7c5.9,1.9,11.8-6.1,6.1-9.5
	C358.7,242.1,357.3,241.5,355.9,241z"/>
<path class="st78" d="M335.3,246.2c8.2-1.7,16.4-3,24.8-3.5c5.8,3.5-0.2,11.5-6.1,9.5c1.8,10.7,5.5,21.1,7.9,31.7
	c1.1,4.3-6,2.9-7.8,3c-2.7-9.7-4.7-19.5-8-29c1.4-9.7-11.4,0.5-12.1-8.1C334.1,248.5,333.8,246.8,335.3,246.2z"/>
<path class="st79" d="M134.5,278.2c-1.2-10.8-1-21.8,0.2-32.5c0.2,6.4,0.2,12.8,0.3,19.3C134.9,269.4,134.7,273.8,134.5,278.2z"/>
<path class="st80" d="M208.9,261.6c31.8,0.7,60.9-18.9,92.9-12c-2.4,8.6,2.1,16.9,1.1,25.5c-8-2.9-9.2-13.6-15.6-18.6
	c-3.7-5.4-13-3-13,3.6c-0.1,13.7-4.3,28-1,41.4c6.8,5,11-2.3,12.4-8c7.9-7.2,12.1,8.6,20.6,6.7c-4.6,3.6-10.8,4.3-16.3,5.5
	c-10.3,0.8-20,4.5-30.1,5.9c-18.4,5.3-38.3,4.7-55.8,13.3c-3.5,1.5-1.3,5.3-0.9,8c1.6,3.2,8.4-0.4,11.3,0.3
	c23.7-4.1,47.3-8.2,71-11.9c8.1-0.9,15.5-5.1,23.9-3.5c-1.5,3.9-5.2,6.4-8.3,8.9c-9.7-6.1-20.8-0.7-30.9,1.1c-4.4,0.7-4,9.6-9,7
	c-9.7-5.8-26.4-1.6-25.6,11.7c-1.5,8.5,6,16,14.3,16.6c3.3-1,10.3,3.4,6,6.6c-4.7,0.2-10-3.7-14.5-0.6c-5.4,4.3,2,11.5,6.8,11.8
	c2.8,0.1,5.8,0,8.7-0.1c11.9,1.3,17.1-12.4,13.3-22c2.6-2,3.1,1.7,3.6,3.5c5.2,17.8-18.2,28.4-31.5,19.5c-3.8-3.9-7.3-10.8-2.3-15.2
	c4.1-4-3.8-5.3-4.7-8.8c-5.5-7.8-2.9-17.8,2.1-25c-9.9,0.2-19.3,3.6-29.1,3.9c-6.2,1.8-11.6-5.5-9-11c2.6-7,12.1-5.2,17.2-9.5
	c-8.2-3.8-13.2-13.9-7.3-21.6c-5.9-5.6-10.4-13-7.5-21.4C201.8,268.2,207.6,266.4,208.9,261.6z"/>
<path class="st81" d="M305.2,251c7.5-0.6,15.6-4.1,22.7,0c2.5,2.2,4.7,4.8,5.8,8c0.6,5.1,0.4,10.5-3.9,13.9c3.7,5,8.3,9.2,11.7,14.4
	c2.3,4.5-5.7,2.5-7.4,3.5c-2.4-3-4.6-6.1-7.1-9c-2.3-3.5-5.1-7.5-10.2-6c-0.3,3.5,0.6,6.9,1.7,10.2c0.7,2.7,2.8,6.3-0.4,8.2
	c-11.1,0.9-6.6-15.2-11-21.7C306.5,265.9,299.4,256.4,305.2,251z"/>
<path class="st82" d="M327.9,251c2.1,0,4.2-0.2,6.1-1.2c0.8,8.6,13.6-1.6,12.1,8.1c-2.3-4.9-11.3-4.3-12.4,1.1
	C332.6,255.8,330.4,253.2,327.9,251z"/>
<path class="st83" d="M446,252.8c0.9,1.8,1.9,3.6,2.9,5.3c2.7,9.3,4.1,19,5.2,28.6c0.6,7.7,1,15.4,0.9,23.1c0,1.9,0,3.7,0,5.6
	c-0.6,3.2-1,6.5-1.7,9.7c-0.8-11.2,0.5-22.5-1-33.6c-1.9-12.2-2.6-24.8-6.5-36.6C445.8,254.5,445.9,253.4,446,252.8z"/>
<path class="st84" d="M276.3,259.3c0.4-3.5,4.5-4.3,7.4-4.3c6.3,8.6,11,18.2,17.1,26.8c2.3,4.3,4.8,8.6,7.3,12.9
	c-3.2,1.6-9.1,3.2-10.1-1.9c-2.2-7.9-10.4-3.7-15.9-2.6c0.6,5.8,0.1,13.5-8.2,10.7C274.5,287.1,275.9,273.2,276.3,259.3z"/>
<path class="st85" d="M412.1,255.7c1.4,2.9,1.6,6,1.9,9.2C412.8,261.9,412,258.9,412.1,255.7z"/>
<path class="st86" d="M235.7,262.9c7.7-4.9,17.5-4,26.2-6c7.6,1.5,4.6,13-1.9,14.2c0,10.7,5,20.9,5.8,31.5c-2.1,2.5-5.2,5.3-8.5,3
	c-7-5.3-5.1-16.1-8.5-23.5c-5.3-2-10.5-0.4-12.9,4.8c7.1,6.7,5.7,20.3-3.2,24.8c-6.7,2-21.4,4-22.6-5.9c8.6,11.8,34,3.2,27.5-12.5
	c-3.9-11.9-18.6-5.3-25.5-12.6c-3.9-7.7,9.5-11,12.3-5.1c1.4,2.7,9.6,2.8,7.3-1.3c-3.5-9-15.1-9.1-22.4-4.9
	c-7.7,4.8-5.6,19,3.5,20.8c5.8,2.1,13.9,0.4,18,6.2c2.3,7.1-8,10.9-12.5,6.2c-2.6-2.9-6.2-1.8-9.5-1.5c4.8-7.3,12,2.5,17.1-2.2
	c-1.3-5.3-8.2-3.4-11.9-5.9c-8.6-1.8-13.6-12.6-9.3-20.3c4-9.1,15.6-7.6,23.7-6.2C232.9,269.4,233,264.2,235.7,262.9
	c-3.1,9.9,6.8,6.1,11.9,6.3c3.4,11,5.5,22.3,8.7,33.4c1.2,3.1,5.2,0.9,7.6,0.2c-2-12-6.7-23.5-7.9-35.6c4.2-1.4,12.5,0.7,8.9-7.1
	C255.8,257.5,245.4,263.1,235.7,262.9z"/>
<path class="st87" d="M313.2,257c4.4-0.1,10-1.4,12.5,3.2c2.3,7.6-6.8,7.8-11.7,8.6C314.2,265.2,309.7,259.9,313.2,257z"/>
<path class="st88" d="M235.7,262.9c9.6,0.2,20.1-5.4,29.1-2.8c3.6,7.8-4.7,5.7-8.9,7.1c1.2,12.1,5.9,23.6,7.9,35.6
	c-2.3,0.7-6.4,2.9-7.6-0.2c-3.1-11-5.3-22.4-8.7-33.4C242.5,269,232.7,272.8,235.7,262.9z"/>
<path class="st89" d="M414,264.9c1.5,3.8,2,7.8,2.1,11.9C414.3,273.1,413.8,269,414,264.9z"/>
<path class="st90" d="M209.3,269.3c7.3-4.2,18.9-4.1,22.4,4.9c2.3,4.1-5.9,4-7.3,1.3c-2.8-5.9-16.3-2.6-12.3,5.1
	c6.9,7.4,21.6,0.7,25.5,12.6c6.5,15.7-19,24.3-27.5,12.5c-0.7-1.5-1.1-3.1-1.3-4.7c3.3-0.3,6.9-1.4,9.5,1.5
	c4.4,4.7,14.8,0.9,12.5-6.2c-4-5.8-12.1-4-18-6.2C203.7,288.3,201.6,274.1,209.3,269.3z"/>
<path class="st91" d="M283.2,266.7c2.3,4.8,6.4,8.9,7.8,14.1c-2.5,2-6,1.3-9,2.1C282.1,277.4,282.9,272.1,283.2,266.7z"/>
<path class="st92" d="M307.1,272.7c4.4,6.5-0.1,22.5,11,21.7c-3.3,0.8-6.8-0.7-10,0.4c-2.5-4.3-5-8.5-7.3-12.9
	c2.9,1,4.5,3.7,7.1,5.3C308,282.3,307,277.5,307.1,272.7z"/>
<path class="st93" d="M316.9,275.9c5.1-1.5,7.9,2.5,10.2,6c-4.4-3.2-9.2-1.8-8.5,4.3C317.5,282.8,316.6,279.4,316.9,275.9z"/>
<path class="st94" d="M416.1,276.8c3.6,17.3,2.1,36-2,53.1C417.1,312.3,416.8,294.6,416.1,276.8z"/>
<path class="st95" d="M491.3,279.2c4.8,1.2,10.1,3.3,12.6-2.3c8.9,18.8,4.1,40.3,6.3,60.2c-4.1,19.7-5.4,40.5-14.2,58.9
	c2.9-13.7,7.4-27,9.2-40.9c1.9-15.6,4.6-31.9,0.8-47.3c-5-7-12.4-3.5-19-3c-10.6,2.4-19.2-6.3-25.2-13.7c6.6,0.5,6.6-5,6.1-10.4
	c2.2-1.2,5.4-0.3,5.8,2.3c0.6,3.6,5.1,4.4,8.2,4.9C485.5,285.7,488.6,282.5,491.3,279.2z"/>
<path class="st96" d="M136.1,285.7c1.2,3.4,2.1,6.9,1.6,10.5C136.6,292.8,136.2,289.3,136.1,285.7z"/>
<path class="st97" d="M454,286.8c3.2,0,6.4,1.2,7.7,4.4c6.1,7.4,14.7,16.1,25.2,13.7c6.6-0.6,14-4.1,19,3
	c3.7,15.4,1.1,31.7-0.8,47.3c-1.9-9.5,3.1-19.7-0.5-28.9c-5.9-3.9-12.9-5.1-19.9-3.3c-4,2.1-8.7,3-13.2,2.2
	c-8.9-1.1-6.9-14.8-16.7-15.2C455.1,302.2,454.7,294.4,454,286.8z"/>
<path class="st98" d="M203.9,325c58.1-10.5,115.9-23.2,174.2-32.8c5.8-4.3,10.5,9.1,4.2,9.2c-60,9.4-119.5,21.5-179.3,31.6
	C202.6,330.3,200.5,326.5,203.9,325z"/>
<path class="st99" d="M452.3,291.6c1.4,11.1,0.1,22.4,1,33.6c-0.5,3.8-1.1,7.6-1.2,11.4c-0.7,3.7-1.3,7.3-2.3,10.9
	c-0.6,1.7-1.3,3.5-1.8,5.2c-0.5,0.3-1.6,1-2.1,1.3C450.7,333.6,452.9,312.7,452.3,291.6z"/>
<path class="st100" d="M6.1,294.7c5.7,10.8,2.8,24.4,9.6,34.4c3,9.4,5.1,21.6,14.3,26.9c4.8-2.1,3.9-7.2,2-11
	c0.4-4.4,5.7,2.3,6.5-1.4c-0.1-5.8,4.9-10,3.8-16c21,61.6,58.4,120.8,113.7,157.4c9.3,5.4,17.7,12.7,28,16
	c21.7,14.6,47.5,20.7,72.3,27.9c-41.2-4.7-78.9-26.2-112.4-49.8c-21.8-18.1-43.5-37.9-59.2-61.9c-2.5-2.4-6.6-7.7-9.5-3.1
	c1.9,2.8,4.9,7.8-0.9,7.4c-1.4,1.8-0.4,7.8-4.9,5.2c-2.5-4.5-8.6,0.1-11.7-3.4c-5.6-12.1-14.7-22.3-20.6-34.4
	C22.5,359.1,9.5,327.8,6.1,294.7z"/>
<path class="st101" d="M54,294.6c0.1,2.7,0.4,5.5,3.5,4.8c0.8,3.6,4.9,7.1,1.7,10.5c4.7,2.2,4.4,7.8,6.9,11.9
	c3.5,4.8,0.1,12,5.8,15.3c-2.8,6.7,4.7,9.1,7.3,14.1c1.9,4.5,2.3,9.9,6.3,13.2c5.7,6.5,4.2,17.3,12.1,21.9c1.5,2.6,2.1,5.7,3.6,8.3
	c-1.2,1.2-2.7,2.3-3.5,3.9c-1.2,6-3.9,1.3-5.1-2.2c-5.1-1-5.2-6.2-6.9-10.2c-2.2,0-5.4,1.4-6.1-1.7c-6.3-12.5-15.9-22.9-21.5-35.9
	c-5.5-16.8-13.3-33.5-13.5-51.4c2,2.3,5.4,2.3,7.2,4.8C51.5,299.1,52.9,296.9,54,294.6z"/>
<path class="st102" d="M418.2,372.2c14.8-23.3,15-52,20.7-77.9c5.2,9.1,3.1,19.9,3.6,29.9c-5.7,50.2-33.8,99.6-79.2,123.8
	c-4,1.5-8,2.7-12.1,3.8c-0.5-2.2-1.1-4.3-1.1-6.6c20.2-14.8,43-28.5,55-51.4C409.7,386.9,414.3,379.7,418.2,372.2z"/>
<path class="st103" d="M113.9,303c5.7-0.7,11.3-2.6,17-3.2c14.8,70.4,75.1,131.6,148.2,138c42,2.2,84.8-15.7,111.2-48.7
	c1.3-1.4,2.6-2.9,3.8-4.5c2.8,3.7,8.4,6.1,8.1,11.4c-25.2,34.6-65.9,59.4-109.1,59.4c-2.4,1.3-4.9,1.6-7.2-0.1c-2.3,1.6-4.7,1.6-7,0
	c-1.8,0.9-3.8,2-5.6,0.4c-25.1-6-50.5-13.4-72.5-27.6c-40.2-23.7-69.5-63.9-83.3-108.2C118,314.1,111.6,309,113.9,303z"/>
<path class="st104" d="M109.9,308.1c3.9,0.8,1.9,9,4.7,12.1c16.2,50.7,52.7,94.5,100.2,118.9c13.7,5.6,27.9,11.4,42.2,16.1
	c-1.2,2.6-3.7,3.3-6.2,2c-3.4-2-4.8,7-7.4,2.5c-0.5-6.7-4.8,2.9-7.7-0.4c-1.2-2.1-0.2-6-3-2.6c-3.2,3.9-4.8,0.8-5.9-2.7
	c-3.7,2.7-6.7,2.1-7-2.9c-4.5,1.5-9.2,1-7-6.1c-2.3,2.5-8.8,8.3-7.2-0.6c-1.5-3.1-4.4,1.2-6.5,1.7c-2.4-2.1-0.1-5.4-0.3-8
	c-2.7-0.6-3.8,2.2-5.9,3c-4.2-0.1,2-8.8-2.8-6.8c-2.4,1.9-9.5,4.4-5.5-2.7c0.6-3.5-4.7-0.2-6.5,0.4c-2.3-2.2,0-5.4,0-8
	c-2.6,0.3-4.2,3.2-6.8,3c-2.6-1.9,0.5-5.4-0.2-8c-2.6,0.3-4.2,3.2-6.8,3c-2.7-1.7,1.1-5.9-0.3-8c-2.5,0.1-4.6,1.6-6.9,2.2
	c-0.6-3.3,2-5.9,2.2-9c-2.3,1-4.6,2.1-7,2.8c-3-2.6,1.6-5.8,0.9-8.9c-2.9-0.2-5.1,2.3-8.1,2.1c-0.2-3.4,2.6-5.9,3.1-9.1
	c-2.8,0.6-5.3,2-8.1,2.1c-0.2-3,2-5.4,3.1-8.1c-2.7-2.9-7.9,4.8-9,0.1c1.2-2.2,3.4-4.2,3-7c-2.9-0.5-5.3,1.4-8,2.1
	c-1.1-3.6,2.8-5.8,3.1-9.1c-2.8-0.1-5.4,1.2-8.2,1.1c0.3-3.6,8.2-10.4-2-8.1c-3.8-1.5,6.8-11.8-4-8.1c-0.2-2.4,1.9-4.3,1.9-6.6
	c-7.5-4.2-5.9-14.6-8.7-21.4c-2.4-2.5,1.6-7.2-2-8.9c-5-1.1,4.5-7.8-1.2-7.9C102.4,314,107.1,309,109.9,308.1z"/>
<path class="st105" d="M455,309.9c9.8,0.4,7.7,14.2,16.7,15.2c4.5,0.8,9.1-0.1,13.2-2.2c6.9-1.8,14-0.5,19.9,3.3
	c3.7,9.2-1.3,19.4,0.5,28.9c-1.8,13.9-6.3,27.2-9.2,40.9c-13.6,34.4-34,67.6-64,89.8c3.2-4.7,9.2-7.2,11.1-12.9
	c9-6.1,15.8-15.1,21.9-24c8.5-8.8,13.4-20.2,19.2-30.8c4.2-7.3,6.4-15.5,9.8-23.1c5.7-14,7.5-29.1,8.5-44
	c0.9-6.9-10.5-12.8-16.4-9.4c1.5-8.4-10.2,3.2-11.9-2.9c-1.3-4.1-5.8-2.4-8.9-2c-4-6.9-9.1-13.2-10.3-21.3
	C454.9,313.6,454.9,311.7,455,309.9z"/>
<path class="st106" d="M338,318.1c6.9-2,14.3-3.8,21.5-2.8c9.5,2.9,12.4,16.2,6.3,23.6c-4.1,2.9-9.2,3.3-13.9,4.3
	c-1.7,5.7,8.1,20.8-4.9,17.7c-1-2.6-1.4-5.4-2-8c-2.1-10.1-4.4-20.1-6.8-30.2C337.9,321.2,337.8,319.6,338,318.1z"/>
<path class="st107" d="M453.3,325.2c0.7-3.2,1.1-6.5,1.7-9.7c1.1,8.1,6.3,14.5,10.3,21.3c3.1-0.4,7.6-2.1,8.9,2
	c1.7,6.1,13.4-5.6,11.9,2.9c5.9-3.4,17.4,2.5,16.4,9.4c-1,14.9-2.8,30-8.5,44c0.5-11.5,8.4-24,3-35.1c-9.4-5.1-19.8-11-31.2-10.9
	c-5.4-2.9-8.8-8.9-13.8-12.5C452.1,332.8,452.8,329,453.3,325.2z"/>
<path class="st108" d="M306.1,326.1c7.2-6.6,20.9-6.5,26.5,2.1c4.7,7.3,6.6,16,6.3,24.7c-2.6,13-20.6,18.8-29.9,8.8
	C301.7,352.1,297.6,336.2,306.1,326.1z"/>
<path class="st109" d="M338.3,322.7c2.4,10,4.7,20.1,6.8,30.2c-1-2.9-4.2-4-6.2,0.1c0.3-8.6-1.6-17.4-6.3-24.7
	C336.4,328.7,338.8,326.4,338.3,322.7z"/>
<path class="st110" d="M350.4,323.4c3.7-1.2,8.7-1.1,10,3.2c3.9,7.5-6.4,9-11.2,8.3C348.8,330.9,343.9,323.3,350.4,323.4z"/>
<path class="st88" d="M267.1,332.2c9.5-1.5,18.8-5.4,28.6-5.1c4.4,6.6-3.4,8.1-8.7,8.1c1.3,12.4,5.7,24.4,7.1,36.8
	c-2.2,0.9-4.6,1.2-7,1c-2.8-12-4.6-24.4-8.3-36c-3.3,0.3-6.4,1.5-9.7,1.9C267.7,336.9,267.5,334.4,267.1,332.2z"/>
<path class="st111" d="M315.3,329.2c17.5-4.5,23.6,32.8,3.7,29.8C308.9,354.7,303.6,334.7,315.3,329.2z"/>
<path class="st112" d="M371.3,328.6c4.3,5.2-2.2,12.4-6,15.7c-1.9,1.9-10.2,4-6.1,7.3c10-1,19.9,0.6,29.4,3.5
	c3.8,2.2,2.4,7.2,1.2,10.7c-4.5,10.3-10.9,20.3-20.5,26.4c-2.3,2.1-6.4-2.4-5-4.9c-1-6-3.5-11.7-4.1-17.8
	c-2.5-7.7-11.3-4.6-17.4-7.5c-6.5,0.9-11.4,9.6-19,7.1c5.2-1.8,11.2-3.1,14.7-7.9c4.1-6.1,10.4,4.8,15.3,0.4
	c5.6-3.8-1.4-14,5.5-16.5C366.5,343.3,371.8,336.2,371.3,328.6z"/>
<path class="st113" d="M412.2,338.2c-0.3-2.9,0.4-5.8,1.8-8.3C414,332.8,413.4,335.6,412.2,338.2z"/>
<path class="st114" d="M317.2,332.2c12.7-1.8,17.4,26.5,1.8,23.7C310.9,351.6,307,336.3,317.2,332.2z"/>
<path class="st115" d="M237.6,353.3c-5.8-11.9,9-22,19.3-17.3c5.8,1,10.9,12.8,0.5,9.8c-2.3-7.1-17.1-4.7-13.3,3.9
	c6.3,7,19.4,1.2,23.9,11.3c6,8.6-2.6,18.1-11.2,19.9c-2.9,0.1-5.9,0.2-8.7,0.1c-2.5-2.2-5.6-4.2-7.1-7.1c-1.5-4,5.7-5.3,7.4-2.3
	c4.3,6.6,18.1,0.6,12.7-7.6C254.2,358.5,241.6,363.2,237.6,353.3z"/>
<path class="st116" d="M452,336.6c5,3.7,8.4,9.6,13.8,12.5c11.3-0.1,21.8,5.8,31.2,10.9c5.4,11.1-2.5,23.6-3,35.1
	c-3.4,7.7-5.6,15.8-9.8,23.1c2.6-12.8,10.5-25,8.9-38.4c-3.1-2.4-0.6-5,0-7.9c-6.1,2.1-11.1-2.4-16.9-3.5c-0.6-1.7-0.6-3.5-0.6-5.3
	c-11.3,2.3-19.7-7.5-25.8-15.7C450.7,343.9,451.3,340.2,452,336.6z"/>
<path class="st117" d="M80.3,342.6c2.7,2.2,9.6,6,6,9.6c-2.9,4,3.9,3.5,5.9,1.4c9,16.6,17.3,34.1,31,47.5c2.6,4.7,6.2,8.8,9.1,13.4
	c0.2,2.2,0.2,4.6,2.4,5.9c-12.4-1.3-16.6-15.3-27.8-18.3c-3.3-1.3-3.5-5.1-5.6-7.4c-1.5-2.6-2.1-5.7-3.6-8.3
	c-7.9-4.6-6.4-15.4-12.1-21.9c-4-3.3-4.4-8.7-6.3-13.2C80.6,348.5,81,345.6,80.3,342.6z"/>
<path class="st118" d="M447.9,352.8c0.6-1.8,1.2-3.5,1.8-5.2c6.1,8.2,14.5,18,25.8,15.7c0.1,1.8,0,3.6,0.6,5.3
	c5.8,1.1,10.8,5.5,16.9,3.5c-0.6,2.9-3.1,5.5,0,7.9c1.6,13.3-6.3,25.6-8.9,38.4c-5.9,10.6-10.7,22-19.2,30.8
	c9.3-16.3,20.9-32.6,22-52.1c0-3,1.4-12.7-4.3-11.5c-4.3,1-10.7-3-6.7-7.4c-4.7-1.7-9.8-1.6-14.7-2.4c-2.7-6.2-10.5-8.9-14-15.9
	C447.6,357.4,447.8,355.1,447.9,352.8z"/>
<path class="st119" d="M58.1,348.6c5.6,13.1,15.2,23.4,21.5,35.9c0.7,3.1,3.9,1.7,6.1,1.7c1.7,4,1.8,9.2,6.9,10.2
	c1.1,3.5,3.9,8.2,5.1,2.2c2,8.7,8.4,15.3,8.3,24.6c-3.9-0.8-7.7-1.9-10.8-4.5c1,6.8,8.5,9.5,10.4,15.9c6.5,6,11.9,13,16.8,20.3
	c-13-10.4-22.6-24.5-32.3-37.9c-12.1-16-21.5-33.9-28.6-52.5C60.2,359.2,56.3,353.8,58.1,348.6z"/>
<path class="st120" d="M100.9,352.9c1,0.7,2,1.4,2.9,2.2c14.9,37,42.4,68.6,75.4,90.7c-0.1,0.6-0.4,1.8-0.5,2.3
	c-18.7-11.4-34-27.1-48.8-43C120.5,387.7,106.8,372.1,100.9,352.9z"/>
<path class="st121" d="M445.8,354.1c0.5-0.3,1.6-1,2.1-1.3c-0.1,2.4-0.3,4.7-0.7,7c-1.4,4.3-2.9,8.5-4.4,12.7
	c-0.9,1.8-1.7,3.5-2.6,5.2c-2.9,5.3-5.5,10.8-8.6,16c-5.9,8.9-10.4,19.4-18.8,26.4C427.6,400.1,438.8,377.8,445.8,354.1z"/>
<path class="st122" d="M411,353.8c6.4,1.9,5.6,8.5,8,12.7c-0.3,1.9-0.6,3.9-0.8,5.8c-3.9,7.5-8.5,14.6-13.1,21.6
	c-1,0.7-1.9,1.4-2.9,2.1c0.3-5.3-5.3-7.7-8.1-11.4C400.9,375,406.4,364.6,411,353.8z"/>
<path class="st123" d="M103.8,355c1.5,1.2,2.8,2.6,4.2,4c9.8,18.7,21.5,36.4,35.9,51.9c15.3,18.5,35.5,32,55.4,44.9
	c-7.5-1.2-13.4-6.7-20-10.1C146.2,423.7,118.7,392,103.8,355z"/>
<path class="st124" d="M447.2,359.8c3.5,6.9,11.3,9.7,14,15.9c4.9,0.8,9.9,0.8,14.7,2.4c-4,4.4,2.4,8.4,6.7,7.4
	c5.8-1.2,4.3,8.5,4.3,11.5c-1.1,19.5-12.7,35.8-22,52.1c-6.1,8.9-12.9,17.8-21.9,24c15.1-19.7,34.6-39.3,37.8-64.9
	c0.4-12-11.9-15.5-21-18.1c-5-4.4-13.9-6.6-13.1-14.9c-0.3-1.7-2.7-1.7-3.9-2.6C444.3,368.2,445.8,364,447.2,359.8z"/>
<path class="st125" d="M440.2,377.7c0.9-1.7,1.8-3.5,2.6-5.2c1.2,0.9,3.6,0.9,3.9,2.6c-0.8,8.3,8.1,10.5,13.1,14.9
	c9.1,2.6,21.4,6.1,21,18.1c-3.2,25.7-22.7,45.3-37.8,64.9c-42.7,37-99.2,59.3-156,57.2c-17,0.4-32.7-6.5-49.3-8.2
	c-10.2-3.5-20.1-8.3-29.9-13c-3.8-1.4-8.5-3.3-9-7.9c3.4-6.5,11.5-4.4,16.5-8.6c6.6,0.3,13.7,0.3,20.1-1c3-3.4,7.1,2.2,9.8-1.9
	c7.5,6,19.5,0.2,26.1-5.6l0.9,0.1c0.8,6.5-6,8.9-8.5,13.8c-2.4-2-5.1-3.9-7.5-0.8c-7.4,0-6.3,8.7-11.8,11.2c-5,1,1.5,11.3,2,3.8
	c5.9-0.9,8.6,5,6.8,10c3.5,1.4,3.2-3,5.5-2.9c2,4.8,9.2,9.2,13.4,4.5c7.3,5.9,19,3.2,28.2,2.8c0.4-4.5,3.8,1.2,6.1-1
	c1.9-1.6,4.1-1.1,6.2-0.1c3.6-3.2,8.6-3.7,12.9-1.6c1.2-2.8,3.7-2.4,6.2-1.9c0.2-3.2-3.6-10.3,3.7-6.2c2.6,0.8,7,0.1,4-3.1
	c-0.7-6.1,8.2,1.6,10.2-1.8c-0.4-2.4,1.4-6.9-2.3-6.7c-4.4-3.3-11,10.3-9.5-2c-1.6-5.5,5.2-5.4,7.3-9c-0.8-3.6-5.6,0.7-5.9-3.2
	c-0.3-3.2,5.6,1.9,4-2.1c-1.9-6,6.7-5.2,9.3-9.1c4.1-4.6,11.3-2.8,16.2-6.2c2.9,6.1,6.9-1.7,10.7-1.1c1.3,4.8,6.2,8,10.8,5
	c4.8-0.3-3.1-6.5,2.5-4c4.7,2.7-1.8,6.9,2.3,9.8c2.5,4.1,2-7.5,7-2c-2.6,6.4,5.5,4.3,8.9,3c1.8,3.6,4.5,5.2,9.1,3.9
	c1-3.9,2.3-7.1,6.9-5.2c2.1-3.4,5.2-5.2,9-6.1c7-10.5,20-16.8,23.3-29.7c6.9-5.4,8.8-13.8,12.9-20.8c-3.1-4.4-7.9-7-11.9-10.3
	c1.3-3.4,10.1-0.1,6-5.7c-7.4-1.9-10-8.2-16.8-9.7C446.5,391.8,441.6,385.5,440.2,377.7z"/>
<path class="st126" d="M440.2,377.7c1.4,7.8,6.2,14.1,9,21.6c6.8,1.5,9.4,7.8,16.8,9.7c4.1,5.6-4.6,2.4-6,5.7
	c4,3.4,8.8,5.9,11.9,10.3c-4.1,7-6,15.5-12.9,20.8c-3.3,12.9-16.3,19.2-23.3,29.7c-3.8,0.9-6.9,2.7-9,6.1c-4.5-1.9-5.8,1.3-6.9,5.2
	c-4.5,1.3-7.3-0.3-9.1-3.9c-3.3,1.3-11.4,3.4-8.9-3c-5-5.5-4.5,6.1-7,2c-4-2.9,2.5-7.1-2.3-9.8c-5.6-2.5,2.3,3.7-2.5,4
	c-4.6,3-9.5-0.2-10.8-5c-3.8-0.5-7.8,7.2-10.7,1.1c-4.9,3.4-12.1,1.6-16.2,6.2c-2.5,3.8-11.2,3-9.3,9.1c1.6,4-4.3-1.1-4,2.1
	c0.2,3.9,5-0.3,5.9,3.2c-2,3.6-8.9,3.5-7.3,9c-1.6,12.3,5-1.3,9.5,2c3.7-0.2,2,4.3,2.3,6.7c-1.9,3.5-10.8-4.2-10.2,1.8
	c3,3.2-1.4,3.9-4,3.1c-7.4-4-3.5,3-3.7,6.2c-2.5-0.5-5-0.9-6.2,1.9c-4.2-2.1-9.3-1.6-12.9,1.6c-2.1-1-4.3-1.6-6.2,0.1
	c-2.2,2.2-5.7-3.5-6.1,1c-9.2,0.4-20.9,3.1-28.2-2.8c-4.2,4.8-11.4,0.4-13.4-4.5c-2.4-0.1-2,4.3-5.5,2.9c1.8-5-0.9-10.8-6.8-10
	c-0.6,7.4-7-2.8-2-3.8c5.5-2.5,4.4-11.2,11.8-11.2c2.5-3.1,5.1-1.2,7.5,0.8c2.5-4.9,9.4-7.3,8.5-13.8c36.1,2.7,72.8-7,103.4-26.3
	c0.1,0.8,0.4,2.4,0.5,3.2c6.2-1.8,12.1-4.4,18.7-4.8c2.3,2.5,0,6.5,1.1,9.6c2.7-1,6.1-3.2,8.3,0c3.1,5.1,11.3-4.1,12.6,3.4
	c3.6,0.6,5.6,2,4.3,5.9c3.8,0.2,8.2-7.6,11-2.2c1.7,5.7,5.9-3.7,2.9-5.9c-2.7-2.3,0.7-5.5,3.1-3.1c4,5,9.4-3.7,5-7
	c2.1-3.8,5.9-6,9.5-2.6c-2.6-6.3,3.2-9,6.8-12.7c0.4-3.3,3.1-5,5.5-6.8c-1-2.4-2.8-2.6-4.8-1.1c-1.5-1.8-2.9-3.6-4.1-5.6
	c4.2-4.3,6.5,5.2,9.2-1c-5.6-4.8-12.3-9-19.9-9.5c-3.8-1.5,1.2-5.3,0-7.9c-1.9-4.7-2.3-9.8-2.5-14.8c-2.5,2.5-4.9,5.2-7.7,7.3
	c-1.9-1.4,2.6-11.1-2.5-8.6l-0.9,0.2C434.7,388.5,437.3,383,440.2,377.7z"/>
<path class="st127" d="M432.5,393.5c5.1-2.5,0.6,7.3,2.5,8.6c2.8-2.1,5.2-4.8,7.7-7.3c0.3,5,0.6,10.1,2.5,14.8
	c1.2,2.6-3.8,6.4,0,7.9c7.6,0.5,14.2,4.7,19.9,9.5c-2.7,6.2-5-3.4-9.2,1c1.2,1.9,2.6,3.8,4.1,5.6c2-1.5,3.8-1.3,4.8,1.1
	c-2.4,1.8-5.1,3.5-5.5,6.8c-3.6,3.7-9.4,6.4-6.8,12.7c-3.6-3.4-7.4-1.2-9.5,2.6c4.4,3.3-1,12-5,7c-2.3-2.4-5.7,0.7-3.1,3.1
	c3,2.2-1.1,11.6-2.9,5.9c-2.8-5.4-7.2,2.5-11,2.2c1.3-3.9-0.8-5.3-4.3-5.9c-1.3-7.5-9.5,1.6-12.6-3.4c-2.2-3.2-5.6-1-8.3,0
	c-1.1-3.1,1.2-7.1-1.1-9.6c-6.5,0.4-12.5,3-18.7,4.8c-0.1-0.8-0.4-2.4-0.5-3.2c2.7-2,5.3-4.2,8.3-5.8c6.1-0.7,10.8-8.1,16.9-4.1
	c5.1-5.4,13.7-7,20-5.8c6.3,6.5,9.5-6.3,7.4-11c3.8,2.6,10.4-2,3.4-1.8c-2-4.9-8.2-12.6-1.6-16.2C434.1,407.3,431.5,400,432.5,393.5
	z"/>
<path class="st128" d="M412.9,420c8.4-7,12.9-17.4,18.8-26.4l0.9-0.2c-1,6.5,1.6,13.9-2.5,19.5c-6.7,3.6-0.4,11.3,1.6,16.2
	c6.9-0.2,0.3,4.4-3.4,1.8c2.1,4.7-1.1,17.5-7.4,11c-6.3-1.2-14.9,0.3-20,5.8c-6.1-4-10.8,3.4-16.9,4.1c9.4-9.3,20.5-17.3,27.2-29
	C411.6,421.9,412.2,421,412.9,420z"/>
<path class="st129" d="M101.1,394.6c2.1,2.3,2.3,6.1,5.6,7.4c11.2,3,15.5,17.1,27.8,18.3c5.3,10.7,18.3,13.5,25.2,22.7
	c2.7,3.1,7.2,3.5,10.5,5.8c-7,6.1-12.9-4.9-19.8-3.3c-6,3.1-7.8-2.5-9.9-6.3c-2.2,0.4-4.2,1.5-6.1,2.6c-4.4-3.7-10.1-5.1-15.3-7.2
	c-2.7-5.6-10.2-6.1-13.4-11.5c0.2-9.3-6.3-15.9-8.3-24.6C98.4,397,99.9,395.9,101.1,394.6z"/>
<path class="st130" d="M371,403.1c2.2-3.5,5.4-6.1,8.9-8.4C377.7,398.3,374.5,400.9,371,403.1z"/>
<path class="st131" d="M124.2,398.9c1.9,2,3.8,4.1,5.7,6.2c14.8,15.9,30.1,31.6,48.8,43c3.1,3.7,7.8,5.6,11.5,8.8
	c-7-1.6-14.5-2.9-19.9-7.9c-3.3-2.4-7.8-2.8-10.5-5.8c-6.9-9.2-20-12.1-25.2-22.7c-2.1-1.3-2.2-3.7-2.4-5.9
	c-2.9-4.6-6.5-8.6-9.1-13.4C123.4,400.5,123.9,399.4,124.2,398.9z"/>
<path class="st132" d="M143.9,410.9c3.6,1.1,6,4,8.5,6.6c24.6,24.1,55.6,41,88.6,50.3c4.1-0.3,5.2,3.3,6,6.2
	c-16.7-3.9-32.7-10.3-47.8-18.3C179.4,442.8,159.2,429.3,143.9,410.9z"/>
<path class="st133" d="M341.8,421c1.5-2.1,3.8-2.9,6.3-3C346.2,419.3,344,420.3,341.8,421z"/>
<path class="st134" d="M95,418.6c3.1,2.6,6.9,3.7,10.8,4.5c3.2,5.4,10.7,5.9,13.4,11.5c5.1,2.1,10.9,3.6,15.3,7.2
	c0.9,6.8,6.9,11.7,11.8,16.1c-1.3,3.7-7.8,7.3-3.8,11.3c7.6,9.4,17.9,16.8,28.4,22.8c4.5,2.8,8.8,5.8,13.1,8.9
	c-10.3-3.2-18.8-10.6-28-16c-11.2-10.1-23.6-18.9-33.8-30.1c-4.9-7.3-10.4-14.4-16.8-20.3C103.5,428.2,96.1,425.4,95,418.6z"/>
<path class="st135" d="M382.3,449.1c11.1-7,19.2-17.4,28.7-26.2c-6.6,11.7-17.8,19.7-27.2,29c-3,1.6-5.6,3.7-8.3,5.8
	c-30.5,19.4-67.2,29-103.4,26.3l-0.9-0.1c-1.6-1.4-3.2-2.8-4.8-4.3c2.9-0.2,5.7-0.6,8.5-0.9C312.9,481.5,351.6,471.5,382.3,449.1z"
	/>
<path class="st136" d="M326.8,425.9c2.2-1.4,4.7-2,7.3-2C331.9,425.3,329.4,425.9,326.8,425.9z"/>
<path class="st137" d="M265.7,428.2c4.2,0.1,8.3,0.6,12.3,1.8C273.9,429.6,269.7,429.4,265.7,428.2z"/>
<path class="st138" d="M306.9,430c3.7-2,8.2-1.5,12.2-1.9C315.2,429.4,311.1,429.9,306.9,430z"/>
<path class="st139" d="M278.8,430c9.4-0.1,18.7-0.1,28.1,0C297.9,432.4,288,430.8,278.8,430z"/>
<path class="st140" d="M134.5,441.9c1.9-1.2,3.9-2.2,6.1-2.6c2.1,3.8,4,9.5,9.9,6.3c6.9-1.6,12.8,9.5,19.8,3.3
	c5.4,5,12.9,6.3,19.9,7.9c9.5,4.6,18.3,10.5,27.9,15c-5.8,1.5-11.5-0.6-17.3-1.3c-14.8,0.4-28.5-6-42-11.2c-2.8,1.3-4.5,1-6-2
	c-2.1,1-4.3,2.4-6.5,0.7C141.5,453.6,135.4,448.7,134.5,441.9z"/>
<path class="st141" d="M179.2,445.7c6.6,3.4,12.6,8.9,20,10.1c15.1,8,31.1,14.4,47.8,18.3c9.3,2.1,18.6,4,28.1,4.6
	c-2.9,0.3-5.7,0.7-8.5,0.9c-13.3-0.6-26.4-3.4-39.4-5.7c-3.2-0.1-6.1-1.1-9.1-2.2c-9.6-4.5-18.4-10.3-27.9-15
	c-3.7-3.1-8.4-5-11.5-8.8C178.8,447.5,179.1,446.3,179.2,445.7z"/>
<path class="st142" d="M146.3,458c2.2,1.7,4.4,0.3,6.5-0.7c1.4,3,3.2,3.3,6,2c13.5,5.3,27.2,11.6,42,11.2c5.8,0.7,11.5,2.8,17.3,1.3
	c2.9,1.1,5.9,2.1,9.1,2.2c-0.7,4.3-4.4,6.8-8.4,7.8c-8.9-0.1-17.9-1.2-26.8,0c-2.6-1.3-4.2-4.1-7-4.8c-3.2,1.2-5.7,3.6-8.4,5.6
	c-3.9,1.8-5.5-2.8-7.1-5.4c-2,0.5-4,1-6,1.5c-3.3,6.4,4.1,9.3,7.4,13.3c-10.5-5.9-20.8-13.3-28.4-22.8
	C138.6,465.3,145,461.7,146.3,458z"/>
<path class="st143" d="M95.5,473.8c1.1-0.8,2.4-0.7,3.2,0.3c9.6,9,18,20.3,30.5,25.3c6.1-2.1,4,2,4,4.3c6.1,1.3,11.3,5.3,14.1,10.9
	c6.5-3.5,9.5,4.6,15.2,0c-1.2-3-6-5.7-4.3-9.2c2.7-2.3,4.7-5.4,7.5-7.5c3.8,3.3,8.8,3.9,13.1,6c50.5,28.9,112,39.2,168.7,25.8
	c6.4-3.1,14.9-1.9,20.2-7c13.3-6.4,27.7-11.1,40-19.7c8.3-3.9,16.4-8.9,23-15.3c0.5,0.1,1.6,0.4,2.1,0.6
	c-22.8,19.1-49.1,34.6-78,41.9c0.9,2.2,1.7,4.5,1.2,6.9c3.2,0.4,4.5-2.9,6.3-4.9c-0.7,4.5,7.2,4.1,4.7,8.1c-2.4,3.8-4.3-0.3-5.7-2.6
	c-0.3,4.2-1.6,8.4-4.4,11.5c1.8,11.6-12,5.7-17.3,11.7C250.6,576.4,157.4,538.4,95.5,473.8z"/>
<path class="st144" d="M287.1,530.2c56.7,2.1,113.3-20.2,156-57.2c-1.9,5.7-7.9,8.2-11.1,12.9c-8,5.7-16.8,10.5-24.1,17.1
	c-12.3,8.6-26.7,13.3-40,19.7c-36.2,10.6-74.4,12.8-111.5,6.2c-24.8-7.2-50.6-13.3-72.3-27.9c-4.3-3.1-8.7-6.1-13.1-8.9
	c-3.3-4.1-10.7-6.9-7.4-13.3c2-0.5,4-1,6-1.5c1.6,2.6,3.2,7.3,7.1,5.4c2.6-2.1,5.1-4.5,8.4-5.6c2.9,0.7,4.5,3.5,7,4.8
	c8.9-1.2,17.8-0.1,26.8,0c2.9,8.7-8.8,4.4-12.5,9.4c-3.1,2.6-9.7,4.6-7.4,9.8c0.5,4.6,5.2,6.5,9,7.9c9.8,4.8,19.6,9.5,29.9,13
	C254.3,523.7,270.1,530.6,287.1,530.2z"/>
<path class="st145" d="M227.2,474c13.1,2.3,26.1,5.1,39.4,5.7c1.5,1.5,3.1,2.9,4.8,4.3c-6.6,5.8-18.6,11.6-26.1,5.6
	c-2.7,4.1-6.8-1.5-9.8,1.9c-6.4,1.3-13.5,1.3-20.1,1c-4.9,4.2-13.1,2.1-16.5,8.6c-2.3-5.2,4.3-7.3,7.4-9.8
	c3.7-4.9,15.4-0.7,12.5-9.4C222.7,480.8,226.5,478.3,227.2,474z"/>
<path class="st146" d="M407.8,503c7.3-6.6,16.1-11.4,24.1-17.1c-0.3,0.4-0.8,1.3-1.1,1.8C424.2,494.1,416.2,499.1,407.8,503z"/>
</svg>
