<?xml version="1.0" encoding="utf-8"?>
<!-- Generator: Adobe Illustrator 21.0.2, SVG Export Plug-In . SVG Version: 6.00 Build 0)  -->
<svg version="1.1"
	 id="svg3037" inkscape:version="0.48.3.1 r9886" sodipodi:docname="repeat_font_awesome.svg" xmlns:cc="http://creativecommons.org/ns#" xmlns:dc="http://purl.org/dc/elements/1.1/" xmlns:inkscape="http://www.inkscape.org/namespaces/inkscape" xmlns:rdf="http://www.w3.org/1999/02/22-rdf-syntax-ns#" xmlns:sodipodi="http://sodipodi.sourceforge.net/DTD/sodipodi-0.dtd" xmlns:svg="http://www.w3.org/2000/svg"
	 xmlns="http://www.w3.org/2000/svg" xmlns:xlink="http://www.w3.org/1999/xlink" x="0px" y="0px" viewBox="0 0 500 500"
	 style="enable-background:new 0 0 500 500;" xml:space="preserve">
<style type="text/css">
	.st0{fill:#FFFFFF;}
</style>
<sodipodi:namedview  bordercolor="#666666" borderopacity="1" gridtolerance="10" guidetolerance="10" id="namedview3043" inkscape:current-layer="svg3037" inkscape:cx="896" inkscape:cy="896" inkscape:pageopacity="0" inkscape:pageshadow="2" inkscape:window-height="480" inkscape:window-maximized="0" inkscape:window-width="640" inkscape:window-x="0" inkscape:window-y="25" inkscape:zoom="0.13169643" objecttolerance="10" pagecolor="#ffffff" showgrid="false">
	</sodipodi:namedview>
<g id="g3039" transform="matrix(1,0,0,-1,121.49153,1277.8305)">
	<path id="path3041" inkscape:connector-curvature="0" class="st0" d="M341,1207v-125c0-4.8-1.8-9-5.3-12.6s-7.7-5.3-12.6-5.3h-125
		c-7.8,0-13.3,3.7-16.5,11.2c-3.2,7.3-1.9,13.7,3.9,19.3l38.5,38.5c-27.5,25.5-60,38.2-97.4,38.2c-19.3,0-37.8-3.8-55.4-11.3
		c-17.6-7.5-32.8-17.7-45.6-30.6c-12.8-12.8-23-28-30.6-45.6s-11.3-36-11.3-55.4s3.8-37.8,11.3-55.4s17.7-32.8,30.6-45.6
		c12.8-12.8,28-23,45.6-30.6c17.6-7.5,36-11.3,55.4-11.3c31.4,0,59.7,9.3,84.8,27.8c25.1,18.5,42.3,42.8,51.6,73
		c1.3,4.3,4.1,6.4,8.4,6.4H327c3,0,5.3-1.1,7-3.3c1.9-2.4,2.5-4.9,2-7.5c-7.3-32.6-21-61.6-41.2-87.1
		c-20.2-25.5-44.9-45.3-74.2-59.4s-60.6-21.2-93.9-21.2c-29,0-56.7,5.7-83.1,17s-49.2,26.6-68.4,45.8s-34.4,41.9-45.8,68.4
		s-17,54.1-17,83.1c0,29,5.7,56.7,17,83.1s26.6,49.2,45.8,68.4s41.9,34.4,68.4,45.8s54.1,17,83.1,17c27.3,0,53.8-5.2,79.4-15.5
		c25.6-10.3,48.3-24.9,68.2-43.7l36.3,36c5.4,5.8,11.9,7.1,19.5,3.9C337.4,1220.3,341,1214.8,341,1207z"/>
</g>
</svg>
