<?xml version="1.0" encoding="utf-8"?>
<!-- Generator: Adobe Illustrator 21.1.0, SVG Export Plug-In . SVG Version: 6.00 Build 0)  -->
<svg version="1.1" xmlns="http://www.w3.org/2000/svg" xmlns:xlink="http://www.w3.org/1999/xlink" x="0px" y="0px"
	 viewBox="0 0 500 320" style="enable-background:new 0 0 500 320;" xml:space="preserve">
<style type="text/css">
	.st0{clip-path:url(#SVGID_2_);}
	.st1{fill:#FFFFFF;}
	.st2{fill:#333333;}
	.st3{fill:none;stroke:#FFFFFF;stroke-width:4;stroke-linecap:round;stroke-miterlimit:10;stroke-dasharray:4.0277,15.1039;}
	.st4{fill:none;stroke:#FFFFFF;stroke-width:4;stroke-linecap:round;stroke-miterlimit:10;}
	.st5{clip-path:url(#SVGID_2_);fill:none;stroke:#FFFFFF;stroke-width:4;stroke-linecap:round;stroke-miterlimit:10;}
	.st6{fill:#FF7878;}
	.st7{fill:#F74646;}
	.st8{fill:#79CDF2;}
	.st9{fill:#54B4D6;}
	.st10{fill:#89DBB8;}
	.st11{fill:#5DB58D;}
	.st12{fill:#FFF792;}
	.st13{fill:#E8DC6B;}
	.st14{fill:#84D9EF;}
	.st15{fill:#BDEEFF;}
</style>
<g id="Objects">
	<g id="road">
		<defs>
			<rect id="SVGID_1_" y="-42" width="500" height="500"/>
		</defs>
		<clipPath id="SVGID_2_">
			<use xlink:href="#SVGID_1_"  style="overflow:visible;"/>
		</clipPath>
		<g class="st0">
			<path class="st1" d="M173.2,578.9c-5.1,0-9.8-2-13.4-5.6l-17.6-17.6c-0.3-0.3-0.5-0.6-0.7-0.9c-4.8-8.6-3.4-18,2.7-24l78-78
				c1.6-1.6,1.6-4.1,0-5.7l-82.6-82.6c-1.6-1.6-4.1-1.6-5.7,0L8.4,490.1c-3.6,3.6-8.4,5.6-13.4,5.6c-5.1,0-9.8-2-13.4-5.6L-36,472.6
				c-0.3-0.3-0.5-0.5-0.7-0.9c-4.8-8.6-3.4-18,2.7-24l192.8-192.8c1.6-1.6,1.6-4.1,0-5.7L-44,46.4c-6-6-7.5-15.4-2.7-24
				c0.2-0.3,0.4-0.6,0.7-0.9L-26.4,2c0.3-0.3,0.6-0.5,0.9-0.7C-17-3.5-7.6-2-1.5,4l202.8,202.8c1.6,1.6,4.1,1.6,5.7,0l45.1-45.1
				c1.2-1.2,1.5-3,0.8-4.5c-6.5-13.4-9.9-28.3-9.9-43.3c0-15,3.4-29.9,9.9-43.3c0.7-1.5,0.4-3.3-0.8-4.5L137.1-48.8
				c-3.6-3.6-5.6-8.4-5.6-13.4c0-5.1,2-9.8,5.6-13.4l15.6-15.6c3.6-3.6,8.4-5.6,13.4-5.6c5.1,0,9.8,2,13.4,5.6L294.4,23.6
				c1.2,1.2,3,1.5,4.5,0.8c13.4-6.5,28.3-9.9,43.3-9.9c15,0,29.9,3.4,43.3,9.9c1.5,0.7,3.3,0.4,4.5-0.8l80.1-80.1
				c3.6-3.6,8.4-5.6,13.4-5.6l0.4,0l31.7,0.6c2.2,0,3.9,1.8,3.9,4l0.3,34.5c0,1.1-0.4,2.1-1.2,2.9L432.5,66c-1.2,1.2-1.5,3-0.8,4.5
				c6.5,13.4,9.9,28.3,9.9,43.3c0,15-3.4,29.9-9.9,43.3c-0.7,1.5-0.4,3.3,0.8,4.5l114.8,114.8c7.4,7.4,7.4,19.5,0,26.9l-17.6,17.6
				c-0.3,0.3-0.5,0.5-0.9,0.7c-8.6,4.8-18,3.4-24-2.7l-29.1-29.1c-1.6-1.6-4.1-1.6-5.7,0l-33.6,33.6c-1.6,1.6-1.6,4.1,0,5.7
				l194.3,194.3c7.4,7.4,7.4,19.5,0,26.9l-15.6,15.6c-3.6,3.6-8.4,5.6-13.4,5.6s-9.8-2-13.4-5.6L394.1,371.5c-1.6-1.6-4.1-1.6-5.7,0
				l-75.6,75.6c-1.6,1.6-1.6,4.1,0,5.7l70.6,70.6c7.4,7.4,7.4,19.5,0,26.9l-15.6,15.6c-3.6,3.6-8.4,5.6-13.4,5.6
				c-5.1,0-9.8-2-13.4-5.6l-70.6-70.6c-1.6-1.6-4.1-1.6-5.7,0l-78,78C183.1,576.9,178.3,578.9,173.2,578.9z M270.3,404.8
				l157.4-157.4c1.6-1.6,1.6-4.1,0-5.7l-37.6-37.6c-1.2-1.2-3-1.5-4.5-0.8c-13.4,6.5-28.3,9.9-43.3,9.9c-15,0-29.9-3.4-43.3-9.9
				c-1.5-0.7-3.3-0.4-4.5,0.8L182,316.5c-1.6,1.6-1.6,4.1,0,5.7l82.6,82.6C266.2,406.3,268.8,406.3,270.3,404.8z M370.6,84.7
				c-41.7-31.4-88.9,15.8-57.5,57.5c0.2,0.3,0.5,0.6,0.8,0.8c41.7,31.4,88.9-15.8,57.5-57.5C371.2,85.2,370.9,84.9,370.6,84.7z"/>
			<path class="st2" d="M623.7,530.5L425.9,332.7c-3.5-3.5-3.5-9.2,0-12.7l40.7-40.7c3.5-3.5,9.2-3.5,12.7,0l32.6,32.6
				c3.5,3.5,9.2,3.5,12.7,0l15.6-15.6c3.5-3.5,3.5-9.2,0-12.7L422.9,166.2c-2.8-2.8-3.4-7.1-1.6-10.6c6.6-12.5,10.3-26.7,10.3-41.7
				s-3.7-29.3-10.3-41.7c-1.9-3.5-1.2-7.8,1.6-10.6l84.3-84.3c1.7-1.7,2.7-4,2.6-6.4l-0.1-13.6c0-4.9-4-8.8-8.8-8.9l-17-0.3
				c-2.4,0-4.8,0.9-6.5,2.6l-82.7,82.7c-2.8,2.8-7.1,3.4-10.6,1.6c-12.5-6.6-26.7-10.3-41.7-10.3c-15.1,0-29.3,3.7-41.7,10.3
				c-3.5,1.9-7.8,1.2-10.6-1.6L172.5-84.2c-3.5-3.5-9.2-3.5-12.7,0l-15.6,15.6c-3.5,3.5-3.5,9.2,0,12.7L261.6,61.5
				c2.8,2.8,3.4,7.1,1.6,10.6c-6.6,12.5-10.3,26.7-10.3,41.7s3.7,29.3,10.3,41.7c1.9,3.5,1.2,7.8-1.6,10.6l-51.2,51.2
				c-3.5,3.5-9.2,3.5-12.7,0L-8.6,11.1c-3.5-3.5-9.2-3.5-12.7,0l-15.6,15.6c-3.5,3.5-3.5,9.2,0,12.7l206.3,206.3
				c3.5,3.5,3.5,9.2,0,12.7L-27,454.8c-3.5,3.5-3.5,9.2,0,12.7l15.6,15.6c3.5,3.5,9.2,3.5,12.7,0L130.4,354c3.5-3.5,9.2-3.5,12.7,0
				l89.7,89.7c3.5,3.5,3.5,9.2,0,12.7l-81.6,81.6c-3.5,3.5-3.5,9.2,0,12.7l15.6,15.6c3.5,3.5,9.2,3.5,12.7,0l81.6-81.6
				c3.5-3.5,9.2-3.5,12.7,0l74.1,74.1c3.5,3.5,9.2,3.5,12.7,0l15.6-15.6c3.5-3.5,3.5-9.2,0-12.7l-74.1-74.1c-3.5-3.5-3.5-9.2,0-12.7
				l82.7-82.7c3.5-3.5,9.2-3.5,12.7,0l197.8,197.8c3.5,3.5,9.2,3.5,12.7,0l15.6-15.6C627.2,539.7,627.2,534,623.7,530.5z
				 M342.2,64.5c27.3,0,49.4,22.1,49.4,49.4c0,27.3-22.1,49.4-49.4,49.4c-27.3,0-49.4-22.1-49.4-49.4
				C292.8,86.6,315,64.5,342.2,64.5z M273.9,415.4c-3.5,3.5-9.2,3.5-12.7,0l-89.7-89.7c-3.5-3.5-3.5-9.2,0-12.7l118.4-118.4
				c2.8-2.8,7.1-3.4,10.6-1.6c12.5,6.6,26.7,10.3,41.7,10.3c15.1,0,29.3-3.7,41.7-10.3c3.5-1.9,7.8-1.2,10.6,1.6l43.7,43.7
				c3.5,3.5,3.5,9.2,0,12.7L273.9,415.4z"/>
			<line class="st3" x1="-26.9" y1="483" x2="265.3" y2="190.8"/>
			<line class="st3" x1="424.1" y1="32.8" x2="716.4" y2="-259.5"/>
			<line class="st3" x1="287" y1="430.5" x2="445.1" y2="272.4"/>
			<line class="st3" x1="421.5" y1="193.1" x2="536.9" y2="308.5"/>
			<line class="st3" x1="147.7" y1="-80.6" x2="263.1" y2="34.7"/>
			<line class="st3" x1="-21.3" y1="26.7" x2="175.3" y2="223.3"/>
			<line class="st4" x1="262.9" y1="178.1" x2="278" y2="193.2"/>
			<line class="st4" x1="404.6" y1="36.5" x2="419.6" y2="51.5"/>
			<line class="st4" x1="279.5" y1="36.1" x2="264.4" y2="51.1"/>
			<line class="st4" x1="419.3" y1="175.8" x2="404.2" y2="190.9"/>
			<line class="st4" x1="190.4" y1="223.3" x2="175.3" y2="238.3"/>
			
				<ellipse transform="matrix(0.7071 -0.7071 0.7071 0.7071 19.7228 275.3473)" class="st3" cx="342.2" cy="113.9" rx="70.4" ry="70.4"/>
		</g>
		<line class="st5" x1="443.8" y1="258.6" x2="458.9" y2="273.7"/>
	</g>
	<g id="cars">
		<g>
			<path class="st6" d="M167.6,304.1L167.6,304.1c-2.3-2.3-2.3-6.2,0-8.5l8.2-8.2c2.3-2.3,6.2-2.3,8.5,0l0,0c2.3,2.3,2.3,6.2,0,8.5
				l-8.2,8.2C173.8,306.4,170,306.4,167.6,304.1z"/>
			
				<rect x="170.8" y="289.7" transform="matrix(0.7071 -0.7071 0.7071 0.7071 -157.5787 211.0445)" class="st7" width="10.4" height="12"/>
		</g>
		<g>
			<path class="st8" d="M226.1,214.5L226.1,214.5c-2.3-2.3-2.3-6.2,0-8.5l8.2-8.2c2.3-2.3,6.2-2.3,8.5,0l0,0c2.3,2.3,2.3,6.2,0,8.5
				l-8.2,8.2C232.3,216.8,228.5,216.8,226.1,214.5z"/>
			
				<rect x="229.3" y="200.1" transform="matrix(0.7071 -0.7071 0.7071 0.7071 -77.0858 226.155)" class="st9" width="10.4" height="12"/>
		</g>
		<g>
			<path class="st10" d="M433,301.6L433,301.6c-2.3-2.3-2.3-6.2,0-8.5l8.2-8.2c2.3-2.3,6.2-2.3,8.5,0l0,0c2.3,2.3,2.3,6.2,0,8.5
				l-8.2,8.2C439.1,303.9,435.3,303.9,433,301.6z"/>
			
				<rect x="436.1" y="287.3" transform="matrix(0.7071 -0.7071 0.7071 0.7071 -78.1185 397.937)" class="st11" width="10.4" height="12"/>
		</g>
		<g>
			<path class="st8" d="M257,13.4L257,13.4c2.3-2.3,6.2-2.3,8.5,0l8.2,8.2c2.3,2.3,2.3,6.2,0,8.5l0,0c-2.3,2.3-6.2,2.3-8.5,0
				l-8.2-8.2C254.7,19.5,254.7,15.7,257,13.4z"/>
			
				<rect x="259.3" y="16.5" transform="matrix(0.7071 -0.7071 0.7071 0.7071 62.3782 193.982)" class="st9" width="12" height="10.4"/>
		</g>
		<g>
			<path class="st10" d="M26.5,88.8L26.5,88.8c2.3-2.3,6.2-2.3,8.5,0l8.2,8.2c2.3,2.3,2.3,6.2,0,8.5l0,0c-2.3,2.3-6.2,2.3-8.5,0
				l-8.2-8.2C24.2,95,24.2,91.1,26.5,88.8z"/>
			
				<rect x="28.8" y="91.9" transform="matrix(0.7071 -0.7071 0.7071 0.7071 -58.4801 53.0907)" class="st11" width="12" height="10.4"/>
		</g>
		<g>
			<path class="st6" d="M329.1,173.3L329.1,173.3c0-3.3,2.7-6,6-6h11.6c3.3,0,6,2.7,6,6l0,0c0,3.3-2.7,6-6,6h-11.6
				C331.8,179.3,329.1,176.6,329.1,173.3z"/>
			<rect x="335.7" y="167.3" class="st7" width="10.4" height="12"/>
		</g>
		<g>
			<path class="st12" d="M418.8,85.7L418.8,85.7c3.2-0.8,6.5,1.2,7.2,4.4l2.7,11.2c0.8,3.2-1.2,6.5-4.4,7.2l0,0
				c-3.2,0.8-6.5-1.2-7.2-4.4l-2.7-11.2C413.6,89.7,415.5,86.5,418.8,85.7z"/>
			
				<rect x="415.5" y="91.9" transform="matrix(0.9722 -0.234 0.234 0.9722 -11.0276 101.3271)" class="st13" width="12" height="10.4"/>
		</g>
	</g>
	<g id="fountain">
		<circle class="st14" cx="342.2" cy="113.9" r="26.1"/>
		<path class="st15" d="M342.2,129.9c-8.9,0-16.1-7.2-16.1-16.1c0-8.9,7.2-16.1,16.1-16.1c8.9,0,16.1,7.2,16.1,16.1
			C358.3,122.7,351.1,129.9,342.2,129.9z"/>
	</g>
</g>
<g id="Designed_by_freepik">
</g>
</svg>
