<?xml version="1.0" encoding="utf-8"?>
<!-- Generator: Adobe Illustrator 21.1.0, SVG Export Plug-In . SVG Version: 6.00 Build 0)  -->
<svg version="1.1" id="_x31__1_" xmlns="http://www.w3.org/2000/svg" xmlns:xlink="http://www.w3.org/1999/xlink" x="0px" y="0px"
	 viewBox="0 0 130.9 359.8" style="enable-background:new 0 0 130.9 359.8;" xml:space="preserve">
<style type="text/css">
	.st0{fill:#B2B2AB;}
	.st1{fill:#E6DDC6;}
	.st2{fill:#343830;}
	.st3{fill:#5C7789;}
	.st4{opacity:0.59;}
	.st5{fill:#3B4D59;}
	
		.st6{fill:none;stroke:#7899B2;stroke-width:0.8611;stroke-linecap:round;stroke-linejoin:round;stroke-miterlimit:10;stroke-dasharray:4.3057,4.3057;}
	.st7{fill:#6D8CA2;}
	.st8{fill:#556E80;}
	.st9{opacity:0.48;}
	.st10{fill:#435663;}
	.st11{fill:#2D3752;}
	.st12{fill:#AA7E5E;}
	.st13{opacity:0.33;}
	.st14{fill:#816047;}
	.st15{opacity:0.47;}
	.st16{opacity:0.31;fill:#D89F77;enable-background:new    ;}
	.st17{fill:#415461;}
	
		.st18{fill:none;stroke:#435663;stroke-width:0.8611;stroke-linecap:round;stroke-linejoin:round;stroke-miterlimit:10;stroke-dasharray:4.3057,4.3057;}
	
		.st19{fill:none;stroke:#435663;stroke-width:1.2917;stroke-linecap:round;stroke-linejoin:round;stroke-miterlimit:10;stroke-dasharray:4.3057,4.3057;}
	.st20{opacity:0.58;}
	.st21{fill:none;}
	.st22{fill:#D1CDC5;}
	.st23{fill:#474643;}
	.st24{opacity:0.39;}
	.st25{fill:#4F3820;}
	.st26{opacity:0.61;}
	.st27{opacity:0.61;fill:#5C7789;enable-background:new    ;}
	.st28{opacity:0.29;}
	.st29{fill:#FFFFFF;}
	.st30{opacity:5.000000e-02;}
</style>
<g>
	<path class="st0" d="M114.5,58.3c8.2,41.5-0.9,82-0.9,82S95,242.6,92.7,270.5c-2.3,27.9-4.4,51-11.7,65
		c-7.4,13.9-27.5,25.6-45.5,22.2c-9.3-1.8-21-10.9-26.9-24.7C3,319.9,3,302.2,3.1,293.2c0.2-18.5-1.2-62.7-2.8-78.3
		s2.6-79.5,6.5-104.3c3.9-24.8,18.7-62.5,24.7-70.7s22.3-27.7,39-26.6S106.3,16.8,114.5,58.3z"/>
	<path class="st1" d="M116.4,58.9c8.2,41.5-0.9,82-0.9,82S96.9,243.1,94.6,271.1c-2.3,27.9-4.4,51-11.7,65
		c-7.4,13.9-27.5,25.6-45.5,22.2c-9.3-1.8-21-10.9-26.9-24.7c-5.6-13.1-5.6-30.8-5.5-39.8c0.2-18.5-1.2-62.7-2.8-78.3
		C0.6,199.9,4.8,136,8.7,111.2c3.9-24.8,18.7-62.5,24.7-70.7s22.3-27.7,39-26.6S108.3,17.3,116.4,58.9z"/>
	<g>
		<path class="st2" d="M7.8,288.2c0,3,0,5.6,0,7.9c-0.2,9-1.1,27.6,4.5,40.7c5.9,13.9,17.8,21.5,27,23.3c18,3.4,39.1-6.7,46.5-20.7
			c7.9-15.8,10.9-44.2,7.4-47.4c-3.5-3.3-29,40.3-47.3,40.6C26.9,332.9,14,305.6,7.8,288.2z"/>
	</g>
	<path class="st0" d="M105.6,206.8c8.4-17.7,28.1-97.8,25-134.5C129.8,37.1,113.2,5,85.7,3.2C58.3,1.4,41.5,16.7,22.5,46
		c-15.6,23.9-20,62-21.1,70.2c-2.4,18.2,2.8,91.3,2.8,91.3"/>
	<path class="st1" d="M106.5,200.3c8.2-17.2,25.1-91.3,22.1-126.9c-0.8-34.2-16.9-65.3-43.5-67.1C58.5,4.6,42.3,19.5,23.8,47.9
		C8.8,71,4.4,108,3.4,115.9c-2.3,17.7,2.7,88.5,2.7,88.5"/>
	<path class="st3" d="M118.8,58.5c8.2,41.5-0.9,82-0.9,82S99.3,242.8,97,270.8c-2.3,27.9-4.4,51-11.7,65
		c-7.4,13.9-27.5,25.6-45.5,22.2c-9.3-1.8-21-10.9-26.9-24.7c-5.6-13.1-5.6-30.8-5.5-39.8c0.2-18.5-1.2-62.7-2.8-78.3
		s2.6-79.5,6.5-104.3C15,86.1,29.8,48.4,35.8,40.2s22.3-27.7,39-26.6S110.6,16.9,118.8,58.5z"/>
	<g class="st4">
		<path class="st5" d="M56.8,356.8c9-6.8,17-20.1,22.9-31c3.8-7,9.1-13.4,12.8-17.5c0.4-0.5,0.4-1.2-0.1-1.6s-1.2-0.4-1.6,0.1
			c-3.8,4.2-9.2,10.8-13.1,18c-5.9,10.7-13.6,23.8-22.3,30.3c-0.5,0.4-0.6,1.1-0.2,1.6c0.2,0.2,0.4,0.4,0.7,0.4
			C56.2,357.2,56.5,357.1,56.8,356.8z"/>
	</g>
	<path class="st6" d="M56.8,357.1c9.1-6.8,17.2-20.6,22.6-30.6c3.9-7,9.1-13.4,13-17.7"/>
	<path class="st7" d="M64.1,99.9c-1.7,0-3.6-0.1-5.7-0.1c-8.2,29.1-17,75.3-20.9,80.8c-5.9,8.3-19.9,33-23.8,51.8
		c-3.9,18.8,7,111.1,13.8,116.9c7,7.7,21,8.9,29.2,3.1c8.9-6.3,40.7-70.3,39.3-101.5c-1.4-30-13.7-57-18-68
		c-2.9-7.4-1-52.6-2.5-81.8C71.8,100.4,68,100,64.1,99.9z M41.4,188.9c4.9-6.8,24.1-87.6,26.3-87.5c2.2,0.1,1.1,81.2,4.7,90.3
		c3.6,9.2,17.6,32,18.8,56.9c1.2,25.9-28.6,91.6-36,96.8c-6.8,4.8-18.4,3.8-24.3-2.6c-5.6-4.8-14-96.1-10.7-111.7
		C23.4,215.4,36.6,195.8,41.4,188.9z"/>
	<path class="st8" d="M75,213.9c4.1,0.1,6.1-0.7,7-1.5c-3.8-9.1-7.8-16.4-9.5-20.7c-3.6-9.1-2.5-90.2-4.7-90.3
		c-2.2-0.2-21.4,80.7-26.3,87.5c-2.7,3.8-8,11.6-12.7,20.4C35.2,212.4,67,213.6,75,213.9z"/>
	<g>
		<path class="st7" d="M31,205.3c-0.7,1.3-1.5,2.6-2.2,4c6.4,3.1,38.2,4.3,46.2,4.6c4.1,0.1,6.1-0.7,7-1.5c-0.5-1.3-1.1-2.5-1.6-3.7
			c-1.1,0.4-2.8,0.6-5.1,0.5C67.9,208.9,40.2,207.9,31,205.3z"/>
	</g>
	<g class="st9">
		<path class="st10" d="M69.7,193.9c1.6,4.2,5.4,11.1,9.1,19.7c1.6-0.2,2.5-0.7,3.1-1.2c-3.8-9.1-7.8-16.4-9.5-20.7
			c-3.6-9.1-2.5-90.2-4.7-90.3c-0.3,0-1,1.8-2,4.9C67.2,120.1,66.6,185.8,69.7,193.9z"/>
		<g>
			<path class="st10" d="M43.8,191.1c4.3-6.1,19.6-69.1,24.8-84.3c-0.2-3.4-0.5-5.4-0.8-5.4c-2.2-0.2-21.4,80.7-26.3,87.5
				c-2.7,3.8-8,11.6-12.7,20.4c0.7,0.4,1.8,0.7,3,1C36.3,201.9,41.2,194.7,43.8,191.1z"/>
		</g>
	</g>
	<path class="st11" d="M30.9,342.7c5.9,6.4,17.5,7.4,24.3,2.6c7.3-5.2,37.2-70.9,36-96.8c-0.6-13.2-4.8-25.8-9.2-36.1
		c-0.9,0.9-2.9,1.7-7,1.5c-8-0.3-39.8-1.5-46.2-4.6c-3.7,7.1-7.2,14.9-8.6,21.8C16.9,246.7,25.3,338,30.9,342.7z"/>
	<path class="st12" d="M30.9,342.7c5.9,6.4,17.5,7.4,24.3,2.6c7.3-5.2,37.2-70.9,36-96.8c-0.6-13.2-4.8-25.8-9.2-36.1
		c-0.9,0.9-2.9,1.7-7,1.5c-8-0.3-39.8-1.5-46.2-4.6c-3.7,7.1-7.2,14.9-8.6,21.8C16.9,246.7,25.3,338,30.9,342.7z"/>
	<g class="st13">
		<path class="st14" d="M80.9,219.2c1.3-0.5,2.5-0.8,3.5-0.9c-0.8-2-1.6-4-2.4-5.9c-0.9,0.9-2.9,1.7-7,1.5c-8-0.3-39.8-1.5-46.2-4.6
			c-1.3,2.4-2.5,4.8-3.6,7.2C39.1,221.1,70.3,222.9,80.9,219.2z"/>
	</g>
	<g class="st15">
		<path class="st14" d="M25.1,317.1c1.8,13.8,3.9,24.2,5.7,25.7c5.9,6.4,17.5,7.4,24.3,2.6c2.6-1.8,7.9-11,13.7-23.3
			c-5.8,4.8-15,10.8-23.9,10.5C36.8,332.3,29.8,324.3,25.1,317.1z"/>
	</g>
	<path class="st16" d="M36.1,331.5c5.4,5.6,15.4,1.8,21.4-2.5c8.3-6,24.3-54.3,25.8-69.5c1.5-15.3-4-30-19-34.9s-34.1,0.7-36.9,12.9
		s0.4,47,1.7,64.4C29.8,310.6,30.6,325.8,36.1,331.5z"/>
	<g>
		<path class="st2" d="M118.7,112.3c-0.3,8.7-0.2,18.5-0.1,25.1c1.9-10.2,7.1-44.2,0.3-79c-8.2-41.6-24-45.8-40.7-46.9
			c-17.1-1.3-37.4,19.7-42.3,28.6c-2.5,4.6-9.1,16.2-14.2,29.9c-5,13.4-8.6,28.6-10.5,40.9c-2.6,16.7-5.4,51-6.4,76.4
			c2.9-15,5.8-52.9,7.8-69.6C15,97.8,22.9,72,31.2,54.4s24.2-37.9,45.3-38.7c22.3-0.4,30.5,14,35.8,29.2
			C117.6,60,119.2,97.6,118.7,112.3z"/>
	</g>
	<path class="st17" d="M5.4,210.2c-0.2-0.1-0.4-0.3-0.3-0.5c0,0,0.2-1,0.7-2.8c0.5-1.8,1.1-4.5,1.9-7.9c1.5-6.8,3.4-16.6,5-28.5
		c0.7-5.9,1.4-12.4,1.7-19.2c0.1-1.7,0.2-3.4,0.3-5.2c0.1-1.8,0.2-3.6,0.4-5.4c0.4-3.6,1-7.3,1.8-11c0.9-3.7,2-7.5,3.5-11.1
		c1.6-3.6,3.6-7.2,6.4-10.2l1.1-1.1l0.3-0.3l0.1-0.1l0.1-0.1l0.1-0.1l0.6-0.5l1.2-0.9l1.3-0.9c1.7-1.2,3.6-2,5.5-2.8
		c3.9-1.4,8-2.2,12-2.6c4.1-0.4,8.1-0.4,12.1-0.3l3,0.1l3,0.1c2,0.2,4,0.4,6,0.7c7.8,1.2,15.5,3.4,22.3,6.8c0.8,0.5,1.7,0.9,2.5,1.4
		l1.2,0.7l1.2,0.8c1.6,1,3,2.2,4.3,3.7l0.5,0.6c0.1,0.1,0.2,0.1,0.3,0.3l0.2,0.3c0.2,0.4,0.5,0.7,0.7,1.2c0.5,0.9,0.9,1.7,1.2,2.6
		c0.6,1.8,1,3.5,1.4,5.2c0.7,3.4,1.1,6.8,1.4,10c0.3,3.3,0.4,6.4,0.5,9.4c0.2,6,0.1,11.5,0,16.4c-0.1,4.9-0.3,9.1-0.4,12.6
		c-0.3,7-0.4,11-0.4,11l0,0c0,0.2-0.2,0.4-0.4,0.4c-0.2,0-0.4-0.2-0.4-0.4c0,0,0-4,0.1-11s0.3-17-0.1-28.9c-0.1-3-0.3-6.1-0.6-9.3
		c-0.3-3.2-0.8-6.5-1.5-9.8c-0.3-1.7-0.8-3.3-1.4-4.9c-0.3-0.8-0.6-1.6-1-2.3c-0.2-0.3-0.5-0.7-0.7-1.1l-0.2-0.3l0.1-0.2l-0.4-0.5
		l-0.4-0.5l-0.5-0.4c-0.4-0.3-0.7-0.6-1-0.9c-0.7-0.6-1.3-1.1-2.1-1.6l-1.1-0.7l-1.2-0.7c-0.8-0.5-1.6-0.9-2.4-1.3
		c-6.6-3.2-14-5.4-21.7-6.5c-1.9-0.3-3.9-0.4-5.8-0.6l-3-0.1l-3-0.1c-3.9-0.1-7.9-0.1-11.8,0.3s-7.8,1.2-11.4,2.5
		c-1.8,0.7-3.5,1.5-5.1,2.5l-1.2,0.7l-1.2,0.9l-0.6,0.5l-0.1,0.1l-0.1,0.1l-0.3,0.2l-1,1c-2.6,2.7-4.5,6.1-6,9.5
		c-1.5,3.5-2.6,7.1-3.4,10.7c-0.8,3.6-1.4,7.2-1.8,10.8c-0.2,1.8-0.4,3.6-0.5,5.3c-0.1,1.7-0.2,3.5-0.3,5.2
		c-0.4,6.9-1.2,13.3-2,19.3s-1.8,11.4-2.8,16.2s-2,8.9-2.8,12.3c-0.9,3.4-1.6,6.1-2.1,7.9s-0.8,2.8-0.8,2.8
		C6,209.9,5.8,210,5.4,210.2z"/>
	<path class="st18" d="M112.4,170.1c0-22,0.3-50.3-6.4-59.6c-4.8-6.8-24.2-12.8-42.1-13.2c-9-0.2-24.9-1.1-35,7.7
		c-9,8-14.9,24.5-15.7,41.2c-0.9,21.2-4.9,40.8-7.9,53.2"/>
	<path class="st19" d="M114.3,160.4c-0.5-21.1-1.4-46.8-7.8-55.7C101.6,98,82.3,92,64.2,91.5c-9-0.2-24.9-1.1-35,7.7
		c-9,8-16.2,24.4-17,41.2c-0.7,17.1-3.4,33.1-5.9,45"/>
	<g class="st20">
		<path class="st5" d="M26.7,350.8c0.6-0.3,0.8-1,0.5-1.5c-5.9-11-11.3-30.4-12.3-36.2c-0.8-4.2-2.9-10.7-4.6-15.5
			c-0.2-0.6-0.8-0.9-1.4-0.7c-0.6,0.2-0.9,0.8-0.7,1.4c1.7,4.7,3.8,11.1,4.5,15.1c0.9,5.5,6.2,25.1,12.5,36.9
			c0.2,0.3,0.5,0.5,0.8,0.6C26.2,350.9,26.5,350.9,26.7,350.8z"/>
	</g>
	<path class="st6" d="M24.9,349.9c-6.1-11.3-11.4-30.9-12.4-36.5c-0.7-4.1-2.8-10.5-4.5-15.3"/>
	<g>
		<path class="st21" d="M41.6,189c-4.9,6.8-18,26.5-21.3,42.1S25.4,338,31,342.8c5.9,6.4,17.5,7.4,24.3,2.6
			c7.3-5.2,37.2-70.9,36-96.8c-1.2-24.9-15.2-47.8-18.8-56.9s-2.5-90.2-4.7-90.3C65.5,101.2,46.4,182.1,41.6,189z"/>
	</g>
	<ellipse transform="matrix(0.403 -0.9152 0.9152 0.403 -55.6375 151.2866)" class="st22" cx="88.1" cy="118.3" rx="4.3" ry="6"/>
	<ellipse transform="matrix(0.403 -0.9152 0.9152 0.403 -55.6377 151.2876)" class="st23" cx="88.1" cy="118.3" rx="2.5" ry="3.6"/>
	<ellipse transform="matrix(0.403 -0.9152 0.9152 0.403 -70.7167 161.9935)" class="st22" cx="88.8" cy="135.2" rx="4.1" ry="5.4"/>
	<ellipse transform="matrix(0.403 -0.9152 0.9152 0.403 -70.7167 161.9935)" class="st23" cx="88.8" cy="135.2" rx="2.4" ry="3.2"/>
	<ellipse transform="matrix(0.403 -0.9152 0.9152 0.403 -85.6352 171.3391)" class="st22" cx="88.5" cy="151.3" rx="4.1" ry="5.4"/>
	<ellipse transform="matrix(0.403 -0.9152 0.9152 0.403 -85.6353 171.339)" class="st23" cx="88.5" cy="151.3" rx="2.4" ry="3.2"/>
	
		<ellipse transform="matrix(0.5289 -0.8487 0.8487 0.5289 -101.9462 156.2016)" class="st22" cx="89.7" cy="169.9" rx="4.1" ry="5.4"/>
	
		<ellipse transform="matrix(0.5289 -0.8487 0.8487 0.5289 -101.9463 156.2022)" class="st23" cx="89.7" cy="169.9" rx="2.4" ry="3.2"/>
	<ellipse transform="matrix(0.703 -0.7112 0.7112 0.703 -107.2522 119.177)" class="st22" cx="89.1" cy="188" rx="4.1" ry="5.4"/>
	<ellipse transform="matrix(0.703 -0.7112 0.7112 0.703 -107.2522 119.1769)" class="st23" cx="89.1" cy="188" rx="2.4" ry="3.2"/>
	<ellipse transform="matrix(0.9601 -0.2798 0.2798 0.9601 -30.2138 16.289)" class="st22" cx="41.9" cy="114" rx="6" ry="4.3"/>
	<ellipse transform="matrix(0.9601 -0.2798 0.2798 0.9601 -30.2136 16.2891)" class="st23" cx="41.9" cy="114" rx="3.6" ry="2.5"/>
	
		<ellipse transform="matrix(0.9601 -0.2798 0.2798 0.9601 -34.8211 15.6628)" class="st22" cx="37.5" cy="129.8" rx="5.4" ry="4.1"/>
	<ellipse transform="matrix(0.9601 -0.2798 0.2798 0.9601 -34.826 15.6689)" class="st23" cx="37.5" cy="129.8" rx="3.2" ry="2.4"/>
	
		<ellipse transform="matrix(0.9601 -0.2798 0.2798 0.9601 -39.7022 15.3506)" class="st22" cx="33.9" cy="146.7" rx="5.4" ry="4.1"/>
	
		<ellipse transform="matrix(0.9601 -0.2798 0.2798 0.9601 -39.7027 15.3505)" class="st23" cx="33.9" cy="146.7" rx="3.2" ry="2.4"/>
	<ellipse transform="matrix(0.9106 -0.4134 0.4134 0.9106 -65.056 27.4001)" class="st22" cx="30.8" cy="164" rx="5.4" ry="4.1"/>
	<ellipse transform="matrix(0.9106 -0.4134 0.4134 0.9106 -65.0557 27.4001)" class="st23" cx="30.8" cy="164" rx="3.2" ry="2.4"/>
	<ellipse transform="matrix(0.797 -0.6039 0.6039 0.797 -104.0655 54.47)" class="st22" cx="29" cy="182.1" rx="5.4" ry="4.1"/>
	<ellipse transform="matrix(0.797 -0.6039 0.6039 0.797 -104.0673 54.4709)" class="st23" cx="29" cy="182.1" rx="3.2" ry="2.4"/>
	<g class="st24">
		<g>
			<path class="st25" d="M87.4,121.2c-2.5-4.1-16.3-5.2-23.7-5.8c-1.9-0.1-3.5-0.2-4.9-0.4c-7.1-0.8-16.7,1.9-16.8,1.9
				c-1.1,0.3-2.2-0.3-2.5-1.4c-0.3-1.1,0.3-2.2,1.4-2.5c0.5-0.2,10.5-3,18.4-2.1c1.3,0.1,2.9,0.2,4.8,0.4c12.2,1,23.5,2.3,26.8,7.7
				c0.6,1,0.3,2.2-0.7,2.8c-0.4,0.2-0.8,0.3-1.2,0.3C88.4,122,87.8,121.7,87.4,121.2z"/>
		</g>
		<g>
			<path class="st25" d="M86.3,137.7c-2.5-4.1-16.3-5.2-23.7-5.8c-1.9-0.1-3.5-0.2-4.9-0.4c-7.5-0.9-17.3,0.3-18.8,1.5
				c-0.7,0.8-1.9,0.9-2.8,0.3s-1.1-1.9-0.4-2.8c2.5-3.3,16.2-3.7,22.5-3c1.3,0.1,2.9,0.2,4.8,0.4c12.2,1,23.5,2.3,26.8,7.7
				c0.6,1,0.3,2.2-0.7,2.8c-0.4,0.2-0.8,0.3-1.2,0.3C87.3,138.7,86.7,138.3,86.3,137.7z"/>
		</g>
		<g>
			<path class="st25" d="M86.6,153.9c-2.5-4-17-5.2-24.7-5.8c-2-0.2-3.7-0.3-5.1-0.5c-7.3-0.9-18.9,1.1-20.5,2.4
				c-0.7,0.8-1.9,0.9-2.8,0.3s-1.1-1.9-0.4-2.8c2.4-3.4,17.7-4.7,24.1-4c1.3,0.1,3,0.2,4.9,0.4c12.8,1.1,24.5,2.4,27.8,7.8
				c0.6,1,0.3,2.2-0.7,2.8c-0.4,0.2-0.8,0.3-1.2,0.3C87.3,154.8,86.7,154.5,86.6,153.9z"/>
		</g>
		<g>
			<path class="st25" d="M88.5,172c-2.7-4.4-18.6-6-26.2-6.7c-1.3-0.2-2.5-0.3-3.5-0.4c-7.5-0.9-24.4,1.1-26.7,2.4
				c-0.7,0.7-1.9,0.8-2.7,0.2c-0.9-0.6-1.1-1.9-0.4-2.8c2.6-3.4,24.6-4.5,30.3-3.8c1,0.2,2.2,0.3,3.5,0.4c12.9,1.3,25.8,3,29.2,8.6
				c0.6,1,0.3,2.2-0.7,2.8c-0.4,0.2-0.8,0.3-1.2,0.3C89.5,172.9,88.9,172.6,88.5,172z"/>
		</g>
		<g>
			<path class="st25" d="M88.2,191c-2.1-3.4-12-6.1-29.4-8.1h-0.2c-7.2-0.9-25.3,0.9-27.8,2.3c-0.7,0.7-1.9,0.8-2.7,0.2
				c-0.9-0.6-1.1-1.9-0.4-2.8c0.5-0.7,1.6-2.2,13.9-3.4c7-0.7,13.8-0.8,17.5-0.4h0.2c13.9,1.6,28.7,4,32.4,10c0.6,1,0.3,2.2-0.7,2.8
				c-0.4,0.2-0.8,0.3-1.2,0.3C89.2,191.8,88.6,191.5,88.2,191z"/>
		</g>
	</g>
	<g>
		<g>
			<path class="st1" d="M87.6,119.2c-2.5-4.1-16.3-5.2-23.7-5.8c-1.9-0.1-3.5-0.2-4.9-0.4c-7.1-0.8-16.7,1.9-16.8,1.9
				c-1.1,0.3-2.2-0.3-2.5-1.4c-0.3-1.1,0.3-2.2,1.4-2.5c0.5-0.2,10.5-3,18.4-2.1c1.3,0.1,2.9,0.2,4.8,0.4c12.2,1,23.5,2.3,26.8,7.7
				c0.6,1,0.3,2.2-0.7,2.8c-0.4,0.2-0.8,0.3-1.2,0.3C88.5,120.1,87.9,119.7,87.6,119.2z"/>
		</g>
		<g>
			<path class="st1" d="M86.5,135.7c-2.5-4.1-16.3-5.2-23.7-5.8c-1.9-0.1-3.5-0.2-4.9-0.4c-7.5-0.9-17.3,0.3-18.8,1.5
				c-0.7,0.8-1.9,0.9-2.8,0.3s-1.1-1.9-0.4-2.8c2.5-3.3,16.2-3.7,22.5-3c1.3,0.1,2.9,0.2,4.8,0.4c12.2,1,23.5,2.3,26.8,7.7
				c0.6,1,0.3,2.2-0.7,2.8c-0.4,0.2-0.8,0.3-1.2,0.3C87.4,136.7,86.8,136.3,86.5,135.7z"/>
		</g>
		<g>
			<path class="st1" d="M86.7,152c-2.5-4-17-5.2-24.7-5.8c-2-0.2-3.7-0.3-5.1-0.5c-7.3-0.9-18.9,1.1-20.5,2.4
				c-0.7,0.8-1.9,0.9-2.8,0.3s-1.1-1.9-0.4-2.8c2.4-3.4,17.7-4.7,24.1-4c1.3,0.1,3,0.2,4.9,0.4c12.8,1.1,24.5,2.4,27.8,7.8
				c0.6,1,0.3,2.2-0.7,2.8c-0.4,0.2-0.8,0.3-1.2,0.3C87.5,152.8,86.9,152.5,86.7,152z"/>
		</g>
		<g>
			<path class="st1" d="M88.7,170c-2.7-4.4-18.6-6-26.2-6.7c-1.3-0.2-2.5-0.3-3.5-0.4c-7.5-0.9-24.4,1.1-26.7,2.4
				c-0.7,0.7-1.9,0.8-2.7,0.2c-0.9-0.6-1.1-1.9-0.4-2.8c2.6-3.4,24.6-4.5,30.3-3.8c1,0.2,2.2,0.3,3.5,0.4c12.9,1.3,25.8,3,29.2,8.6
				c0.6,1,0.3,2.2-0.7,2.8c-0.4,0.2-0.8,0.3-1.2,0.3C89.6,171,89,170.6,88.7,170z"/>
		</g>
		<g>
			<path class="st1" d="M88.3,189c-2.1-3.4-12-6.1-29.4-8.1h-0.2c-7.2-0.9-25.3,0.9-27.8,2.3c-0.7,0.7-1.9,0.8-2.7,0.2
				c-0.9-0.6-1.1-1.9-0.4-2.8c0.5-0.7,1.6-2.2,13.9-3.4c7-0.7,13.8-0.8,17.5-0.4h0.2c13.9,1.6,28.7,4,32.4,10c0.6,1,0.3,2.2-0.7,2.8
				c-0.4,0.2-0.8,0.3-1.2,0.3C89.3,189.9,88.7,189.5,88.3,189z"/>
		</g>
	</g>
	<g>
		<g class="st26">
			<path class="st3" d="M39.7,113.5c0.3,1.1,1.4,1.7,2.5,1.4c0.1,0,9.7-2.7,16.8-1.9c1.3,0.1,3,0.2,4.9,0.4
				c7.4,0.6,21.2,1.7,23.7,5.8c0.4,0.6,1,1,1.6,1c0.4,0,0.8-0.1,1.2-0.3c0.8-0.5,1.2-1.5,0.9-2.4c-0.2,0.2-0.4,0.4-0.6,0.5
				c-0.4,0.2-0.8,0.3-1.2,0.3c-0.6-0.1-1.2-0.4-1.6-1c-2.5-4.1-16.3-5.2-23.7-5.8c-1.9-0.1-3.5-0.2-4.9-0.4
				c-7.1-0.8-16.7,1.9-16.8,1.9c-1.1,0.3-2.2-0.3-2.5-1.3C39.6,112.2,39.5,112.8,39.7,113.5z"/>
		</g>
		<path class="st27" d="M36.3,131.3c0.9,0.7,2.1,0.5,2.8-0.3c1.5-1.2,11.3-2.4,18.8-1.5c1.3,0.1,3,0.2,4.9,0.4
			c7.4,0.6,21.2,1.7,23.7,5.8c0.4,0.6,1,1,1.6,1c0.4,0,0.8-0.1,1.2-0.3c0.8-0.5,1.1-1.4,0.9-2.2c-0.2,0.2-0.4,0.4-0.6,0.6
			c-0.4,0.2-0.8,0.3-1.2,0.3c-0.6-0.1-1.2-0.4-1.6-1c-2.5-4.1-16.3-5.2-23.7-5.8c-1.9-0.1-3.5-0.2-4.9-0.4
			c-7.5-0.9-17.3,0.3-18.8,1.5c-0.7,0.8-1.9,0.9-2.8,0.3c-0.4-0.3-0.7-0.7-0.8-1.1C35.2,129.5,35.4,130.7,36.3,131.3z"/>
		<g class="st26">
			<path class="st3" d="M33,145.8c-0.6,0.8-0.3,2,0.5,2.6c0.9,0.7,2.1,0.5,2.8-0.3c1.7-1.2,13.2-3.2,20.5-2.4
				c1.4,0.2,3.1,0.3,5.1,0.5c7.8,0.6,22.2,1.7,24.7,5.8c0.4,0.6,1,1,1.6,1c0.4,0,0.8-0.1,1.2-0.3c0.9-0.5,1.2-1.6,0.8-2.5
				c-0.2,0.3-0.4,0.5-0.7,0.7c-0.4,0.2-0.8,0.3-1.2,0.3c-0.6-0.1-1.2-0.4-1.6-1c-2.5-4-17-5.2-24.7-5.8c-2-0.2-3.7-0.3-5.1-0.5
				c-7.3-0.9-18.9,1.1-20.5,2.4c-0.7,0.8-1.9,0.9-2.8,0.3C33.3,146.4,33.1,146.1,33,145.8z"/>
		</g>
		<g class="st26">
			<path class="st3" d="M29.1,162.9c-0.6,0.9-0.3,2.1,0.5,2.7c0.8,0.7,2,0.5,2.7-0.2c2.2-1.3,19.1-3.3,26.7-2.4
				c1,0.2,2.2,0.3,3.5,0.4c7.7,0.8,23.5,2.3,26.2,6.7c0.4,0.6,1,1,1.6,1c0.4,0,0.8-0.1,1.2-0.3c0.9-0.5,1.2-1.6,0.8-2.5
				c-0.2,0.3-0.4,0.5-0.7,0.7c-0.4,0.2-0.8,0.3-1.2,0.3c-0.6-0.1-1.2-0.4-1.6-1c-2.7-4.4-18.6-6-26.2-6.7c-1.3-0.2-2.5-0.3-3.5-0.4
				c-7.5-0.9-24.4,1.1-26.7,2.4c-0.7,0.7-1.9,0.8-2.7,0.2C29.4,163.6,29.2,163.3,29.1,162.9z"/>
		</g>
		<g class="st26">
			<path class="st3" d="M27.7,180.6c-0.6,0.9-0.3,2.1,0.5,2.7c0.9,0.6,2,0.5,2.7-0.2c2.4-1.4,20.6-3.1,27.8-2.3h0.2
				c17.4,2,27.3,4.7,29.4,8.1c0.4,0.6,1,1,1.6,1c0.4,0,0.8-0.1,1.2-0.3c0.9-0.5,1.2-1.6,0.8-2.5c-0.2,0.3-0.4,0.5-0.7,0.7
				c-0.4,0.2-0.8,0.3-1.2,0.3c-0.6-0.1-1.2-0.4-1.6-1c-2.1-3.4-12-6.1-29.4-8.1h-0.2c-7.2-0.9-25.3,0.9-27.8,2.3
				c-0.7,0.7-1.9,0.8-2.7,0.2C28,181.3,27.8,181,27.7,180.6z"/>
		</g>
	</g>
	<g class="st28">
		<path class="st29" d="M120.4,96.9c0,0-0.1-3.2-0.4-8.8c-0.4-5.6-1-13.6-2.5-23.1c-0.8-4.7-1.7-9.9-3.1-15.2
			c-1.4-5.3-3.2-10.9-5.9-16.2c-2.7-5.3-6.5-10.4-11.6-14.1c-5-3.7-11.4-5.6-17.8-5.6c-6.3,0.1-12.7,1.8-18.3,4.5
			c-5.6,2.8-10.6,6.7-14.6,11.1c-4,4.5-7.2,9.4-10,14.1S31,53,28.9,57.3c-4.1,8.7-7.1,16.1-9,21.4c-1,2.6-1.6,4.7-2,6.2
			c-0.4,1.4-0.5,2.2-0.5,2.2h-0.3c0,0,0.1-0.8,0.5-2.3c0.4-1.4,1-3.5,1.9-6.2c1.8-5.3,4.7-12.8,8.9-21.5c2.1-4.4,4.5-9,7.3-13.8
			s6-9.7,10-14.2c4.1-4.5,9.1-8.5,14.8-11.3c5.7-2.8,12.1-4.5,18.6-4.6c6.5-0.2,13,1.8,18.2,5.6c5.2,3.8,9,9,11.7,14.4
			c2.8,5.4,4.5,11.1,5.9,16.4c1.4,5.4,2.4,10.5,3.1,15.3c1.5,9.6,2,17.6,2.3,23.2c0.3,5.6,0.3,8.8,0.3,8.8H120.4z"/>
	</g>
	<g class="st30">
		<path class="st29" d="M105,88.1c-2.7-0.8-3.9-4.6-2.3-6.9c0.9,1.7,1.7,3.3,2.5,5"/>
		<path class="st29" d="M99.5,75.9c-0.1,0.4-0.2,0.9-0.3,1.3c-2.1-1.5-2.9-4.7-1.8-7c1.3,1.1,2.1,2.6,2.2,4.2"/>
		<path class="st29" d="M97.3,64.7c-2.1-1.5-3.5-4.1-3.4-6.8c2.2,1.3,3.6,3.8,3.6,6.4"/>
		<path class="st29" d="M104.6,68.4c0.5-0.9,0-2-0.6-2.8s-1.3-1.5-1.5-2.5c-0.2-1,0.5-2.2,1.5-2c1,0.1,1.2,1.5,1.2,2.5
			c0,2.2-0.1,4.5-0.1,6.7"/>
		<path class="st29" d="M91.9,42.3c-2.1,0.7-3.5,3-3,5.2c0.4,2.1,2.7,3.7,4.9,3.4c-0.8-1.2-0.4-3.1,0.9-3.8c-0.1-1.8-0.8-3.6-1.9-5"
			/>
		<path class="st29" d="M88.3,62.5c-0.4,0.7-1.4,0.7-2.2,1c-1.8,0.7-1.8,3.2-1.1,5c0.9,2.3,2.4,4.4,4.3,5.9c-0.3-1.1,0-2.3,0.8-3.1
			c0.2-0.2,0.5-0.5,0.6-0.8c0.1-0.3,0-0.7-0.2-1.1c-0.8-1.8-1.6-3.6-2.4-5.4"/>
		<path class="st29" d="M80.2,47.3c-0.9,0.3-1.9,0.1-2.8,0.4c-1.5,0.5-2.1,2.5-1.6,4.1c0.5,1.5,1.8,2.7,3,3.8c0.4-0.1,0.7-0.6,0.6-1
			c0.8,0,1.6,0.1,2.4,0.1c0.5-2.3-0.2-4.7-1.7-6.4"/>
		<path class="st29" d="M82.5,36.7c-1.6,1.1-1.8,3.8-0.4,5.1c0.3,0.3,0.7,0.5,1.2,0.5c1,0,1.5-1.2,1.3-2.1c-0.2-1-0.9-1.7-1.6-2.3"
			/>
		<path class="st29" d="M73.8,28.3c-1.4,0.4-1.9,2.1-1.9,3.6s0.7,3.3,2.2,3.2c1.3-0.2,1.8-2,1.4-3.3s-1.3-2.5-1.2-3.9"/>
		<path class="st29" d="M68,37.3c0.5,1.2,0,2.6-0.4,3.8s-0.8,2.6-0.2,3.8s2.7,1.4,3.1,0.2c0.2-0.6,0-1.2-0.3-1.7
			c-0.6-1.3-1.3-2.5-2.1-3.7"/>
		<path class="st29" d="M68.2,50.4c0.2,0.3-0.1,0.7-0.5,0.7S67,51,66.6,51c-0.7,0-1.2,0.8-1.2,1.5c0,0.8,0.4,1.4,0.8,2
			c0.3,0.6,0.8,1.1,1.4,1.2c1,0.2,1.9-0.9,1.9-1.9S69,51.9,68.4,51"/>
		<path class="st29" d="M61.8,46.7c0.1-1.3-1.8-1.7-2.9-1c-1.8,1.2-1.8,4.4,0.1,5.4c0.6,0.4,1.3,0.4,1.8,0c0.8-0.8-0.2-2.2-1.1-2.9"
			/>
		<path class="st29" d="M64.2,31.3c-1.3-0.7-3-0.4-4,0.6s-1.3,2.7-0.6,4c1.2-0.4,2.4-0.7,3.3-1.5s1.5-2.1,1-3.2"/>
		<path class="st29" d="M64.8,63.9c-1-0.9-3,0.2-2.8,1.5c0,0.4,0.2,0.7,0.1,1.1c-0.1,0.4-0.5,0.7-0.8,1c-0.7,0.7-0.8,2-0.4,3
			s1.1,1.9,1.8,2.7c1.8-2.1,2.1-5.2,0.8-7.6"/>
		<path class="st29" d="M72.4,62.8c0.2-0.5-0.7-1-1.2-0.6c-0.5,0.3-0.5,1.1-0.2,1.6c0.2,0.6,0.7,1,1,1.5c0.9,1.5,0.5,3.5,1.2,5.2
			c0.6,1.5,2,2.5,3.3,3.3c-0.9-3.5-2.3-6.9-4.1-10"/>
		<path class="st29" d="M76.2,79.8c-1.3-0.4-2.7,0.4-3.1,1.6c-0.4,1.2,0.5,2.7,1.7,3c1.2-0.2,1.9-1.5,1.6-2.6"/>
		<path class="st29" d="M81,70.2c0.6,1.5-0.1,3.2-0.3,4.9c-0.2,1.7,0.5,3.9,2.2,3.9c-0.4-2.7-1.2-5.4-2.4-8"/>
		<path class="st29" d="M56.8,66c0.2,1.4-0.9,2.6-1.8,3.6s-1.8,2.5-1.1,3.7c0.8,1.3,3,0.9,3.8-0.4c0.8-1.3,0.6-3,0.2-4.5"/>
		<path class="st29" d="M52.7,54.5c-1.9,0.6-4.2,1.7-3.9,3.6c0.1,1,0.9,1.7,1.3,2.5c2.4-0.6,3.6-3.9,2.1-5.9"/>
		<path class="st29" d="M48.2,75.8c-1.8,1.1-1.9,3.7-1.7,5.8c0.1,0.2,0.1,0.5,0.3,0.6s0.4,0.1,0.6,0c0.9-0.3,1.5-1.3,1.5-2.3
			S48.5,78,48.1,77"/>
		<path class="st29" d="M47.4,67.3c-0.7-0.9-2.2-0.5-2.9,0.3c-0.8,0.8-1.1,2-1.8,2.8c-0.4,0.5-1.1,1.1-0.7,1.7
			c0.2,0.3,0.6,0.4,1,0.4c2.1,0,3.8-2.4,3.2-4.4"/>
		<path class="st29" d="M50.3,42.5c-1.2,0.3-2.2,1.5-2.2,2.8c-0.1,1.3,0.8,2.6,2,3c0-1.8,0.3-3.5,0.7-5.3"/>
		<path class="st29" d="M56.9,56.2c-0.6,1.9,0.7,4.3,2.7,4.9c0.1-1.8-0.8-3.6-2.2-4.7"/>
		<path class="st29" d="M103,42.1c-1.5,0.4-2.5,2.2-2.1,3.7c0.2,1.2,1.2,2.4,0.7,3.5c1.3,0,1.7-1.7,1.7-3c0-2-0.3-4.1-0.9-6.1"/>
		<path class="st29" d="M96,32.7c-2-0.8-4.1-1.3-6.2-1.5c1,1.8,2,3.7,3,5.5c1-1,1.8-2.1,2.4-3.4"/>
		<path class="st29" d="M85.5,24c-1.4-0.4-2.9-0.4-4.3,0c-0.2,0.1-0.5,0.2-0.6,0.4c-0.2,0.3-0.1,0.7,0.1,1c0.7,1.2,2,2.1,3.4,2.4
			c0.2,0.1,0.6,0.1,0.8-0.1c0.2-0.1,0.3-0.4,0.3-0.6c0.2-0.8,0.3-1.7,0.5-2.5"/>
		<path class="st29" d="M42,55.7c-1.7,1.8-2.4,4.5-1.8,7c1-0.8,2.3-1.2,3.5-0.9c-0.3-2-1-4.1-2-5.9"/>
		<path class="st29" d="M40,78.7c-2.3,0.6-3.6,3.5-2.5,5.6c2.5-0.6,3.8-4.1,2.2-6.1"/>
		<path class="st29" d="M35.6,68.3c-1.8,2-2.6,5-2,7.7c1.4-1.5,2.5-3.3,3.2-5.3"/>
		<path class="st29" d="M35.5,92.7c-1.8,1.1-1.9,3.7-1.7,5.8c0.1,0.2,0.1,0.5,0.3,0.6s0.4,0.1,0.6,0c0.9-0.3,1.5-1.3,1.5-2.3
			c0.1-1-0.3-1.9-0.7-2.8"/>
		<path class="st29" d="M34.8,84.3c-0.7-0.9-2.2-0.5-2.9,0.3c-0.8,0.8-1.1,2-1.8,2.8c-0.4,0.5-1.1,1.1-0.7,1.7
			c0.2,0.3,0.6,0.4,1,0.4c2.1,0,3.8-2.4,3.2-4.4"/>
		<path class="st29" d="M27.3,95.7c-2.3,0.6-3.6,3.5-2.5,5.6c2.5-0.6,3.8-4.1,2.2-6.1"/>
		<path class="st29" d="M23,85.3c-1.8,2-2.6,5-2,7.7c1.4-1.5,2.5-3.3,3.2-5.3"/>
		<path class="st29" d="M111.1,74.5c0,0.8,1.1,1.3,0.8,2c-0.1,0.2-0.3,0.4-0.5,0.5c-0.9,0.7-1.4,2-1.1,3.1c0.3,1.1,1.3,2,2.4,2.2
			c0.3,0,0.5,0,0.7-0.1c0.3-0.2,0.3-0.6,0.3-0.9c-0.1-2-0.6-3.9-1.5-5.7"/>
		<path class="st29" d="M109.8,60.1c-0.6-0.1-1.2-0.1-1.8,0.1c-0.7,2.4,1.1,5.2,3.6,5.4c-0.4-1.9-1-3.9-1.8-5.7"/>
		<path class="st29" d="M110.9,88.7c-1.1-0.6-2.3,1-2,2.3c0.3,1.3,1.4,2.2,1.9,3.4c0-2.3-0.4-4.5-1-6.7"/>
		<path class="st29" d="M92.8,81c-0.7-0.5-1.7,0-2,0.8c-0.3,0.8,0,1.7,0.4,2.4c0.7,1.2,1.8,2.1,3.1,2.5c-0.3-2.2-1.2-4.3-2.7-6"/>
		<path class="st29" d="M87.3,54c-1.3,0-2.5,1-2.9,2.2s0.1,2.6,1.1,3.4c0.9-1.6,1.6-3.4,1.9-5.3"/>
		<path class="st29" d="M76.8,59.6c0.1,2.2,0.5,4.4,1.1,6.6c1.2-1.2,2.3-2.3,3.5-3.4C79.9,61.6,78.4,60.5,76.8,59.6"/>
		<path class="st29" d="M60.9,40.1c-2.2-0.4-4.6,1.1-5.2,3.3c1.7-0.1,3.3-0.5,4.9-0.9c0.5-0.1,0.9-0.2,1.2-0.6s0.3-1-0.1-1.2"/>
		<path class="st29" d="M55,32.7c-1.8,0.8-3.3,2.1-4.4,3.7c0.3,1.3,2.4,1.1,3.1,0s0.4-2.5,0.2-3.8"/>
		<path class="st29" d="M70.5,24.4c-0.6,1.6-3.6,1.7-3.5,3.4c0.1,1.3,2.2,1.5,3,0.4c0.8-1.1,0.6-2.6,0.3-3.9"/>
		<path class="st29" d="M74.9,39.1c0.7,1.9,0.9,4.1,0.7,6.2c0-0.4,0.1-0.8,0.1-1.2c0.9-0.1,1.9-0.1,2.9-0.2
			c-1.1-1.2-2.1-2.5-3.1-3.7"/>
		<path class="st29" d="M99.1,37.4c-1.4,0.4-2.7,1.2-3.1,2.6c-0.4,1.3,1,3,2.3,2.4c0.2-1.6,0.3-3.1,0.4-4.7"/>
		<path class="st29" d="M97,51.4c-1.4,0.7-2,2.6-1.4,4.1s2.5,2.3,4,1.8c-0.8-2.4-2.1-4.6-3.7-6.4"/>
		<path class="st29" d="M68.5,75.4c0-0.4-0.7-0.4-0.9-0.1c-0.2,0.3-0.2,0.7-0.1,1.1c0.3,1.6-0.1,3.3-0.9,4.7
			c1.1,0.5,2.4,0.7,3.6,0.6c-0.7-1.6-1.3-3.2-1.8-4.8"/>
		<path class="st29" d="M59.4,79c-0.8,1.1-1.6,2.3-1.5,3.7c0.2,1.4,1.7,2.6,2.9,1.9c-0.7-1.6-1.3-3.1-1.9-4.7"/>
		<path class="st29" d="M40.7,108.8c0.3,0.2,0.2,0.7-0.1,0.9c-0.3,0.2-0.7,0.2-1,0.4c-0.6,0.4-0.7,1.3-0.4,1.9
			c0.3,0.6,1,1.1,1.6,1.4c0.5,0.3,1.2,0.6,1.8,0.4c0.9-0.3,1.2-1.7,0.8-2.6c-0.5-0.9-1.4-1.5-2.3-2"/>
		<path class="st29" d="M33.4,108.4c-0.5-1.2-2.5-0.7-3.1,0.4c-1.1,1.8,0.3,4.7,2.5,4.8c0.6,0.1,1.4-0.2,1.6-0.8
			c0.4-1.2-1.1-2-2.3-2.2"/>
		<path class="st29" d="M43.7,122.4c-1.3-0.4-2.6,1.4-1.8,2.5c0.2,0.3,0.5,0.5,0.6,0.9c0.1,0.4-0.2,0.8-0.3,1.2
			c-0.3,1,0.2,2.1,1,2.9c0.8,0.7,1.8,1.2,2.8,1.6c0.6-2.6-0.5-5.6-2.7-7.1"/>
		<path class="st29" d="M37.4,127.8c0.8,1.1,0.4,2.7,0,4c-0.3,1.3-0.5,3.1,0.7,3.8c1.3,0.8,3.1-0.6,3.2-2.1s-0.8-2.9-1.8-4.1"/>
		<path class="st29" d="M28.6,119.4c-1.5,1.3-3,3.3-1.9,4.9c0.6,0.7,1.6,1,2.3,1.6c1.9-1.6,1.5-5.1-0.7-6.2"/>
		<path class="st29" d="M34.1,140.2c-1.1,1.8,0,4.1,1.1,5.9c0.1,0.2,0.3,0.5,0.5,0.5c0.2,0.1,0.4-0.1,0.5-0.2
			c0.7-0.6,0.7-1.8,0.3-2.7s-1.2-1.6-1.9-2.2"/>
		<path class="st29" d="M29.5,133.2c-0.9-0.6-2.1,0.4-2.4,1.5c-0.2,1.1,0,2.2-0.3,3.3c-0.2,0.7-0.5,1.5,0.1,1.9
			c0.3,0.2,0.8,0.1,1.1-0.1c1.8-1,2.3-3.8,0.9-5.4"/>
		<path class="st29" d="M33.1,118.9c0.3,2,2.5,3.6,4.6,3.2c-0.7-1.6-2.2-2.9-4-3.2"/>
		<path class="st29" d="M19.6,125.1c-0.7,2.4-0.1,5.2,1.5,7.1c0.5-1.1,1.5-2,2.7-2.3c-1.2-1.7-2.7-3.2-4.4-4.4"/>
		<path class="st29" d="M28,146.6c-1.8,1.6-1.6,4.8,0.3,6.2c2.1-1.6,1.6-5.3-0.7-6.4"/>
		<path class="st29" d="M19.6,139.3c-0.8,2.6-0.1,5.6,1.6,7.8c0.6-2,0.8-4.1,0.5-6.2"/>
		<path class="st29" d="M30.4,161.1c-1.1,1.8,0,4.1,1.1,5.9c0.1,0.2,0.3,0.5,0.5,0.5c0.2,0.1,0.4-0.1,0.5-0.2
			c0.7-0.6,0.7-1.8,0.3-2.7s-1.2-1.6-1.9-2.2"/>
		<path class="st29" d="M25.8,154c-0.9-0.6-2.1,0.4-2.4,1.5c-0.2,1.1,0,2.2-0.3,3.3c-0.2,0.7-0.5,1.5,0.1,1.9
			c0.3,0.2,0.8,0.1,1.1-0.1c1.8-1,2.3-3.8,0.9-5.4"/>
		<path class="st29" d="M24.3,167.4c-1.8,1.6-1.6,4.8,0.3,6.2c2.1-1.6,1.6-5.3-0.7-6.4"/>
		<path class="st29" d="M15.9,160.1c-0.8,2.6-0.1,5.6,1.6,7.8c0.6-2,0.8-4.1,0.5-6.2"/>
		<path class="st29" d="M45.4,138.2c-0.2,1.4-0.3,2.8,0.4,4c0.7,1.2,2.7,1.6,3.4,0.4c-1.2-1.1-2.5-2.2-3.7-3.3"/>
		<path class="st29" d="M97,124c0.3,0.1,0.3,0.6,0.1,0.9c-0.2,0.3-0.6,0.4-0.8,0.7c-0.5,0.5-0.3,1.4,0.2,1.9s1.2,0.8,1.9,0.9
			c0.6,0.1,1.3,0.2,1.8-0.2c0.8-0.6,0.7-1.9,0-2.7c-0.6-0.8-1.7-1-2.7-1.3"/>
		<path class="st29" d="M89.8,125.7c-0.8-1-2.5,0-2.8,1.3c-0.5,2.1,1.7,4.4,3.8,3.9c0.6-0.2,1.3-0.7,1.3-1.3
			c0.1-1.2-1.6-1.5-2.8-1.4"/>
		<path class="st29" d="M103.7,135.9c-1.3,0.1-2,2.1-1,3c0.3,0.2,0.7,0.4,0.9,0.7c0.2,0.4,0.1,0.9,0.1,1.3c0,1.1,0.8,2,1.8,2.5
			c0.9,0.4,2,0.6,3.1,0.7c-0.1-2.6-2-5.2-4.6-6"/>
		<path class="st29" d="M99.4,143.1c1.2,0.8,1.2,2.4,1.2,3.8c0,1.3,0.4,3,1.7,3.4c1.5,0.4,2.8-1.4,2.5-2.9c-0.3-1.5-1.6-2.6-2.9-3.4
			"/>
		<path class="st29" d="M88.6,137.6c-1,1.6-1.9,4-0.4,5.2c0.7,0.6,1.7,0.6,2.6,0.9c1.3-2.1-0.1-5.3-2.5-5.7"/>
		<path class="st29" d="M100,156.1c-0.6,2,1.1,3.9,2.7,5.3c0.2,0.2,0.4,0.3,0.6,0.3c0.2-0.1,0.3-0.2,0.4-0.4c0.5-0.8,0.2-2-0.5-2.7
			c-0.7-0.7-1.6-1.1-2.5-1.5"/>
		<path class="st29" d="M93.5,150.6c-1.1-0.2-1.9,1.1-1.9,2.2c0,1.1,0.6,2.1,0.6,3.2c0.1,0.6,0.1,1.5,0.7,1.7c0.4,0.1,0.7-0.1,1-0.4
			c1.5-1.4,1.1-4.3-0.7-5.4"/>
		<path class="st29" d="M92.7,135.9c1,1.8,3.5,2.7,5.4,1.7c-1.2-1.4-3-2.1-4.8-1.9"/>
		<path class="st29" d="M81.5,145.7c0.1,2.6,1.4,5,3.5,6.4c0.2-1.2,0.9-2.4,2-3c-1.6-1.2-3.5-2.2-5.5-2.9"/>
		<path class="st29" d="M95.9,163.9c-1.2,2-0.1,5,2.1,5.8c1.4-2.1-0.1-5.5-2.6-5.9"/>
		<path class="st29" d="M85.8,159.2c0,2.7,1.5,5.4,3.8,7c-0.1-2-0.5-4.1-1.4-6"/>
		<path class="st29" d="M102.6,177.1c-0.6,2,1.1,3.9,2.7,5.3c0.2,0.2,0.4,0.3,0.6,0.3c0.2-0.1,0.3-0.2,0.4-0.4
			c0.5-0.8,0.2-2-0.5-2.7c-0.7-0.7-1.6-1.1-2.5-1.5"/>
		<path class="st29" d="M96,171.6c-1.1-0.2-1.9,1.1-1.9,2.2c0,1.1,0.6,2.1,0.6,3.2c0.1,0.6,0.1,1.5,0.7,1.7c0.4,0.1,0.7-0.1,1-0.4
			c1.5-1.4,1.1-4.3-0.7-5.4"/>
		<path class="st29" d="M98.4,184.8c-1.2,2-0.1,5,2.1,5.8c1.4-2.1-0.1-5.5-2.6-5.9"/>
		<path class="st29" d="M88.3,180.2c0,2.7,1.5,5.4,3.8,7c-0.1-2-0.5-4.1-1.4-6"/>
		<path class="st29" d="M110.2,150.7c0.2,1.3,0.4,2.8,1.5,3.7c1.1,0.9,3.1,0.7,3.4-0.6c-1.6-0.7-3.1-1.4-4.6-2.1"/>
		<path class="st29" d="M84.8,84.2c0,0.8-0.9,1.3-1.6,1.6c-0.7,0.3-1.4,1.2-1,1.8c0.1,0.2,0.4,0.3,0.6,0.4c1.4,0.6,2.9,0.8,4.3,0.7
			C86,87.5,85,86.2,83.9,85"/>
		<path class="st29" d="M87.6,76.2c-1.4,0.5-2.3,2.1-2.1,3.4c1.2,0.3,2.4,0.5,3.6,0.7C89,78.8,88.5,77.4,87.6,76.2"/>
		<path class="st29" d="M78.3,160.9c-2.1,0.7-3.5,3-3,5.2c0.4,2.1,2.7,3.7,4.9,3.4c-0.8-1.2-0.4-3.1,0.9-3.8c-0.1-1.8-0.8-3.6-1.9-5
			"/>
		<path class="st29" d="M74.7,181.1c-0.4,0.7-1.4,0.7-2.2,1c-1.8,0.7-1.8,3.2-1.1,5c0.9,2.3,2.4,4.4,4.3,5.9c-0.3-1.1,0-2.3,0.8-3.1
			c0.2-0.2,0.5-0.5,0.6-0.8s0-0.7-0.2-1.1c-0.8-1.8-1.6-3.6-2.4-5.4"/>
		<path class="st29" d="M66.6,166c-0.9,0.3-1.9,0.1-2.8,0.4c-1.5,0.5-2.1,2.5-1.6,4.1c0.5,1.5,1.8,2.7,3,3.8c0.4-0.1,0.7-0.6,0.6-1
			c0.8,0,1.6,0.1,2.4,0.1c0.5-2.3-0.2-4.7-1.7-6.4"/>
		<path class="st29" d="M68.9,155.3c-1.6,1.1-1.8,3.8-0.4,5.1c0.3,0.3,0.7,0.5,1.2,0.5c1,0,1.5-1.2,1.3-2.1c-0.2-1-0.9-1.7-1.6-2.3"
			/>
		<path class="st29" d="M60.2,146.9c-1.4,0.4-1.9,2.1-1.9,3.6s0.7,3.3,2.2,3.2c1.3-0.2,1.8-2,1.4-3.3c-0.4-1.3-1.3-2.5-1.2-3.9"/>
		<path class="st29" d="M54.4,155.9c0.5,1.2,0,2.6-0.4,3.8c-0.4,1.2-0.8,2.6-0.2,3.8s2.7,1.4,3.1,0.2c0.2-0.6,0-1.2-0.3-1.7
			c-0.6-1.3-1.3-2.5-2.1-3.7"/>
		<path class="st29" d="M54.6,169c0.2,0.3-0.1,0.7-0.5,0.7s-0.7-0.1-1.1-0.1c-0.7,0-1.2,0.8-1.2,1.5c0,0.8,0.4,1.4,0.8,2
			c0.3,0.6,0.8,1.1,1.4,1.2c1,0.2,1.9-0.9,1.9-1.9s-0.5-1.9-1.1-2.8"/>
		<path class="st29" d="M48.2,165.3c0.1-1.3-1.8-1.7-2.9-1c-1.8,1.2-1.8,4.4,0.1,5.4c0.6,0.4,1.3,0.4,1.8,0c0.8-0.8-0.2-2.2-1.1-2.9
			"/>
		<path class="st29" d="M50.6,150c-1.3-0.7-3-0.4-4,0.6s-1.3,2.7-0.6,4c1.2-0.4,2.4-0.7,3.3-1.5s1.5-2.1,1-3.2"/>
		<path class="st29" d="M51.2,182.5c-1-0.9-3,0.2-2.8,1.5c0,0.4,0.2,0.7,0.1,1.1c-0.1,0.4-0.5,0.7-0.8,1c-0.7,0.7-0.8,2-0.4,3
			s1.1,1.9,1.8,2.7c1.8-2.1,2.1-5.2,0.8-7.6"/>
		<path class="st29" d="M58.8,181.4c0.2-0.5-0.7-1-1.2-0.6c-0.5,0.3-0.5,1.1-0.2,1.6c0.2,0.6,0.7,1,1,1.5c0.9,1.5,0.5,3.5,1.2,5.2
			c0.6,1.5,2,2.5,3.3,3.3c-0.9-3.5-2.3-6.9-4.1-10"/>
		<path class="st29" d="M62.6,198.5c-1.3-0.4-2.7,0.4-3.1,1.6s0.5,2.7,1.7,3c1.2-0.2,1.9-1.5,1.6-2.6"/>
		<path class="st29" d="M67.4,188.8c0.6,1.5-0.1,3.2-0.3,4.9c-0.2,1.7,0.5,3.9,2.2,3.9c-0.4-2.7-1.2-5.4-2.4-8"/>
		<path class="st29" d="M43.2,184.6c0.2,1.4-0.9,2.6-1.8,3.6s-1.8,2.5-1.1,3.7c0.8,1.3,3,0.9,3.8-0.4c0.8-1.3,0.6-3,0.2-4.5"/>
		<path class="st29" d="M39.1,173.1c-1.9,0.6-4.2,1.7-3.9,3.6c0.1,1,0.9,1.7,1.3,2.5c2.4-0.6,3.6-3.9,2.1-5.9"/>
		<path class="st29" d="M43.3,174.8c-0.6,1.9,0.7,4.3,2.7,4.9c0.1-1.8-0.8-3.6-2.2-4.7"/>
		<path class="st29" d="M82.4,151.4c-2-0.8-4.1-1.3-6.2-1.5c1,1.8,2,3.7,3,5.5c1-1,1.8-2.1,2.4-3.4"/>
		<path class="st29" d="M71.9,142.6c-1.4-0.4-2.9-0.4-4.3,0c-0.2,0.1-0.5,0.2-0.6,0.4c-0.2,0.3-0.1,0.7,0.1,1c0.7,1.2,2,2.1,3.4,2.4
			c0.2,0.1,0.6,0.1,0.8-0.1c0.2-0.1,0.3-0.4,0.3-0.6c0.2-0.8,0.3-1.7,0.5-2.5"/>
		<path class="st29" d="M73.7,172.7c-1.3,0-2.5,1-2.9,2.2s0.1,2.6,1.1,3.4c0.9-1.6,1.6-3.4,1.9-5.3"/>
		<path class="st29" d="M63.2,178.2c0.1,2.2,0.5,4.4,1.1,6.6c1.2-1.2,2.3-2.3,3.5-3.4C66.3,180.2,64.8,179.1,63.2,178.2"/>
		<path class="st29" d="M47.3,158.7c-2.2-0.4-4.6,1.1-5.2,3.3c1.7-0.1,3.3-0.5,4.9-0.9c0.5-0.1,0.9-0.2,1.2-0.6s0.3-1-0.1-1.2"/>
		<path class="st29" d="M41.4,151.3c-1.8,0.8-3.3,2.1-4.4,3.7c0.3,1.3,2.4,1.1,3.1,0s0.4-2.5,0.2-3.8"/>
		<path class="st29" d="M56.9,143c-0.6,1.6-3.6,1.7-3.5,3.4c0.1,1.3,2.2,1.5,3,0.4c0.8-1.1,0.6-2.6,0.3-3.9"/>
		<path class="st29" d="M61.3,157.7c0.7,1.9,0.9,4.1,0.7,6.2c0-0.4,0.1-0.8,0.1-1.2c0.9-0.1,1.9-0.1,2.9-0.2
			c-1.1-1.2-2.1-2.5-3.1-3.7"/>
		<path class="st29" d="M54.9,194c0-0.4-0.7-0.4-0.9-0.1s-0.2,0.7-0.1,1.1c0.3,1.6-0.1,3.3-0.9,4.7c1.1,0.5,2.4,0.7,3.6,0.6
			c-0.7-1.6-1.3-3.2-1.8-4.8"/>
		<path class="st29" d="M45.8,197.6c-0.8,1.1-1.6,2.3-1.5,3.7c0.2,1.4,1.7,2.6,2.9,1.9c-0.7-1.6-1.3-3.1-1.9-4.7"/>
		<path class="st29" d="M71.2,202.8c0,0.8-0.9,1.3-1.6,1.6c-0.7,0.3-1.4,1.2-1,1.8c0.1,0.2,0.4,0.3,0.6,0.4c1.4,0.6,2.9,0.8,4.3,0.7
			c-1.1-1.2-2.1-2.5-3.2-3.7"/>
		<path class="st29" d="M74,194.9c-1.4,0.5-2.3,2-2.1,3.4c1.2,0.3,2.4,0.5,3.6,0.7C75.4,197.5,74.9,196.1,74,194.9"/>
		<path class="st29" d="M97.2,84c-0.1,1.5-0.1,3.1,0.4,4.5c0.5,1.4,1.8,2.7,3.3,2.7c-0.9-2.9-2-5.8-3.4-8.5"/>
	</g>
	<g class="st30">
		<path class="st29" d="M80.6,238.3c-0.9,0.5-0.9,1.7-0.7,2.7c0.7,3.8,2.7,7.3,5.6,9.8c-0.9-4.8-2.6-9.3-5-13.5"/>
		<path class="st29" d="M68.8,233.5c1.1,4.6,3.6,8.9,7.1,12.1c-1.2-4.1-3.1-8-5.6-11.5"/>
		<path class="st29" d="M58.1,227.8c1,3.7,2.2,7.8,5.5,9.9c-0.6-3.3-2.4-6.5-4.9-8.8"/>
		<path class="st29" d="M68.9,249.7c0.3,4.1,2.4,8.1,5.7,10.6c-0.7-4.1-2.6-7.9-5.4-11"/>
		<path class="st29" d="M59,244.2c-0.9-0.6-2.2-0.6-3.2-0.1c0.8,2.6,2.4,4.8,4.5,6.5c0.5,0.3,1.3,0.6,1.6,0.1c-0.7-2.6-2-5-3.9-6.9"
			/>
		<path class="st29" d="M47.1,228.1c-0.4-0.4-1.2-0.4-1.5,0.1c2.1,4.4,4.9,8.4,8.2,11.9c-2.1-3.6-4.1-7.2-6.2-10.8"/>
		<path class="st29" d="M44.7,242.2c-0.1,3.9,2.1,7.8,5.6,9.6c-0.7-3.4-2.5-6.5-5-8.9"/>
		<path class="st29" d="M35.3,230.4c0.2,3.8,2,7.5,4.9,10c-1.3-3.7-3.2-7.2-5.6-10.2"/>
		<path class="st29" d="M69.8,222.6c0.1-0.5-0.2-1-0.7-1.1s-1,0.2-1.1,0.7c0,0.3,0.1,0.6,0.2,0.9c0.6,1.4,1.1,2.9,2,4.1
			c1,1.2,2.4,2.1,3.9,2.1c-0.7-2.4-2.1-4.5-4-6.2"/>
		<path class="st29" d="M75,267.1c-0.8,0.3-0.8,1.4-0.7,2.3c0.5,3.3,2.1,6.4,4.6,8.7c-0.9-4.1-2.3-8.1-4.1-11.9"/>
		<path class="st29" d="M80.8,256.2c-1.2,1.5-0.3,3.8,0.9,5.3c0.8,1.1,1.8,2.1,2.9,3c-1.3-2.7-2.5-5.3-3.8-8"/>
		<path class="st29" d="M64.7,255.7c-0.5,3.2,0.9,6.5,3.5,8.3c-0.2-2.8-1.6-5.5-3.6-7.5"/>
		<path class="st29" d="M56,251.8c0,3.1,1.5,6.3,4.1,8.2c-0.4-2.7-1.4-5.4-2.9-7.8"/>
		<path class="st29" d="M35.9,219.8c0.2,3.6,2,7.2,4.8,9.5c0-3.1-1-6.1-2.8-8.6"/>
		<path class="st29" d="M38.1,246.7c1.3,1.5,1.3,3.7,1.5,5.7c0.2,2,1,4.3,2.9,4.9c-0.6-3.7-2.2-7.3-4.5-10.2"/>
		<path class="st29" d="M29.6,232.7c-0.3,3.6,1.1,7.3,3.8,9.8c0.3-2.7-0.4-5.5-1.9-7.8"/>
		<path class="st29" d="M52,260.4c-0.5-0.6-1.3-0.9-2.1-0.8c1,4.4,3.9,8.3,7.7,10.7c-1-3.3-2.5-6.5-4.4-9.4"/>
		<path class="st29" d="M64.6,268.4c-0.2-0.4-0.7,0.2-0.7,0.6c0.3,3.6,2.1,7,4.9,9.3c-1.2-3.7-3-7.2-5.3-10.4"/>
		<path class="st29" d="M71,290.3c-0.9,0.5-0.9,1.7-0.7,2.7c0.7,3.8,2.7,7.3,5.6,9.8c-0.9-4.8-2.6-9.3-5-13.5"/>
		<path class="st29" d="M59.2,285.6c1.1,4.6,3.6,8.9,7.1,12.1c-1.2-4.1-3.1-8-5.6-11.5"/>
		<path class="st29" d="M48.5,279.9c1,3.7,2.2,7.8,5.5,9.9c-0.6-3.3-2.4-6.5-4.9-8.8"/>
		<path class="st29" d="M59.3,301.8c0.3,4.1,2.4,8.1,5.7,10.6c-0.7-4.1-2.6-7.9-5.4-11"/>
		<path class="st29" d="M49.4,296.3c-0.9-0.6-2.2-0.6-3.2-0.1c0.8,2.6,2.4,4.8,4.5,6.5c0.5,0.3,1.3,0.6,1.6,0.1
			c-0.7-2.6-2-5-3.9-6.9"/>
		<path class="st29" d="M37.5,280.2c-0.4-0.4-1.2-0.4-1.5,0.1c2.1,4.4,4.9,8.4,8.2,11.9c-2.1-3.6-4.1-7.2-6.2-10.8"/>
		<path class="st29" d="M35.1,294.2c-0.1,3.9,2.1,7.8,5.6,9.6c-0.7-3.4-2.5-6.5-5-8.9"/>
		<path class="st29" d="M25.7,282.5c0.2,3.8,2,7.5,4.9,10c-1.3-3.7-3.2-7.2-5.6-10.2"/>
		<path class="st29" d="M60.2,274.7c0.1-0.5-0.2-1-0.7-1.1c-0.5-0.1-1,0.2-1.1,0.7c0,0.3,0.1,0.6,0.2,0.9c0.6,1.4,1.1,2.9,2,4.1
			c1,1.2,2.4,2.1,3.9,2.1c-0.7-2.4-2.1-4.5-4-6.2"/>
		<path class="st29" d="M55.1,307.8c-0.5,3.2,0.9,6.5,3.5,8.3c-0.2-2.8-1.6-5.5-3.6-7.5"/>
		<path class="st29" d="M46.4,303.9c0,3.1,1.5,6.3,4.1,8.2c-0.4-2.7-1.4-5.4-2.9-7.8"/>
		<path class="st29" d="M26.3,271.8c0.2,3.6,2,7.2,4.8,9.5c0-3.1-1-6.1-2.8-8.6"/>
		<path class="st29" d="M28.5,298.7c1.3,1.5,1.3,3.7,1.5,5.7c0.2,2,1,4.3,2.9,4.9c-0.6-3.7-2.2-7.3-4.5-10.2"/>
		<path class="st29" d="M42.4,312.5c-0.5-0.6-1.3-0.9-2.1-0.8c1,4.4,3.9,8.3,7.7,10.7c-1-3.3-2.5-6.5-4.4-9.4"/>
		<path class="st29" d="M55,320.5c-0.2-0.4-0.7,0.2-0.7,0.6c0.3,3.6,2.1,7,4.9,9.3c-1.2-3.7-3-7.2-5.3-10.4"/>
		<path class="st29" d="M41.5,262.4c-0.1-0.5-0.5-0.8-1-0.9c-0.2,4.7,2,9.3,5.7,12.1c0.6-1,0-2.2-0.5-3.2
			C44.3,267.7,42.9,265.1,41.5,262.4"/>
		<path class="st29" d="M36.4,265c-0.6,3.7,1.1,7.7,4.2,9.8c-0.6-3.2-2.1-6.3-4.3-8.8"/>
		<path class="st29" d="M28.5,251.1c0,3.5,2,6.9,5,8.6c-1.2-4.3-3.3-8.4-6.2-11.9"/>
		<path class="st29" d="M25.7,257.2c0.3,2.8,1.7,5.4,3.7,7.3c-0.1-2.6-0.9-5.1-2.4-7.1"/>
		<path class="st29" d="M49.8,330.9c-0.6,2.6,0.5,5.6,2.6,7.3c-0.2-3-1.4-5.9-3.3-8.2"/>
		<path class="st29" d="M40.6,325.5c0.2-0.2-0.2-0.6-0.5-0.4c-0.3,0.1-0.3,0.5-0.3,0.8c0.2,3,1.7,5.9,4.1,7.7
			c-0.4-2.9-1.2-5.6-2.4-8.2"/>
		<path class="st29" d="M34.5,318.7c-0.2-0.4-0.6-0.7-1-0.8c-0.1,3.1,1.1,6.2,3.2,8.4c0-2.5-0.8-5.1-2.2-7.2"/>
		<path class="st29" d="M37.9,337.1c0.3-0.1-0.1-0.5-0.3-0.3c-0.2,0.1-0.2,0.5-0.1,0.7c0.6,2.7,2.2,5.2,4.5,6.8
			c0-3.2-1.2-6.3-3.4-8.6"/>
		<path class="st29" d="M73.2,281.6c0.7,0.5,1,1.3,0.7,2.1s-1.1,1.2-1.9,1.1c-0.5,0.9,0.3,2,1.1,2.7c1.9,1.7,4,3.1,6.3,4.1
			c-1.4-3.7-3.6-7.2-6.4-10.1"/>
		<path class="st29" d="M48.6,219.2c-0.3-0.7-1.6-0.3-1.7,0.5c-0.2,0.8,0.4,1.5,0.9,2.1c2.1,2.5,4.4,5.1,7.5,5.9
			c-1.4-3-3.5-5.7-6.1-7.8"/>
	</g>
</g>
</svg>
