<?xml version="1.0" encoding="utf-8"?>
<!-- Generator: Adobe Illustrator 21.1.0, SVG Export Plug-In . SVG Version: 6.00 Build 0)  -->
<svg version="1.1" id="_x31__1_" xmlns="http://www.w3.org/2000/svg" xmlns:xlink="http://www.w3.org/1999/xlink" x="0px" y="0px"
	 viewBox="0 0 130.9 359.8" style="enable-background:new 0 0 130.9 359.8;" xml:space="preserve">
<style type="text/css">
	.st0{fill:#B2B2AB;}
	.st1{fill:#E6DDC6;}
	.st2{fill:#343830;}
	.st3{fill:#5C7789;}
	.st4{opacity:0.59;}
	.st5{fill:#3B4D59;}
	
		.st6{fill:none;stroke:#7899B2;stroke-width:0.8611;stroke-linecap:round;stroke-linejoin:round;stroke-miterlimit:10;stroke-dasharray:4.3057,4.3057;}
	.st7{fill:#6D8CA2;}
	.st8{fill:#556E80;}
	.st9{opacity:0.48;}
	.st10{fill:#435663;}
	.st11{fill:#2D3752;}
	.st12{fill:#AA7E5E;}
	.st13{opacity:0.33;}
	.st14{fill:#816047;}
	.st15{opacity:0.47;}
	.st16{opacity:0.31;fill:#D89F77;}
	.st17{fill:#415461;}
	
		.st18{fill:none;stroke:#435663;stroke-width:0.8611;stroke-linecap:round;stroke-linejoin:round;stroke-miterlimit:10;stroke-dasharray:4.3057,4.3057;}
	
		.st19{fill:none;stroke:#435663;stroke-width:1.2917;stroke-linecap:round;stroke-linejoin:round;stroke-miterlimit:10;stroke-dasharray:4.3057,4.3057;}
	.st20{opacity:0.58;}
	.st21{fill:none;}
	.st22{fill:#D1CDC5;}
	.st23{fill:#474643;}
	.st24{opacity:0.39;}
	.st25{fill:#4F3820;}
	.st26{opacity:0.61;}
	.st27{opacity:0.61;fill:#5C7789;}
	.st28{opacity:0.29;}
	.st29{fill:#FFFFFF;}
	.st30{opacity:5.000000e-02;}
</style>
<g>
	<path class="st0" d="M60.4,13.3c16.7-1.1,33,18.4,39,26.6s20.8,45.9,24.7,70.7c3.9,24.8,8.1,88.7,6.5,104.3
		c-1.6,15.6-3,59.8-2.8,78.3c0.1,9,0.1,26.7-5.5,39.8c-5.9,13.8-17.6,22.9-26.9,24.7c-18,3.4-38.1-8.3-45.5-22.2
		c-7.3-14-9.4-37.1-11.7-65c-2.3-27.9-20.9-130.2-20.9-130.2s-9.1-40.5-0.9-82S43.7,14.4,60.4,13.3z"/>
	<path class="st1" d="M58.5,13.9c16.7-1.1,33,18.4,39,26.6s20.8,45.9,24.7,70.7c3.9,24.8,8.1,88.7,6.5,104.3
		c-1.6,15.6-3,59.8-2.8,78.3c0.1,9,0.1,26.7-5.5,39.8c-5.9,13.8-17.6,22.9-26.9,24.7c-18,3.4-38.1-8.3-45.5-22.2
		c-7.3-14-9.4-37.1-11.7-65C34,243.1,15.4,140.9,15.4,140.9s-9.1-40.5-0.9-82C22.6,17.3,41.8,15,58.5,13.9z"/>
	<g>
		<path class="st2" d="M85,332.6c-18.3-0.3-43.8-43.9-47.3-40.6c-3.5,3.2-0.5,31.6,7.4,47.4c7.4,14,28.5,24.1,46.5,20.7
			c9.2-1.8,21.1-9.4,27-23.3c5.6-13.1,4.7-31.7,4.5-40.7c0-2.3,0-4.9,0-7.9C116.9,305.6,104,332.9,85,332.6z"/>
	</g>
	<path class="st0" d="M126.7,207.5c0,0,5.2-73.1,2.8-91.3c-1.1-8.2-5.5-46.3-21.1-70.2C89.4,16.7,72.6,1.4,45.2,3.2
		C17.7,5,1.1,37.1,0.3,72.3c-3.1,36.7,16.6,116.8,25,134.5"/>
	<path class="st1" d="M124.8,204.4c0,0,5-70.8,2.7-88.5c-1-7.9-5.4-44.9-20.4-68C88.6,19.5,72.4,4.6,45.8,6.3
		C19.2,8.1,3.1,39.2,2.3,73.4c-3,35.6,13.9,109.7,22.1,126.9"/>
	<path class="st3" d="M56.1,13.6c16.7-1.1,33,18.4,39,26.6s20.8,45.9,24.7,70.7c3.9,24.8,8.1,88.7,6.5,104.3
		c-1.6,15.6-3,59.8-2.8,78.3c0.1,9,0.1,26.7-5.5,39.8c-5.9,13.8-17.6,22.9-26.9,24.7c-18,3.4-38.1-8.3-45.5-22.2
		c-7.3-14-9.4-37.1-11.7-65C31.6,242.8,13,140.5,13,140.5s-9.1-40.5-0.9-82C20.3,16.9,39.4,14.7,56.1,13.6z"/>
	<g class="st4">
		<path class="st5" d="M75,357.1c0.3,0,0.5-0.2,0.7-0.4c0.4-0.5,0.3-1.2-0.2-1.6c-8.7-6.5-16.4-19.6-22.3-30.3
			c-3.9-7.2-9.3-13.8-13.1-18c-0.4-0.5-1.1-0.5-1.6-0.1c-0.5,0.4-0.5,1.1-0.1,1.6c3.7,4.1,9,10.5,12.8,17.5
			c5.9,10.9,13.9,24.2,22.9,31C74.4,357.1,74.7,357.2,75,357.1z"/>
	</g>
	<path class="st6" d="M38.5,308.8c3.9,4.3,9.1,10.7,13,17.7c5.4,10,13.5,23.8,22.6,30.6"/>
	<path class="st7" d="M55.4,101.1c-1.5,29.2,0.4,74.4-2.5,81.8c-4.3,11-16.6,38-18,68c-1.4,31.2,30.4,95.2,39.3,101.5
		c8.2,5.8,22.2,4.6,29.2-3.1c6.8-5.8,17.7-98.1,13.8-116.9c-3.9-18.8-17.9-43.5-23.8-51.8c-3.9-5.5-12.7-51.7-20.9-80.8
		c-2.1,0-4,0.1-5.7,0.1C62.9,100,59.1,100.4,55.4,101.1z M110.7,231.1c3.3,15.6-5.1,106.9-10.7,111.7c-5.9,6.4-17.5,7.4-24.3,2.6
		c-7.4-5.2-37.2-70.9-36-96.8c1.2-24.9,15.2-47.7,18.8-56.9c3.6-9.1,2.5-90.2,4.7-90.3c2.2-0.1,21.4,80.7,26.3,87.5
		C94.3,195.8,107.5,215.4,110.7,231.1z"/>
	<path class="st8" d="M102.1,209.3c-4.7-8.8-10-16.6-12.7-20.4c-4.9-6.8-24.1-87.7-26.3-87.5c-2.2,0.1-1.1,81.2-4.7,90.3
		c-1.7,4.3-5.7,11.6-9.5,20.7c0.9,0.8,2.9,1.6,7,1.5C63.9,213.6,95.7,212.4,102.1,209.3z"/>
	<g>
		<path class="st7" d="M55.6,209.2c-2.3,0.1-4-0.1-5.1-0.5c-0.5,1.2-1.1,2.4-1.6,3.7c0.9,0.8,2.9,1.6,7,1.5c8-0.3,39.8-1.5,46.2-4.6
			c-0.7-1.4-1.5-2.7-2.2-4C90.7,207.9,63,208.9,55.6,209.2z"/>
	</g>
	<g class="st9">
		<path class="st10" d="M65.2,106.3c-1-3.1-1.7-4.9-2-4.9c-2.2,0.1-1.1,81.2-4.7,90.3c-1.7,4.3-5.7,11.6-9.5,20.7
			c0.6,0.5,1.5,1,3.1,1.2c3.7-8.6,7.5-15.5,9.1-19.7C64.3,185.8,63.7,120.1,65.2,106.3z"/>
		<g>
			<path class="st10" d="M99.1,210.3c1.2-0.3,2.3-0.6,3-1c-4.7-8.8-10-16.6-12.7-20.4c-4.9-6.8-24.1-87.7-26.3-87.5
				c-0.3,0-0.6,2-0.8,5.4c5.2,15.2,20.5,78.2,24.8,84.3C89.7,194.7,94.6,201.9,99.1,210.3z"/>
		</g>
	</g>
	<path class="st11" d="M110.7,231.1c-1.4-6.9-4.9-14.7-8.6-21.8c-6.4,3.1-38.2,4.3-46.2,4.6c-4.1,0.2-6.1-0.6-7-1.5
		c-4.4,10.3-8.6,22.9-9.2,36.1c-1.2,25.9,28.7,91.6,36,96.8c6.8,4.8,18.4,3.8,24.3-2.6C105.6,338,114,246.7,110.7,231.1z"/>
	<path class="st12" d="M110.7,231.1c-1.4-6.9-4.9-14.7-8.6-21.8c-6.4,3.1-38.2,4.3-46.2,4.6c-4.1,0.2-6.1-0.6-7-1.5
		c-4.4,10.3-8.6,22.9-9.2,36.1c-1.2,25.9,28.7,91.6,36,96.8c6.8,4.8,18.4,3.8,24.3-2.6C105.6,338,114,246.7,110.7,231.1z"/>
	<g class="st13">
		<path class="st14" d="M105.7,216.5c-1.1-2.4-2.3-4.8-3.6-7.2c-6.4,3.1-38.2,4.3-46.2,4.6c-4.1,0.2-6.1-0.6-7-1.5
			c-0.8,1.9-1.6,3.9-2.4,5.9c1,0.1,2.2,0.4,3.5,0.9C60.6,222.9,91.8,221.1,105.7,216.5z"/>
	</g>
	<g class="st15">
		<path class="st14" d="M86,332.6c-8.9,0.3-18.1-5.7-23.9-10.5c5.8,12.3,11.1,21.5,13.7,23.3c6.8,4.8,18.4,3.8,24.3-2.6
			c1.8-1.5,3.9-11.9,5.7-25.7C101.1,324.3,94.1,332.3,86,332.6z"/>
	</g>
	<path class="st16" d="M101.8,301.9c1.3-17.4,4.5-52.2,1.7-64.4c-2.8-12.2-21.9-17.8-36.9-12.9s-20.5,19.6-19,34.9
		c1.5,15.2,17.5,63.5,25.8,69.5c6,4.3,16,8.1,21.4,2.5C100.3,325.8,101.1,310.6,101.8,301.9z"/>
	<g>
		<path class="st2" d="M18.6,44.9c5.3-15.2,13.5-29.6,35.8-29.2c21.1,0.8,37,21.1,45.3,38.7c8.3,17.6,16.2,43.4,18.6,63.3
			c2,16.7,4.9,54.6,7.8,69.6c-1-25.4-3.8-59.7-6.4-76.4c-1.9-12.3-5.5-27.5-10.5-40.9c-5.1-13.7-11.7-25.3-14.2-29.9
			c-4.9-8.9-25.2-29.9-42.3-28.6c-16.7,1.1-32.5,5.3-40.7,46.9c-6.8,34.8-1.6,68.8,0.3,79c0.1-6.6,0.2-16.4-0.1-25.1
			C11.7,97.6,13.3,60,18.6,44.9z"/>
	</g>
	<path class="st17" d="M124.8,209.7c0,0-0.3-1-0.8-2.8c-0.5-1.8-1.2-4.5-2.1-7.9c-0.8-3.4-1.8-7.5-2.8-12.3c-1-4.8-2-10.2-2.8-16.2
		c-0.8-6-1.6-12.4-2-19.3c-0.1-1.7-0.2-3.5-0.3-5.2c-0.1-1.7-0.3-3.5-0.5-5.3c-0.4-3.6-1-7.2-1.8-10.8c-0.8-3.6-1.9-7.2-3.4-10.7
		c-1.5-3.4-3.4-6.8-6-9.5l-1-1l-0.3-0.2c0,0-0.1-0.1-0.1-0.1l-0.1-0.1l-0.6-0.5l-1.2-0.9l-1.2-0.7c-1.6-1-3.3-1.8-5.1-2.5
		c-3.6-1.3-7.5-2.1-11.4-2.5c-3.9-0.4-7.9-0.4-11.8-0.3l-3,0.1l-3,0.1c-1.9,0.2-3.9,0.3-5.8,0.6c-7.7,1.1-15.1,3.3-21.7,6.5
		c-0.8,0.4-1.6,0.8-2.4,1.3l-1.2,0.7l-1.1,0.7c-0.8,0.5-1.4,1-2.1,1.6c-0.3,0.3-0.6,0.6-1,0.9l-0.5,0.4l-0.4,0.5l-0.4,0.5L27,115
		l-0.2,0.3c-0.2,0.4-0.5,0.8-0.7,1.1c-0.4,0.7-0.7,1.5-1,2.3c-0.6,1.6-1.1,3.2-1.4,4.9c-0.7,3.3-1.2,6.6-1.5,9.8
		c-0.3,3.2-0.5,6.3-0.6,9.3c-0.4,11.9-0.2,21.9-0.1,28.9c0.1,7,0.1,11,0.1,11c0,0.2-0.2,0.4-0.4,0.4c-0.2,0-0.4-0.2-0.4-0.4l0,0
		c0,0-0.1-4-0.4-11c-0.1-3.5-0.3-7.7-0.4-12.6c-0.1-4.9-0.2-10.4,0-16.4c0.1-3,0.2-6.1,0.5-9.4c0.3-3.2,0.7-6.6,1.4-10
		c0.4-1.7,0.8-3.4,1.4-5.2c0.3-0.9,0.7-1.7,1.2-2.6c0.2-0.5,0.5-0.8,0.7-1.2l0.2-0.3c0.1-0.2,0.2-0.2,0.3-0.3l0.5-0.6
		c1.3-1.5,2.7-2.7,4.3-3.7l1.2-0.8l1.2-0.7c0.8-0.5,1.7-0.9,2.5-1.4c6.8-3.4,14.5-5.6,22.3-6.8c2-0.3,4-0.5,6-0.7l3-0.1l3-0.1
		c4-0.1,8-0.1,12.1,0.3c4,0.4,8.1,1.2,12,2.6c1.9,0.8,3.8,1.6,5.5,2.8l1.3,0.9l1.2,0.9l0.6,0.5l0.1,0.1c0,0,0.1,0.1,0.1,0.1l0.1,0.1
		l0.3,0.3l1.1,1.1c2.8,3,4.8,6.6,6.4,10.2c1.5,3.6,2.6,7.4,3.5,11.1c0.8,3.7,1.4,7.4,1.8,11c0.2,1.8,0.3,3.6,0.4,5.4
		c0.1,1.8,0.2,3.5,0.3,5.2c0.3,6.8,1,13.3,1.7,19.2c1.6,11.9,3.5,21.7,5,28.5c0.8,3.4,1.4,6.1,1.9,7.9c0.5,1.8,0.7,2.8,0.7,2.8
		c0.1,0.2-0.1,0.4-0.3,0.5C125.1,210,124.9,209.9,124.8,209.7z"/>
	<path class="st18" d="M125.6,199.4c-3-12.4-7-32-7.9-53.2C116.9,129.5,111,113,102,105c-10.1-8.8-26-7.9-35-7.7
		c-17.9,0.4-37.3,6.4-42.1,13.2c-6.7,9.3-6.4,37.6-6.4,59.6"/>
	<path class="st19" d="M124.6,185.4c-2.5-11.9-5.2-27.9-5.9-45c-0.8-16.8-8-33.2-17-41.2c-10.1-8.8-26-7.9-35-7.7
		C48.6,92,29.3,98,24.4,104.7c-6.4,8.9-7.3,34.6-7.8,55.7"/>
	<g class="st20">
		<path class="st5" d="M104.9,350.9c0.3-0.1,0.6-0.3,0.8-0.6c6.3-11.8,11.6-31.4,12.5-36.9c0.7-4,2.8-10.4,4.5-15.1
			c0.2-0.6-0.1-1.2-0.7-1.4c-0.6-0.2-1.2,0.1-1.4,0.7c-1.7,4.8-3.8,11.3-4.6,15.5c-1,5.8-6.4,25.2-12.3,36.2
			c-0.3,0.5-0.1,1.2,0.5,1.5C104.4,350.9,104.7,350.9,104.9,350.9z"/>
	</g>
	<path class="st6" d="M122.9,298.1c-1.7,4.8-3.8,11.2-4.5,15.3c-1,5.6-6.3,25.2-12.4,36.5"/>
	<g>
		<path class="st21" d="M63.1,101.4c-2.2,0.1-1.1,81.2-4.7,90.3c-3.6,9.1-17.6,32-18.8,56.9c-1.2,25.9,28.7,91.6,36,96.8
			c6.8,4.8,18.4,3.8,24.3-2.6c5.6-4.8,14-96.1,10.7-111.7c-3.3-15.6-16.4-35.3-21.3-42.1C84.5,182.1,65.4,101.2,63.1,101.4z"/>
	</g>
	<ellipse transform="matrix(0.9152 -0.403 0.403 0.9152 -44.0664 27.2696)" class="st22" cx="42.8" cy="118.3" rx="6" ry="4.3"/>
	<ellipse transform="matrix(0.9152 -0.403 0.403 0.9152 -44.0671 27.2703)" class="st23" cx="42.8" cy="118.3" rx="3.6" ry="2.5"/>
	<ellipse transform="matrix(0.9152 -0.403 0.403 0.9152 -50.9037 28.4323)" class="st22" cx="42.1" cy="135.2" rx="5.4" ry="4.1"/>
	<ellipse transform="matrix(0.9152 -0.403 0.403 0.9152 -50.9037 28.4323)" class="st23" cx="42.1" cy="135.2" rx="3.2" ry="2.4"/>
	<ellipse transform="matrix(0.9152 -0.403 0.403 0.9152 -57.3707 29.9263)" class="st22" cx="42.4" cy="151.3" rx="5.4" ry="4.1"/>
	<ellipse transform="matrix(0.9152 -0.403 0.403 0.9152 -57.3706 29.9263)" class="st23" cx="42.4" cy="151.3" rx="3.2" ry="2.4"/>
	
		<ellipse transform="matrix(0.8487 -0.5289 0.5289 0.8487 -83.6289 47.5242)" class="st22" cx="41.2" cy="169.9" rx="5.4" ry="4.1"/>
	
		<ellipse transform="matrix(0.8487 -0.5289 0.5289 0.8487 -83.6294 47.5246)" class="st23" cx="41.2" cy="169.9" rx="3.2" ry="2.4"/>
	<ellipse transform="matrix(0.7112 -0.703 0.703 0.7112 -120.1037 83.7492)" class="st22" cx="41.9" cy="188" rx="5.4" ry="4.1"/>
	<ellipse transform="matrix(0.7112 -0.703 0.703 0.7112 -120.1036 83.7492)" class="st23" cx="41.9" cy="188" rx="3.2" ry="2.4"/>
	<ellipse transform="matrix(0.2798 -0.9601 0.9601 0.2798 -45.3818 167.5277)" class="st22" cx="89" cy="114" rx="4.3" ry="6"/>
	<ellipse transform="matrix(0.2798 -0.9601 0.9601 0.2798 -45.3821 167.5271)" class="st23" cx="89" cy="114" rx="2.5" ry="3.6"/>
	
		<ellipse transform="matrix(0.2798 -0.9601 0.9601 0.2798 -57.2854 183.1563)" class="st22" cx="93.4" cy="129.8" rx="4.1" ry="5.4"/>
	<ellipse transform="matrix(0.2798 -0.96 0.96 0.2798 -57.2859 183.1549)" class="st23" cx="93.4" cy="129.8" rx="2.4" ry="3.2"/>
	<ellipse transform="matrix(0.2798 -0.9601 0.9601 0.2798 -71.0802 198.7974)" class="st22" cx="97" cy="146.8" rx="4.1" ry="5.4"/>
	<ellipse transform="matrix(0.2798 -0.9601 0.9601 0.2798 -71.0796 198.7991)" class="st23" cx="97" cy="146.8" rx="2.4" ry="3.2"/>
	
		<ellipse transform="matrix(0.4134 -0.9106 0.9106 0.4134 -90.5891 187.3909)" class="st22" cx="100.1" cy="164" rx="4.1" ry="5.4"/>
	
		<ellipse transform="matrix(0.4134 -0.9106 0.9106 0.4134 -90.5893 187.3902)" class="st23" cx="100.1" cy="164" rx="2.4" ry="3.2"/>
	
		<ellipse transform="matrix(0.6039 -0.797 0.797 0.6039 -104.7569 153.3066)" class="st22" cx="101.9" cy="182.1" rx="4.1" ry="5.4"/>
	
		<ellipse transform="matrix(0.6039 -0.797 0.797 0.6039 -104.7573 153.3098)" class="st23" cx="101.9" cy="182.1" rx="2.4" ry="3.2"/>
	<g class="st24">
		<g>
			<path class="st25" d="M41.9,122.1c-0.4,0-0.8-0.1-1.2-0.3c-1-0.6-1.3-1.8-0.7-2.8c3.3-5.4,14.6-6.7,26.8-7.7
				c1.9-0.2,3.5-0.3,4.8-0.4c7.9-0.9,17.9,1.9,18.4,2.1c1.1,0.3,1.7,1.4,1.4,2.5c-0.3,1.1-1.4,1.7-2.5,1.4c-0.1,0-9.7-2.7-16.8-1.9
				c-1.4,0.2-3,0.3-4.9,0.4c-7.4,0.6-21.2,1.7-23.7,5.8C43.1,121.7,42.5,122,41.9,122.1z"/>
		</g>
		<g>
			<path class="st25" d="M43,138.7c-0.4,0-0.8-0.1-1.2-0.3c-1-0.6-1.3-1.8-0.7-2.8c3.3-5.4,14.6-6.7,26.8-7.7
				c1.9-0.2,3.5-0.3,4.8-0.4c6.3-0.7,20-0.3,22.5,3c0.7,0.9,0.5,2.2-0.4,2.8c-0.9,0.6-2.1,0.5-2.8-0.3c-1.5-1.2-11.3-2.4-18.8-1.5
				c-1.4,0.2-3,0.3-4.9,0.4c-7.4,0.6-21.2,1.7-23.7,5.8C44.2,138.3,43.6,138.7,43,138.7z"/>
		</g>
		<g>
			<path class="st25" d="M42.9,154.8c-0.4,0-0.8-0.1-1.2-0.3c-1-0.6-1.3-1.8-0.7-2.8c3.3-5.4,15-6.7,27.8-7.8
				c1.9-0.2,3.6-0.3,4.9-0.4c6.4-0.7,21.7,0.6,24.1,4c0.7,0.9,0.5,2.2-0.4,2.8c-0.9,0.6-2.1,0.5-2.8-0.3c-1.6-1.3-13.2-3.3-20.5-2.4
				c-1.4,0.2-3.1,0.3-5.1,0.5c-7.7,0.6-22.2,1.8-24.7,5.8C44.2,154.5,43.6,154.8,42.9,154.8z"/>
		</g>
		<g>
			<path class="st25" d="M40.8,173c-0.4,0-0.8-0.1-1.2-0.3c-1-0.6-1.3-1.8-0.7-2.8c3.4-5.6,16.3-7.3,29.2-8.6
				c1.3-0.1,2.5-0.2,3.5-0.4c5.7-0.7,27.7,0.4,30.3,3.8c0.7,0.9,0.5,2.2-0.4,2.8c-0.8,0.6-2,0.5-2.7-0.2c-2.3-1.3-19.2-3.3-26.7-2.4
				c-1,0.1-2.2,0.2-3.5,0.4c-7.6,0.7-23.5,2.3-26.2,6.7C42,172.6,41.4,172.9,40.8,173z"/>
		</g>
		<g>
			<path class="st25" d="M41.1,191.9c-0.4,0-0.8-0.1-1.2-0.3c-1-0.6-1.3-1.8-0.7-2.8c3.7-6,18.5-8.4,32.4-10l0.2,0
				c3.7-0.4,10.5-0.3,17.5,0.4c12.3,1.2,13.4,2.7,13.9,3.4c0.7,0.9,0.5,2.2-0.4,2.8c-0.8,0.6-2,0.5-2.7-0.2
				c-2.5-1.4-20.6-3.2-27.8-2.3l-0.2,0c-17.4,2-27.3,4.7-29.4,8.1C42.3,191.5,41.7,191.8,41.1,191.9z"/>
		</g>
	</g>
	<g>
		<g>
			<path class="st1" d="M41.7,120.1c-0.4,0-0.8-0.1-1.2-0.3c-1-0.6-1.3-1.8-0.7-2.8c3.3-5.4,14.6-6.7,26.8-7.7
				c1.9-0.2,3.5-0.3,4.8-0.4c7.9-0.9,17.9,1.9,18.4,2.1c1.1,0.3,1.7,1.4,1.4,2.5c-0.3,1.1-1.4,1.7-2.5,1.4c-0.1,0-9.7-2.7-16.8-1.9
				c-1.4,0.2-3,0.3-4.9,0.4c-7.4,0.6-21.2,1.7-23.7,5.8C43,119.7,42.4,120.1,41.7,120.1z"/>
		</g>
		<g>
			<path class="st1" d="M42.8,136.7c-0.4,0-0.8-0.1-1.2-0.3c-1-0.6-1.3-1.8-0.7-2.8c3.3-5.4,14.6-6.7,26.8-7.7
				c1.9-0.2,3.5-0.3,4.8-0.4c6.3-0.7,20-0.3,22.5,3c0.7,0.9,0.5,2.2-0.4,2.8c-0.9,0.6-2.1,0.5-2.8-0.3c-1.5-1.2-11.3-2.4-18.8-1.5
				c-1.4,0.2-3,0.3-4.9,0.4c-7.4,0.6-21.2,1.7-23.7,5.8C44.1,136.3,43.5,136.7,42.8,136.7z"/>
		</g>
		<g>
			<path class="st1" d="M42.8,152.9c-0.4,0-0.8-0.1-1.2-0.3c-1-0.6-1.3-1.8-0.7-2.8c3.3-5.4,15-6.7,27.8-7.8
				c1.9-0.2,3.6-0.3,4.9-0.4c6.4-0.7,21.7,0.6,24.1,4c0.7,0.9,0.5,2.2-0.4,2.8c-0.9,0.6-2.1,0.5-2.8-0.3c-1.6-1.3-13.2-3.3-20.5-2.4
				c-1.4,0.2-3.1,0.3-5.1,0.5c-7.7,0.6-22.2,1.8-24.7,5.8C44,152.5,43.4,152.8,42.8,152.9z"/>
		</g>
		<g>
			<path class="st1" d="M40.6,171c-0.4,0-0.8-0.1-1.2-0.3c-1-0.6-1.3-1.8-0.7-2.8c3.4-5.6,16.3-7.3,29.2-8.6
				c1.3-0.1,2.5-0.2,3.5-0.4c5.7-0.7,27.7,0.4,30.3,3.8c0.7,0.9,0.5,2.2-0.4,2.8c-0.8,0.6-2,0.5-2.7-0.2c-2.3-1.3-19.2-3.3-26.7-2.4
				c-1,0.1-2.2,0.2-3.5,0.4c-7.6,0.7-23.5,2.3-26.2,6.7C41.9,170.6,41.3,171,40.6,171z"/>
		</g>
		<g>
			<path class="st1" d="M41,189.9c-0.4,0-0.8-0.1-1.2-0.3c-1-0.6-1.3-1.8-0.7-2.8c3.7-6,18.5-8.4,32.4-10l0.2,0
				c3.7-0.4,10.5-0.3,17.5,0.4c12.3,1.2,13.4,2.7,13.9,3.4c0.7,0.9,0.5,2.2-0.4,2.8c-0.8,0.6-2,0.5-2.7-0.2
				c-2.5-1.4-20.6-3.2-27.8-2.3l-0.2,0c-17.4,2-27.3,4.7-29.4,8.1C42.2,189.5,41.6,189.9,41,189.9z"/>
		</g>
	</g>
	<g>
		<g class="st26">
			<path class="st3" d="M90.9,111.7c-0.3,1-1.4,1.6-2.5,1.3c-0.1,0-9.7-2.7-16.8-1.9c-1.4,0.2-3,0.3-4.9,0.4
				c-7.4,0.6-21.2,1.7-23.7,5.8c-0.4,0.6-1,0.9-1.6,1c-0.4,0-0.8-0.1-1.2-0.3c-0.2-0.1-0.4-0.3-0.6-0.5c-0.3,0.9,0.1,1.9,0.9,2.4
				c0.4,0.2,0.8,0.3,1.2,0.3c0.6,0,1.2-0.4,1.6-1c2.5-4.1,16.3-5.2,23.7-5.8c1.9-0.2,3.6-0.3,4.9-0.4c7.1-0.8,16.7,1.9,16.8,1.9
				c1.1,0.3,2.2-0.3,2.5-1.4C91.4,112.8,91.3,112.2,90.9,111.7z"/>
		</g>
		<path class="st27" d="M95.1,128.6c-0.1,0.4-0.4,0.8-0.8,1.1c-0.9,0.6-2.1,0.5-2.8-0.3c-1.5-1.2-11.3-2.4-18.8-1.5
			c-1.4,0.2-3,0.3-4.9,0.4c-7.4,0.6-21.2,1.7-23.7,5.8c-0.4,0.6-1,0.9-1.6,1c-0.4,0-0.8-0.1-1.2-0.3c-0.2-0.2-0.4-0.4-0.6-0.6
			c-0.2,0.8,0.1,1.7,0.9,2.2c0.4,0.2,0.8,0.3,1.2,0.3c0.6,0,1.2-0.4,1.6-1c2.5-4.1,16.3-5.2,23.7-5.8c1.9-0.2,3.6-0.3,4.9-0.4
			c7.5-0.9,17.3,0.3,18.8,1.5c0.7,0.8,1.9,1,2.8,0.3C95.5,130.7,95.7,129.5,95.1,128.6z"/>
		<g class="st26">
			<path class="st3" d="M97.3,146.6c-0.9,0.6-2.1,0.5-2.8-0.3c-1.6-1.3-13.2-3.3-20.5-2.4c-1.4,0.2-3.1,0.3-5.1,0.5
				c-7.7,0.6-22.2,1.8-24.7,5.8c-0.4,0.6-1,0.9-1.6,1c-0.4,0-0.8-0.1-1.2-0.3c-0.3-0.2-0.5-0.4-0.7-0.7c-0.4,0.9-0.1,2,0.8,2.5
				c0.4,0.2,0.8,0.3,1.2,0.3c0.6,0,1.2-0.4,1.6-1c2.5-4.1,16.9-5.2,24.7-5.8c2-0.2,3.7-0.3,5.1-0.5c7.3-0.8,18.8,1.2,20.5,2.4
				c0.7,0.8,1.9,1,2.8,0.3c0.8-0.6,1.1-1.8,0.5-2.6C97.8,146.1,97.6,146.4,97.3,146.6z"/>
		</g>
		<g class="st26">
			<path class="st3" d="M101.2,163.8c-0.8,0.6-2,0.5-2.7-0.2c-2.3-1.3-19.2-3.3-26.7-2.4c-1,0.1-2.2,0.2-3.5,0.4
				c-7.6,0.7-23.5,2.3-26.2,6.7c-0.4,0.6-1,0.9-1.6,1c-0.4,0-0.8-0.1-1.2-0.3c-0.3-0.2-0.5-0.4-0.7-0.7c-0.4,0.9-0.1,2,0.8,2.5
				c0.4,0.2,0.8,0.3,1.2,0.3c0.6,0,1.2-0.4,1.6-1c2.7-4.4,18.5-5.9,26.2-6.7c1.3-0.1,2.5-0.2,3.5-0.4c7.6-0.9,24.5,1.1,26.7,2.4
				c0.7,0.7,1.9,0.9,2.7,0.2c0.8-0.6,1.1-1.8,0.5-2.7C101.7,163.3,101.5,163.6,101.2,163.8z"/>
		</g>
		<g class="st26">
			<path class="st3" d="M102.6,181.5c-0.8,0.6-2,0.5-2.7-0.2c-2.5-1.4-20.6-3.2-27.8-2.3l-0.2,0c-17.4,2-27.3,4.7-29.4,8.1
				c-0.4,0.6-1,0.9-1.6,1c-0.4,0-0.8-0.1-1.2-0.3c-0.3-0.2-0.5-0.4-0.7-0.7c-0.4,0.9-0.1,2,0.8,2.5c0.4,0.2,0.8,0.3,1.2,0.3
				c0.6,0,1.2-0.4,1.6-1c2.1-3.4,12-6.1,29.4-8.1l0.2,0c7.2-0.8,25.4,0.9,27.8,2.3c0.7,0.7,1.8,0.8,2.7,0.2c0.8-0.6,1.1-1.8,0.5-2.7
				C103.1,181,102.9,181.3,102.6,181.5z"/>
		</g>
	</g>
	<g class="st28">
		<path class="st29" d="M10.3,96.9c0,0,0-3.2,0.3-8.8c0.3-5.6,0.8-13.6,2.3-23.2c0.7-4.8,1.7-9.9,3.1-15.3c1.4-5.3,3.1-11,5.9-16.4
			c2.7-5.4,6.5-10.6,11.7-14.4c5.2-3.8,11.7-5.8,18.2-5.6c6.5,0.1,12.9,1.8,18.6,4.6c5.7,2.8,10.7,6.8,14.8,11.3
			c4,4.5,7.2,9.4,10,14.2c2.8,4.8,5.2,9.4,7.3,13.8c4.2,8.7,7.1,16.2,8.9,21.5c0.9,2.7,1.5,4.8,1.9,6.2c0.4,1.5,0.5,2.3,0.5,2.3
			l-0.3,0c0,0-0.1-0.8-0.5-2.2c-0.4-1.5-1-3.6-2-6.2c-1.9-5.3-4.9-12.7-9-21.4c-2.1-4.3-4.5-9-7.3-13.7c-2.8-4.7-6-9.6-10-14.1
			c-4-4.4-9-8.3-14.6-11.1c-5.6-2.7-12-4.4-18.3-4.5C45.4,13.9,39,15.8,34,19.5c-5.1,3.7-8.9,8.8-11.6,14.1
			c-2.7,5.3-4.5,10.9-5.9,16.2c-1.4,5.3-2.3,10.5-3.1,15.2c-1.5,9.5-2.1,17.5-2.5,23.1c-0.3,5.6-0.4,8.8-0.4,8.8L10.3,96.9z"/>
	</g>
	<g class="st30">
		<path class="st29" d="M25.7,86.2c0.8-1.7,1.6-3.3,2.5-5c1.6,2.3,0.4,6.1-2.3,6.9"/>
		<path class="st29" d="M31.3,74.4c0.1-1.6,0.9-3.1,2.2-4.2c1.1,2.3,0.3,5.5-1.8,7c-0.1-0.4-0.2-0.9-0.3-1.3"/>
		<path class="st29" d="M33.4,64.3c0-2.6,1.4-5.1,3.6-6.4c0.1,2.7-1.3,5.3-3.4,6.8"/>
		<path class="st29" d="M25.8,70.3c0-2.2-0.1-4.5-0.1-6.7c0-1,0.2-2.4,1.2-2.5c1-0.2,1.7,1,1.5,2c-0.2,1-0.9,1.7-1.5,2.5
			c-0.6,0.8-1.1,1.9-0.6,2.8"/>
		<path class="st29" d="M38.1,42.1c-1.1,1.4-1.8,3.2-1.9,5c1.3,0.7,1.7,2.6,0.9,3.8c2.2,0.3,4.5-1.3,4.9-3.4c0.5-2.2-0.9-4.5-3-5.2"
			/>
		<path class="st29" d="M42.8,64c-0.8,1.8-1.6,3.6-2.4,5.4c-0.2,0.4-0.3,0.8-0.2,1.1c0.1,0.3,0.4,0.6,0.6,0.8c0.8,0.8,1.1,2,0.8,3.1
			c1.9-1.5,3.4-3.6,4.3-5.9c0.7-1.8,0.7-4.3-1.1-5c-0.8-0.3-1.8-0.3-2.2-1"/>
		<path class="st29" d="M50.8,48.3c-1.5,1.7-2.2,4.1-1.7,6.4c0.8,0,1.6-0.1,2.4-0.1c-0.1,0.4,0.2,0.9,0.6,1c1.2-1.1,2.5-2.3,3-3.8
			c0.5-1.6-0.1-3.6-1.6-4.1c-0.9-0.3-1.9-0.1-2.8-0.4"/>
		<path class="st29" d="M47.9,37.9c-0.7,0.6-1.4,1.3-1.6,2.3c-0.2,0.9,0.3,2.1,1.3,2.1c0.5,0,0.9-0.2,1.2-0.5c1.4-1.3,1.2-4-0.4-5.1
			"/>
		<path class="st29" d="M56.6,27.9c0.1,1.4-0.8,2.6-1.2,3.9c-0.4,1.3,0.1,3.1,1.4,3.3c1.5,0.1,2.2-1.7,2.2-3.2
			c0-1.5-0.5-3.2-1.9-3.6"/>
		<path class="st29" d="M62.8,39.7c-0.8,1.2-1.5,2.4-2.1,3.7c-0.3,0.5-0.5,1.1-0.3,1.7c0.4,1.2,2.5,1,3.1-0.2
			c0.6-1.2,0.2-2.6-0.2-3.8s-0.9-2.6-0.4-3.8"/>
		<path class="st29" d="M62.5,51c-0.6,0.9-1.1,1.8-1.1,2.8c0,1,0.9,2.1,1.9,1.9c0.6-0.1,1.1-0.6,1.4-1.2c0.4-0.6,0.8-1.2,0.8-2
			c0-0.7-0.5-1.5-1.2-1.5c-0.4,0-0.7,0.1-1.1,0.1c-0.4,0-0.7-0.4-0.5-0.7"/>
		<path class="st29" d="M71.2,48.2c-0.9,0.7-1.9,2.1-1.1,2.9c0.5,0.4,1.2,0.4,1.8,0c1.9-1,1.9-4.2,0.1-5.4c-1.1-0.7-3-0.3-2.9,1"/>
		<path class="st29" d="M67,31.2c-0.5,1.1,0.1,2.4,1,3.2c0.9,0.8,2.1,1.1,3.3,1.5c0.7-1.3,0.4-3-0.6-4c-1-1-2.7-1.3-4-0.6"/>
		<path class="st29" d="M67.4,65.6c-1.3,2.4-1,5.5,0.8,7.6c0.7-0.8,1.4-1.7,1.8-2.7c0.4-1,0.3-2.3-0.4-3c-0.3-0.3-0.7-0.6-0.8-1
			c-0.1-0.4,0.1-0.7,0.1-1.1c0.2-1.3-1.8-2.4-2.8-1.5"/>
		<path class="st29" d="M58.5,63.8c-1.8,3.1-3.2,6.5-4.1,10c1.3-0.8,2.7-1.8,3.3-3.3c0.7-1.7,0.3-3.7,1.2-5.2c0.3-0.5,0.8-0.9,1-1.5
			c0.3-0.5,0.3-1.3-0.2-1.6c-0.5-0.4-1.4,0.1-1.2,0.6"/>
		<path class="st29" d="M54.5,81.8c-0.3,1.1,0.4,2.4,1.6,2.6c1.2-0.3,2.1-1.8,1.7-3c-0.4-1.2-1.8-2-3.1-1.6"/>
		<path class="st29" d="M50.4,71c-1.2,2.6-2,5.3-2.4,8c1.7,0,2.4-2.2,2.2-3.9c-0.2-1.7-0.9-3.4-0.3-4.9"/>
		<path class="st29" d="M73,68.4c-0.4,1.5-0.6,3.2,0.2,4.5c0.8,1.3,3,1.7,3.8,0.4c0.7-1.2-0.2-2.7-1.1-3.7c-0.9-1-2-2.2-1.8-3.6"/>
		<path class="st29" d="M78.7,54.7c-1.5,2-0.3,5.3,2.1,5.9c0.4-0.8,1.2-1.5,1.3-2.5c0.3-1.9-2-3-3.9-3.6"/>
		<path class="st29" d="M82.8,77C82.4,78,82,78.9,82,79.9c0,1,0.6,2,1.5,2.3c0.2,0.1,0.4,0.1,0.6,0c0.2-0.1,0.2-0.4,0.3-0.6
			c0.2-2.1,0.1-4.7-1.7-5.8"/>
		<path class="st29" d="M84.7,68.1c-0.6,2,1.1,4.4,3.2,4.4c0.4,0,0.8-0.1,1-0.4c0.4-0.6-0.3-1.2-0.7-1.7c-0.7-0.8-1-2-1.8-2.8
			c-0.7-0.8-2.2-1.2-2.9-0.3"/>
		<path class="st29" d="M80.1,43c0.4,1.8,0.7,3.5,0.7,5.3c1.2-0.4,2.1-1.7,2-3c0-1.3-1-2.5-2.2-2.8"/>
		<path class="st29" d="M73.5,56.4c-1.4,1.1-2.3,2.9-2.2,4.7c2-0.6,3.3-3,2.7-4.9"/>
		<path class="st29" d="M28.5,40.2c-0.6,2-0.9,4.1-0.9,6.1c0,1.3,0.4,3,1.7,3c-0.5-1.1,0.5-2.3,0.7-3.5c0.4-1.5-0.6-3.3-2.1-3.7"/>
		<path class="st29" d="M35.7,33.3c0.6,1.3,1.4,2.4,2.4,3.4c1-1.8,2-3.7,3-5.5c-2.1,0.2-4.2,0.7-6.2,1.5"/>
		<path class="st29" d="M45.2,24.6c0.2,0.8,0.3,1.7,0.5,2.5c0,0.2,0.1,0.5,0.3,0.6c0.2,0.2,0.6,0.2,0.8,0.1c1.4-0.3,2.7-1.2,3.4-2.4
			c0.2-0.3,0.3-0.7,0.1-1c-0.1-0.2-0.4-0.3-0.6-0.4c-1.4-0.4-2.9-0.4-4.3,0"/>
		<path class="st29" d="M89.2,55.9c-1,1.8-1.7,3.9-2,5.9c1.2-0.3,2.5,0.1,3.5,0.9c0.6-2.5-0.1-5.2-1.8-7"/>
		<path class="st29" d="M91.2,78.2c-1.6,2-0.3,5.5,2.2,6.1c1.1-2.1-0.2-5-2.5-5.6"/>
		<path class="st29" d="M94.1,70.7c0.7,2,1.8,3.8,3.2,5.3c0.6-2.7-0.2-5.7-2-7.7"/>
		<path class="st29" d="M95.4,94c-0.4,0.9-0.8,1.8-0.7,2.8c0,1,0.6,2,1.5,2.3c0.2,0.1,0.4,0.1,0.6,0c0.2-0.1,0.2-0.4,0.3-0.6
			c0.2-2.1,0.1-4.7-1.7-5.8"/>
		<path class="st29" d="M97.3,85.1c-0.6,2,1.1,4.4,3.2,4.4c0.4,0,0.8-0.1,1-0.4c0.4-0.6-0.3-1.2-0.7-1.7c-0.7-0.8-1-2-1.8-2.8
			c-0.7-0.8-2.2-1.2-2.9-0.3"/>
		<path class="st29" d="M103.9,95.2c-1.6,2-0.3,5.5,2.2,6.1c1.1-2.1-0.2-5-2.5-5.6"/>
		<path class="st29" d="M106.7,87.7c0.7,2,1.8,3.8,3.2,5.3c0.6-2.7-0.2-5.7-2-7.7"/>
		<path class="st29" d="M18.7,75.6c-0.9,1.8-1.4,3.7-1.5,5.7c0,0.3,0,0.7,0.3,0.9c0.2,0.1,0.4,0.1,0.7,0.1c1.1-0.2,2.1-1.1,2.4-2.2
			c0.3-1.1-0.2-2.4-1.1-3.1c-0.2-0.1-0.4-0.3-0.5-0.5c-0.3-0.7,0.8-1.2,0.8-2"/>
		<path class="st29" d="M21.1,59.9c-0.8,1.8-1.4,3.8-1.8,5.7c2.5-0.2,4.3-3,3.6-5.4c-0.6-0.2-1.2-0.2-1.8-0.1"/>
		<path class="st29" d="M21.1,87.7c-0.6,2.2-1,4.4-1,6.7c0.5-1.2,1.6-2.1,1.9-3.4c0.3-1.3-0.9-2.9-2-2.3"/>
		<path class="st29" d="M39.3,80.7c-1.5,1.7-2.4,3.8-2.7,6c1.3-0.4,2.4-1.3,3.1-2.5c0.4-0.7,0.7-1.6,0.4-2.4c-0.3-0.8-1.3-1.3-2-0.8
			"/>
		<path class="st29" d="M43.5,54.3c0.3,1.9,1,3.7,1.9,5.3c1-0.8,1.5-2.2,1.1-3.4c-0.4-1.2-1.6-2.2-2.9-2.2"/>
		<path class="st29" d="M54.1,59.6c-1.6,0.9-3.1,2-4.6,3.2c1.2,1.1,2.3,2.2,3.5,3.4C53.6,64,54,61.8,54.1,59.6"/>
		<path class="st29" d="M69.2,40.7c-0.4,0.2-0.4,0.8-0.1,1.2c0.3,0.4,0.7,0.5,1.2,0.6c1.6,0.4,3.2,0.8,4.9,0.9
			c-0.6-2.2-3-3.7-5.2-3.3"/>
		<path class="st29" d="M77,32.6c-0.2,1.3-0.5,2.7,0.2,3.8c0.7,1.1,2.8,1.3,3.1,0c-1.1-1.6-2.6-2.9-4.4-3.7"/>
		<path class="st29" d="M60.6,24.3c-0.3,1.3-0.5,2.8,0.3,3.9c0.8,1.1,2.9,0.9,3-0.4c0.1-1.7-2.9-1.8-3.5-3.4"/>
		<path class="st29" d="M55.4,40.2c-1,1.2-2,2.5-3.1,3.7c1,0.1,2,0.1,2.9,0.2c0,0.4,0.1,0.8,0.1,1.2c-0.2-2.1,0-4.3,0.7-6.2"/>
		<path class="st29" d="M32.2,37.7c0.1,1.6,0.2,3.1,0.4,4.7c1.3,0.6,2.7-1.1,2.3-2.4c-0.4-1.4-1.7-2.2-3.1-2.6"/>
		<path class="st29" d="M35,50.9c-1.6,1.8-2.9,4-3.7,6.4c1.5,0.5,3.4-0.3,4-1.8c0.6-1.5,0-3.4-1.4-4.1"/>
		<path class="st29" d="M62.5,76.9c-0.5,1.6-1.1,3.2-1.8,4.8c1.2,0.1,2.5-0.1,3.6-0.6c-0.8-1.4-1.2-3.1-0.9-4.7
			c0.1-0.4,0.1-0.8-0.1-1.1c-0.2-0.3-0.9-0.3-0.9,0.1"/>
		<path class="st29" d="M72,79.9c-0.6,1.6-1.2,3.1-1.9,4.7c1.2,0.7,2.7-0.5,2.9-1.9c0.1-1.4-0.7-2.6-1.5-3.7"/>
		<path class="st29" d="M89.8,109.2c-0.9,0.5-1.8,1.1-2.3,2c-0.4,0.9-0.1,2.3,0.8,2.6c0.6,0.2,1.3-0.1,1.8-0.4
			c0.6-0.3,1.3-0.8,1.6-1.4c0.3-0.6,0.2-1.5-0.4-1.9c-0.3-0.2-0.7-0.2-1-0.4c-0.3-0.2-0.4-0.7-0.1-0.9"/>
		<path class="st29" d="M98.8,110.6c-1.2,0.2-2.7,1-2.3,2.2c0.2,0.6,1,0.9,1.6,0.8c2.2-0.1,3.6-3,2.5-4.8c-0.6-1.1-2.6-1.6-3.1-0.4"
			/>
		<path class="st29" d="M87.6,124.4c-2.2,1.5-3.3,4.5-2.7,7.1c1-0.4,2-0.9,2.8-1.6c0.8-0.8,1.3-1.9,1-2.9c-0.1-0.4-0.4-0.8-0.3-1.2
			c0.1-0.4,0.4-0.6,0.6-0.9c0.8-1.1-0.5-2.9-1.8-2.5"/>
		<path class="st29" d="M91.4,129.4c-1,1.2-1.9,2.6-1.8,4.1c0.1,1.5,1.9,2.9,3.2,2.1c1.2-0.7,1-2.5,0.7-3.8c-0.4-1.3-0.8-2.9,0-4"/>
		<path class="st29" d="M102.6,119.7c-2.2,1.1-2.6,4.6-0.7,6.2c0.7-0.6,1.7-0.9,2.3-1.6c1.1-1.6-0.4-3.6-1.9-4.9"/>
		<path class="st29" d="M96.3,141.5c-0.7,0.6-1.5,1.3-1.9,2.2c-0.4,0.9-0.4,2.1,0.3,2.7c0.1,0.1,0.3,0.3,0.5,0.2
			c0.2,0,0.4-0.3,0.5-0.5c1.1-1.8,2.2-4.1,1.1-5.9"/>
		<path class="st29" d="M102,134.4c-1.4,1.6-0.9,4.4,0.9,5.4c0.3,0.2,0.8,0.3,1.1,0.1c0.6-0.4,0.3-1.2,0.1-1.9
			c-0.3-1.1-0.1-2.2-0.3-3.3c-0.3-1.1-1.5-2.1-2.4-1.5"/>
		<path class="st29" d="M97.2,118.9c-1.8,0.3-3.3,1.6-4,3.2c2.1,0.4,4.3-1.2,4.6-3.2"/>
		<path class="st29" d="M111.5,125.5c-1.7,1.2-3.2,2.7-4.4,4.4c1.2,0.3,2.2,1.2,2.7,2.3c1.6-1.9,2.2-4.7,1.5-7.1"/>
		<path class="st29" d="M103.3,146.4c-2.3,1.1-2.8,4.8-0.7,6.4c1.9-1.4,2.1-4.6,0.3-6.2"/>
		<path class="st29" d="M109.2,140.9c-0.3,2.1-0.1,4.2,0.5,6.2c1.7-2.2,2.4-5.2,1.6-7.8"/>
		<path class="st29" d="M100,162.4c-0.7,0.6-1.5,1.3-1.9,2.2c-0.4,0.9-0.4,2.1,0.3,2.7c0.1,0.1,0.3,0.3,0.5,0.2
			c0.2,0,0.4-0.3,0.5-0.5c1.1-1.8,2.2-4.1,1.1-5.9"/>
		<path class="st29" d="M105.7,155.2c-1.4,1.6-0.9,4.4,0.9,5.4c0.3,0.2,0.8,0.3,1.1,0.1c0.6-0.4,0.3-1.2,0.1-1.9
			c-0.3-1.1-0.1-2.2-0.3-3.3c-0.3-1.1-1.5-2.1-2.4-1.5"/>
		<path class="st29" d="M107,167.2c-2.3,1.1-2.8,4.8-0.7,6.4c1.9-1.4,2.1-4.6,0.3-6.2"/>
		<path class="st29" d="M112.9,161.7c-0.3,2.1-0.1,4.2,0.5,6.2c1.7-2.2,2.4-5.2,1.6-7.8"/>
		<path class="st29" d="M85.4,139.3c-1.2,1.1-2.5,2.2-3.7,3.3c0.7,1.2,2.7,0.8,3.4-0.4c0.7-1.2,0.6-2.6,0.4-4"/>
		<path class="st29" d="M33.4,124.2c-1,0.3-2.1,0.5-2.7,1.3c-0.7,0.8-0.8,2.1,0,2.7c0.5,0.4,1.2,0.3,1.8,0.2
			c0.7-0.1,1.4-0.4,1.9-0.9c0.5-0.5,0.7-1.4,0.2-1.9c-0.2-0.3-0.6-0.4-0.8-0.7c-0.2-0.3-0.2-0.8,0.1-0.9"/>
		<path class="st29" d="M41.6,128.2c-1.2-0.1-2.9,0.2-2.8,1.4c0,0.6,0.7,1.1,1.3,1.3c2.1,0.5,4.3-1.8,3.8-3.9
			c-0.3-1.3-2-2.3-2.8-1.3"/>
		<path class="st29" d="M26.9,138.1c-2.6,0.8-4.5,3.4-4.6,6c1.1-0.1,2.2-0.3,3.1-0.7c1-0.5,1.8-1.4,1.8-2.5c0-0.4-0.1-0.9,0.1-1.3
			c0.2-0.3,0.6-0.5,0.9-0.7c1-0.9,0.3-2.9-1-3"/>
		<path class="st29" d="M29,144c-1.3,0.8-2.6,1.9-2.9,3.4c-0.3,1.5,1,3.3,2.5,2.9c1.3-0.4,1.7-2.1,1.7-3.4c0-1.4,0-3,1.2-3.8"/>
		<path class="st29" d="M42.6,138c-2.4,0.4-3.8,3.6-2.5,5.7c0.9-0.3,1.9-0.3,2.6-0.9c1.5-1.2,0.6-3.6-0.4-5.2"/>
		<path class="st29" d="M30.2,157.1c-0.9,0.4-1.8,0.8-2.5,1.5c-0.7,0.7-1,1.9-0.5,2.7c0.1,0.2,0.2,0.3,0.4,0.4
			c0.2,0,0.4-0.1,0.6-0.3c1.6-1.4,3.3-3.3,2.7-5.3"/>
		<path class="st29" d="M37.7,151.9c-1.8,1.1-2.2,4-0.7,5.4c0.3,0.3,0.6,0.5,1,0.4c0.6-0.2,0.6-1.1,0.7-1.7c0-1.1,0.6-2.1,0.6-3.2
			c0-1.1-0.8-2.4-1.9-2.2"/>
		<path class="st29" d="M37.6,135.7c-1.8-0.2-3.6,0.5-4.8,1.9c1.9,1,4.4,0.1,5.4-1.7"/>
		<path class="st29" d="M49.4,146.2c-2,0.7-3.9,1.7-5.5,2.9c1.1,0.6,1.8,1.8,2,3c2.1-1.4,3.4-3.8,3.5-6.4"/>
		<path class="st29" d="M35.5,163.8c-2.5,0.4-4,3.8-2.6,5.9c2.2-0.8,3.3-3.8,2.1-5.8"/>
		<path class="st29" d="M42.7,160.2c-0.9,1.9-1.3,4-1.4,6c2.3-1.6,3.8-4.3,3.8-7"/>
		<path class="st29" d="M27.6,178.1c-0.9,0.4-1.8,0.8-2.5,1.5c-0.7,0.7-1,1.9-0.5,2.7c0.1,0.2,0.2,0.3,0.4,0.4
			c0.2,0,0.4-0.1,0.6-0.3c1.6-1.4,3.3-3.3,2.7-5.3"/>
		<path class="st29" d="M35.2,172.9c-1.8,1.1-2.2,4-0.7,5.4c0.3,0.3,0.6,0.5,1,0.4c0.6-0.2,0.6-1.1,0.7-1.7c0-1.1,0.6-2.1,0.6-3.2
			c0-1.1-0.8-2.4-1.9-2.2"/>
		<path class="st29" d="M33,184.7c-2.5,0.4-4,3.8-2.6,5.9c2.2-0.8,3.3-3.8,2.1-5.8"/>
		<path class="st29" d="M40.2,181.2c-0.9,1.9-1.3,4-1.4,6c2.3-1.6,3.8-4.3,3.8-7"/>
		<path class="st29" d="M20.4,151.7c-1.5,0.7-3,1.4-4.6,2.1c0.3,1.3,2.3,1.5,3.4,0.6s1.3-2.4,1.5-3.7"/>
		<path class="st29" d="M47,85c-1.1,1.2-2.1,2.5-3.2,3.7c1.4,0.1,2.9-0.1,4.3-0.7c0.2-0.1,0.5-0.2,0.6-0.4c0.4-0.6-0.3-1.5-1-1.8
			c-0.7-0.3-1.6-0.8-1.6-1.6"/>
		<path class="st29" d="M43.3,76.2c-0.9,1.2-1.4,2.6-1.5,4.1c1.2-0.2,2.4-0.4,3.6-0.7C45.6,78.3,44.7,76.7,43.3,76.2"/>
		<path class="st29" d="M51.7,160.7c-1.1,1.4-1.8,3.2-1.9,5c1.3,0.7,1.7,2.6,0.9,3.8c2.2,0.3,4.5-1.3,4.9-3.4c0.5-2.2-0.9-4.5-3-5.2
			"/>
		<path class="st29" d="M56.4,182.6c-0.8,1.8-1.6,3.6-2.4,5.4c-0.2,0.4-0.3,0.8-0.2,1.1c0.1,0.3,0.4,0.6,0.6,0.8
			c0.8,0.8,1.1,2,0.8,3.1c1.9-1.5,3.4-3.6,4.3-5.9c0.7-1.8,0.7-4.3-1.1-5c-0.8-0.3-1.8-0.3-2.2-1"/>
		<path class="st29" d="M64.4,167c-1.5,1.7-2.2,4.1-1.7,6.4c0.8,0,1.6-0.1,2.4-0.1c-0.1,0.4,0.2,0.9,0.6,1c1.2-1.1,2.5-2.3,3-3.8
			c0.5-1.6-0.1-3.6-1.6-4.1c-0.9-0.3-1.9-0.1-2.8-0.4"/>
		<path class="st29" d="M61.5,156.5c-0.7,0.6-1.4,1.3-1.6,2.3c-0.2,0.9,0.3,2.1,1.3,2.1c0.5,0,0.9-0.2,1.2-0.5
			c1.4-1.3,1.2-4-0.4-5.1"/>
		<path class="st29" d="M70.2,146.5c0.1,1.4-0.8,2.6-1.2,3.9c-0.4,1.3,0.1,3.1,1.4,3.3c1.5,0.1,2.2-1.7,2.2-3.2
			c0-1.5-0.5-3.2-1.9-3.6"/>
		<path class="st29" d="M76.4,158.3c-0.8,1.2-1.5,2.4-2.1,3.7c-0.3,0.5-0.5,1.1-0.3,1.7c0.4,1.2,2.5,1,3.1-0.2
			c0.6-1.2,0.2-2.6-0.2-3.8c-0.4-1.2-0.9-2.6-0.4-3.8"/>
		<path class="st29" d="M76.1,169.6c-0.6,0.9-1.1,1.8-1.1,2.8c0,1,0.9,2.1,1.9,1.9c0.6-0.1,1.1-0.6,1.4-1.2c0.4-0.6,0.8-1.2,0.8-2
			c0-0.7-0.5-1.5-1.2-1.5c-0.4,0-0.7,0.1-1.1,0.1c-0.4,0-0.7-0.4-0.5-0.7"/>
		<path class="st29" d="M84.8,166.8c-0.9,0.7-1.9,2.1-1.1,2.9c0.5,0.4,1.2,0.4,1.8,0c1.9-1,1.9-4.2,0.1-5.4c-1.1-0.7-3-0.3-2.9,1"/>
		<path class="st29" d="M80.6,149.9c-0.5,1.1,0.1,2.4,1,3.2c0.9,0.8,2.1,1.1,3.3,1.5c0.7-1.3,0.4-3-0.6-4c-1-1-2.7-1.3-4-0.6"/>
		<path class="st29" d="M81,184.2c-1.3,2.4-1,5.5,0.8,7.6c0.7-0.8,1.4-1.7,1.8-2.7c0.4-1,0.3-2.3-0.4-3c-0.3-0.3-0.7-0.6-0.8-1
			c-0.1-0.4,0.1-0.7,0.1-1.1c0.2-1.3-1.8-2.4-2.8-1.5"/>
		<path class="st29" d="M72.1,182.4c-1.8,3.1-3.2,6.5-4.1,10c1.3-0.8,2.7-1.8,3.3-3.3c0.7-1.7,0.3-3.7,1.2-5.2
			c0.3-0.5,0.8-0.9,1-1.5c0.3-0.5,0.3-1.3-0.2-1.6c-0.5-0.4-1.4,0.1-1.2,0.6"/>
		<path class="st29" d="M68.1,200.5c-0.3,1.1,0.4,2.4,1.6,2.6c1.2-0.3,2.1-1.8,1.7-3c-0.4-1.2-1.8-2-3.1-1.6"/>
		<path class="st29" d="M64,189.6c-1.2,2.6-2,5.3-2.4,8c1.7,0,2.4-2.2,2.2-3.9c-0.2-1.7-0.9-3.4-0.3-4.9"/>
		<path class="st29" d="M86.6,187c-0.4,1.5-0.6,3.2,0.2,4.5c0.8,1.3,3,1.7,3.8,0.4c0.7-1.2-0.2-2.7-1.1-3.7c-0.9-1-2-2.2-1.8-3.6"/>
		<path class="st29" d="M92.3,173.3c-1.5,2-0.3,5.3,2.1,5.9c0.4-0.8,1.2-1.5,1.3-2.5c0.3-1.9-2-3-3.9-3.6"/>
		<path class="st29" d="M87.1,175c-1.4,1.1-2.3,2.9-2.2,4.7c2-0.6,3.3-3,2.7-4.9"/>
		<path class="st29" d="M49.3,152c0.6,1.3,1.4,2.4,2.4,3.4c1-1.8,2-3.7,3-5.5c-2.1,0.2-4.2,0.7-6.2,1.5"/>
		<path class="st29" d="M58.8,143.2c0.2,0.8,0.3,1.7,0.5,2.5c0,0.2,0.1,0.5,0.3,0.6c0.2,0.2,0.6,0.2,0.8,0.1
			c1.4-0.3,2.7-1.2,3.4-2.4c0.2-0.3,0.3-0.7,0.1-1c-0.1-0.2-0.4-0.3-0.6-0.4c-1.4-0.4-2.9-0.4-4.3,0"/>
		<path class="st29" d="M57.1,173c0.3,1.9,1,3.7,1.9,5.3c1-0.8,1.5-2.2,1.1-3.4c-0.4-1.2-1.6-2.2-2.9-2.2"/>
		<path class="st29" d="M67.7,178.2c-1.6,0.9-3.1,2-4.6,3.2c1.2,1.1,2.3,2.2,3.5,3.4C67.2,182.6,67.6,180.4,67.7,178.2"/>
		<path class="st29" d="M82.8,159.3c-0.4,0.2-0.4,0.8-0.1,1.2c0.3,0.4,0.7,0.5,1.2,0.6c1.6,0.4,3.2,0.8,4.9,0.9
			c-0.6-2.2-3-3.7-5.2-3.3"/>
		<path class="st29" d="M90.6,151.2c-0.2,1.3-0.5,2.7,0.2,3.8c0.7,1.1,2.8,1.3,3.1,0c-1.1-1.6-2.6-2.9-4.4-3.7"/>
		<path class="st29" d="M74.2,142.9c-0.3,1.3-0.5,2.8,0.3,3.9c0.8,1.1,2.9,0.9,3-0.4c0.1-1.7-2.9-1.8-3.5-3.4"/>
		<path class="st29" d="M69,158.8c-1,1.2-2,2.5-3.1,3.7c1,0.1,2,0.1,2.9,0.2c0,0.4,0.1,0.8,0.1,1.2c-0.2-2.1,0-4.3,0.7-6.2"/>
		<path class="st29" d="M76.1,195.5c-0.5,1.6-1.1,3.2-1.8,4.8c1.2,0.1,2.5-0.1,3.6-0.6c-0.8-1.4-1.2-3.1-0.9-4.7
			c0.1-0.4,0.1-0.8-0.1-1.1c-0.2-0.3-0.9-0.3-0.9,0.1"/>
		<path class="st29" d="M85.6,198.5c-0.6,1.6-1.2,3.1-1.9,4.7c1.2,0.7,2.7-0.5,2.9-1.9c0.1-1.4-0.7-2.6-1.5-3.7"/>
		<path class="st29" d="M60.6,203.6c-1.1,1.2-2.1,2.5-3.2,3.7c1.4,0.1,2.9-0.1,4.3-0.7c0.2-0.1,0.5-0.2,0.6-0.4
			c0.4-0.6-0.3-1.5-1-1.8c-0.7-0.3-1.6-0.8-1.6-1.6"/>
		<path class="st29" d="M56.9,194.9c-0.9,1.2-1.4,2.6-1.5,4.1c1.2-0.2,2.4-0.4,3.6-0.7C59.2,196.9,58.3,195.4,56.9,194.9"/>
		<path class="st29" d="M33.4,82.7c-1.4,2.7-2.5,5.6-3.4,8.5c1.5,0,2.8-1.3,3.3-2.7c0.5-1.4,0.5-3,0.4-4.5"/>
	</g>
	<g class="st30">
		<path class="st29" d="M50.4,237.3c-2.4,4.2-4.1,8.7-5,13.5c2.9-2.5,4.9-6,5.6-9.8c0.2-1,0.2-2.2-0.7-2.7"/>
		<path class="st29" d="M60.6,234.1c-2.5,3.5-4.4,7.4-5.6,11.5c3.5-3.2,6-7.5,7.1-12.1"/>
		<path class="st29" d="M72.2,228.9c-2.5,2.3-4.3,5.5-4.9,8.8c3.3-2.1,4.5-6.2,5.5-9.9"/>
		<path class="st29" d="M61.7,249.3c-2.8,3.1-4.7,6.9-5.4,11c3.3-2.5,5.4-6.5,5.7-10.6"/>
		<path class="st29" d="M72.9,243.8c-1.9,1.9-3.2,4.3-3.9,6.9c0.3,0.5,1.1,0.2,1.6-0.1c2.1-1.7,3.7-3.9,4.5-6.5
			c-1-0.5-2.3-0.5-3.2,0.1"/>
		<path class="st29" d="M83.3,229.3c-2.1,3.6-4.1,7.2-6.2,10.8c3.3-3.5,6.1-7.5,8.2-11.9c-0.3-0.5-1.1-0.5-1.5-0.1"/>
		<path class="st29" d="M85.6,242.9c-2.5,2.4-4.3,5.5-5,8.9c3.5-1.8,5.7-5.7,5.6-9.6"/>
		<path class="st29" d="M96.3,230.2c-2.4,3-4.3,6.5-5.6,10.2c2.9-2.5,4.7-6.2,4.9-10"/>
		<path class="st29" d="M60.8,223.1c-1.9,1.7-3.3,3.8-4,6.2c1.5,0,2.9-0.9,3.9-2.1c0.9-1.2,1.4-2.7,2-4.1c0.1-0.3,0.2-0.6,0.2-0.9
			c-0.1-0.5-0.6-0.8-1.1-0.7c-0.5,0.1-0.8,0.6-0.7,1.1"/>
		<path class="st29" d="M56.1,266.2c-1.8,3.8-3.2,7.8-4.1,11.9c2.5-2.3,4.1-5.4,4.6-8.7c0.1-0.9,0.1-2-0.7-2.3"/>
		<path class="st29" d="M50.1,256.5c-1.3,2.7-2.5,5.3-3.8,8c1.1-0.9,2.1-1.9,2.9-3c1.2-1.5,2.1-3.8,0.9-5.3"/>
		<path class="st29" d="M66.3,256.5c-2,2-3.4,4.7-3.6,7.5c2.6-1.8,4-5.1,3.5-8.3"/>
		<path class="st29" d="M73.7,252.2c-1.5,2.4-2.5,5.1-2.9,7.8c2.6-1.9,4.1-5.1,4.1-8.2"/>
		<path class="st29" d="M93,220.7c-1.8,2.5-2.8,5.5-2.8,8.6c2.8-2.3,4.6-5.9,4.8-9.5"/>
		<path class="st29" d="M92.9,247.1c-2.3,2.9-3.9,6.5-4.5,10.2c1.9-0.6,2.7-2.9,2.9-4.9c0.2-2,0.2-4.2,1.5-5.7"/>
		<path class="st29" d="M99.4,234.7c-1.5,2.3-2.2,5.1-1.9,7.8c2.7-2.5,4.1-6.2,3.8-9.8"/>
		<path class="st29" d="M77.7,260.9c-1.9,2.9-3.4,6.1-4.4,9.4c3.8-2.4,6.7-6.3,7.7-10.7c-0.8-0.1-1.6,0.2-2.1,0.8"/>
		<path class="st29" d="M67.4,267.9c-2.3,3.2-4.1,6.7-5.3,10.4c2.8-2.3,4.6-5.7,4.9-9.3c0-0.4-0.5-1-0.7-0.6"/>
		<path class="st29" d="M60,289.3c-2.4,4.2-4.1,8.7-5,13.5c2.9-2.5,4.9-6,5.6-9.8c0.2-1,0.2-2.2-0.7-2.7"/>
		<path class="st29" d="M70.2,286.2c-2.5,3.5-4.4,7.4-5.6,11.5c3.5-3.2,6-7.5,7.1-12.1"/>
		<path class="st29" d="M81.8,281c-2.5,2.3-4.3,5.5-4.9,8.8c3.3-2.1,4.5-6.2,5.5-9.9"/>
		<path class="st29" d="M71.3,301.4c-2.8,3.1-4.7,6.9-5.4,11c3.3-2.5,5.4-6.5,5.7-10.6"/>
		<path class="st29" d="M82.5,295.9c-1.9,1.9-3.2,4.3-3.9,6.9c0.3,0.5,1.1,0.2,1.6-0.1c2.1-1.7,3.7-3.9,4.5-6.5
			c-1-0.5-2.3-0.5-3.2,0.1"/>
		<path class="st29" d="M92.9,281.4c-2.1,3.6-4.1,7.2-6.2,10.8c3.3-3.5,6.1-7.5,8.2-11.9c-0.3-0.5-1.1-0.5-1.5-0.1"/>
		<path class="st29" d="M95.2,294.9c-2.5,2.4-4.3,5.5-5,8.9c3.5-1.8,5.7-5.7,5.6-9.6"/>
		<path class="st29" d="M105.9,282.3c-2.4,3-4.3,6.5-5.6,10.2c2.9-2.5,4.7-6.2,4.9-10"/>
		<path class="st29" d="M70.4,275.2c-1.9,1.7-3.3,3.8-4,6.2c1.5,0,2.9-0.9,3.9-2.1c0.9-1.2,1.4-2.7,2-4.1c0.1-0.3,0.2-0.6,0.2-0.9
			c-0.1-0.5-0.6-0.8-1.1-0.7c-0.5,0.1-0.8,0.6-0.7,1.1"/>
		<path class="st29" d="M75.9,308.6c-2,2-3.4,4.7-3.6,7.5c2.6-1.8,4-5.1,3.5-8.3"/>
		<path class="st29" d="M83.3,304.3c-1.5,2.4-2.5,5.1-2.9,7.8c2.6-1.9,4.1-5.1,4.1-8.2"/>
		<path class="st29" d="M102.6,272.7c-1.8,2.5-2.8,5.5-2.8,8.6c2.8-2.3,4.6-5.9,4.8-9.5"/>
		<path class="st29" d="M102.5,299.1c-2.3,2.9-3.9,6.5-4.5,10.2c1.9-0.6,2.7-2.9,2.9-4.9c0.2-2,0.2-4.2,1.5-5.7"/>
		<path class="st29" d="M87.3,313c-1.9,2.9-3.4,6.1-4.4,9.4c3.8-2.4,6.7-6.3,7.7-10.7c-0.8-0.1-1.6,0.2-2.1,0.8"/>
		<path class="st29" d="M77,320c-2.3,3.2-4.1,6.7-5.3,10.4c2.8-2.3,4.6-5.7,4.9-9.3c0-0.4-0.5-1-0.7-0.6"/>
		<path class="st29" d="M89.4,262.4c-1.4,2.7-2.8,5.3-4.2,8c-0.5,1-1.1,2.2-0.5,3.2c3.7-2.8,5.9-7.4,5.7-12.1
			C89.9,261.6,89.5,261.9,89.4,262.4"/>
		<path class="st29" d="M94.6,266c-2.2,2.5-3.7,5.6-4.3,8.8c3.1-2.1,4.8-6.1,4.2-9.8"/>
		<path class="st29" d="M103.6,247.8c-2.9,3.5-5,7.6-6.2,11.9c3-1.7,5-5.1,5-8.6"/>
		<path class="st29" d="M103.9,257.4c-1.5,2-2.3,4.5-2.4,7.1c2-1.9,3.4-4.5,3.7-7.3"/>
		<path class="st29" d="M81.8,330c-1.9,2.3-3.1,5.2-3.3,8.2c2.1-1.7,3.2-4.7,2.6-7.3"/>
		<path class="st29" d="M89.4,325.4c-1.2,2.6-2,5.3-2.4,8.2c2.4-1.8,3.9-4.7,4.1-7.7c0-0.3,0-0.7-0.3-0.8c-0.3-0.2-0.7,0.2-0.5,0.4"
			/>
		<path class="st29" d="M96.4,319.1c-1.4,2.1-2.2,4.7-2.2,7.2c2.1-2.2,3.3-5.3,3.2-8.4c-0.4,0.1-0.8,0.4-1,0.8"/>
		<path class="st29" d="M92.3,335.7c-2.2,2.3-3.4,5.4-3.4,8.6c2.3-1.6,3.9-4.1,4.5-6.8c0.1-0.2,0.1-0.6-0.1-0.7
			c-0.2-0.2-0.6,0.2-0.3,0.3"/>
		<path class="st29" d="M57.9,281.5c-2.8,2.9-5,6.4-6.4,10.1c2.3-1,4.4-2.4,6.3-4.1c0.8-0.7,1.6-1.8,1.1-2.7
			c-0.8,0.1-1.6-0.3-1.9-1.1s0-1.6,0.7-2.1"/>
		<path class="st29" d="M81.7,219.9c-2.6,2.1-4.7,4.8-6.1,7.8c3.1-0.8,5.4-3.4,7.5-5.9c0.5-0.6,1.1-1.3,0.9-2.1
			c-0.1-0.8-1.4-1.2-1.7-0.5"/>
	</g>
</g>
</svg>
